<?xml version="1.0" ?><svg id="object" viewBox="0 0 32 32" xmlns="http://www.w3.org/2000/svg"><defs><style>.cls-1{fill:#6d6daa;}.cls-2{fill:#ffc661;}.cls-3{fill:#eef5fd;}</style></defs><title/><path class="cls-1" d="M2,31a1,1,0,0,1-.71-.29,1,1,0,0,1,0-1.42l5.52-5.51a1,1,0,1,1,1.41,1.41L2.71,30.71A1,1,0,0,1,2,31Z"/><path class="cls-1" d="M30,31a1,1,0,0,1-.71-.29l-5.51-5.52a1,1,0,1,1,1.41-1.41l5.52,5.51a1,1,0,0,1,0,1.42A1,1,0,0,1,30,31Z"/><circle class="cls-2" cx="8" cy="7.5" r="5.5"/><path class="cls-1" d="M8,14a6.5,6.5,0,1,1,6.5-6.5A6.51,6.51,0,0,1,8,14ZM8,3a4.5,4.5,0,1,0,4.5,4.5A4.51,4.51,0,0,0,8,3Z"/><circle class="cls-2" cx="24" cy="7.5" r="5.5"/><path class="cls-1" d="M24,14a6.5,6.5,0,1,1,6.5-6.5A6.51,6.51,0,0,1,24,14ZM24,3a4.5,4.5,0,1,0,4.5,4.5A4.51,4.51,0,0,0,24,3Z"/><circle class="cls-3" cx="16" cy="17" r="13"/><path class="cls-1" d="M16,31A14,14,0,1,1,30,17,14,14,0,0,1,16,31ZM16,5A12,12,0,1,0,28,17,12,12,0,0,0,16,5Z"/><path class="cls-1" d="M20.24,21.24a1,1,0,0,1-.71-.29l-4.24-4.24A1,1,0,0,1,15,16V10a1,1,0,0,1,2,0v5.59L21,19.53A1,1,0,0,1,21,21,1,1,0,0,1,20.24,21.24Z"/></svg>