<?xml version="1.0" ?><svg id="Icons" viewBox="0 0 128 128" xmlns="http://www.w3.org/2000/svg" xmlns:xlink="http://www.w3.org/1999/xlink"><defs><style>.cls-1{fill:url(#New_Gradient_Swatch_1);}</style><linearGradient gradientUnits="userSpaceOnUse" id="New_Gradient_Swatch_1" x1="4" x2="124" y1="64.43" y2="64.43"><stop offset="0" stop-color="#67a3ff"/><stop offset="1" stop-color="#418cff"/></linearGradient></defs><path class="cls-1" d="M123.42,79.15a23.85,23.85,0,0,0-17.66-17.64c.09-1.07.14-2.14.14-3.21,0-20.64-17.44-37.43-38.89-37.43-17.82,0-33.31,11.86-37.64,28.18C14.82,51.7,4,63.78,4,78.24,4,94.65,18.06,108,35.35,108c.29,0,.59,0,.87,0s.42,0,.64,0h63.33A23.88,23.88,0,0,0,118,100.06,23.42,23.42,0,0,0,123.42,79.15Z"/></svg>