<?xml version="1.0" ?><svg data-name="Layer 1" id="Layer_1" viewBox="0 0 512 512" xmlns="http://www.w3.org/2000/svg"><title/><path d="M150.54,210.24H343.73l-57.39,57.38A7.35,7.35,0,1,0,296.74,278l69.93-69.92a7.22,7.22,0,0,0,1.59-2.37,7.37,7.37,0,0,0,.57-2.83,7.3,7.3,0,0,0-.57-2.83,7.16,7.16,0,0,0-1.59-2.38l-69.93-69.92a7.35,7.35,0,1,0-10.4,10.4l57.39,57.37H150.54a7.36,7.36,0,1,0,0,14.71Z"/><path d="M424.19,43.69H87.81A49.69,49.69,0,0,0,38.18,93.32v250a49.68,49.68,0,0,0,49.63,49.63H211V453.6H166.85a7.36,7.36,0,0,0,0,14.71h178.3a7.36,7.36,0,0,0,0-14.71H301V392.94H424.19a49.68,49.68,0,0,0,49.63-49.63v-250A49.69,49.69,0,0,0,424.19,43.69ZM87.81,58.4H424.19a35,35,0,0,1,34.93,34.92V317.67H52.88V93.32A35,35,0,0,1,87.81,58.4ZM286.33,453.6H225.67V392.94h60.66Zm137.86-75.36H87.81a35,35,0,0,1-34.93-34.93V332.38H459.12v10.93A35,35,0,0,1,424.19,378.24Z"/><path d="M424.32,345.45H398a7.36,7.36,0,0,0,0,14.71h26.31a7.36,7.36,0,0,0,0-14.71Z"/></svg>