<?xml version="1.0" ?><svg viewBox="0 0 1000 1000" xmlns="http://www.w3.org/2000/svg"><path d="m184.28 351.83c-4.66 13.45-17.72 21.58-31.23 24-15.39 2.78-30.44-2.71-42.77-11.79-13.68-10.04-24.28-24.11-32.92-38.61a188.27 188.27 0 0 1 -20.71-50.29c-1.09-4.34-2-8.73-2.72-13.14-.38-2.27-.69-4.54-1-6.82a16.76 16.76 0 0 0 -1.82-6.11c-2.1-3.64-6.19-5.51-9-8.55a24.3 24.3 0 0 1 -5.66-10.91 23.33 23.33 0 0 1 -.56-6.06 1.33 1.33 0 0 0 -1.32-1.32 4.52 4.52 0 0 0 -4.14 3.44 1.2 1.2 0 0 0 2.31.64 2.12 2.12 0 0 1 1.83-1.45l-1.31-1.31a26.67 26.67 0 0 0 10.4 22.1c1.71 1.33 3.63 2.63 4.81 4.49a15.72 15.72 0 0 1 1.83 6.46c.62 4.63 1.38 9.24 2.34 13.81a184.06 184.06 0 0 0 19.58 52.51c8.62 15.31 19.39 30.26 33.27 41.23 12.52 9.89 28.05 16.61 44.25 14.74 13.85-1.61 27.89-9 34.3-21.85a34.18 34.18 0 0 0 1.96-4.74c.35-1.08-1.33-1.53-1.7-.47z"/><path d="m25.7 217.4a8.48 8.48 0 0 1 9.57-3.51c1.15.38 1.64-1.43.5-1.8a9.88 9.88 0 0 0 -11.47 4.5.81.81 0 0 0 1.4.81z"/><path d="m43.18 202.16a13.21 13.21 0 0 0 -10 .52 1 1 0 1 0 1 1.66 12.3 12.3 0 0 1 8.61-.55c1.05.32 1.46-1.27.45-1.63z"/><path d="m44.45 185.54c3-.34 5.1 2.12 6.93 4.1a52.64 52.64 0 0 1 5 6.33 54.6 54.6 0 0 1 4 6.93c.85 1.81 1.56 5 4.12 4.87a1.13 1.13 0 0 0 0-2.26c-.74-.06-1.35-2.27-1.59-2.8-.57-1.24-1.19-2.45-1.85-3.64a53.38 53.38 0 0 0 -4.48-6.75 47.64 47.64 0 0 0 -5.51-6c-1.8-1.63-4.31-3.33-6.81-2.34-.77.3-.77 1.7.21 1.58z"/><path d="m64.08 230.63a12 12 0 0 1 2.77-10.33 1 1 0 0 0 -.43-1.64c-2.66-.67-5.78-1.5-7.48-3.84-1.43-2-1.68-5.14.86-6.34 2.14-1 4.87-.43 7.09 0a37.11 37.11 0 0 1 6.69 1.94c4 1.63 8.17 4.4 9.49 8.77 1.74 5.73-1.8 11.52-2 17.26s2.38 11.39 5.33 16.31c3.24 5.37 6.9 10.52 10.5 15.66q11 15.68 23.14 30.5c4.44 5.42 9.12 10.64 13.6 16a59.71 59.71 0 0 1 5.61 7.8 35.64 35.64 0 0 1 3.59 8.9c.33 1.24 2.48 1 2.31-.31-.77-6.07-4.26-11.41-8-16.13-4-5.12-8.45-9.9-12.61-14.9q-13.4-16.08-25.49-33.17c-3.87-5.47-7.86-11-11.23-16.76a34.52 34.52 0 0 1 -3.8-8.8 20.48 20.48 0 0 1 .09-9.78c1.29-5.59 3-11.4-.46-16.58-2.68-4-7.17-6.31-11.63-7.74a36.78 36.78 0 0 0 -8.3-1.71c-2.73-.2-5.85.31-7.38 2.86s-.72 5.7 1 7.78c2.08 2.49 5.42 3.44 8.46 4.13l-.43-1.64a13.87 13.87 0 0 0 -3 12.15c.25 1 1.79.59 1.58-.43z"/><path d="m415.71 366.2q10.13 21.15 20.23 42.29c3.15 6.58 6.76 13.13 8.55 20.25a26.64 26.64 0 0 1 .68 10.73c-.56 3.48-1.89 6.77-2.71 10.19-1.32 5.51-1 13.5 5.09 16.07 1.21.51 1.82-1.36.85-2-5.13-3.47-4.6-9.9-3.14-15.18a60.5 60.5 0 0 0 2.42-10.09 29.68 29.68 0 0 0 -.9-10.1c-1.73-6.89-5.18-13.26-8.28-19.61q-4.92-10.08-9.91-20.12l-11.45-23.25c-.47-1-1.89-.12-1.43.84z"/><path d="m449.45 454.42c.38 2.33-.14 4.65-.49 6.95a18 18 0 0 0 -.07 5.94 14.63 14.63 0 0 0 5.59 9.37c1 .65 2-.77 1.21-1.57a19 19 0 0 1 -3.38-4.2 13.57 13.57 0 0 1 -1.58-5c-.42-4 1.09-7.91.28-11.88-.21-1-1.72-.58-1.56.42z"/><path d="m459.72 459.8a11.56 11.56 0 0 0 2.54 12c.86.9 2.23-.47 1.36-1.35a10.16 10.16 0 0 1 -2.32-10.19c.33-1-1.22-1.4-1.58-.43z"/><path d="m469.49 458.36a12.2 12.2 0 0 0 4.44 12.77 1 1 0 0 0 1.32-.34 1 1 0 0 0 -.35-1.32 10.61 10.61 0 0 1 -3.84-10.67.82.82 0 0 0 -1.57-.44z"/><path d="m482 466.07c2.44-8.57 4.84-17.91 1.93-26.68-1.39-4.2-3.9-7.88-6-11.73a62.4 62.4 0 0 1 -5-12.27c-4.8-16.06-4.94-33.21-11.63-48.74-3.3-7.65-8.3-15.14-15.49-19.57-1.52-.94-2.77 1.34-1.38 2.35a43 43 0 0 1 13.62 16.69 89.27 89.27 0 0 1 6.54 21.33c1.66 8.48 2.81 17.06 5 25.43a75.93 75.93 0 0 0 4.13 11.88c1.77 3.92 4.18 7.47 6.15 11.28a28 28 0 0 1 3 14.52 86.67 86.67 0 0 1 -2.5 15.07.83.83 0 0 0 1.6.44z"/><path d="m390.18 768.76 52.37 34.24c3.83 2.5 7.86 5.24 9.64 9.44 2 4.72 1.33 11.29 5.83 13.77 4.42-2.68 6.34-8 8-12.9q5.88-18 11.77-35.91a3.17 3.17 0 0 0 -1.12-4.36q-33.94-29-68.71-57"/><path d="m389.74 769.51c11.3 7.53 22.58 15.1 33.93 22.56l16.6 10.93c4.46 2.94 9.6 5.91 11.26 11.33 1.38 4.52 1.26 10.31 5.86 13a1.26 1.26 0 0 0 1.26 0c3.3-2.08 5.32-5.36 6.8-8.89 1.75-4.23 3-8.69 4.42-13l4.88-14.89 2.32-7.09 1.24-3.78a17.73 17.73 0 0 0 1-3.55c.26-2.37-1.53-3.63-3.14-5l-5.79-4.93q-5.81-4.92-11.63-9.81-11.75-9.92-23.53-19.69c-8.82-7.3-17.54-14.84-26.7-21.71-1.1-.83-2.52 1-1.48 1.92 7.35 6.35 15.1 12.29 22.62 18.44s15 12.35 22.5 18.6 14.89 12.53 22.29 18.85a10.18 10.18 0 0 1 2.24 2.05c.63 1.06-.32 2.82-.67 3.88l-2.25 6.85-4.66 14.18c-1.64 5-3.21 10-4.93 15-1.37 3.93-3.13 8.09-6.79 10.39h1.26c-3.86-2.25-3.57-8-4.8-11.81-1.67-5.15-6-8.33-10.34-11.18q-16.78-11-33.67-21.81l-19.21-12.35c-1-.62-1.82.89-.89 1.51z"/><g fill="#18c4ff"><path d="m421.7 787.38c.64.76.8 1.83-.21 2.32a2.92 2.92 0 0 1 -2.83-.28 1.41 1.41 0 0 1 -.32-2.17 4.63 4.63 0 0 1 3-.77 7.78 7.78 0 0 0 3.73-.89 5.67 5.67 0 0 0 2.28-2.74 3.08 3.08 0 0 0 -.89-3.58 5.5 5.5 0 0 0 -3.23-1.68 3.18 3.18 0 0 0 -3.34 2 5.49 5.49 0 0 0 .5 4c.55 1.24 2.61.36 2.19-.92-.21-.64-.9-2.1-.23-2.66s1.76.15 2.28.62c.34.29.78.58.7 1a2.76 2.76 0 0 1 -.67 1.29 4.09 4.09 0 0 1 -3.1 1.22 9.18 9.18 0 0 0 -3.74.77 3.53 3.53 0 0 0 -2 2.57c-.44 2.9 2.52 4.69 5.09 4.31a3.73 3.73 0 0 0 2.87-1.88 3.47 3.47 0 0 0 -.86-3.84c-.76-.82-1.91.38-1.21 1.21z"/><path d="m428.21 793.36a27.85 27.85 0 0 1 2-4.23 43.73 43.73 0 0 1 2.7-4c.65-.89-.8-2-1.53-1.17a24.55 24.55 0 0 0 -4.87 8.89.87.87 0 0 0 .6 1.06.88.88 0 0 0 1.07-.6z"/><path d="m433.63 797c.63-1.41 1.32-2.8 2.08-4.14s1.64-2.62 2.53-3.89c.61-.88-.83-2-1.51-1.16a27.12 27.12 0 0 0 -4.58 8.56c-.27.86 1.1 1.47 1.48.63z"/><path d="m439.48 799.82a22.06 22.06 0 0 1 3-7.44 1 1 0 0 0 -.35-1.37 1 1 0 0 0 -1.37.36 18.87 18.87 0 0 0 -3.09 8 1 1 0 0 0 .65 1.14.93.93 0 0 0 1.14-.64z"/></g><path d="m253.5 342.1c-27.43 74-77.33 140.9-86.16 219.29-2.15 19.09-1.72 38.71 3.87 57.09 9.31 30.59 32.06 55.26 56.63 75.72a391.56 391.56 0 0 0 75.6 49.38c21.11 10.53 43.27 19.21 62.94 32.23 6.05 4 12 8.48 18.9 10.65s15.29 1.53 20.33-3.7c7.38-7.63 4.36-20.44 8.62-30.16 6.86-15.68 31.1-20.59 33.17-37.58 2.11-17.3-21.31-28.62-22-46-.27-7.29 3.59-14 5.82-20.94s2.21-15.86-3.75-20.07c-6.64-4.69-16.09-.58-23.82-3.12-14.36-4.72-13.19-27-25.12-36.29-9.66-7.52-23.43-3.65-35.55-2a87.05 87.05 0 0 1 -58.83-13.12c-3.08-2-6.16-4.34-7.71-7.67a20.1 20.1 0 0 1 -1.42-8.3c-.34-24.73 8.87-48.48 18-71.49 10.7-27.11 21.48-54.41 26.89-83s5.17-59-5.75-86.05" fill="#fff"/><path d="m252.62 341.85c-14.89 39.62-35.79 76.56-53.66 114.84-17.55 37.58-32.73 77.61-34.23 119.53-.77 21.62 3 43 13 62.26 9.16 17.61 22.41 32.84 36.89 46.27a368.26 368.26 0 0 0 51.25 39.35c18.64 12 38.28 21.82 58.35 31.13 10.18 4.72 20.35 9.5 30.13 15 4.77 2.69 9.4 5.59 13.95 8.65 4.35 2.92 8.71 5.86 13.57 7.86 7.76 3.19 17.77 3.62 24.27-2.52s6.05-15.75 7.41-23.87a26.54 26.54 0 0 1 4.3-11.25 40.36 40.36 0 0 1 7.85-7.87c5.6-4.49 11.93-8.22 16.85-13.51 4.64-5 7.28-11.34 6.17-18.19-1.16-7.13-5.88-13.06-10.22-18.56-4.54-5.74-9.76-11.76-11.23-19.15-2-10.11 5.3-18.9 6.6-28.59 1.08-8-1.68-16.67-10.37-18.66-8.3-1.91-17.81 2.17-24.68-4.45-5-4.86-7.05-12.23-9.69-18.5-2.93-6.94-6.78-13.72-14-16.92-8.4-3.74-18-2-26.76-.58-10.43 1.67-20.75 2.19-31.21.38a85.74 85.74 0 0 1 -29.79-11c-4.43-2.67-9.15-5.66-10.3-11.06s-.47-11.63.09-17.1c2.33-23 11.71-44.68 20.09-66 16.47-41.9 32.39-86.39 26.29-132.14a127.15 127.15 0 0 0 -8.11-30.67c-.64-1.6-3.25-.9-2.61.72 16.93 42.31 7.46 89.29-7 130.76-7.52 21.48-16.93 42.28-24.08 63.88a163.57 163.57 0 0 0 -7.58 32.59c-1.07 9.3-2.66 20.8 5.27 27.54 7.48 6.35 17.43 10.59 26.76 13.35a88.17 88.17 0 0 0 30.08 3.5c9.6-.56 19-3.53 28.69-3.19 4.72.17 9.45 1.38 13.13 4.47a26.34 26.34 0 0 1 6.27 8.47c3.19 6.28 5 13.28 8.78 19.26 4.11 6.47 10.08 9.41 17.71 9.39 4.69 0 10-1 14.39 1.1 4.14 2 5.77 6.43 5.87 10.79.22 9.7-6.36 17.84-7.1 27.39-1.23 15.66 14.19 25.22 20.14 38.11a18.1 18.1 0 0 1 -2.29 19.44c-4.5 5.64-10.92 9.46-16.57 13.82-5.48 4.24-10.67 9.12-13 15.81-2.87 8.09-1.2 17.62-5.55 25.2-5.34 9.28-17.57 8.2-25.88 4.12a113.57 113.57 0 0 1 -13-8.12q-6.71-4.49-13.77-8.4c-19.34-10.8-40-19-59.53-29.45a389.08 389.08 0 0 1 -55-35.58c-31.55-24.44-62.23-54.95-69.78-95.74-4-21.74-2-44.39 2.51-65.9 4.11-19.83 10.63-39.09 18.3-57.81 15.73-38.36 36.2-74.53 52.8-112.49 3.92-9 7.63-18 11-27.25.4-1.11-1.36-1.58-1.76-.49z"/><path d="m181.3 790.9-13.83 61c-1 4.46-2.17 9.19-5.49 12.33-3.72 3.53-10.12 5.18-10.87 10.26 4 3.2 9.7 3.15 14.86 3l37.77-1.49a4.26 4.26 0 0 0 2.59-.68 4.19 4.19 0 0 0 1.1-1.89q15.33-41.92 29.46-84.28"/><path d="m180.46 790.67c-3.11 13.21-6.27 26.41-9.3 39.63l-4.55 19.85c-1.18 5.16-2.24 10.87-6.73 14.25-3.67 2.75-9.09 4.69-10 9.79a1.33 1.33 0 0 0 .57 1.41c3.28 2.5 7.44 3.13 11.46 3.19 4.82.07 9.66-.3 14.47-.49l15.15-.61 7.71-.31 3.47-.13a10.23 10.23 0 0 0 3.4-.45c2-.8 2.48-3.09 3.15-4.92l2.52-7q2.61-7.2 5.17-14.4 5.09-14.28 10.08-28.61 2.81-8 5.55-16.09c1.86-5.44 3.83-10.87 5.46-16.38.45-1.53-1.82-2.1-2.36-.65-3.38 9.08-6.24 18.39-9.37 27.56s-6.31 18.34-9.55 27.49-6.45 18.2-9.76 27.2a10.5 10.5 0 0 1 -1.26 3.14c-.7.84-2.27.62-3.25.66l-7.21.28-14.66.57c-5.35.21-10.7.47-16.06.62-4.45.13-9.15 0-12.83-2.83l.58 1.41c.75-4.36 5.94-6.1 9.08-8.48 4.32-3.27 5.93-8.26 7.09-13.34 3-13.17 5.91-26.37 8.79-39.56l4.87-22.33c.24-1.1-1.43-1.58-1.69-.47z"/><path d="m268.3 359.31-103.41 431.14c-.73 3-1.46 6.27-.54 9.26 1.42 4.63 6.29 7.26 11 8.57a41.57 41.57 0 0 0 22.8-.11c4.86-1.41 9.45-3.71 14.41-4.72 11.8-2.4 23.83 2.79 35.88 2.61a41.23 41.23 0 0 0 35.88-23.17c2.61-5.56 4-11.84 8-16.53 5.43-6.4 14.28-8.38 21.92-11.86 13-5.91 23.95-18.68 23.05-32.9-.88-13.86-12.54-26.15-10.44-39.88s17.17-22.32 20.74-35.8c4.37-16.55-9.73-31.57-16.32-47.37-9.35-22.4-3.42-48-6.75-72.09-.68-4.86-1.74-9.71-1.55-14.62.47-12.29 8.53-22.74 15.18-33.09 24.3-37.87 31.67-90.37 5.51-127" fill="#fff"/><path d="m248.3 439q-13.53 55.37-26.91 110.77-13.39 55.23-26.6 110.4l-26.56 110.4-3.3 13.75c-1 4-2.42 8.2-2.4 12.34 0 7 6 11.06 12.1 12.87a42.94 42.94 0 0 0 24.25-.14c4.17-1.26 8.13-3.14 12.36-4.23a37.55 37.55 0 0 1 13.41-.65c8.36.88 16.61 3.32 25.08 2.89a41.9 41.9 0 0 0 19.1-5.84 43.09 43.09 0 0 0 14.38-13.85c4.1-6.48 5.18-14.78 10.29-20.61 4.94-5.64 12.63-7.64 19.3-10.43a46.65 46.65 0 0 0 16.8-11.62 34.27 34.27 0 0 0 8.85-17.81c1-7-1-13.71-3.63-20.14-2.72-6.61-6.35-13.35-6.76-20.63-.39-7 2.85-12.91 6.94-18.32 3.87-5.13 8.38-9.85 11.43-15.55a28.22 28.22 0 0 0 2.83-18.91c-2.91-15.12-14.4-26.94-18.76-41.59-4.83-16.26-3.07-33.52-3.5-50.24-.12-4.34-.36-8.68-.87-13s-1.45-8.73-1.77-13.14c-.61-8.38 2.33-16 6.48-23.12 3.92-6.73 8.57-13 12.41-19.78a145 145 0 0 0 9.19-19.54c10.16-26.52 12.94-57.3 2.25-84.11a87.49 87.49 0 0 0 -9.83-18.17c-1.08-1.52-3.61-.06-2.52 1.48 16.79 23.7 19.5 54 13.09 81.74a139.6 139.6 0 0 1 -16.13 39.93c-7.55 12.68-18.54 25-17.73 40.68.23 4.45 1.21 8.8 1.73 13.21.48 4 .69 8.1.79 12.16.21 8.31-.13 16.62 0 24.93a112.1 112.1 0 0 0 2.49 23.89c1.73 7.38 4.89 14.11 8.55 20.7 6.76 12.18 16.22 26.39 9.14 40.53-5.52 11-17.32 18.85-19 31.73-1.91 14.5 10 26.13 10.52 40.25.54 14.44-11.2 26.2-23.63 31.55-6.3 2.71-13.12 4.61-18.46 9.12-5.82 4.92-7.44 12.29-10.48 18.92a39.87 39.87 0 0 1 -33.16 22.77c-8.3.5-16.41-1.82-24.6-2.78a44.15 44.15 0 0 0 -11.71 0c-4.18.64-8.07 2.24-12 3.67-8.43 3.07-17.36 3.93-26.07 1.45-3.22-.92-6.69-2.43-8.75-5.2-2.62-3.52-1.42-7.92-.48-11.82q13-54.1 25.89-108.22 12.88-53.88 25.76-107.78t25.58-107.81l6.32-26.64c.25-1.07-1.39-1.52-1.65-.45z"/><path d="m268.3 360.16a.86.86 0 0 0 0-1.71.86.86 0 0 0 0 1.71z"/><path d="m248 194.18c-4.8 2.16-9.84 4.7-12.44 9.28a7 7 0 0 0 -.84 5.74c.7 1.87 3 3.15 4.81 2.21a13.53 13.53 0 0 0 -5.74 5.67 6.42 6.42 0 0 0 -.79 4.81c.49 1.6 2.29 2.85 3.85 2.27-1.27.27-2 1.64-2.39 2.87-.82 2.29-1.24 5.32.75 6.71a4 4 0 0 0 4.19-.07 11.63 11.63 0 0 0 3.18-3 8.88 8.88 0 0 0 .72 9.19 5 5 0 0 0 2.75 2 4.62 4.62 0 0 0 4.57-2.14 13.63 13.63 0 0 0 1.81-5 11.82 11.82 0 0 0 .35 4.44 4 4 0 0 0 3.17 2.81c1.84.16 3.43-1.5 3.86-3.3a11.83 11.83 0 0 0 -.44-5.46 3.13 3.13 0 0 0 5.42 2.95 5.62 5.62 0 0 0 .8-3.7 23.05 23.05 0 0 0 -2.31-9c.81 2.51 4.3 3.32 6.62 2.06s3.54-3.92 4-6.51a18.21 18.21 0 0 0 -3.9-15.01c1.05 1 3 .12 3.42-1.25a5.78 5.78 0 0 0 -.66-4.19c-2.37-5.17-6.71-10-12.38-10.62"/><path d="m247.49 193.33c-4.89 2.11-10.26 4.67-13 9.51-1.28 2.24-2 5.24-.58 7.6a4.9 4.9 0 0 0 6.26 2.08l-1.31-2.23c-3.27 1.73-6.34 4.89-7.2 8.59a5.78 5.78 0 0 0 1 5.15 4.41 4.41 0 0 0 4.54 1.45l-.73-2.64c-2 .57-2.93 2.45-3.53 4.3a8.28 8.28 0 0 0 0 6 4.7 4.7 0 0 0 5.11 2.5c2.42-.38 4.1-2.18 5.58-4l-2.29-1.76c-2.11 4.12-1.49 10.12 2.66 12.75a5.58 5.58 0 0 0 6.65-.71c2-1.72 2.72-4.35 3.27-6.83l-3.12-.43c-.11 2.22-.1 4.58 1.2 6.48a5 5 0 0 0 5 2.29 5.73 5.73 0 0 0 4.1-3.73c.85-2.25.33-4.72-.21-7a1.64 1.64 0 0 0 -3.14 0 4.75 4.75 0 0 0 8.15 4.54c1.59-1.88 1.4-4.57 1.11-6.86a25.62 25.62 0 0 0 -2.34-7.84c-.8-1.7-3.71-.5-3 1.28a6.13 6.13 0 0 0 6.71 3.82c3.18-.41 5.36-3 6.49-5.81 2.52-6.39.62-13.94-3.62-19.1l-2.45 2.45a4 4 0 0 0 6.16-1.59c1.24-2.79-.49-6-1.91-8.41-2.78-4.68-7.06-8.49-12.65-9-1.9-.17-2.37 3.09-.45 3.38a13.72 13.72 0 0 1 8.47 5.23 22.51 22.51 0 0 1 2.67 4.3 5 5 0 0 1 .76 2.78c-.07.4-.14.41-.39.65s-.48 0-.21.21a1.73 1.73 0 0 0 -2.45 2.45 16.45 16.45 0 0 1 3.43 13.65c-.42 1.94-1.3 4.2-3.18 5.15-1.27.65-3.58.51-4.16-1.05l-3.05 1.29a20.44 20.44 0 0 1 2.12 8.94c0 1-.26 2.32-1.51 2.46a1.51 1.51 0 0 1 -1.51-2.06h-3.14c.44 1.81 1.48 6-1.28 6.69-.93.22-1.71-.57-2.08-1.34a8.94 8.94 0 0 1 -.43-4.27c.08-1.77-2.73-2.18-3.11-.42a11.67 11.67 0 0 1 -1.64 4.64c-1 1.29-2.59 2-3.95.83-2.33-1.93-2.74-5.73-1.47-8.34.67-1.38-1.18-3.14-2.29-1.77a9.55 9.55 0 0 1 -3.2 3 2.11 2.11 0 0 1 -3-.86 5.47 5.47 0 0 1 .12-3.37c.25-1 .64-2.57 1.72-2.89a1.37 1.37 0 0 0 -.73-2.64 1.86 1.86 0 0 1 -2.19-1.3 5.15 5.15 0 0 1 .72-4 12.64 12.64 0 0 1 5.16-5.06c1.48-.8.18-2.92-1.31-2.23-2.06 1-3.35-1.81-3.19-3.42a9.91 9.91 0 0 1 2.76-5.31c2.72-3 6.45-4.83 10.06-6.53 1.16-.55.15-2.2-1-1.7z"/><g fill="#18c4ff"><path d="m307.4 219.75-38.25 4c-11.45 1.21-23.1 2.47-33.74 6.89-7.21 3-14 7.66-17.86 14.47-2.47 4.38-3.55 9.4-4.28 14.37-3 20.37-.21 42 10.34 59.67 4 6.76 9.39 13.84 8.11 21.61-.39 2.4-1.42 4.72-1.35 7.15.17 5.48 5.65 9.14 10.76 11.13 12.13 4.72 25.42 5.4 38.44 5.43s26.13-.5 39.15-1.64c11.93-1 24-2.62 35-7.32 3.37-1.44 7-3.64 7.63-7.25a17.06 17.06 0 0 0 -.32-5c-.85-6.65 1.39-13.25 3.11-19.73 6.2-23.25 11.1-50 4.5-73.09-2.11-7.39-4.94-14.73-9.75-20.72s-17-8.74-24.68-9.06"/><path d="m307.4 218.76-28.31 2.83c-8.85.89-17.76 1.57-26.55 3-15.12 2.51-32.4 8.47-38.23 24.14a56 56 0 0 0 -2.7 12.22 107.09 107.09 0 0 0 -.91 12.13 97.8 97.8 0 0 0 2.49 23.92 81.38 81.38 0 0 0 8.81 22.38c3.72 6.37 9.69 13.56 8.18 21.46-.41 2.15-1.21 4.21-1.32 6.42a10 10 0 0 0 1 4.86c1.46 3 4.3 5.24 7.19 6.81 7.18 3.92 15.81 5.47 23.85 6.39a208.74 208.74 0 0 0 26.82.85q14-.23 28-1.35c8.79-.71 17.64-1.6 26.23-3.68a78.27 78.27 0 0 0 12.41-4.06c3-1.29 6.28-3.11 7.83-6.15a9.74 9.74 0 0 0 .77-5.83 34.05 34.05 0 0 1 -.41-6.46c.26-4.46 1.58-8.79 2.76-13.07 2.22-8.14 4.09-16.4 5.54-24.71 2.91-16.58 4-34-.58-50.41-2.16-7.76-5.13-15.7-10.33-22-4-4.79-10.79-7-16.65-8.31a53.35 53.35 0 0 0 -9.08-1.26c-2.26-.1-2.25 3.41 0 3.51a45.32 45.32 0 0 1 17.58 4.05 17.48 17.48 0 0 1 6.64 5.28 46.22 46.22 0 0 1 5.76 10.44c6.07 15.05 6.95 31.25 5.19 47.24a194 194 0 0 1 -4.4 24.28c-1 4-2 7.94-3.11 11.89a67.81 67.81 0 0 0 -2.56 12.43 28.13 28.13 0 0 0 .2 6.22c.27 1.89.62 3.8-.42 5.51-1.71 2.83-5.42 4.16-8.34 5.27a101.83 101.83 0 0 1 -24.45 5.45 380.57 380.57 0 0 1 -52.72 2.31c-8.35-.2-16.72-.8-24.84-2.89a43 43 0 0 1 -10.71-4c-2.58-1.48-5.21-3.61-6-6.64-.46-1.88.07-3.75.55-5.57a20 20 0 0 0 .8-5.69 24.87 24.87 0 0 0 -3.21-10.61c-1.77-3.39-3.94-6.53-5.85-9.84a73 73 0 0 1 -5.01-10.52c-5.53-14.43-6.81-30.28-4.85-45.55 1-7.77 2.89-15.38 8.56-21.09 5.29-5.33 12.36-8.58 19.46-10.72 8.08-2.43 16.48-3.48 24.84-4.41q13.46-1.51 26.92-3l13.16-1.46c1.25-.14 1.28-2.12 0-2z"/><path d="m333.36 218.12c15-.15 29.08 8 39.85 18.47s18.91 23.28 28 35.27 19.48 23.53 33 30c7.79 3.71 16.65 5.8 22.88 11.77a24.11 24.11 0 0 1 7 21 7.35 7.35 0 0 0 -.19 2.42c.44 2.75 3.81 3.68 6.13 5.22 3.34 2.22 4.87 6.5 4.61 10.49s-2.07 7.73-4.26 11.08c-7.15 10.91-19 18.81-32 20.33s-26.71-3.67-34.8-13.9c-2-2.51-3.66-5.31-6-7.43-4.6-4.11-11.2-5.18-16.21-8.77-10.33-7.39-10.69-22.17-13.1-34.63-4.31-22.29-17.85-41.52-31.06-60"/><path d="m333.36 218.91c14.56.13 27.81 7.87 38.11 17.67 11.19 10.66 19.43 23.85 28.66 36.13 8.53 11.35 18.26 22.41 30.95 29.21 6.15 3.29 12.95 5.14 19.05 8.52s10.53 8.48 12.16 15.29c.81 3.4.52 6.53.13 9.95-.38 3.26 1.86 5.16 4.47 6.59a13.76 13.76 0 0 1 3.59 2.38 9.6 9.6 0 0 1 2.22 4 14.77 14.77 0 0 1 -1.21 10.13c-5.56 12.05-17.92 21.13-30.86 23.54s-27.06-2.34-35.49-12.51c-2.28-2.76-4.07-5.95-6.82-8.29a34 34 0 0 0 -8.88-4.94c-3-1.3-6.15-2.63-8.66-4.84a22 22 0 0 1 -5.12-6.89c-2.7-5.48-3.66-11.71-4.62-17.68a116.62 116.62 0 0 0 -4.57-20c-4.93-14.25-13-27.11-21.61-39.41q-3.18-4.56-6.45-9.05c-1.08-1.47-3.55-.08-2.48 1.45 8.91 12.68 18 25.35 24.4 39.57a93.24 93.24 0 0 1 6.75 21.64c1.12 6.29 1.79 12.7 3.62 18.85 1.75 5.87 4.69 11.36 9.72 15 5.76 4.2 13.31 5.06 18.06 10.73 2.29 2.74 4.14 5.77 6.68 8.31a38.71 38.71 0 0 0 8.11 6.17 41.92 41.92 0 0 0 19.42 5.57c13.76.42 27.17-6.47 35.81-17 4.47-5.44 8.67-12.36 7.45-19.68a12.5 12.5 0 0 0 -4.85-8.09c-2-1.42-6-2.28-5.7-5.33a41.69 41.69 0 0 0 .5-5.23 26 26 0 0 0 -.55-5 25.58 25.58 0 0 0 -4.08-9.46c-4.16-5.9-10.52-9.1-17-11.76-3.3-1.35-6.64-2.58-9.84-4.15a65.3 65.3 0 0 1 -9.47-5.75 95.25 95.25 0 0 1 -16-15.25c-10.2-11.88-18.35-25.37-28.7-37.12-9.67-11-21.93-20.74-36.52-23.86a45.29 45.29 0 0 0 -10.32-1 .8.8 0 0 0 0 1.59z"/></g><path d="m264.56 210.21 4 18.29a2.24 2.24 0 0 0 2.55 2.05 36.45 36.45 0 0 0 27.82-8.82 7.27 7.27 0 0 0 2.49-3.48 8.27 8.27 0 0 0 -.56-4.26 184.51 184.51 0 0 1 -7.35-34.08" fill="#fff"/><path d="m240.34 154.75c.33-2.95-.35-23.93 22.18-25.16a36.69 36.69 0 0 1 23.69 7.41 64.57 64.57 0 0 1 6.08 5.12c20.75 19.75 1.11 65.41-28.6 67.6-18.6 1.37-23.28-16.86-24.47-31.92-.61-7.71.26-15.41 1.12-23.05z" fill="#fff"/><path d="m263.69 208.53a18.75 18.75 0 0 1 -12.45-3.12 22 22 0 0 1 -7-9.51c-4-9.4-4.51-20.37-3.8-30.39.29-4.18.9-8.33 1.18-12.51a36 36 0 0 1 1-6.45c1.62-6.47 5.67-11.93 12.08-14.28a31 31 0 0 1 18-.55c7.29 1.85 13.42 6.05 18.83 11.16 1.06 1 2.68-.6 1.61-1.61-5-4.69-10.51-8.68-17-10.9a35.51 35.51 0 0 0 -18.34-1.37 21.69 21.69 0 0 0 -16.6 14.16 32.85 32.85 0 0 0 -1.74 8.07c-.3 3-.54 5.91-.85 8.87-1.16 11.39-1.21 23.4 2.64 34.35 1.59 4.53 4 9 7.76 12.07a20.62 20.62 0 0 0 14.68 4.26c1.46-.1 1.47-2.38 0-2.28z"/><path d="m255.36 166.16c-.31 1.6-.63 3.2-1 4.78a1 1 0 0 1 -.25.58c-.26.21-.63.34-.9.54a5.2 5.2 0 0 0 -1.57 1.63 4.77 4.77 0 0 0 -.32 4.21 5.15 5.15 0 0 0 1.16 1.75c.43.4 1.18.73 1.45 1.07a1.52 1.52 0 0 0 2.14 0 1.56 1.56 0 0 0 0-2.15c-.61-.76-1.63-.88-2-1.83a2.11 2.11 0 0 1 .76-2.38 3.37 3.37 0 0 0 1.19-1.48 7.66 7.66 0 0 0 .38-1.77c.17-1.51.32-3 .52-4.52a.83.83 0 0 0 -.56-1 .82.82 0 0 0 -1 .56z"/><path d="m292.53 169.19a1.81 1.81 0 0 0 -.8-.5 2.07 2.07 0 0 0 -1 0 2.51 2.51 0 0 0 -1.45.88 5.47 5.47 0 0 0 -.91 1.59 2.26 2.26 0 0 0 -.08.51 1.54 1.54 0 0 0 .06.52 1.31 1.31 0 0 0 1.42.95c.73-.1 1.07-.84 1.16-1.49a2.36 2.36 0 0 0 0-.53 1.6 1.6 0 0 0 -.19-.71 1.47 1.47 0 0 0 -.5-.49 1.14 1.14 0 0 0 -1.64.67 1.34 1.34 0 0 0 0 .77 1.69 1.69 0 0 1 0 .24v-.31a1.71 1.71 0 0 1 0 .32v-.3a2 2 0 0 1 -.09.35l.11-.26a.25.25 0 0 1 0 .07l1-.56h-.05.3-.05l.27.12.22.17.17.23a.43.43 0 0 1 0-.07l.11.27v-.14.3a1 1 0 0 1 0-.24v.29a3.31 3.31 0 0 1 .25-.75l-.11.25a3.14 3.14 0 0 1 .39-.69l-.16.2a2.27 2.27 0 0 1 .31-.31l-.19.15a1.94 1.94 0 0 1 .34-.21l-.22.1a2.11 2.11 0 0 1 .49-.14h-.23.31-.22a.9.9 0 0 1 .27.07l-.19-.08.13.07a.78.78 0 0 0 .94-1.23z"/><path d="m275.36 157.63a22.42 22.42 0 0 0 -4.54-2.14 21.59 21.59 0 0 0 -2.35-.66c-.44-.09-.88-.16-1.32-.22a6.24 6.24 0 0 0 -1.29-.1 1 1 0 0 0 -1 .89 1 1 0 0 0 .73 1.12c.77.2 1.63.21 2.42.34a20.76 20.76 0 0 1 6.53 2.2.83.83 0 0 0 .83-1.43z"/><path d="m244.27 158.46a13.19 13.19 0 0 1 2.9-1.42 11 11 0 0 1 1.6-.41l.43-.07h.26a3.37 3.37 0 0 0 1-.16 1 1 0 0 0 .69-.9 1 1 0 0 0 -.69-.9 4.46 4.46 0 0 0 -2.11.13 10.81 10.81 0 0 0 -1.74.51 11.23 11.23 0 0 0 -1.73.79 10.71 10.71 0 0 0 -1.58 1.19c-.69.59.21 1.76 1 1.26z"/><path d="m263.71 210.21a86.44 86.44 0 0 0 2.05 10.9l1 4.82c.32 1.49.39 3.71 1.57 4.83a5.12 5.12 0 0 0 3.15 1 32.85 32.85 0 0 0 4.86.14 37.77 37.77 0 0 0 8.72-1.39 35.63 35.63 0 0 0 15.41-8.66 7.4 7.4 0 0 0 2.06-3.32 9.11 9.11 0 0 0 -.56-4.89c-1.05-3.35-2-6.72-2.9-10.12a151.76 151.76 0 0 1 -4.29-23.65 1.3 1.3 0 1 0 -2.56.35c.93 6.3 2 12.6 3.35 18.81.7 3.11 1.48 6.21 2.34 9.28.39 1.38.79 2.76 1.21 4.13.46 1.54 1.29 3.28 1.19 4.92-.15 2.56-3.47 4.62-5.37 5.92a35.28 35.28 0 0 1 -23.06 6.1c-.76-.07-1.76 0-2.1-.83a13.83 13.83 0 0 1 -.53-2.33l-1.16-5.22a89.07 89.07 0 0 0 -2.72-11c-.3-.83-1.74-.79-1.66.22z"/><path d="m251.91 166.93a.08.08 0 0 1 0 0l-.09.22-.14.18s0 0 0 0l-.19.15h.06l-.22.1h-.25.07-.26.09l-.25-.11.27.12h.3-.28.09l-.25-.1h.06l-.21-.16a.46.46 0 0 1 .07.07l-.17-.21a.41.41 0 0 1 .07.11l-.11-.26a.65.65 0 0 1 .05.2v-.29a1.37 1.37 0 0 1 0 .35v-.3a1.11 1.11 0 0 1 -.07.26l.12-.27-.06.1.18-.23 1.12-.29.28.11.23.18.18.23a.08.08 0 0 1 0 0l.11.27s0 0 0 0a1.37 1.37 0 0 0 -.53-.69.83.83 0 0 0 -.43-.13.81.81 0 0 0 -.46 0l-.27.11a1.21 1.21 0 0 0 -.42.42l-.11.27a1.06 1.06 0 0 0 0 .61l.06.15.06.15.09.13a1.47 1.47 0 0 1 .1.13l.24.18.16.07.17.07a1.16 1.16 0 0 0 1.12-.3 1.58 1.58 0 0 0 .12-.15l.12-.16a1.53 1.53 0 0 0 .16-.37v-.05a2 2 0 0 0 .05-.34v-.13a4.35 4.35 0 0 0 -.06-.52 1.87 1.87 0 0 0 -.07-.22 2.52 2.52 0 0 0 -.15-.34 1.66 1.66 0 0 0 -.22-.3 1.37 1.37 0 0 0 -.18-.16 1.27 1.27 0 0 0 -.19-.13 2.52 2.52 0 0 0 -.29-.12h-.31-.07a1.35 1.35 0 0 0 -.29.05 2.77 2.77 0 0 0 -.26.1 2 2 0 0 0 -.23.18 1.33 1.33 0 0 0 -.24.33 1.09 1.09 0 0 0 -.1.25.73.73 0 0 0 0 .41.88.88 0 0 0 0 .16l.09.21a.66.66 0 0 0 .23.24.39.39 0 0 0 .19.12.67.67 0 0 0 .34.07h.23l.21-.09a.6.6 0 0 0 .25-.22.73.73 0 0 0 .16-.3z"/><path d="m271 166.93a.08.08 0 0 1 0 0l-.09.22a.05.05 0 0 1 0 0l-.14.18-.19.15h.06l-.22.1h-.26.08-.26.09l-.25-.11.27.12h.3-.28.09l-.25-.1h.06l-.21-.16.07.07-.17-.21a.41.41 0 0 1 .07.11l-.11-.26a1.17 1.17 0 0 1 0 .2v-.29a2 2 0 0 1 0 .35v-.3a2 2 0 0 1 -.07.26l.11-.27a.47.47 0 0 1 -.05.1l.18-.23 1.12-.29.28.11.23.18.18.23.12.27s0 0 0 0a1.37 1.37 0 0 0 -.53-.69.83.83 0 0 0 -.43-.13.8.8 0 0 0 -.46 0l-.27.11a1.21 1.21 0 0 0 -.42.42l-.11.27a1.06 1.06 0 0 0 0 .61l.06.15.06.15.09.13a1.47 1.47 0 0 1 .1.13l.24.18.16.07.17.07a1.16 1.16 0 0 0 1.12-.3l.12-.15.12-.16a1.53 1.53 0 0 0 .16-.37v-.05c0-.11 0-.23.05-.34v-.13a3 3 0 0 0 -.07-.52.9.9 0 0 0 -.06-.22 2.52 2.52 0 0 0 -.15-.34 2.32 2.32 0 0 0 -.22-.3l-.19-.16a1.18 1.18 0 0 0 -.18-.13 2.52 2.52 0 0 0 -.29-.12h-.31-.07a1.35 1.35 0 0 0 -.29.05 2 2 0 0 0 -.26.1 2 2 0 0 0 -.23.18 1.12 1.12 0 0 0 -.24.33 1.09 1.09 0 0 0 -.1.25 1.9 1.9 0 0 0 0 .25 1 1 0 0 0 0 .16.88.88 0 0 0 0 .16l.09.21a.66.66 0 0 0 .23.24.39.39 0 0 0 .19.12.67.67 0 0 0 .34.07h.23l.21-.09a.67.67 0 0 0 .25-.22.73.73 0 0 0 .16-.3z"/><path d="m264.7 190.55c-.05-.17 0 .18 0 0s0 .16 0 .06v-.12-.08.09a1.28 1.28 0 0 0 .16-.26c.06-.09-.13.15 0 0l.11-.12a7.65 7.65 0 0 1 .88-.83c.12-.09 0 0 0 0l.14-.1.23-.16c.17-.12.34-.22.52-.33l.54-.3.25-.12.15-.07c.17-.08-.21.09 0 0a1.06 1.06 0 0 0 .6-.46 1 1 0 0 0 -.36-1.36 1 1 0 0 0 -.77-.1 8.28 8.28 0 0 0 -1.43.71 9.62 9.62 0 0 0 -1.27 1 7.21 7.21 0 0 0 -1 1.19 2.29 2.29 0 0 0 -.33.79 1.43 1.43 0 0 0 .36 1.23.8.8 0 0 0 1.33-.77z"/><path d="m279.4 130.69c-2.76 4-5.56 8.11-9.13 11.46s-8 6-12.9 6.47a3.21 3.21 0 0 1 -2.42-.45 2.9 2.9 0 0 1 -.68-2.82 7.44 7.44 0 0 1 3.31-4.86 36.71 36.71 0 0 1 -14.66 10.51 10.64 10.64 0 0 1 -4.62 1 4.45 4.45 0 0 1 -3.83-2.41 5.06 5.06 0 0 1 -.08-3.33 10 10 0 0 1 8.17-7.2 9.16 9.16 0 0 1 -3.4 1 3.1 3.1 0 0 1 -2.93-1.63 3.3 3.3 0 0 1 -.13-1.87c.44-2.52 2.4-4.49 4.44-6a41.16 41.16 0 0 1 17.23-7.23c7.31-1.39 15.27-1.18 21.67 2.6a6.05 6.05 0 0 1 2.77 2.82c.46 1.26-.09 3-1.39 3.29"/><path d="m278.72 130.29c-3.71 5.18-7.58 10.56-13 14.05a18.93 18.93 0 0 1 -8.31 3.1c-.58.06-1.42.18-1.81-.37s-.12-1.55.06-2.13a6.31 6.31 0 0 1 2.58-3.38l-1.5-1.94a35.86 35.86 0 0 1 -7.44 6.69 28.08 28.08 0 0 1 -8.94 4.25 4.49 4.49 0 0 1 -4.22-.78c-1.23-1.22-.69-3.25 0-4.63a9 9 0 0 1 6.82-5l-.95-2.24c-1.26.55-4.6 1.75-4.69-.7-.07-1.76 1.33-3.43 2.52-4.55a30.61 30.61 0 0 1 10.07-6c7.09-2.66 15.5-4.06 23.09-2.15a21.94 21.94 0 0 1 5.88 2.38c1.16.69 3.79 3.07 1.45 4.14-1.13.51-.31 2.22.83 1.95a3.52 3.52 0 0 0 2.27-4.65c-.7-2.13-2.92-3.4-4.81-4.33a30.08 30.08 0 0 0 -14.91-2.71 47.74 47.74 0 0 0 -15.27 3.4c-4.39 1.8-9.44 4.38-12.18 8.43-1.31 1.94-2.21 5-.3 6.89 2.07 2 5 1.06 7.27.07 1.38-.6.3-2.43-.94-2.24a11.31 11.31 0 0 0 -8.44 6.4 7.4 7.4 0 0 0 -.52 5.64 5.42 5.42 0 0 0 3.85 3.13c3.89.93 8.37-1.56 11.62-3.47a38.61 38.61 0 0 0 9.7-8.17c.85-1-.25-2.77-1.5-1.94-2.52 1.68-5.29 5.76-3.46 8.85s7.27 1 9.74-.06c7.67-3.33 12.43-10.39 16.86-17.13.57-.86-.79-1.62-1.37-.8z"/><path d="m280.52 134.4a36.91 36.91 0 0 0 6.84 31 5.37 5.37 0 0 1 6.67-2.38c2.66 1.16 3.89 4.41 3.56 7.29s-1.9 5.45-3.5 7.86a4.86 4.86 0 0 0 -1 2.22 4.8 4.8 0 0 0 .24 1.59l2.64 9.81c7-9.54 12.44-20.79 12.58-32.64s-5.88-24.15-16.63-29.15c-3.39-1.57-7.57-2.31-10.72-.3"/><path d="m279.73 134.18a37.36 37.36 0 0 0 6.81 32.1 1.18 1.18 0 0 0 1.83-.24 4.13 4.13 0 0 1 6.45-1c2.11 2.1 1.9 5.4.89 8a24.11 24.11 0 0 1 -2.4 4.3c-.91 1.37-1.63 2.61-1.33 4.3.62 3.57 1.84 7.11 2.79 10.61a1.26 1.26 0 0 0 2.28.29c7.11-9.73 12.7-21.33 12.71-33.62 0-10.07-4.21-20.61-12.27-26.89-4.6-3.58-11.38-6.62-16.94-3.4-1.44.83-.11 3.11 1.31 2.23 4.44-2.75 10.3.19 14 3a28.71 28.71 0 0 1 8.47 10.92c4.39 9.53 3.57 20.34-.09 30a70.24 70.24 0 0 1 -9.33 16.54l2.27.29c-.58-2.18-1.15-4.36-1.75-6.53-.31-1.09-.62-2.17-.91-3.26a3.19 3.19 0 0 1 .6-2.9c1.93-3 4-6.38 3.67-10.14-.25-2.9-1.84-5.85-4.74-6.84a6.58 6.58 0 0 0 -7.68 3l1.83-.24a36.84 36.84 0 0 1 -6.88-30c.22-1-1.32-1.47-1.58-.44z"/><path d="m296.78 176a71.75 71.75 0 0 0 -10.22 17.53c-.66 1.63-1.26 3.43-.72 5.09s2.78 2.82 4.12 1.68a21.92 21.92 0 0 0 -4 7.86c-.47 1.71-.71 3.64.2 5.16s3.35 2.13 4.44.74a40 40 0 0 0 -2.81 6.64 16.18 16.18 0 0 0 -.91 7.59 7.53 7.53 0 0 0 4.44 5.89c2.41.88 5.56-.29 6.32-2.75a9.75 9.75 0 0 0 2.85 8.68 5.55 5.55 0 0 0 4.67 1.72c2.74-.54 4-3.7 4.73-6.39a11.05 11.05 0 0 0 5.19 6.87 7.75 7.75 0 0 0 4 1.11c3.77-.11 6.6-3.87 7-7.61s-.93-7.43-2.27-10.94a12.54 12.54 0 0 0 5.5 7.37 5.51 5.51 0 0 0 2.66.94 4.49 4.49 0 0 0 3.89-2.49 8.83 8.83 0 0 0 .81-4.74 17.64 17.64 0 0 0 -7.44-13.18 10.23 10.23 0 0 0 4.14 3.65c1.74.66 4.06.17 4.85-1.52a4.67 4.67 0 0 0 -.45-4c-2.91-5.75-9.75-8.32-16.14-9.16a10.82 10.82 0 0 0 5.1.69c1.7-.32 3.33-1.77 3.23-3.5a4.93 4.93 0 0 0 -1.07-2.43 18.9 18.9 0 0 0 -8.28-6.42c-.83-.34-2-.53-2.48.21a10 10 0 0 0 7.12-.23 2.31 2.31 0 0 0 1.19-.9c.55-1-.44-2.18-1.39-2.84a19.58 19.58 0 0 0 -16.5-2.66 5.36 5.36 0 0 0 2.67-.38 1.87 1.87 0 0 0 1-2.25 2.62 2.62 0 0 0 -1.84-1.21 33.93 33.93 0 0 0 -16.6-.51"/><path d="m296.23 175.47a62.12 62.12 0 0 0 -10.05 15.83c-1.11 2.47-2.66 5.61-1.33 8.28 1 2 3.77 3.3 5.76 1.87l-1.56-2c-2.55 3.21-5.2 7.77-4.87 12a5 5 0 0 0 2.84 4.38 3.9 3.9 0 0 0 4.54-.76l-2.19-1.68c-2.85 5.34-6.19 12.88-2.75 18.68a7.59 7.59 0 0 0 6.57 4 6.39 6.39 0 0 0 5.92-4.17l-3-.82c-.77 4.75 1.43 10.4 6.28 12.09 5.06 1.78 7.82-3.21 9-7.26h-3c1.55 5.89 8.68 11.92 14.72 7.89a10.81 10.81 0 0 0 4.55-7.5c.56-4.08-.84-8-2.26-11.81-.72-1.91-3.7-1.18-3.13.87a14.39 14.39 0 0 0 6.25 8.35 6.17 6.17 0 0 0 5.36.85 6.67 6.67 0 0 0 3.85-3.93c1.33-3.38.53-7.55-.83-10.8a19.7 19.7 0 0 0 -6.8-8.44c-1.31-.93-3.28 1-2.28 2.28 2.11 2.75 5 5.61 8.81 4.54a4.79 4.79 0 0 0 3.37-3.21 7.13 7.13 0 0 0 -1-5.38c-3.35-6-10.44-8.6-16.89-9.47-2.09-.28-3.06 2.62-.9 3.27 2.88.86 6.13 1.48 8.64-.63s2.12-4.92.4-7.25a20.89 20.89 0 0 0 -6.12-5.57c-2-1.16-5.22-3-7.15-.82a1.69 1.69 0 0 0 .74 2.79c2.8.91 6.53.93 9.08-.76a3.14 3.14 0 0 0 1.29-3.68 6.26 6.26 0 0 0 -2.84-3 21.39 21.39 0 0 0 -17.11-2.36 1.65 1.65 0 0 0 .44 3.23c2.24 0 4.76-.53 5.36-3 .65-2.73-2.1-3.81-4.2-4.33a36.21 36.21 0 0 0 -16.34-.2c-2.05.44-1.18 3.57.86 3.14a33.1 33.1 0 0 1 10.46-.54 30.08 30.08 0 0 1 5.05 1 4.29 4.29 0 0 1 .77.24c.25.13.28-.06.1.13-.44.47-1.5.32-2.06.31l.44 3.23a18.22 18.22 0 0 1 11.73.59 19.19 19.19 0 0 1 2.48 1.25 8 8 0 0 1 1.24.85 2.28 2.28 0 0 1 .43.5c.11.13.07.14-.11 0-.4.54-2.27.66-2.83.69a8.87 8.87 0 0 1 -3.35-.47l.73 2.79c.35-.38 3.12 1.36 3.6 1.66a17.68 17.68 0 0 1 3.94 3.48c.88 1.05 2.13 2.47.75 3.61s-3.87.39-5.52-.11l-.9 3.27c4.65.63 9.65 2 13 5.46 1.05 1.07 3.88 4.47 2.05 5.83-2.07 1.54-4.51-1.31-5.61-2.74l-2.28 2.27c4.18 3 7.13 8.38 6.62 13.59a4.41 4.41 0 0 1 -1.62 3.29c-1.21.86-2.46.28-3.58-.45a11 11 0 0 1 -4.44-6.2l-3.13.87c1.8 4.7 4.26 11.31-.28 15.3-4.18 3.67-9.47-1.48-10.56-5.58a1.59 1.59 0 0 0 -3 0c-.64 2.26-2 6.33-5.11 5.08s-4.62-5.16-4.12-8.26a1.55 1.55 0 0 0 -3-.82 3.39 3.39 0 0 1 -4 1.81 5.47 5.47 0 0 1 -3.59-3.91 12.69 12.69 0 0 1 .33-7 37.29 37.29 0 0 1 2.87-7.2c.71-1.34-1.07-2.91-2.18-1.68a1.47 1.47 0 0 1 -2.14-.26c-.89-1-.61-2.72-.33-3.9a20 20 0 0 1 3.75-7.7c.81-1-.26-3-1.56-2a1.39 1.39 0 0 1 -1.93-.4c-.75-.89-.49-2.24-.2-3.25a41.49 41.49 0 0 1 2.89-6.84 95.31 95.31 0 0 1 7.39-12.31c.5-.72-.64-1.61-1.23-.95z"/><g fill="#18c4ff"><path d="m174.89 826.86c-.48.83-1.36 1.49-2.22.75a2.85 2.85 0 0 1 -.78-2.87 1.41 1.41 0 0 1 1.82-1c1 .43 1.45 1.63 1.85 2.54a7.74 7.74 0 0 0 2 3 5.63 5.63 0 0 0 3.3 1.32 3 3 0 0 0 3-1.56 6 6 0 0 0 .76-3.9 3.24 3.24 0 0 0 -2.74-2.63 5.07 5.07 0 0 0 -3.92 1.76 1.22 1.22 0 0 0 0 1.69 1.23 1.23 0 0 0 1.7 0c.55-.43 1.8-1.64 2.48-.81s.13 2.09-.29 2.82-1.87.25-2.48-.11a5.39 5.39 0 0 1 -1.84-2.64c-.9-2.05-2.67-4.51-5.28-3.65s-3.08 4-1.93 6.14a3.7 3.7 0 0 0 3 2.1 3.48 3.48 0 0 0 3-2.09c.49-1-.93-1.83-1.47-.86z"/><path d="m171.43 835.12a29.38 29.38 0 0 1 4.68.41 43.91 43.91 0 0 1 4.62 1.15 1 1 0 0 0 1.19-.68 1 1 0 0 0 -.68-1.2 24.37 24.37 0 0 0 -9.81-1.41.87.87 0 0 0 0 1.73z"/><path d="m170.16 841.47c1.48.1 3 .25 4.45.49s3 .62 4.44 1a1 1 0 0 0 .51-1.86 26.47 26.47 0 0 0 -9.4-1.24.81.81 0 0 0 0 1.61z"/><path d="m169.55 847.9a21.6 21.6 0 0 1 7.77.26 1 1 0 0 0 .53-1.93 19.33 19.33 0 0 0 -8.79-.11.92.92 0 0 0 .49 1.78z"/><path d="m240.86 229.15c-21 7.47-37.47 23.64-52.6 39.94s-30 33.54-49.48 44.27c-6.35 3.49-13.24 6.35-18.31 11.53s-7.75 13.65-3.83 19.74c3.51 5.44 11 7.31 14.3 12.91 2.14 3.71 1.95 8.26 2.93 12.43a22.24 22.24 0 0 0 39.54 8.17c2.55-3.45 4.45-7.93 8.5-9.37 3.15-1.12 6.65 0 10-.36 5.45-.62 9.66-5.26 11.9-10.27s3-10.53 4.77-15.73c4.38-13 14.48-23.14 23.43-33.57s17.4-22.69 17.25-36.43"/><path d="m240.63 228.33c-26.54 9-45.13 31.34-63.68 51.14-9.58 10.22-19.57 20.28-31.25 28.11-5.75 3.86-12 6.69-18 10.17-5.54 3.25-10.55 7.42-13 13.52-2.25 5.62-1.73 12 2.61 16.43 3.84 3.95 9.9 5.87 12.58 10.9 1.63 3.08 1.68 6.75 2.26 10.11a23.43 23.43 0 0 0 3.25 8.58 24.47 24.47 0 0 0 13.8 10.43 23.93 23.93 0 0 0 17.4-2 23 23 0 0 0 7.09-5.68c1.89-2.29 3.2-5 5.13-7.26a9.22 9.22 0 0 1 2.82-2.34 10.39 10.39 0 0 1 5.36-.65c3.41.2 6.54.24 9.64-1.4 5.82-3.07 8.75-9.39 10.49-15.42 1-3.64 1.81-7.36 3.09-10.92a51.32 51.32 0 0 1 4.53-9.27 118 118 0 0 1 12.51-16.18c8.95-10.19 18.83-20.9 22.25-34.42a38.2 38.2 0 0 0 1.16-9.75 1.5 1.5 0 0 0 -3 0c0 13.59-8.38 25.4-16.87 35.31s-18 19.58-22.91 32c-2.58 6.51-3 13.92-6.62 20a16 16 0 0 1 -6.1 6.18c-3 1.61-6.2 1-9.49.95a10.83 10.83 0 0 0 -8.2 3.15c-1.91 1.93-3.23 4.36-4.75 6.58a21.46 21.46 0 0 1 -14.5 8.94 20.35 20.35 0 0 1 -16.16-4.74 22.15 22.15 0 0 1 -5.27-6.8 27.81 27.81 0 0 1 -2.34-8.93c-.43-3.05-1-6.18-2.68-8.8a21.75 21.75 0 0 0 -5.91-5.56 42.89 42.89 0 0 1 -6.56-4.95 10.88 10.88 0 0 1 -3.17-7.45c-.15-6.21 3.7-11.64 8.45-15.26 5.23-4 11.42-6.49 17.07-9.81 11.69-6.88 21.79-16.1 31.19-25.8 18.55-19.14 35.31-40.9 59.39-53.49a81.63 81.63 0 0 1 8.85-4c1-.38.6-2-.46-1.64z"/></g><path d="m344.43 282.49a40.92 40.92 0 0 1 12.44 12.85c3.59 5.6 6 11.73 8.62 17.78.52 1.18 2.51.34 2.08-.87-4.21-12.11-10.76-24.69-22.28-31.23a.85.85 0 0 0 -.86 1.47z"/><path d="m225.76 267.67a79.64 79.64 0 0 0 -5.38 24.33 77.46 77.46 0 0 0 .25 12.56c.41 4 .83 8.44 2.3 12.21.4 1 2.25 1 2.08-.28-.27-2-.82-4-1.18-6s-.64-3.94-.84-5.92a84.73 84.73 0 0 1 -.35-12.34 81.52 81.52 0 0 1 4.79-24.08c.38-1.06-1.27-1.48-1.67-.46z"/><path d="m470.13 410.89a59.52 59.52 0 0 1 -25.95 11.48 2.7 2.7 0 0 1 -2.2-.27c-.88-.76-.45-2.21-.82-3.31a2.8 2.8 0 0 0 -3-1.7 4.77 4.77 0 0 0 -3.08 1.92c-2.65 3.41-1.8 8.28-.82 12.49l1.51 6.46a7.8 7.8 0 0 0 1.45 3.49c1.14 1.29 3 1.67 4.66 1.91a60.85 60.85 0 0 0 35.81-6.05c2.69-1.37 5.4-3.08 6.84-5.73 1.63-3 1.35-6.61 1-10q-.83-7.37-2.09-14.67a5.12 5.12 0 0 0 -1.2-3 4.86 4.86 0 0 0 -2.42-1 31.73 31.73 0 0 0 -8.86-.52 80.5 80.5 0 0 1 -.69 8.49"/><path d="m469.7 410.14a61.82 61.82 0 0 1 -14.73 8 64.21 64.21 0 0 1 -7.77 2.33 13.93 13.93 0 0 1 -3.79.71c-.78-.07-.69-.39-.73-1.09a7.06 7.06 0 0 0 -.23-1.65c-.7-2.28-3.43-3.18-5.53-2.42a7.82 7.82 0 0 0 -4.48 5.26c-1.49 4.9.45 10.44 1.55 15.22.57 2.48 1 5.22 3.19 6.8 2.06 1.45 4.9 1.58 7.33 1.81a62.53 62.53 0 0 0 16.56-.72 61.82 61.82 0 0 0 16.17-5.24c4.68-2.26 9-5.26 9.82-10.76.47-3.23-.05-6.52-.45-9.73-.42-3.39-.91-6.78-1.45-10.16-.48-3-.89-5.86-4.22-6.81a29 29 0 0 0 -10-.75 1.52 1.52 0 0 0 -1.48 1.49 75.44 75.44 0 0 1 -.53 8.49c-.18 1.46 2.39 1.82 2.59.35.41-2.93.76-5.89.91-8.84l-1.49 1.48a32.47 32.47 0 0 1 8 .39c1.06.19 2.24.32 2.68 1.44a18.51 18.51 0 0 1 .77 3.78c.46 2.79.87 5.6 1.23 8.41a60.71 60.71 0 0 1 .74 8 9.57 9.57 0 0 1 -2.2 6.57 18.26 18.26 0 0 1 -5.58 3.81 58.75 58.75 0 0 1 -14.34 5 59.38 59.38 0 0 1 -15.11 1.18 29.33 29.33 0 0 1 -7.05-.87c-2.49-.76-2.74-3.11-3.27-5.34-.58-2.44-1.22-4.88-1.69-7.35a15 15 0 0 1 -.14-6.5c.41-1.59 2.19-4.9 4.32-3.74.91.5.68 1.6.82 2.48a3 3 0 0 0 1.36 2.24 4.77 4.77 0 0 0 3.47.21c1.4-.27 2.79-.59 4.16-1a57.74 57.74 0 0 0 7.56-2.62 58.82 58.82 0 0 0 14.07-8.46c.76-.61-.25-1.94-1-1.36z"/><path d="m273.05 239a159.93 159.93 0 0 0 -8 65.34c.64 7.44 1.95 14.78 3.23 22.13.76 4.36 1.49 8.74 2 13.15.27 2.5 1.87 10.27-2.35 10.39a1.16 1.16 0 0 0 -1 1.73 41 41 0 0 0 4.84 6.16v-1.7c-1.14 1-2.24 2-3.33 3s.48 2.42 1.56 1.56 2.33-1.9 3.46-2.89a1.22 1.22 0 0 0 0-1.7 37.72 37.72 0 0 1 -4.54-5.62l-1 1.73c3.33-.14 4.94-3.22 5.11-6.21a61.51 61.51 0 0 0 -.95-11.64c-1.07-7.91-2.74-15.73-3.79-23.65a164 164 0 0 1 6.49-71.35c.34-1.08-1.34-1.53-1.7-.46z" fill="#fff"/><g fill="#18c4ff"><path d="m305.2 376.6c5.87 10.19 12.43 21.47 23.25 27.08a1 1 0 0 0 1-1.79c-10.41-6-16.76-16.13-22.8-26.16a.86.86 0 0 0 -1.49.87z"/><path d="m242.23 391.83c7.45-4.39 14.18-11.05 17.83-19 .52-1.13-1.08-2.13-1.71-1a53.34 53.34 0 0 1 -7.21 10.4 45.33 45.33 0 0 1 -9.78 8.06.87.87 0 0 0 .87 1.5z"/><path d="m239 583.14a45.9 45.9 0 0 0 15.5 2.86 1 1 0 0 0 0-2 44.21 44.21 0 0 1 -15-2.6c-1.11-.4-1.58 1.36-.49 1.76z"/><path d="m243.48 571.39a70.88 70.88 0 0 1 15.87.78c1.16.18 1.67-1.59.49-1.79a68.93 68.93 0 0 0 -16.36-.77c-1.13.08-1.15 1.86 0 1.78z"/></g><circle cx="838.32" cy="740.86" r="136.68"/><path d="m972.72 740.86a134.41 134.41 0 0 1 -238.12 85.51 133.29 133.29 0 0 1 -20.73-34.59 134.63 134.63 0 0 1 69.07-173.43 132.85 132.85 0 0 1 39.76-11 136.37 136.37 0 0 1 42.47 1.8 134.11 134.11 0 0 1 107.55 131.71c0 2.94 4.56 2.94 4.56 0a139.79 139.79 0 0 0 -6.74-42.86 138.39 138.39 0 0 0 -18.81-37.44 141.24 141.24 0 0 0 -29.07-30.12 138.88 138.88 0 0 0 -191.51 22 140.6 140.6 0 0 0 -21.53 36 138 138 0 0 0 -9.85 41.75 139 139 0 0 0 166.43 146.81 137.72 137.72 0 0 0 39.64-14.68 139.45 139.45 0 0 0 56.9-59.54 137.81 137.81 0 0 0 12.88-40.49 143.89 143.89 0 0 0 1.66-21.45c0-2.91-4.55-2.91-4.56.02z"/><path d="m479.76 434.37.06.1.39-3.08-.07.08 1.14-.67h-.14 1.42-.14l1.64 1.25-.06-.05.28 2.16.07-.26-.75 1.29c.78-.61 1-.9 1.77-1.42.39-.26.78-.5 1.19-.73.2-.12.41-.23.62-.33 0 0 1-.46.46-.24a14.29 14.29 0 0 1 2.66-.79c.12 0 .7-.08.07 0l.67-.05h1.48s-.58-.14 0 0l.64.13c.43.1.85.2 1.27.34.2.06.88.34.14 0 .2.09.39.19.58.29l.57.32c.08.05.82.57.39.25s.14.13.23.21l.46.46c.07.07.49.61.22.24s.15.24.2.33c.26.41.45.83.68 1.25s-.18-.56 0 0c.09.29.2.57.3.85.3.91.55 1.85.81 2.77.14.53.26 1.06.39 1.58-.15-.64 0-.06 0 .11.09 1 .17-.34 0 .36s.05-.26.12-.22-.28.46-.27.47.73-.76.14-.21l-.39.38c-.44.46.18-.12.18-.13a3 3 0 0 1 -.48.31c-.16.1-.33.19-.51.28s-.88.44-.3.16-.62.22-.77.27l-1.14.34c-1 .26-2 .45-2.95.65.76-.16.16 0 0 0l-.75.05h-.75c-.82 0-.15 0 0 0l-.72-.19c.73.2.07 0-.15-.1s-.7-.5-.29-.17-.29-.29-.36-.37-.31-.36-.48-.53c.6.6-.08-.11-.19-.28-.31-.46-.6-.93-.87-1.42s-.51-1-.76-1.5c-.35-.73-.08-.17 0 0-.14-.35-.27-.7-.4-1.05a24.22 24.22 0 0 1 -.84-3.25c-.15-.8 0-.17 0 0 0-.37-.07-.75-.1-1.12a8 8 0 0 0 -.84-3.06c-1.18-2.5-5.47-2.53-6.64 0a6.75 6.75 0 0 0 -.78 3.43c0 .87.17 1.73.29 2.59a21.56 21.56 0 0 0 1.05 4.35 19.78 19.78 0 0 0 5.14 8.29c3.08 2.69 6.8 3.09 10.7 2.42a22.65 22.65 0 0 0 7.52-2.52 9.34 9.34 0 0 0 4.92-7.82c0-3.19-1.33-6.83-2.75-9.65a13.83 13.83 0 0 0 -15.68-6.95 19 19 0 0 0 -8.55 4.84 9.57 9.57 0 0 0 -1.66 1.88 3.47 3.47 0 0 0 .57 4.09c1.71 1.71 5.27.44 5-2.16a2.64 2.64 0 0 0 -1.87-2.46h-.11a2.53 2.53 0 0 0 -2.82 3.66z"/><path d="m502 442.4a25.65 25.65 0 0 0 -9.76 13c-1.61 5.26-.78 11.2 3.38 15.06s10.09 4.57 14.63 1c4.8-3.73 5.69-9.76 6.18-15.45.3-3.41-.29-6.75-2.87-9.21a19.73 19.73 0 0 0 -8.45-4.49 3.88 3.88 0 1 0 -2.06 7.48 12.37 12.37 0 0 1 4.75 2.21c-.07 0-.34-.29 0 0l.57.54c.29.3.07.05 0 0a3.68 3.68 0 0 1 .3.5c.26.55-.1-.39.05.24.11.42.06.1 0 0a8.77 8.77 0 0 1 0 1.7 31.66 31.66 0 0 1 -.68 5.69c-.11.44-.22.88-.35 1.32-.09.29-.19.58-.3.86 0-.08.16-.36 0 0a9.34 9.34 0 0 1 -.63 1.16l-.31.47c-.35.51.32-.34-.09.11a11.66 11.66 0 0 1 -.93.93c.43-.37-.42.25-.58.34-.36.22 0 .05.08 0a4.72 4.72 0 0 1 -.53.18c-.1 0-.84.22-.35.12s-.25 0-.35 0-.83 0-.34 0-.08 0-.16 0-1.14-.34-.84-.22-.49-.26-.63-.34l-.59-.38c-.48-.34.37.34-.06-.07s-.59-.57-.88-.88c-.45-.47.06.19-.27-.37-.21-.36-.42-.71-.61-1.09s0 0 0 .09a7.55 7.55 0 0 1 -.29-.84 9.67 9.67 0 0 1 0-4.57c.93-3.92 3.36-7.86 5.92-11.14a2.58 2.58 0 0 0 .2-3.31 2.5 2.5 0 0 0 -3.26-.65z"/><path d="m503.07 468.86c-3.36.4-4.66 3.88-5.67 6.7a25.89 25.89 0 0 0 -1.4 7.64 21.92 21.92 0 0 0 1.2 8.07 9.08 9.08 0 0 0 6 6.1 21.5 21.5 0 0 0 3.09.55 11.73 11.73 0 0 1 1.54.33c.23.07.78.41.19.05.33.21.65.44 1 .63a5.38 5.38 0 0 0 5.49.25 7 7 0 0 0 2.73-3.71c2.28-5.28 4.56-11.36 2.72-17.14s-7.64-11-14-9.28a3.89 3.89 0 0 0 -2.78 4.26 3.82 3.82 0 0 0 3.81 3.36 11.55 11.55 0 0 1 1.18 0 4.1 4.1 0 0 0 .5 0c-.72 0-.36-.08-.08 0s1.13.37.77.21.07.05.13.09c.24.13.48.31.72.43s0-.05-.12-.11c.18.15.36.3.52.46a11.78 11.78 0 0 1 .84.89c.29.34-.05-.05-.09-.1.14.2.27.39.39.59a8.39 8.39 0 0 1 .66 1.26c-.27-.67.08.34.13.55s.25 1.22.17.59a13.61 13.61 0 0 1 0 3.06c0-.49 0 .23 0 .27-.06.29-.11.58-.17.87s-.21.86-.32 1.29c-.3 1.08-.67 2.14-1.07 3.19s-.66 1.68-1 2.39a3.54 3.54 0 0 0 -.29.63c-.14 1 2.81-1.6 3.09-.94-.13-.3-1-.62-1.3-.77a11.38 11.38 0 0 0 -2.91-.94c-.63-.1-1.26-.19-1.89-.26-.46-.05.07 0 .14 0-.29 0-.58-.08-.86-.14a9.41 9.41 0 0 1 -1.16-.3c.1 0 .53.11.15 0s.44.27-.06 0c-.25-.14-.13-.08 0 .08a4.68 4.68 0 0 1 -.38-.64s-.24-.57-.12-.23-.19-.63-.18-.61a23 23 0 0 1 -.63-2.73s-.08-.65 0-.29 0-.31 0-.3c0-.53-.07-1.07-.1-1.6a24.24 24.24 0 0 1 .08-3.41 16 16 0 0 1 .49-2.61c.56-2.15 2.34-4.6 1.49-6.88a2.58 2.58 0 0 0 -2.44-1.85z"/><path d="m510.29 497.33a65.32 65.32 0 0 0 -3.88 7.59 27.73 27.73 0 0 0 -2.52 8.72 11.52 11.52 0 0 0 21.38 6.61c2.87-4.68 2.42-10.31.26-15.14a32.33 32.33 0 0 0 -4.9-7.36c-2.11-2.52-4.49-4.91-7.69-5.92a3.79 3.79 0 0 0 -4.49 2.2 3.89 3.89 0 0 0 1.56 4.76c-.14-.11-.42-.32.18.17q.48.39 1 .75l.52.35c-.42-.3.13.12.17.16a26.66 26.66 0 0 1 2.26 2.25c.32.36.64.74 1 1.11l.39.48c0 .06.57.72.33.41l.19.25.48.68c.31.45.62.91.9 1.38s.49.83.71 1.26c.1.18.18.36.28.54s.31.7.09.17a15.32 15.32 0 0 1 .82 2.73c.19.86 0 .22 0 0 0 .23 0 .46.05.69s0 .69 0 1 0 .46-.05.69c0-.06.13-.65 0-.2s-.18.89-.32 1.33-.51 1.1-.15.49c-.2.34-.36.69-.58 1-.06.1-.49.65-.18.28s-.08.07-.12.11c-.21.21-1.07.87-.47.48-.18.12-1 .63-.67.43s-.51.14-.72.21-.6.13-.09 0-.12 0-.26 0h-.47s-1-.11-.42 0-.52-.13-.72-.19-.3-.12-.45-.15c-.51-.1.48.32.06 0s-.65-.37-.95-.55c-.07 0-.47-.36-.12-.07s-.3-.32-.31-.32-.2-.25-.31-.35c-.37-.31.19.48 0 0 0-.13-.51-1-.3-.46a5 5 0 0 1 -.42-2.41 21.69 21.69 0 0 1 1.54-6.71 61.33 61.33 0 0 0 2-7.65c.55-2.73-3.1-4.52-4.62-1.95z"/><path d="m515.08 522.46c-1.41 2.83-2.63 5.75-3.81 8.69s-2.07 5.78-1.27 8.85c.75 2.86 3.11 4.87 5.32 6.64a18.51 18.51 0 0 0 7.31 4 10.88 10.88 0 0 0 8.66-1.34 11.23 11.23 0 0 0 4.37-7.06c1.09-5.5.46-11.68-2.64-16.47a17.53 17.53 0 0 0 -6.73-6.2 15.8 15.8 0 0 0 -4.15-1.47 13.28 13.28 0 0 0 -2.59-.31 4.79 4.79 0 0 0 -3.88 2.33c-1 1.4-.38 3.22.57 4.4s2.52 1.52 4.06 1.64c-.82-.06.26.07.54.14l.71.21c.07 0 .79.28.38.12s.25.12.35.17l.5.27a12.91 12.91 0 0 1 1.11.7c.54.36-.43-.38.06 0l.43.37c.38.34.72.7 1.06 1.07.53.56.19.19.07 0a6.67 6.67 0 0 1 .43.61c.23.34.44.7.64 1.06s.25.48.37.73c0 .08.29.71.07.15.2.51.37 1 .52 1.55s.23.93.33 1.4c0 .2.07.4.1.61 0-.19-.06-.69 0 .15a21.26 21.26 0 0 1 .06 3.09q0 .72-.12 1.44c.1-.78-.08.31-.13.55-.1.42-.24.82-.36 1.23 0-.08.28-.51.05-.13s-.28.53-.44.78c.45-.7-.5.41-.19.18s-1 .34-.23.13l-.69.2c-.08 0-.63.05-.2 0s-1.26-.07-.78 0-.28-.06-.39-.09l-.54-.14a7.09 7.09 0 0 1 -.73-.26c.09 0 .42.19 0 0a21 21 0 0 1 -2.58-1.62c.41.3-.13-.1-.17-.14l-.64-.51-.93-.77c-.4-.33-.81-.65-1.18-1-.14-.14-.28-.27-.4-.41-.31-.33.12.5-.21-.29.19.46-.16-1-.13-.53a3.43 3.43 0 0 1 .09-1.2c.25-1.2.64-2.36 1-3.54.73-2.64 1.43-5.28 2-8a2.74 2.74 0 0 0 -5-2.11z"/><path d="m529.47 542.9c-.73 3.35-1.47 6.7-2.18 10.06a45.19 45.19 0 0 0 -1.36 10.21c.15 6.81 4.26 13.38 11.55 13.88 3.31.23 6.53-.89 9.54-2.15a16 16 0 0 0 4.1-2.28 7.72 7.72 0 0 0 2.64-5.32c.6-5.53-2.68-11.48-6.47-15.27a23.59 23.59 0 0 0 -7.21-5c-2.92-1.27-6.4-2.34-9.63-1.95-2.13.26-4.23 1.71-4.13 4.13a4.24 4.24 0 0 0 4.13 4.13l1.41.06.88.05c.14 0 .88.1.32 0s.18 0 .31.07l.69.14c.57.14 1.13.3 1.69.48l.66.24c.11 0 .79.33.32.12s.2.1.31.15l.78.4c.41.23.82.47 1.22.72.2.12.39.25.59.39s.86.61.44.3.43.35.41.34l.53.47c.35.31.68.64 1 1s.63.7.93 1.06c.5.58.11.13 0 0q.31.43.6.87a18.93 18.93 0 0 1 1.37 2.45c.33.7 0 .16 0 0 .08.22.17.44.24.66.19.55.35 1.12.49 1.69 0 .2.18 1.52.15.75v.77c0 1 0 .09 0 .05.15.44-.25.4.11 0s-.43.42-.06.1-.31.18-.39.23c-.28.16-.57.3-.87.44a18.86 18.86 0 0 1 -6.12 1.93h-.84c-.68 0 .45.1-.22 0a8.89 8.89 0 0 1 -1-.24c-.08 0-.69-.29-.23-.07-.22-.11-.42-.24-.64-.36s-.55-.43-.11-.06a6.51 6.51 0 0 1 -.54-.51c-.09-.08-.72-.87-.37-.38a13.56 13.56 0 0 1 -.77-1.28s-.3-.62-.1-.15a6.68 6.68 0 0 1 -.25-.71 11.17 11.17 0 0 1 -.56-3.27 70 70 0 0 1 .75-8.92q.47-4.87 1-9.74c.28-2.91-4.49-3.54-5.11-.69z"/><path d="m545.59 568.94a47.62 47.62 0 0 0 -.29 11c.22 3.73.63 7.46 1.2 11.15.52 3.39 1.77 6.27 4.6 8.32a11.3 11.3 0 0 0 8.43 1.85c3.07-.48 5.13-2.46 7.25-4.55.22-.21.44-.42.67-.62.46-.42-.74.35.2-.16.5-.27 1-.51 1.52-.73a6.64 6.64 0 0 0 4-4c1.06-3.69-2-7.11-4.12-9.85a89 89 0 0 0 -6.44-7.68c-2.47-2.6-5.2-5.52-8.26-7.43a7.13 7.13 0 0 0 -7-.51 5.52 5.52 0 0 0 -2.9 6.52c1 3.54 6.62 3.84 7.48 0a6.91 6.91 0 0 1 -1.08 1.31s.48-.27.52-.33c-.14.26-.9.32-1.15.3s-.72-.35-.37-.05c.08.07.76.47.35.2s.27.21.34.28c.56.46 1.12.93 1.67 1.42q2.79 2.45 5.35 5.15c.85.9 1.68 1.82 2.48 2.76.38.45.76.89 1.13 1.34l.55.68s.77 1 .43.54c.72.92 1.4 1.87 2.07 2.83.34.47.65 1 1 1.43.8 1.07 0 .13.16.13-1.36 0 .53-2.67.85-2.57a5.72 5.72 0 0 0 -1.14.6 12.89 12.89 0 0 0 -1.18.58 14.53 14.53 0 0 0 -3 2.54c-.37.41-.74.82-1.13 1.22l-.53.51c-.42.43.39-.23 0 .07-.16.12-.34.21-.52.32s-.82.28 0 .05c-.2.06-.39.13-.59.18s-1 .11-.4.09-.73 0-.87 0c-.52.07.82.22-.06 0-.2-.05-.41-.08-.61-.14a5.62 5.62 0 0 1 -.58-.19c.15 0 .62.35 0 0a5.7 5.7 0 0 0 -.54-.3c-.63-.3.31.39-.23-.15-.19-.18-.84-1-.45-.41a9.62 9.62 0 0 1 -.5-.87 21.49 21.49 0 0 1 -1-4c-.57-2.92-1-5.87-1.33-8.83-.35-3.35-.47-6.69-1-10-.41-2.48-4.59-2.47-5 0z"/><path d="m569 590.42a3.29 3.29 0 0 0 -4.78-.11 6.53 6.53 0 0 0 -1.69 4.17c-.38 3.12-.42 6.29-.56 9.42s-.43 6.23 1.27 8.9a12.11 12.11 0 0 0 6.83 4.77c3 1 6.24 1.65 9-.44 2.28-1.76 3.79-4.74 5.12-7.24 1.5-2.83 3.57-6.25 2.53-9.53a11 11 0 0 0 -3.06-4.23q-1.51-1.53-3.13-2.94a32 32 0 0 0 -8-5.57c-3.66-1.59-10.12-2.39-11.56 2.57a4.22 4.22 0 0 0 2.88 5.07 4.15 4.15 0 0 0 5.19-2.92 4 4 0 0 0 -1.73-4.26l-.07-.05a3.54 3.54 0 0 0 -3.3-.19 3.86 3.86 0 0 0 -2.14 2.4v.1l3.64-2.78h-.09l1.94.52-.1-.05 1.42 1.42-.07-.09.55 2-.05.73-1.17 1.91-.48.32c-.61.32-.65.4-.1.23 0 .1-.68 0-.12 0 .22 0 1.36.18.64 0a12.12 12.12 0 0 1 1.34.39c.43.16 0 0 0 0 .25.11.49.24.74.37a20.49 20.49 0 0 1 2.42 1.53 25.82 25.82 0 0 1 2.05 1.59 55.17 55.17 0 0 1 4.43 4.08c.19.19.35.41.55.58.4.35 0 0 0 0 .31-.65-1.71.76-.08-1.24a2.26 2.26 0 0 0 -.16.54 21.05 21.05 0 0 1 -1 2.4 48.21 48.21 0 0 1 -3 5.39c-.14.22-.29.45-.44.66 0 0-.39.47-.13.19s-.18.14-.17.14l.52-.25h.13c.19 0 .17 0-.07 0h-.2c.3 0 .32 0 0 0s-.82-.19-1.23-.3c-.78-.2-1.53-.44-2.29-.7-.14 0-.65-.3 0 0l-.45-.22a4.77 4.77 0 0 1 -.44-.24s-.76-.55-.42-.25-.65-.79-.15-.11c-.1-.13-.18-.27-.27-.41-.27-.46.11.41-.07-.16a5.7 5.7 0 0 1 -.16-.55s-.1-.62 0-.29 0-.42 0-.49c0-.26 0-.52 0-.79 0-2.47 0-4.94 0-7.41 0-1.26 0-2.51-.07-3.77 0-.23 0-.47-.05-.71a4.08 4.08 0 0 1 0-.61c0-.18 0-.19 0 0a2.85 2.85 0 0 1 -.11.3c-.23.31-.2.28.08-.09l.34-.44-1 1-.29.13c2.09-.42 2.27-3 1.14-4.34z"/><path d="m577.79 612.46a49 49 0 0 0 -2.28 10.14c-.32 3-.67 6.27.36 9.14 2.26 6.31 9.68 7.6 15.57 6.63 5.51-.91 10.43-5 10.45-10.89 0-6.57-5.64-11.27-10-15.35l-4.26-4a15.24 15.24 0 0 0 -4.8-3.48 6.06 6.06 0 0 0 -6.55 1.45 5.12 5.12 0 0 0 0 7.12 3.66 3.66 0 0 0 4.4.57 3.83 3.83 0 0 0 1.67-4.1c.57 4.11-1.19 2.83-.34 2.16a1.63 1.63 0 0 1 -1.41.55s-.47 0-.45-.07l-.13-.05c.37.25.45.29.26.14-.35-.24.3.26.37.32l.51.46 1.62 1.46 5.59 5c.75.67 1.49 1.34 2.21 2 .39.39.78.79 1.15 1.2l.54.63c.08.09.4.49.16.17a15.89 15.89 0 0 1 1.4 2.28c-.16-.39.11.35.14.43s.1.36.14.54c.19.76 0 .26 0 .08a7.39 7.39 0 0 1 0 .94c0 .61.15-.5 0 .11a4 4 0 0 0 -.15.49c.11-.6.19-.34 0-.08l-.29.52c-.12.22-.44.44.07-.06-.11.11-.2.23-.3.33a3.44 3.44 0 0 0 -.44.41c-.24.3.53-.3-.06 0-.31.18-.61.37-.93.54-.1 0-.71.32-.26.13s-.17.06-.29.09c-.36.12-.71.23-1.08.32l-.64.14c-.1 0-1 .14-.47.09a6.62 6.62 0 0 0 -.81 0c-.43 0-.87 0-1.3 0s-.75 0-1.12-.07c-.18 0-.36 0-.54-.06.65.08-.52-.1-.53-.11a4.5 4.5 0 0 1 -2-.73c.4.27-.53-.6-.33-.31a1.86 1.86 0 0 1 -.43-.92 10.05 10.05 0 0 1 -.34-2.82c0-1.34 0-2.68.09-4a76.53 76.53 0 0 1 .78-8.28c.54-3.26-3.93-4.61-5-1.38z"/><path d="m595.42 629.6q.74 8.56 2 17.1a14.58 14.58 0 0 0 2.18 6.23 8.71 8.71 0 0 0 7.07 3.86c5.31.05 9.57-4.48 11.57-9 2.28-5.14 4.15-13.09-1.25-16.93a23.94 23.94 0 0 0 -8.35-3.3 36.45 36.45 0 0 0 -5.11-.79 13 13 0 0 0 -5.12.23 3.82 3.82 0 0 0 0 7.35 19.81 19.81 0 0 0 3.69.27c.54 0 1.09 0 1.64.1l.61.06c1.3.12-.36-.07.38 0a31.37 31.37 0 0 1 6.15 1.64c.74.28.37.14.2.07l.71.32c.22.11.43.24.65.34s.67.37.11 0c.18.11.34.17.17.15s-.23-.69-.12-.19c0 .1.17.85.12.4s0 .62 0 .61c0 .45 0 .91-.06 1.36 0 .09-.09.9 0 .47s0 .27 0 .28a22 22 0 0 1 -.84 3.26c0 .14-.49 1.24-.27.74-.21.48-.45 1-.7 1.42s-.4.71-.63 1c-.06.08-.48.64-.2.29s-.3.33-.36.4a11.1 11.1 0 0 1 -.85.83c-.08.07-.64.49-.27.24s-.22.12-.3.18c-.33.2-.66.37-1 .54.65-.32.18-.07 0 0l-.74.19c-.53.15.58-.24.09 0-.11 0-.33 0-.45 0 .66 0 .34 0 .08 0-.65-.19-.15 0 0 0-.19-.1-.36-.21-.54-.32.15.09.46.46 0 0l-.31-.33c-.25-.27.23.43-.07-.14-.07-.13-.62-1.19-.35-.57a9.69 9.69 0 0 1 -.38-1.07 24.19 24.19 0 0 1 -.62-2.51c-1-5.19-2.11-10.38-3.4-15.51-.69-2.78-5.36-2.29-5.1.69z"/><path d="m614.73 642.88c-1.83 6.06.54 12.57 3 18.08a20.84 20.84 0 0 0 4 6.57 9.32 9.32 0 0 0 8.88 2.41 20.83 20.83 0 0 0 7.68-3.78 9 9 0 0 0 3.5-8.86c-.1-.65-.22-1.29-.35-1.93 0-.15-.11-1-.06-.42 0-.28 0-.57 0-.85a26.68 26.68 0 0 0 -.25-4.89 10.76 10.76 0 0 0 -5.17-6.92c-3-1.82-6.62-2.14-10.08-2.3-.66 0-1.32 0-2-.1-.37 0-.74-.06-1.11-.1.77.09 0 0-.33-.09a15.12 15.12 0 0 1 -1.74-.52c-1-.35.39.32-.12 0-.16-.11-1.14-.84-.48-.27a4.13 4.13 0 0 0 -5.84 5.84c3.56 3.92 8.76 3.57 13.58 3.84l.87.06c.09 0 1 .13.52 0s.43.1.52.12l.84.21.71.23c.57.17-.52-.33 0 0 .25.16 1.42.92.79.4a6.49 6.49 0 0 1 1 1c-.55-.7.18.9 0 0 0 .2.11.41.17.61.18.66 0-.53 0 .16s0 1.27 0 1.91a22.06 22.06 0 0 0 .4 4c.12.56.29 1.13.37 1.7 0-.22 0-.55 0 .21v.42c0-.35 0-.4 0-.14-.17.56.29-.54 0 0s.11-.07.15-.12a5.81 5.81 0 0 1 -1 .95c.55-.46-.43.27-.64.4-.45.27-.92.53-1.38.78a10.64 10.64 0 0 1 -2.72 1.18s-.56.09-.36.1a2.64 2.64 0 0 1 -.67-.17c.67.22-.19-.15-.32-.22.56.33-.4-.4-.54-.55s-.32-.35-.46-.53c.05.06.27.36 0 0a27.36 27.36 0 0 1 -1.57-2.72 41.46 41.46 0 0 1 -3-7 26.45 26.45 0 0 1 -1-7.85c0-3.33-4.78-3.92-5.74-.78z"/><path d="m634.4 659.19a55 55 0 0 0 10.6 14.36c2.41 2.34 5.06 4.47 8.63 4.15a27.9 27.9 0 0 0 10-3.33c3.07-1.59 5.7-4 5.67-7.68a19.46 19.46 0 0 0 -1.07-4.81c0-.06-.13-.78 0-.24-.07-.43-.08-.88-.13-1.31a14.74 14.74 0 0 0 -.46-2.8c-1.9-6.26-9-8.34-14.85-8a27.94 27.94 0 0 0 -10.15 2.61 21.72 21.72 0 0 0 -3.75 2.21c-1.84 1.33-3.57 2.65-4.15 5a3.75 3.75 0 0 0 4.56 4.56 9.39 9.39 0 0 0 3.74-2.21c-.52.43 0 0 .09-.07s.43-.31.65-.45c.54-.37 1.11-.72 1.69-1s.94-.48 1.41-.72c.12 0 .74-.31.09 0l.74-.29a23 23 0 0 1 3.25-.9c.26 0 .52-.08.78-.14.66-.13-.61 0 .06 0s1.05-.09 1.58-.11 1.06 0 1.59 0l.79.05c.44 0 .73.08.12 0a13.42 13.42 0 0 1 2.72.7c-.82-.31.3.21.54.35.64.36.12.07 0 0a6.61 6.61 0 0 1 .7.7c-.62-.72.2.72 0 0 .09.27.14.56.21.84 0 .06.14.78.06.23a26 26 0 0 0 .81 4.28l.48 1.45c.21.68.12.43.09.19.15 1-.08.27 0 .18s.19-.56.31-.54l-.5.5c.47-.42 0-.05-.07 0l-1 .61a32.53 32.53 0 0 1 -6.43 2.87c-1 .29-1.24.39-1.8.13a11 11 0 0 1 -2.55-1.89 49.93 49.93 0 0 1 -10.24-12.15c-1.83-3-6.34-.36-4.73 2.76z"/><path d="m662.86 666.86a40.77 40.77 0 0 0 4.56 15.45c1.16 2.24 2.51 4.62 4.73 6 2.68 1.62 5.78.91 8.29-.67a20.43 20.43 0 0 0 8.41-11.75c1.48-5 2.1-11.35-2.32-15-5-4.13-12.75-4.34-18.81-3.16l4 1.05a7.64 7.64 0 0 0 -10.18.13c-3.09 2.79-2.74 7.62.11 10.43a7.15 7.15 0 0 0 10.35-.34 8.08 8.08 0 0 0 2-5.06 5.22 5.22 0 0 0 -3.77-5.4c-2.5-.8-4.44 1.31-4.68 3.57.16-1.51-.06.06-.08.18a11.49 11.49 0 0 0 .15 2c0-1.24 0-.51-.07-.3.1-1.1.09-.46 0-.16-.2.55.54-.86 0-.11.09-.14.64-.62.13-.21l.42-.31c-.32.18-.32.19 0 0a1.25 1.25 0 0 1 .76-.15c-.4 0-.42 0-.07 0 .18.08 1.15.22.37 0l.17.13c.24.2.22.17-.06-.1l.25.33c-.19-.35-.21-.38-.07-.08.22.68.06-1 .11.36a1.83 1.83 0 0 1 -.27.94c.41-.8-.45.49-.06.07s-.84.48 0 .09c-.9.45 0-.1.08 0s-1.09.06-.25.1l-.55-.07c.35.1.36.1 0 0-.44-.36-1.54-.7.22.23a4.39 4.39 0 0 0 2.07.56 8.2 8.2 0 0 0 1.51-.24s1.39-.24.64-.13a17.63 17.63 0 0 1 2.18-.17 16.85 16.85 0 0 1 7.26 1.1c-.77-.28.31.17.39.21s.42.25.63.38c-.59-.37 0 0 0 .06.73.42-.05-.2.2.18.1.16.41.88.18.25.09.25.14.49.21.74.32 1.08 0-.37.05.29v1.17s-.18 1.83-.07 1.07c-.09.6-.2 1.18-.33 1.77a27.37 27.37 0 0 1 -1 3.45c0 .12-.3.67 0 .07-.12.27-.24.54-.38.81q-.36.72-.75 1.41t-1 1.47c.09-.13.41-.47-.07.07-.23.26-.46.52-.71.78l-.63.6c-.11.1-.68.57-.21.21a14.13 14.13 0 0 1 -1.22.79c-.25.15-.29.3-.59.22h.44c-.65-.14-.23-.09-.09 0-.33-.22-.37-.24-.12-.07l-.25-.23c-.23-.27-.49-.51-.7-.79.33.44-.37-.57-.33-.51q-.6-.89-1.14-1.8a40.67 40.67 0 0 1 -2.16-4.14 48.44 48.44 0 0 1 -2.82-8.53c-.67-2.79-5.35-2.27-5.1.69z"/><path d="m683.59 676.83c.73 1 1.34 2.12 2.06 3.15s1.49 2.2 2.28 3.27a56.87 56.87 0 0 0 4.73 6 8.41 8.41 0 0 0 13 0 21 21 0 0 0 3.26-5.17c1.27-2.75 2.14-5.38 1.66-8.43-.76-4.82-5.11-8.46-9.65-9.61a21.05 21.05 0 0 0 -9.11-.21 7.12 7.12 0 0 0 -3.73 2.05 4.84 4.84 0 0 0 .13 6.62 3.82 3.82 0 0 0 4.61.6 3.94 3.94 0 0 0 1.75-4.3c0 .08-1 3-.67 2.72s-.67.39-.18.12-.31.12-.31.11.36-.1.41-.11.81-.11.33-.06.15 0 .2 0c.5 0 1-.09 1.49-.1a19.25 19.25 0 0 1 2.4.08c.48 0-.08 0-.14 0 .23.06.48.09.72.15.41.09.81.26 1.23.35.57.13-.41-.23.05 0 .14.07.28.13.41.21.33.17.62.38.93.56s-.13-.1-.17-.14l.35.3.45.44c.06.06.53.55.2.19s0 0 .06.1.23.34.33.51c.19.32.32.8.13.17.1.34.19.69.29 1s0-.28 0-.28c.12.19 0 .6 0 .81 0 .41 0 .05 0-.07a5.05 5.05 0 0 1 -.12.56c-.11.44-.26.87-.41 1.29 0 0-.22.59-.09.27s-.12.27-.12.26c-.17.39-.34.78-.52 1.16-.31.63-.64 1.26-1 1.86-.16.25-.35.49-.5.75 0 0 .41-.48.13-.17s-.31.37-.48.55-.42.38-.61.59c.56-.62-.07-.05-.25.12s.16-.07.26-.1a2.2 2.2 0 0 1 -.51.15s.75 0 .29 0c-.2 0-.77-.09-.11.06-.24-.06-.86-.32-.35 0l-.42-.23c-.07 0-.63-.4-.31-.18s-.14-.12-.17-.14l-.37-.33q-.48-.47-.93-1c-1.43-1.54-2.75-3.19-4.21-4.7l-2.36-2.41c-.78-.81-1.66-1.52-2.43-2.34-1.89-2-5.6.69-3.91 3z"/><path d="m722.71 668.32c-8.5.86-14.14 7.47-17.08 15a35.37 35.37 0 0 0 -1.72 5.88 22.13 22.13 0 0 0 -.68 7.37c.67 5 5 8.26 8.78 11 1.84 1.34 4 3 6.29 3.59a6.54 6.54 0 0 0 4.72-.48c1.77-1 3.06-3.32 2.25-5.33a4.05 4.05 0 0 0 -3.71-2.82c-.54 0-2.49 0-.86.06 1.45 0 .15.15 0-.12.58.26.65.28.22.06-.26-.14-.52-.29-.77-.45l-1.15-.7c-.88-.56-1.74-1.16-2.58-1.78l-.15-.11c-.24-.18-.47-.37-.7-.56l-1-.87c-.73-.65-1.43-1.32-2.12-2-.34-.4-.35-.41 0 0-.15-.22-.28-.45-.41-.68.43.8-.06-.3-.1-.56.1.72.08-1 .09-1.13 0-.46.09-.92.15-1.39-.1.81.13-.86.15-1 .08-.51.18-1 .26-1.52 1.11-6.78 3.45-14.4 10.9-16.27 2.8-.71 2.31-5.48-.7-5.18z"/><g fill="#fff"><path d="m840.81 716.56a95.37 95.37 0 0 1 -12.14-3.91l1.87.79a30.89 30.89 0 0 1 -6.65-3.81l1.81 1.4a23 23 0 0 1 -3.64-3.6l1.52 2a26.27 26.27 0 0 1 -3.56-5.81l1 2.47a24.17 24.17 0 0 1 -1.49-5.56l.39 2.89a27.15 27.15 0 0 1 0-6.86l-.41 3a29.51 29.51 0 0 1 1.92-7.07l-1.21 2.88a38.85 38.85 0 0 1 5-8.5l-2 2.57a32.65 32.65 0 0 1 5.31-5.33l-2.64 2a30.87 30.87 0 0 1 6.63-3.9l-3.19 1.35a36.15 36.15 0 0 1 8.65-2.37l-3.6.49a26.62 26.62 0 0 1 6.85 0l-3.6-.49a22.23 22.23 0 0 1 4.88 1.29l-3.24-1.36a19.31 19.31 0 0 1 4.14 2.37l-2.74-2.11a21.26 21.26 0 0 1 3.63 3.77l-2.11-2.73a14.31 14.31 0 0 1 1.7 2.9l-1.33-3.16c.82 2 1.71 4 2.6 6l-1.25-3a13.61 13.61 0 0 1 .52 1.52 11.89 11.89 0 0 0 9.87 8.51 11.39 11.39 0 0 0 6.16-.81 11.14 11.14 0 0 0 5.68-4.86 27.67 27.67 0 0 0 2-5 18.36 18.36 0 0 0 .08-8.84 23.58 23.58 0 0 0 -3.22-7.68 30.73 30.73 0 0 0 -16.81-12.15 36.61 36.61 0 0 0 -9.48-1.41 43 43 0 0 0 -9.66 1c-6.42 1.27-12 4.66-17 8.67-16.22 12.94-20.85 40.22-5.43 55.61 8.47 8.45 21.42 8.89 32.62 8.78a6.07 6.07 0 0 0 1.61-11.91z"/><path d="m835.82 669.71.48-1.14-.71 1.67a12.83 12.83 0 0 0 1.36-5.79l.12-2.7c.09-2 .27-3.9.48-5.86.59-5.57 1.41-11.89-1.7-16.93a13.11 13.11 0 0 0 -4.35-4.35 12 12 0 0 0 -7.73-1.44 11.48 11.48 0 0 0 -5.74 2.39c-1.92 1.48-3.91 3.81-4.34 6.29-.46 2.66-.8 4.76 0 7.41.12.44.28.88.41 1.31a36.84 36.84 0 0 0 2.06 5.44c.87 1.74 1.83 3.44 2.74 5.16s1.79 3.47 2.59 5.25c.42.93.79 1.89 1.25 2.78a13.88 13.88 0 0 0 2.71 3.26 6.25 6.25 0 0 0 6.06 1.6c2.3-.63 3.48-2.27 4.35-4.35z"/><path d="m835.82 728a97 97 0 0 1 12.18 3.88l-1.86-.78a31.45 31.45 0 0 1 6.64 3.8l-1.81-1.39a22.2 22.2 0 0 1 3.65 3.6l-1.52-2a26 26 0 0 1 3.55 5.81l-1-2.48a23.32 23.32 0 0 1 1.49 5.56l-.38-2.88a26.7 26.7 0 0 1 0 6.86l.41-3a29.46 29.46 0 0 1 -1.92 7.08l1.22-2.88a39.13 39.13 0 0 1 -5 8.5l2-2.57a32.26 32.26 0 0 1 -5.31 5.33l2.64-2a30.07 30.07 0 0 1 -6.63 3.9l3.2-1.34a36.08 36.08 0 0 1 -8.66 2.36l3.6-.48a26.62 26.62 0 0 1 -6.85 0l3.6.48a21.6 21.6 0 0 1 -4.87-1.29l3.23 1.37a19.27 19.27 0 0 1 -4.13-2.38l2.74 2.12a21.65 21.65 0 0 1 -3.64-3.77l2.11 2.72a14.43 14.43 0 0 1 -1.7-2.89l1.34 3.16c-.83-2-1.72-4-2.61-6l1.26 3a13.83 13.83 0 0 1 -.53-1.53 11.88 11.88 0 0 0 -9.87-8.5 11.19 11.19 0 0 0 -6.15.81 11 11 0 0 0 -5.68 4.86 28.15 28.15 0 0 0 -2 5 18.49 18.49 0 0 0 -.08 8.84 23.55 23.55 0 0 0 3.31 7.81 30.64 30.64 0 0 0 16.81 12.15 36.12 36.12 0 0 0 9.47 1.42 43.11 43.11 0 0 0 9.67-1c6.41-1.28 12-4.66 17-8.68 16.21-12.94 20.84-40.22 5.42-55.61-8.47-8.45-21.42-8.88-32.62-8.78a6.07 6.07 0 0 0 -1.72 11.81z"/><path d="m840.82 774.82-.48 1.15.7-1.67a12.82 12.82 0 0 0 -1.36 5.78l-.12 2.71c-.09 2-.26 3.9-.47 5.86-.6 5.57-1.42 11.89 1.69 16.93a13.2 13.2 0 0 0 4.35 4.35 12 12 0 0 0 7.73 1.44 11.53 11.53 0 0 0 5.74-2.37c1.92-1.48 3.92-3.82 4.34-6.3.46-2.66.8-4.75 0-7.41-.13-.43-.28-.87-.42-1.3a35.71 35.71 0 0 0 -2.05-5.44c-.88-1.74-1.83-3.45-2.75-5.16s-1.78-3.47-2.59-5.26c-.41-.92-.79-1.88-1.25-2.78a14 14 0 0 0 -2.7-3.25 6.26 6.26 0 0 0 -6.06-1.61c-2.3.64-3.48 2.27-4.35 4.35z"/></g></svg>