<?xml version="1.0" ?><svg viewBox="0 0 1000 1000" xmlns="http://www.w3.org/2000/svg"><path d="m769.61 471.57c-13.05 3.65-31.47 8.44-44.41 12.76l18.65 11.76c1.22.77 2.58 1.75 2.7 3.2s-.93 2.49-1.89 3.45l-36.6 36.34c-1.1 1.09-2.29 2.38-2.25 3.94.05 2 2.06 3.33 3.85 4.25a172.28 172.28 0 0 0 28 11.48 186.62 186.62 0 0 0 -31 30.2l26.24 6c2.15.5 4.76 1.48 5 3.68.14 1.42-.83 2.68-1.75 3.77l-19.42 23a101.29 101.29 0 0 1 30.25-1l-3.17 12a37.13 37.13 0 0 0 11.45-2.38l-11.26 17.19 13.18-6.11-.55 4.68c18.45-5.69 37.44 4.77 55.36 12 2.13.85 4.42 1.68 6.69 1.28s4.36-2.2 6-4c7.89-8.37 13.84-19.49 24.53-23.73 3.69-1.46 7.89-2.07 10.83-4.73s4-6.9 5.34-10.71a50.67 50.67 0 0 1 29.53-30.22c2.15-.81 4.45-1.53 6-3.2 2.5-2.64 2.4-6.74 2.07-10.36a233.21 233.21 0 0 0 -15.73-65.11c-1.87-4.67-4-9.42-7.65-12.88-10.4-9.86-30.8-7.49-36.37-20.69-1.08-2.57-1.4-5.5-3-7.79-4.28-6.15-13.77-3.83-20.65-.85"/><path d="m769.39 470.77c-14.88 4-29.87 7.63-44.5 12.45a1.17 1.17 0 0 0 -.28 2.11l10.76 6.83 5.38 3.4 2.64 1.67c.69.45 1.61 1 1.87 1.85.48 1.59-2.12 3.42-3.07 4.35l-4.59 4.57-9.18 9q-9.27 9.13-18.52 18.29c-2.25 2.23-6.27 5.06-5.35 8.73.8 3.2 4.68 4.64 7.31 5.94a175.88 175.88 0 0 0 25.4 10.21l-.35-2.71a190.21 190.21 0 0 0 -31.41 30.34 1.64 1.64 0 0 0 .71 2.71c8.74 2 17.51 4 26.24 6.06 1.15.28 2.91.63 3.6 1.73.86 1.37-1.26 3.2-2 4.13l-8.59 10.19-9.86 11.7a1.62 1.62 0 0 0 1.56 2.68 101.08 101.08 0 0 1 29.82-.9l-1.54-2c-1 4-2.1 8-3.11 12a1.54 1.54 0 0 0 1.48 1.93 41.33 41.33 0 0 0 11.83-2.53l-1.61-2.1-11.29 17.1c-.84 1.28.76 2.46 1.92 1.92l13.17-6.12-2.09-1.2-.55 4.68a1.4 1.4 0 0 0 1.76 1.34c12.82-3.88 26 .2 37.95 5 6.15 2.46 12.14 5.47 18.41 7.61 3 1 6.08 1.08 8.84-.67a29.55 29.55 0 0 0 6.11-6c3.61-4.25 6.87-8.8 10.74-12.82a31.74 31.74 0 0 1 13.6-8.67c2.74-.87 5.53-1.73 7.82-3.54a15.79 15.79 0 0 0 4.62-7c1.08-2.77 1.85-5.64 3.08-8.36a48.35 48.35 0 0 1 4-7.21 49 49 0 0 1 18.34-16.36c2.49-1.29 5.11-2.16 7.67-3.25a9.73 9.73 0 0 0 5.75-5.74c1-2.72.76-5.74.5-8.56-.64-6.83-1.58-13.65-2.82-20.4a233.79 233.79 0 0 0 -11.09-40.05c-2.21-5.88-4.4-12.18-8.65-16.95-3.1-3.47-7.26-5.64-11.54-7.3s-8.61-2.76-12.87-4.26c-3.89-1.37-7.85-3.13-10.62-6.29-3.43-3.92-3-9.92-7.11-13.34-3.75-3.13-9.07-2.86-13.54-1.79a44.37 44.37 0 0 0 -7.17 2.48c-1.42.61-.2 2.67 1.21 2.07 4.21-1.8 9.56-3.66 14.18-2.54a7.7 7.7 0 0 1 5.3 4.13c1.21 2.5 1.5 5.33 2.77 7.82 4 7.81 13.33 10.2 21 12.61 4.13 1.29 8.31 2.64 12 5 4.73 3 7.48 7.76 9.61 12.81a219.73 219.73 0 0 1 12 38.33q2.22 10 3.54 20.22c.41 3.14.82 6.3 1 9.46.16 2.64.15 5.76-1.76 7.83s-4.78 2.54-7.14 3.54a49.36 49.36 0 0 0 -7.33 3.79 52.75 52.75 0 0 0 -12.14 10.55 52.11 52.11 0 0 0 -8.21 13.73c-2.09 5.08-2.84 11.33-8.22 14.08-2.5 1.27-5.31 1.81-7.91 2.85a28.5 28.5 0 0 0 -6.93 3.95c-4.23 3.24-7.64 7.36-11 11.5-1.65 2.06-3.29 4.14-5 6.14s-3.66 4.54-6.19 5.68c-3 1.35-6.29-.35-9.08-1.49-3.06-1.26-6.09-2.57-9.14-3.85-11.47-4.84-23.76-9.86-36.46-9a39.71 39.71 0 0 0 -8.85 1.58l1.76 1.34.55-4.68c.14-1.16-1.25-1.59-2.09-1.2l-13.2 6.1 1.93 1.93 11.28-17.11a1.43 1.43 0 0 0 -1.6-2.09 36.22 36.22 0 0 1 -11.08 2.22l1.48 1.94q1.65-6 3.23-12a1.63 1.63 0 0 0 -1.54-2 104.1 104.1 0 0 0 -30.67 1l1.56 2.69q9.63-11.4 19.26-22.81c1.29-1.52 2.59-3.2 2.36-5.32a5.13 5.13 0 0 0 -2.81-3.82 21.23 21.23 0 0 0 -5.51-1.71l-7.53-1.74c-5.51-1.27-11-2.55-16.53-3.8l.72 2.7a187.74 187.74 0 0 1 30.92-30.29c.93-.73.29-2.19-.66-2.48a171.52 171.52 0 0 1 -22.66-8.79c-1.78-.85-3.58-1.7-5.32-2.64-1.06-.57-2.8-1.47-2.86-2.87-.07-1.7 2.18-3.3 3.24-4.36l4.39-4.38 18.25-18.22 9.11-9.05c1.41-1.42 3-2.77 4.23-4.31a4.57 4.57 0 0 0 1.19-4.19c-.5-1.74-2.14-2.77-3.58-3.67l-6.04-3.83q-6.12-3.84-12.25-7.68l-.27 2.12c14.59-4.93 29.54-8.76 44.32-13.08a.83.83 0 0 0 -.44-1.6z"/><path d="m782.73 651.48a118.28 118.28 0 0 0 7 30 6.48 6.48 0 0 0 2.25 3.42 6.65 6.65 0 0 0 4 .57 347.42 347.42 0 0 0 46.63-6.77 6.67 6.67 0 0 0 3.79-1.74 6.59 6.59 0 0 0 1.12-4.1 208.7 208.7 0 0 0 -1.26-32.78l56.45-9.57a4 4 0 0 1 3.16.33c.92.71 1 2 1.12 3.19a76.72 76.72 0 0 0 9.88 33.09 403.46 403.46 0 0 0 48.33-13 5.36 5.36 0 0 0 4.59-6.34 403.22 403.22 0 0 0 -7.36-82.25c-3.47-17.9-8.23-35.71-16.53-51.93s-20.4-30.88-36.17-40c-14.15-8.2-30.66-11.65-47-12.29s-32.66 1.38-48.88 3.5c-16.41 2.14-32.87 4.38-48.8 8.85a124.66 124.66 0 0 1 44.1 2.47 2.54 2.54 0 0 1 1.78 1 2.61 2.61 0 0 1 -.33 2.32l-7.51 15.16 25.76 4.25q-7.58 10-14.86 20.28l36.27 1.58-8.73 20.47a2.9 2.9 0 0 0 1.56 4.48c9.67 5.6 20.95 9.43 27.83 18.25l-15.21 15.27a7 7 0 0 0 -2.35 3.65 7 7 0 0 0 1.28 4.24l8.73 15.58-28.19-5.85a3 3 0 0 0 -2.17.11c-.93.59-.91 2-.69 3 1.35 6.81 5.57 12.77 6.95 19.57.28 1.41.34 3.11-.78 4a4.35 4.35 0 0 1 -3 .6l-14.49-.6 11.27 9.92a205.33 205.33 0 0 1 -29.76 3.53l9.64 10.37a31.25 31.25 0 0 1 -22.47-2.54l2.26 2.48a117.08 117.08 0 0 0 -29 1.38l23.37 2.69" fill="#18c4ff"/><path d="m781.93 651.48a117.06 117.06 0 0 0 5.07 25.41c.63 2 1.27 4 2.09 5.93a5.78 5.78 0 0 0 3.1 3.4c1.86.73 4 .34 6 .2 2.27-.17 4.52-.37 6.78-.6q13.45-1.37 26.78-3.76 3.22-.59 6.45-1.23c2-.4 4.16-.72 6.15-1.32a5.66 5.66 0 0 0 3.73-2.94c.79-1.74.69-3.82.75-5.68a208.79 208.79 0 0 0 -1.29-30.82l-.92 1.21 39.77-6.71 9.82-1.66 4.91-.82c1-.17 3.26-1 4.11-.11s.52 2.84.61 3.82c.12 1.45.29 2.9.49 4.34a76.63 76.63 0 0 0 1.67 8.76 78.82 78.82 0 0 0 7.61 18.93 1.48 1.48 0 0 0 1.61.65 395.35 395.35 0 0 0 40.09-10.3c3.09-1 6.24-1.87 9.27-3a6.52 6.52 0 0 0 4.58-6c.3-3.37.11-6.84.08-10.22s-.1-6.85-.22-10.28a406.72 406.72 0 0 0 -3.61-41.82 346.79 346.79 0 0 0 -7.64-39.68c-6.11-23.52-16.3-46.75-34.32-63.61a83.45 83.45 0 0 0 -30.63-18.2c-12.07-4-24.89-5.57-37.57-5.64-14.14-.06-28.21 1.65-42.21 3.47-13.6 1.77-27.22 3.57-40.6 6.6q-4.93 1.13-9.81 2.48c-1.46.41-1.24 3 .38 2.76a125.7 125.7 0 0 1 24.3-.6 121.28 121.28 0 0 1 12.18 1.51q2.94.53 5.85 1.18c.64.14 2.23.21 2.26.95a3.66 3.66 0 0 1 -.59 1.31l-.77 1.56-6.4 12.93a1.43 1.43 0 0 0 .84 2.07l25.76 4.24-.84-2.06q-7.57 10-14.87 20.27a1.43 1.43 0 0 0 1.22 2.13l36.27 1.6-1.22-2.13q-2.81 6.6-5.63 13.19l-2.89 6.81c-.78 1.83-1.46 3.73 0 5.44 1.16 1.37 3.08 2.17 4.63 3s3.38 1.77 5.08 2.63c3.44 1.76 6.89 3.51 10.16 5.57a37.4 37.4 0 0 1 9.54 8.32v-2.1l-9.36 9.34-4.51 4.5c-1.34 1.33-2.91 2.65-3.71 4.39-1.7 3.7 1.44 7.59 3.16 10.68q3.25 5.85 6.52 11.7l1.83-2.39-16.52-3.42-8.3-1.73c-2.11-.44-5.22-1.73-7.14-.19s-1.32 3.92-.84 5.85a46.34 46.34 0 0 0 2.42 6.78c1 2.29 2 4.55 2.89 6.88.39 1.06.74 2.13 1 3.23a6.94 6.94 0 0 1 .41 3.15c-.29 1.18-1.8.86-2.74.83l-4.61-.2-9.48-.39a1.63 1.63 0 0 0 -1.14 2.76l11.27 9.92.71-2.7a203.58 203.58 0 0 1 -29.33 3.47 1.64 1.64 0 0 0 -1.14 2.76l9.72 10.37.71-2.7a29.84 29.84 0 0 1 -21.23-2.37 1.62 1.62 0 0 0 -2 2.53c.75.83 1.51 1.65 2.27 2.47l1.13-2.74a121.32 121.32 0 0 0 -29.42 1.55c-1.79.31-1.15 2.78.4 2.94 7.79.81 15.59 1.53 23.37 2.42 1.57.18 1.56-2.28 0-2.46-7.8-.9-15.58-2-23.37-3l.4 2.94a117.23 117.23 0 0 1 28.62-1.23c1.47.12 2-1.79 1.13-2.74l-2.25-2.48-2 2.53a33.21 33.21 0 0 0 23.72 2.7 1.62 1.62 0 0 0 .71-2.69l-9.63-10.37-1.15 2.75a209.71 209.71 0 0 0 30.24-3.5 1.62 1.62 0 0 0 .71-2.7l-11.26-9.93-1.1 2.74 8.26.34a52 52 0 0 0 7.88.23c5.51-.63 3.88-6.95 2.66-10.49-1.56-4.49-3.9-8.67-5.25-13.23a11.58 11.58 0 0 1 -.68-3.06c0-.37-.05-.56.24-.65a5.84 5.84 0 0 1 2.15.4l8.26 1.71 18.47 3.83a1.64 1.64 0 0 0 1.83-2.38q-2.91-5.19-5.84-10.37c-1-1.73-2-3.45-2.92-5.18-.88-1.57-1.62-3-.44-4.65a38.67 38.67 0 0 1 3.82-4l4.13-4.17 8.45-8.53a1.53 1.53 0 0 0 0-2.1c-4.43-5.57-10.59-9.27-16.81-12.51-3.21-1.66-6.47-3.24-9.64-5-.73-.4-1.48-.79-2.18-1.25-1-.69-.93-1.3-.48-2.41.85-2.06 1.75-4.11 2.63-6.16q3-7.07 6-14.11a1.45 1.45 0 0 0 -1.23-2.14l-36.31-1.54 1.22 2.13q7.29-10.25 14.86-20.28a1.42 1.42 0 0 0 -.84-2.07l-25.77-4.24.84 2.06 6.3-12.71c.83-1.67 2.47-3.91 1.69-5.86s-3-2-4.63-2.42a126.3 126.3 0 0 0 -27.13-3 123.11 123.11 0 0 0 -15.48.93l.37 2.76c12.93-3.61 26.2-5.78 39.48-7.61 13.53-1.86 27.12-3.74 40.76-4.49 24.71-1.37 50.7 1.74 71 17 18.86 14.16 30.47 35.76 37.42 57.87a285 285 0 0 1 8.68 37.77 400.33 400.33 0 0 1 4.75 40.47q.66 10.26.82 20.54.07 5.14 0 10.28c0 1.3.16 3-.54 4.12s-2.08 1.49-3.22 1.87q-18.93 6.39-38.45 10.86c-3.2.74-6.42 1.44-9.64 2.11l1.61.65a76.16 76.16 0 0 1 -9.26-26.95c-.21-1.5-.36-3-.48-4.53a9.67 9.67 0 0 0 -.72-4c-1.5-2.73-4.78-1.8-7.24-1.38l-10.31 1.76-20.61 3.52-23.55 4a1.26 1.26 0 0 0 -.92 1.2 208 208 0 0 1 1.46 24.95c0 2.12 0 4.25-.11 6.37-.05 1.6.2 4-1.19 5.09s-3.44 1.18-5 1.51q-3 .63-6 1.2-12.26 2.36-24.66 3.81c-4.18.49-8.38.9-12.58 1.27-1.78.15-4 .59-5.24-1s-1.61-3.59-2.22-5.31a122 122 0 0 1 -6-26.42c-.11-1-1.68-1-1.59 0z" fill="#18c4ff"/><path d="m596.84 614.92c-27.12-.64-52.59 12.46-75.41 27.13a482.11 482.11 0 0 0 -72.5 57.12c-2.14 2-4.34 4.24-5.13 7.09-1.1 4 .82 8.11 2.71 11.78 4.4 8.59 9.1 17.35 16.5 23.54s13.07 13.28 21.74 9c6.39-3.14 17.37-14.08 24.21-12.1 2.71.79 4.81 2.89 6.78 4.92l19 19.58c1.12 1.16 2.3 2.43 2.49 4 .2 1.76-.87 3.39-1.88 4.85l-15.88 22.74c-.95 1.35-1.93 2.83-1.89 4.47 0 1.94 1.5 3.53 2.87 4.89a186.19 186.19 0 0 0 32.36 25.64c2.57 1.61 5.4 3.21 8.42 3 3.45-.26 6.22-2.81 8.7-5.23l24.77-24.13a126.87 126.87 0 0 0 55.87 25 19.32 19.32 0 0 0 -.11-10.18 18.92 18.92 0 0 1 8.58.86l-2-16.62 16.05 2.85c2.82-5.4 2.06-11.94 3.77-17.78s8.51-11.3 13.51-7.83l-7-19.86a4.56 4.56 0 0 1 1.89-6.54l11.74-8.81a93.32 93.32 0 0 0 -14.89-19.73 29.94 29.94 0 0 0 15.57-10.7 135.05 135.05 0 0 0 -11.24-22.06l-29.06 9.4a124.11 124.11 0 0 1 -5.92-21l-22 3.83a79.93 79.93 0 0 1 26.76-15.3 145.64 145.64 0 0 0 9.55 19.47 78.83 78.83 0 0 1 16.86-5.64 15.57 15.57 0 0 0 -1.21-9.65 21.69 21.69 0 0 1 12.78-.57 43.55 43.55 0 0 0 -10.14-20.35 48.85 48.85 0 0 1 10.81-7.67 45.39 45.39 0 0 0 -19.71-4.39l7.21-16.31-79.88-9.5" fill="#fff"/><path d="m410.51 318.17a35.85 35.85 0 0 0 -.69 31.31 10.72 10.72 0 0 0 2.69 3.86c1.76 1.43 4.12 1.81 6.35 2.17a167.33 167.33 0 0 1 39.25 11.56 15.19 15.19 0 0 1 7.37 6.58c3.85 7 1.72 10.68 5.72 18.17a3.61 3.61 0 0 0 3.74 1.95c1.46-.26 1.82-1.36 2.14-2.39.76-2.43.29-4 .1-5.71a1.4 1.4 0 0 1 2.5-1c3.9 5.09 8.49 11.49 12.06 16a11.66 11.66 0 0 0 2.47 2.44 2 2 0 0 0 3.14-1.65c.13-5.57-3.87-12.2-8.32-18.31l13.75 11.72a2.43 2.43 0 0 0 3.32-.08c.83-.92.37-2-.1-2.86a75.33 75.33 0 0 0 -11.26-15.94l13.91 10.01a2.57 2.57 0 0 0 1.94.69c1.51-.33 1.12-2.61.33-4a65.23 65.23 0 0 0 -11.24-14 27 27 0 0 0 12.32 7.62c.62.18 1.41.28 1.81-.23a1.41 1.41 0 0 0 .13-.24 5.12 5.12 0 0 0 -1.61-5.28c-19.88-18.93-45.66-29.87-67.23-46.66a84.51 84.51 0 0 0 -14.83-9.31c-3-1.46-6.23-2.75-9.59-2.77a9.82 9.82 0 0 0 -8 3.66" fill="#fff"/><path d="m511.73 377.11c1.69.49 3-.09 3.28-1.9a6 6 0 0 0 -1.48-4.85 43.57 43.57 0 0 0 -4.73-4.48c-1.65-1.45-3.37-2.84-5.1-4.19a242.77 242.77 0 0 0 -21.7-14.86c-7.5-4.68-15.11-9.15-22.51-14-3.69-2.41-7.34-4.9-10.88-7.53s-7.25-5.58-11.16-8c-4.32-2.69-9.18-5.6-14.26-6.46-4.21-.72-9.12.32-11.54 4.1-.64 1 .86 2.19 1.66 1.28 5.92-6.69 15.54-1.33 21.66 2.2 7 4 13.2 9.35 19.89 13.87 13.19 8.9 27.14 16.56 40.14 25.71 3.63 2.56 7.18 5.24 10.59 8.1 1.69 1.42 3.37 2.86 5 4.34a8.3 8.3 0 0 1 2.12 2.42c.39.8 1 3-.53 2.65a.83.83 0 0 0 -.44 1.6z"/><path d="m508.07 386.55a2.89 2.89 0 0 0 3.17 1.06 2.38 2.38 0 0 0 1.47-2.06c.27-2.21-1.28-4.22-2.44-5.93-1.47-2.16-3.09-4.23-4.74-6.25-.83-1-1.68-2-2.56-3-.42-.48-.86-.93-1.31-1.36a4.58 4.58 0 0 0 -1.7-1.28c-1-.36-1.51.8-1.19 1.55a3.37 3.37 0 0 0 1 1.16c.35.32.64.7 1 1 .72.69 1.43 1.4 2.12 2.12a51.59 51.59 0 0 1 3.92 4.8 45.05 45.05 0 0 1 3.21 5 3.27 3.27 0 0 1 .49 1.79c-.08.8-.91.32-1.42.09a.83.83 0 0 0 -1 1.3z"/><path d="m502.2 395.38a3.18 3.18 0 0 0 5.21-.61 3.63 3.63 0 0 0 -.32-3.23 41.46 41.46 0 0 0 -2-3.62c-1.42-2.29-2.94-4.53-4.53-6.71-.78-1.08-1.58-2.15-2.4-3.2-.41-.53-.83-1.07-1.29-1.56a5.63 5.63 0 0 0 -1.55-1.45c-.75-.35-1.91.26-1.56 1.2a8.34 8.34 0 0 0 1.85 2.46c.68.75 1.35 1.5 2 2.27a51.42 51.42 0 0 1 3.83 5.22c1.14 1.74 2.17 3.55 3.16 5.38.3.56 1.2 1.73.74 2.39s-1.51.46-2.1.16a.83.83 0 0 0 -1 1.3z"/><path d="m491 401c1.13 2 3.39 4.53 5.9 3 2.16-1.28 1.62-4.23 1.14-6.27a31.22 31.22 0 0 0 -3.23-7.76c-.76-1.4-1.57-2.78-2.41-4.14s-1.61-2.89-2.85-3.73a1.07 1.07 0 0 0 -1.55 1.2 11 11 0 0 0 2 3.1c.72 1 1.44 2 2.1 3.08a33.14 33.14 0 0 1 3.09 6.12c.62 1.67 1.35 3.92 1.08 5.73-.35 2.32-3.3-.84-3.91-1.38a.84.84 0 0 0 -1.31 1z"/><path d="m409.8 317.76a35.62 35.62 0 0 0 -1.12 31.9 11.43 11.43 0 0 0 3.59 4.88 13.83 13.83 0 0 0 5.9 2c2.43.4 4.85.84 7.27 1.34a166.31 166.31 0 0 1 28.95 8.78 29 29 0 0 1 6.22 3.06 13.9 13.9 0 0 1 4.17 4.9c1.83 3.51 2.11 7.24 2.92 11 .78 3.62 2.72 10.5 7.75 9.24 2.09-.52 2.84-2.65 3.07-4.58a14.8 14.8 0 0 0 .05-3.19c0-.25-.43-2.46.36-1.73a1.06 1.06 0 0 0 1.5-1.49 2.57 2.57 0 0 0 -3.86-.14c-1.18 1.28-.33 3.18-.24 4.68s-.34 4.6-2.44 4.12-2.89-3.71-3.43-5.43c-1.08-3.38-1.2-7-2.38-10.33a17.87 17.87 0 0 0 -7-9.36 35.42 35.42 0 0 0 -6.08-2.81q-3.36-1.37-6.75-2.58c-4.62-1.64-9.3-3.07-14-4.33s-9.36-2.28-14.11-3.09c-2.12-.36-4.5-.56-6.35-1.76s-2.78-3.43-3.57-5.38a36.6 36.6 0 0 1 1.08-28.87c.44-.95-.9-1.78-1.43-.83z"/><path d="m245.25 257.65a437 437 0 0 1 186.08 39.2c13.05 5.95 26.73 13.49 32.56 26.59 4.85 10.92 3.23 23.49 1.52 35.31-1.24 8.53-2.6 17.38-7.41 24.54s-14.15 12-22.2 8.95c-2.74-1.05-5.13-2.92-7.94-3.78-11.74-3.59-23.53 11.63-35 7.33-14.68-5.49-8.08-34-23.16-38.23-2.58-.73-5.32-.48-8-.5-34-.26-62.44-38.93-96.29-35.58"/><path d="m245.25 258.46a439.48 439.48 0 0 1 62.68 4 444.05 444.05 0 0 1 60.83 12.72 432.06 432.06 0 0 1 59 21.41c15.7 7 33.4 16 37.17 34.45 2 9.82.32 20.09-1.16 29.86-1.36 9-3.24 19.13-10.3 25.6a19.49 19.49 0 0 1 -11 5.27 13.61 13.61 0 0 1 -5.94-.7c-2.25-.8-4.23-2.22-6.4-3.19-7.24-3.21-14.41.42-20.95 3.56-5.74 2.76-13 6-18.73 1.48-4.26-3.35-5.74-9.27-7-14.26-1.41-5.49-2.43-11.44-5.51-16.31a14 14 0 0 0 -5.58-5.22c-4-1.93-8.33-1.27-12.6-1.49-15.37-.78-29.21-9.17-42.09-16.84s-26.36-16.34-41.55-18.44a44.89 44.89 0 0 0 -10.68-.1c-1.52.14-1.54 2.54 0 2.39 7.36-.7 15 .86 21.87 3.34 7.36 2.65 14.26 6.46 21 10.39 13.48 7.86 26.93 17.13 42.37 20.65a51.6 51.6 0 0 0 11.28 1.33c3.85 0 7.83-.27 11 2.28 4.27 3.42 5.62 9.57 6.89 14.6 1.4 5.56 2.53 11.66 5.9 16.43a14.35 14.35 0 0 0 6.17 5.11 15.56 15.56 0 0 0 10.28.33 65.35 65.35 0 0 0 10.43-4.41c3.26-1.56 6.75-3.2 10.41-3.47a12.25 12.25 0 0 1 5.3.74c2.25.86 4.23 2.28 6.45 3.22a17 17 0 0 0 12.2.24c8.75-3 14.08-10.81 16.72-19.34a93.78 93.78 0 0 0 2.88-14.18c.75-5.11 1.49-10.24 1.76-15.4.52-9.68-.9-19.5-6.61-27.56-5-7-12.14-12.13-19.61-16.22a253.65 253.65 0 0 0 -26.71-12.14q-14.73-6-29.87-10.87a434 434 0 0 0 -124.82-20.9c-5.15-.1-10.3-.09-15.44 0a.81.81 0 0 0 0 1.62z"/><path d="m185.33 580.38c-51.28-3.88-100.06 20.62-150.76 29.22a9.52 9.52 0 0 0 -4.41 1.51c-1.49 1.17-2.12 3.1-2.61 4.94a77.56 77.56 0 0 0 -2 28.86c.33 2.81.34 6.83 1 10.3a3.46 3.46 0 0 0 6.52.83c3-6.32 7.19-12.38 13.57-13.69 8.34-1.71 17-.69 25.44.21 48.2 5.15 102.74 7.57 151.13 4.7" fill="#fff"/><path d="m26.56 655.21a3.46 3.46 0 0 0 6.52.83c3-6.32 7.19-12.38 13.57-13.69a55.47 55.47 0 0 1 14.16-.8c0-2.31-.18-4.63-.36-6.9-.26-3.34-.59-6.78-2.19-9.71s-4.84-5.25-8.15-4.73a129.59 129.59 0 0 0 1.89-14.14c-5.78 1.34-11.57 2.54-17.38 3.53a9.52 9.52 0 0 0 -4.41 1.51c-1.49 1.17-2.12 3.1-2.61 4.94a77.56 77.56 0 0 0 -2 28.86c.27 2.81.28 6.83.96 10.3z" fill="#18c4ff"/><path d="m25.55 655.49a4.55 4.55 0 0 0 6.15 3.22c1.49-.62 2.11-1.83 2.8-3.2a41.91 41.91 0 0 1 3-5.17c2.14-3.05 5-5.84 8.69-6.82 4.68-1.25 9.79-1.16 14.58-.92a1.06 1.06 0 0 0 1-1.05c0-2.81-.23-5.63-.49-8.43a25.56 25.56 0 0 0 -1.54-7.29c-1.58-3.84-5.31-7.22-9.72-6.67l1 1.33a137.35 137.35 0 0 0 1.98-14.42 1.05 1.05 0 0 0 -1.32-1c-4.8 1.11-9.63 2.13-14.48 3-2.11.38-4.41.54-6.39 1.44a7 7 0 0 0 -3.51 3.93c-1.66 4.07-2.27 8.8-2.79 13.13a77.53 77.53 0 0 0 -.36 14.53c.16 2.34.46 4.67.62 7a62.93 62.93 0 0 0 .79 7.36c.24 1.32 2.26.76 2-.56-.72-3.91-.81-8-1.18-11.92a78.5 78.5 0 0 1 -.11-13.1 75.34 75.34 0 0 1 2.23-13.35c.47-1.79 1-3.83 2.67-4.88s4-1.12 5.85-1.45c5.1-.92 10.16-2 15.2-3.15l-1.32-1a134.67 134.67 0 0 1 -1.79 13.86c-.11.59.27 1.42 1 1.33 4.22-.54 7.19 3.08 8.28 6.76 1.26 4.27 1.31 9.11 1.38 13.53l1-1a59.88 59.88 0 0 0 -13 .57 16.25 16.25 0 0 0 -9 4.57 33 33 0 0 0 -6 8.63c-.62 1.23-1.09 2.58-2.66 2.68a2.44 2.44 0 0 1 -2.56-2c-.29-1.36-2.31-.81-2 .51z" fill="#18c4ff"/><path d="m185.33 579.64c-27.46-2.17-54.6 3.81-80.92 11.06-13.34 3.67-26.59 7.69-40 11.21-6.74 1.77-13.52 3.42-20.35 4.84-3.38.7-6.78 1.31-10.18 1.91-3 .54-5.31 1.73-6.55 4.67a43.89 43.89 0 0 0 -2.33 9.67 81.89 81.89 0 0 0 -1 10.48 78.47 78.47 0 0 0 .45 10.95c.34 3.12.4 6.25.83 9.36.32 2.28 1 4.45 3.49 5.12a4.55 4.55 0 0 0 5.09-2.09c1.49-2.49 2.61-5.1 4.4-7.43a16.9 16.9 0 0 1 6.24-5.24c3.11-1.4 6.91-1.53 10.26-1.63a91.1 91.1 0 0 1 11.08.47c7 .65 14 1.47 20.94 2.12q20.9 1.95 41.85 3.09c28.23 1.52 56.56 2 84.81.73 3.27-.15 6.53-.33 9.79-.6 1.35-.12 1.39-2.19 0-2.14-13.46.47-26.9 1.08-40.37 1.14q-20.81.1-41.6-.77t-41.32-2.49q-10.17-.81-20.32-1.82c-6.83-.67-13.67-1.63-20.53-1.86a58.62 58.62 0 0 0 -10.59.55 16.63 16.63 0 0 0 -7.77 3 23.73 23.73 0 0 0 -5.32 5.81c-.79 1.18-1.51 2.41-2.18 3.66-.53 1-.92 2.45-1.89 3.13a2.47 2.47 0 0 1 -2.45.19c-1.14-.55-1.32-1.71-1.5-2.86-.48-3.12-.5-6.3-.85-9.44a77 77 0 0 1 .53-21.11c.28-1.73.63-3.44 1-5.14a19.49 19.49 0 0 1 1.46-4.67c1.57-3 5.47-2.93 8.41-3.46 6.55-1.2 13-2.64 19.51-4.24 13.15-3.23 26.13-7.09 39.15-10.79 25.69-7.32 51.91-14.34 78.82-14.26q5 0 9.89.36c1 .07.94-1.41 0-1.48z"/><path d="m50.72 635.58a23.47 23.47 0 0 1 1.89 8.66l1.86-.5a30.63 30.63 0 0 0 -10.76-9.37 1.14 1.14 0 0 0 -1.65 1.27 86.87 86.87 0 0 1 1.84 10.49l2-.82a33.6 33.6 0 0 0 -8.18-5.81 1.18 1.18 0 0 0 -1.76 1 21.85 21.85 0 0 0 1.29 7.76c.5 1.38 2.73.79 2.23-.61a19.85 19.85 0 0 1 -1.18-7.15l-1.76 1a32.22 32.22 0 0 1 7.7 5.5c.65.63 2.1.24 2-.82a91.06 91.06 0 0 0 -2-11.09l-1.66 1.28a29.53 29.53 0 0 1 10.17 8.43c.54.71 1.93.59 1.87-.51a23.23 23.23 0 0 0 -2.43-9.29c-.4-.8-1.83-.23-1.47.62z"/><path d="m284.58 373.75a424.82 424.82 0 0 1 101.52 124.13c11.16 20.65 20.82 44 16.46 67-4 21-18.9 38.11-34.55 52.66-13.52 12.56-28.13 24.14-44.56 32.54-45.66 23.32-99.83 19.79-150.94 15.69-6-.47-12.14-1-17.39-3.89-7.36-4-11.67-11.95-14.77-19.75-5.5-13.84-8-30.95 1.34-42.57 2.85-3.55 6.62-6.31 9.2-10.06 7.53-11 3-27.27 11-37.93 5.57-7.43 15.48-9.79 24.53-11.88a542.53 542.53 0 0 0 84.57-27c3-1.24 6.08-2.57 8.29-4.94 4.86-5.21 4-13.39 2.57-20.38a507.92 507.92 0 0 0 -37.07-114.67" fill="#18c4ff"/><path d="m284 374.32a434.71 434.71 0 0 1 61.41 63.77 431.3 431.3 0 0 1 25.46 36.2c8 12.79 15.71 26 21.84 39.82 6.29 14.24 10.88 29.89 9.29 45.58-1.43 14.23-8.33 27.15-17.14 38.17-9.05 11.33-19.95 21.31-31.15 30.48-12 9.8-25 18.35-39.18 24.51-27.53 11.91-57.89 14.85-87.53 14.59-15.2-.14-30.38-1.11-45.53-2.27-3.83-.29-7.66-.57-11.48-.92a43.62 43.62 0 0 1 -11.22-2.16c-6.6-2.43-11.07-7.92-14.24-14a72 72 0 0 1 -6.67-19c-1.29-6.42-1.59-13.24.24-19.6a26.18 26.18 0 0 1 4.2-8.49c2.17-2.88 5-5.18 7.41-7.84 4.41-4.9 6.23-10.91 7.16-17.31s1.09-13 3.55-18.93c2.56-6.21 7.87-10.1 14-12.43 6.6-2.49 13.67-3.71 20.5-5.4q11.94-3 23.74-6.45 23.58-7 46.47-16.08c6.26-2.49 14.32-4.62 17.46-11.23 2.82-6 1.66-12.9.43-19.1a507.75 507.75 0 0 0 -27.75-92.69c-2.94-7.24-6.17-14.32-9.44-21.41-.65-1.43-2.76-.19-2.1 1.23a508.67 508.67 0 0 1 32.15 93.23c1.87 7.72 3.7 15.51 5 23.35 1.09 6.43 1.45 14.33-4.53 18.53-3.18 2.24-7.1 3.49-10.68 4.93-3.89 1.57-7.8 3.08-11.73 4.56q-11.78 4.41-23.75 8.28c-15.54 5-31.29 9.1-47.16 12.92-6.28 1.52-12.77 3.37-18 7.38s-7.83 9.74-9.06 16-1.31 12.89-3.05 19.14a23.23 23.23 0 0 1 -4.52 8.84c-2.31 2.73-5.11 5-7.4 7.76-8.81 10.57-8 25.39-4.24 37.83 1.93 6.4 4.55 12.91 8.43 18.39a27.15 27.15 0 0 0 16.19 11.18 77.91 77.91 0 0 0 11.58 1.5q5.61.45 11.22.88c7.7.57 15.41 1.09 23.13 1.46 30.16 1.46 61.05.84 90.22-7.76a153.06 153.06 0 0 0 41.47-19.23 235.81 235.81 0 0 0 35.16-29c10.08-9.92 19.52-21.06 25.24-34.11 6.06-13.83 6.85-28.75 3.57-43.41-3.46-15.47-10.69-29.86-18.37-43.61a421.32 421.32 0 0 0 -23.75-37.72 415.47 415.47 0 0 0 -59.16-67.25q-8.06-7.35-16.48-14.27c-.81-.66-2 .47-1.16 1.15z" fill="#18c4ff"/><path d="m323.45 650.1c15.92-8.14 30.13-19.28 43.3-31.4-1.56-4.45-3.32-8.82-5.16-13.07a397.09 397.09 0 0 0 -70.11-108.8l-8.82 3.49a13.74 13.74 0 0 1 -3.39 7.42c-2.21 2.37-5.29 3.7-8.29 4.94a540.62 540.62 0 0 1 -52.15 18.46c-9.18 36.72-26.33 71.56-30.38 109.19-1 8.93-1.14 18.1 1.2 26.77 45.91 3.24 93.21 3.73 133.8-17z"/><path d="m324 651c16-8.22 30.29-19.41 43.51-31.56a1 1 0 0 0 .27-1 271.08 271.08 0 0 0 -11.45-26.92q-6-12.59-12.92-24.71a398.27 398.27 0 0 0 -31-46.59q-9.61-12.45-20.18-24.12a1 1 0 0 0 -1-.27c-2.86 1.14-5.73 2.25-8.59 3.4-1 .41-1 1.18-1.23 2.19a12.52 12.52 0 0 1 -2.16 4.77c-2.2 2.9-5.7 4.33-9 5.67q-23 9.49-46.87 16.82l-2.76.84c-.79.24-2.09.33-2.62 1a6.55 6.55 0 0 0 -.69 2.34c-.27 1-.54 2.06-.82 3.09-1 3.75-2.1 7.47-3.23 11.18-2.3 7.51-4.79 15-7.31 22.39-5.05 14.9-10.19 29.79-13.93 45.08a200.73 200.73 0 0 0 -4.28 22.8c-1 8-1.49 16-.34 24a56 56 0 0 0 1.23 6 1.09 1.09 0 0 0 1 .77c18.08 1.27 36.23 2.13 54.36 1.42 17.64-.69 35.33-2.87 52.33-7.75a155 155 0 0 0 27.68-10.84c1.2-.61.14-2.41-1.06-1.8-15.62 7.95-32.58 12.86-49.86 15.57-17.56 2.74-35.38 3.23-53.08 2.83-10.12-.26-20.23-.83-30.33-1.55l1 .77c-2.43-9.17-2.08-18.74-1-28.08a200 200 0 0 1 5.08-26.45c4.48-17.48 10.68-34.44 16.35-51.55 3.2-9.68 6.24-19.42 8.73-29.32l-.73.73q14.76-4.39 29.26-9.62 7.24-2.61 14.41-5.43c4.39-1.72 9-3.27 13.17-5.56a14.87 14.87 0 0 0 7.72-10.94l-.73.73 8.82-3.49-1-.27a394.92 394.92 0 0 1 34.25 43.62 397.47 397.47 0 0 1 27.78 47.81 277.56 277.56 0 0 1 13 30l.27-1c-13.1 12-27.21 23.09-43.09 31.24-1.24.57-.18 2.37 1.04 1.76z"/><path d="m241.85 714.61c-3.88 51.27 20.62 100.06 29.22 150.76a9.52 9.52 0 0 0 1.51 4.41c1.17 1.49 3.11 2.12 4.94 2.6a77.57 77.57 0 0 0 28.86 2c2.81-.34 6.84-.35 10.3-1a3.46 3.46 0 0 0 .83-6.52c-6.31-3-12.38-7.2-13.69-13.57-1.71-8.34-.69-17 .21-25.44 5.15-48.2 7.57-102.74 4.7-151.13" fill="#fff"/><path d="m316.68 873.38a3.46 3.46 0 0 0 .83-6.52c-6.31-3-12.38-7.2-13.69-13.57a55.09 55.09 0 0 1 -.79-14.17c-2.31 0-4.63.18-6.91.37-3.33.26-6.78.59-9.71 2.19s-5.25 4.84-4.73 8.14a131.73 131.73 0 0 0 -14.14-1.82c1.34 5.77 2.54 11.56 3.53 17.38a9.52 9.52 0 0 0 1.51 4.41c1.17 1.49 3.11 2.12 4.94 2.6a77.57 77.57 0 0 0 28.86 2c2.81-.33 6.84-.34 10.3-1.01z" fill="#18c4ff"/><path d="m317 874.39a4.55 4.55 0 0 0 3.22-6.16c-.62-1.49-1.83-2.11-3.19-2.79a42.43 42.43 0 0 1 -5.17-3c-3.05-2.14-5.84-5-6.83-8.69-1.24-4.68-1.16-9.79-.92-14.59a1 1 0 0 0 -1-1c-2.82 0-5.63.23-8.44.49a24.9 24.9 0 0 0 -7.29 1.54c-3.84 1.58-7.22 5.31-6.66 9.71l1.32-1a139.7 139.7 0 0 0 -14.42-1.87 1.06 1.06 0 0 0 -1 1.33c1.11 4.8 2.14 9.62 3 14.47.39 2.12.54 4.41 1.44 6.39a7 7 0 0 0 3.93 3.51c4.07 1.66 8.8 2.28 13.14 2.79a77.41 77.41 0 0 0 14.52.37c2.35-.16 4.67-.47 7-.62a64.91 64.91 0 0 0 7.36-.79c1.32-.25.76-2.26-.56-2-3.9.73-8 .81-11.92 1.18a77.44 77.44 0 0 1 -13.1.12 75.36 75.36 0 0 1 -13.43-2.35c-1.79-.46-3.83-1-4.88-2.66s-1.12-4-1.45-5.86c-.91-5.09-2-10.16-3.15-15.2l-1 1.33a131.63 131.63 0 0 1 13.86 1.79c.59.11 1.42-.28 1.33-1-.54-4.21 3.08-7.19 6.76-8.27 4.27-1.27 9.11-1.32 13.54-1.38l-1-1a60 60 0 0 0 .57 13 16.32 16.32 0 0 0 4.57 9 33.12 33.12 0 0 0 8.64 6c1.22.62 2.57 1.08 2.68 2.65a2.43 2.43 0 0 1 -2 2.56c-1.38.29-.82 2.31.53 2z" fill="#18c4ff"/><path d="m241.11 714.61c-2.17 27.46 3.82 54.6 11.06 80.91 3.67 13.35 7.69 26.6 11.21 40 1.78 6.74 3.42 13.52 4.84 20.35.7 3.38 1.31 6.77 1.92 10.17.53 3 1.73 5.32 4.66 6.55a42.79 42.79 0 0 0 9.67 2.34 78.44 78.44 0 0 0 10.48 1 77.17 77.17 0 0 0 11-.44c3.11-.35 6.25-.4 9.35-.83 2.28-.32 4.45-1 5.12-3.49a4.57 4.57 0 0 0 -2.08-5.1c-2.5-1.49-5.11-2.6-7.44-4.4a16.82 16.82 0 0 1 -5.24-6.24c-1.4-3.1-1.53-6.9-1.63-10.25a89.37 89.37 0 0 1 .48-11.09c.65-7 1.47-14 2.12-20.93q1.95-20.89 3.08-41.85c1.52-28.24 2-56.56.73-84.82-.14-3.27-.33-6.52-.6-9.78-.11-1.35-2.19-1.39-2.14 0 .48 13.46 1.09 26.9 1.15 40.37q.09 20.8-.78 41.59t-2.53 41.33q-.81 10.17-1.81 20.32c-.68 6.83-1.64 13.66-1.86 20.53a56.71 56.71 0 0 0 .55 10.58 16.55 16.55 0 0 0 3 7.78 23.79 23.79 0 0 0 5.82 5.32 38.29 38.29 0 0 0 3.66 2.17c1 .54 2.45.92 3.13 1.89a2.5 2.5 0 0 1 .18 2.45c-.55 1.14-1.71 1.33-2.85 1.5-3.13.49-6.3.51-9.44.86a77 77 0 0 1 -21.12-.53c-1.72-.29-3.44-.63-5.14-1a19.26 19.26 0 0 1 -4.66-1.45c-3-1.58-2.93-5.48-3.47-8.42-1.2-6.54-2.64-13.05-4.23-19.51-3.24-13.14-7.09-26.13-10.8-39.15-7.32-25.68-14.34-51.9-14.26-78.81q0-4.95.36-9.89c.07-1-1.41-1-1.48 0z"/><path d="m201.57 454.15c-6.49 40.05 19.67 78.91 18.49 119.47-.69 23.81-10.74 46.19-16.82 69.21s-7.57 49.64 6.81 68.62c9.27 12.24 24 19.45 39 22.65s30.53 2.8 45.87 2.37c9.3-.25 18.76-.54 27.54-3.57s16.95-9.32 19.89-18.14c2.84-8.53.47-17.78-.35-26.72-1.07-11.79.62-23.63.86-35.45.42-20.71-3.6-41.22-7.61-61.54-15.42-78.05-20.18-141.51-76.54-217.94" fill="#18c4ff"/><path d="m200.86 454c-4.08 24.81 4 49.16 10.55 72.81 3.34 12.17 6.41 24.53 7.24 37.16.9 13.52-1.37 26.76-5 39.75-6.85 24.6-17.55 48.62-16.21 74.7.59 11.37 3.54 22.81 10.1 32.24 6.69 9.61 16.48 16.39 27.23 20.76 12.39 5 25.86 6.57 39.14 6.86 7.21.16 14.42-.05 21.63-.25a125.54 125.54 0 0 0 19.93-1.68c10.88-2.08 22.24-7.81 27.13-18.32 2.81-6 2.82-12.64 2.11-19.13-.78-7.17-1.77-14.19-1.65-21.43s.8-14.42 1.07-21.64a169.38 169.38 0 0 0 -.63-21.84c-1.3-14.33-4.09-28.45-6.9-42.54-4.6-23.15-8.6-46.37-13.34-69.45-4.58-22.21-10.15-44.21-18.06-65.49a335.9 335.9 0 0 0 -33.85-66.79q-5.69-8.7-11.87-17.08c-.68-.91-2.23 0-1.54.9a337.76 337.76 0 0 1 38.71 66.62c8.92 20.76 15.45 42.45 20.59 64.42 5.1 21.81 8.85 43.9 12.83 65.93 4.8 26.52 11.62 53.19 11.37 80.29-.07 7.11-.72 14.19-1.06 21.28a119.67 119.67 0 0 0 .71 21c.87 6.79 2 13.94 0 20.63a25.3 25.3 0 0 1 -9.82 13c-10.55 7.49-23.91 7.91-36.38 8.26-14 .39-28.18.81-42-1.65-11.71-2.08-23.34-6.31-32.73-13.77a51.28 51.28 0 0 1 -17.85-28.41c-5.87-24.21 2.29-48.72 9.48-71.66 3.95-12.6 7.72-25.35 9.07-38.54 1.25-12.27-.12-24.54-2.71-36.55-5.19-24-15.21-47.22-16.61-72a88 88 0 0 1 .77-18.06c.14-.92-1.25-1.32-1.41-.39z" fill="#18c4ff"/><path d="m149.77 317.26c4-14.7 13.48-27.59 25.44-37s26.28-15.58 41-19.31c12.84-3.24 26.43-4.7 39.29-1.57s24.93 11.37 30.33 23.46c2.71 6.06 3.65 12.76 4.08 19.38a136.87 136.87 0 0 1 -7 52.7c-.63 1.85-1.3 3.82-.86 5.72.54 2.29 2.55 3.89 3.91 5.8 10.73 15.07-9.43 35-20.89 42.88-15.78 10.81-36.39 16.22-55.41 16.34-8 .06-22.71.48-29.41-4.72a9 9 0 0 1 -3.12-6.42c-.61-6.93.7-12.16-2-19.05s-7-13-10.73-19.41c-10-17.28-19.12-32.1-15.17-57.2"/><path d="m150.48 317.46c4.62-16.15 15.76-29.86 29.48-39.29a104 104 0 0 1 23.45-11.93 121.88 121.88 0 0 1 27.06-6.62c16.87-2 35.17 1 47.36 13.78 6 6.27 9 14.16 10.13 22.66a123.49 123.49 0 0 1 .16 28.63 134.34 134.34 0 0 1 -5.92 28c-.7 2.18-1.71 4.44-1.64 6.78a8.8 8.8 0 0 0 2.32 5.3c2.12 2.62 3.93 5 4.55 8.43 1.13 6.13-1.88 12.34-5.23 17.27a68.48 68.48 0 0 1 -13.55 14.33c-12.55 10.17-28.58 15.87-44.43 18.21a135.46 135.46 0 0 1 -22.51 1.09 73.51 73.51 0 0 1 -10.59-.83 24.33 24.33 0 0 1 -9-3c-3.78-2.37-3.62-6.92-3.64-10.89 0-4.25 0-8.49-1.24-12.6a56.43 56.43 0 0 0 -6.05-12.39c-2.32-3.81-4.73-7.57-7-11.41-3.69-6.21-7.38-12.5-10.06-19.22a63.6 63.6 0 0 1 -4.62-21.72 71.84 71.84 0 0 1 .86-13c.2-1.31-1.81-1.88-2-.55a68.65 68.65 0 0 0 .47 25.44 84.94 84.94 0 0 0 8 20.6c3.86 7.43 8.25 14.56 12.42 21.82 2.4 4.18 4.87 8.59 5.84 13.36.9 4.4.39 8.91.63 13.36.22 4.18 1.56 7.76 5.3 10a27.17 27.17 0 0 0 9.53 3.1c7 1.14 14.21 1.07 21.29.89 17.67-.45 35.71-5.08 50.83-14.39a77.63 77.63 0 0 0 15.67-12.78c4.7-5 9-10.75 11.14-17.34s1.1-13.12-3.3-18.36c-1.28-1.53-2.78-3-2.7-5.15.1-2.41 1.32-4.87 2-7.14a135.92 135.92 0 0 0 3.65-14.56 139 139 0 0 0 2.51-29.56c-.22-9.4-1.05-19.26-5.5-27.72-7.92-15-24.92-22.71-41.27-23.73-10-.62-20.1.94-29.78 3.48a121.5 121.5 0 0 0 -25.48 9.68c-15.36 8-28.81 20.33-36.32 36.11a64.52 64.52 0 0 0 -4.2 11.44.73.73 0 0 0 1.41.39z"/><path d="m230.51 266.64-5.62 16.25a2 2 0 0 1 -2.54 1.59 33.4 33.4 0 0 1 -24.42-11 6.49 6.49 0 0 1 -1.93-3.48 7.49 7.49 0 0 1 1-3.82 169.63 169.63 0 0 0 10.37-30.28" fill="#fff"/><path d="m258.56 218.68c0-2.73 2.9-21.79-17.51-25.34a33.65 33.65 0 0 0 -22.4 4.17 58.27 58.27 0 0 0 -6.1 4c-21.05 15.79-8.05 59.49 18.81 64.73 16.81 3.25 23-12.86 25.75-26.47 1.37-6.92 1.41-14.03 1.45-21.09z" fill="#fff"/><path d="m231.08 267.25a19.4 19.4 0 0 0 12.79-1.55 21.79 21.79 0 0 0 8.17-8.25c5-8.45 6.89-19 7.37-28.66.19-4 .1-8 .29-11.95a35.11 35.11 0 0 0 -.28-6.72c-1-6.61-4.62-12.42-10.7-15.43a30.61 30.61 0 0 0 -17.55-2.54c-7.12 1-13.44 4.22-19.15 8.47-1.07.79 0 2.61 1.06 1.81 4.84-3.61 10.11-6.57 16.06-7.82a30.41 30.41 0 0 1 16.11.88 17.83 17.83 0 0 1 11.86 13.56c1 4.54.43 9.36.37 14-.13 10.06-1.17 20.39-5.33 29.68-1.71 3.8-4 7.57-7.47 10a16.66 16.66 0 0 1 -13.05 2.5c-1.31-.24-1.88 1.77-.55 2z"/><path d="m242.17 227.58v4.06a10.6 10.6 0 0 0 .13 1.69 3.1 3.1 0 0 0 1 1.71 1.89 1.89 0 0 1 .46 2.11c-.45 1-1.46.95-2.18 1.66-1.29 1.26.7 3.25 2 2-.1.09.15-.1.08-.06l.46-.19a3.92 3.92 0 0 0 .75-.47 4.58 4.58 0 0 0 1.13-1.39 4.5 4.5 0 0 0 -.91-5.51 9.36 9.36 0 0 0 -.79-.62c-.23-.16-.22-.2-.27-.5-.22-1.48-.3-3-.41-4.49-.07-.94-1.5-1-1.48 0z"/><path d="m210.22 227.4-.17.07.21-.06h-.2a1.31 1.31 0 0 1 .28 0h-.21a1.93 1.93 0 0 1 .41.12l-.21-.08a1.65 1.65 0 0 1 .32.18l-.18-.14a2.23 2.23 0 0 1 .27.26l-.14-.18a2.87 2.87 0 0 1 .28.48l-.1-.22a3.9 3.9 0 0 1 .27 1v-.26a.81.81 0 0 1 0 .22v-.27a.75.75 0 0 1 0 .16l.1-.25a.22.22 0 0 1 0 .08l.16-.2.2-.16.24-.1h.27.27l.72.72a1.82 1.82 0 0 1 -.07-.25v.28a1.5 1.5 0 0 1 0-.3v.28a1.78 1.78 0 0 1 .09-.33l-.11.26a1.48 1.48 0 0 0 .18-.62 2.35 2.35 0 0 0 -.05-.37 1.07 1.07 0 0 0 -.47-.61 1 1 0 0 0 -.79-.11 1.62 1.62 0 0 0 -.54.31 1.36 1.36 0 0 0 -.31.55 2.8 2.8 0 0 0 -.09.58 2.17 2.17 0 0 0 .26 1.09 1.13 1.13 0 0 0 1.8.18 1.42 1.42 0 0 0 .32-.59 1.63 1.63 0 0 0 0-.49 2.75 2.75 0 0 0 -.19-.8 5.3 5.3 0 0 0 -.34-.77 3.09 3.09 0 0 0 -.52-.67 2.38 2.38 0 0 0 -.82-.5 1.78 1.78 0 0 0 -1.82.34.72.72 0 0 0 -.06.94.73.73 0 0 0 .38.26.82.82 0 0 0 .55-.08z"/><path d="m229.84 266.25a66.62 66.62 0 0 0 -3.15 8.24l-1.47 4.17-.74 2.09a7.15 7.15 0 0 1 -.84 2.29c-.68.74-2.79.3-3.69.23a31.07 31.07 0 0 1 -3.85-.57 32.9 32.9 0 0 1 -13.33-6.2c-1.86-1.47-4.07-3.27-5.22-5.38-.78-1.43-.31-2.79.3-4.19s1.21-2.72 1.79-4.09c1.07-2.55 2.09-5.12 3-7.71 2.27-6.2 4.12-12.54 5.84-18.91.41-1.5-2-2.14-2.31-.64a137.56 137.56 0 0 1 -5.53 18.75c-1.13 3.08-2.35 6.14-3.66 9.15-1.12 2.57-2.9 5.37-1.62 8.21 1.07 2.37 3.38 4.36 5.35 6a34.79 34.79 0 0 0 6.77 4.37 35.38 35.38 0 0 0 7.79 2.75 25.84 25.84 0 0 0 7.77.77 3.15 3.15 0 0 0 2.87-2.38c.61-1.69 1.16-3.41 1.74-5.11 1.24-3.67 2.81-7.42 3.56-11.22.16-.81-1-1.43-1.41-.6z"/><path d="m249.58 229a1 1 0 0 0 .13-.5 1.34 1.34 0 0 0 -.14-.52l.08.21a1.1 1.1 0 0 0 -.3-.51 1.14 1.14 0 0 0 -.47-.28 2 2 0 0 0 -.34 0 1.2 1.2 0 0 0 -.64.19 1.5 1.5 0 0 0 -.49.48 2.39 2.39 0 0 0 -.2.43l-.06.22c0 .13 0 .26-.05.39a1.5 1.5 0 0 0 0 .37.27.27 0 0 0 0 .12 1.81 1.81 0 0 0 .16.35l.16.21a.8.8 0 0 0 .35.22.48.48 0 0 0 .26.07.75.75 0 0 0 .42 0l.14-.06.13-.06.11-.09.12-.09.16-.22a1.28 1.28 0 0 0 .11-.27.75.75 0 0 0 0-.42.78.78 0 0 0 -.12-.39 1.26 1.26 0 0 0 -.63-.49h-.29a1 1 0 0 0 -.53.15l-.21.16a1.11 1.11 0 0 0 -.27.47l.11-.25s0 0 0 0l.16-.22.22-.16.25-.11 1.19.49-.05-.09.11.25a.27.27 0 0 1 0-.12v.28c0-.11 0-.23 0-.34v.28a1.08 1.08 0 0 1 0-.31v.27a1.05 1.05 0 0 1 .06-.24l-.1.24a.41.41 0 0 1 .07-.11l-.16.2a.3.3 0 0 1 .08-.08l-.2.15h.07l-.24.1h.08-.25a.94.94 0 0 0 .31 0h.12-.24.08-.24l-.2-.09-.17-.14-.13-.17-.09-.2.08.19.12.17.17.12a.63.63 0 0 0 .3.1.38.38 0 0 0 .21 0 .42.42 0 0 0 .21-.06.42.42 0 0 0 .17-.1.58.58 0 0 0 .21-.23z"/><path d="m232.19 226.93a1 1 0 0 0 .13-.5 1.15 1.15 0 0 0 -.14-.52l.09.21a1.31 1.31 0 0 0 -.31-.52 1.06 1.06 0 0 0 -.47-.27 1.27 1.27 0 0 0 -.34 0 1.23 1.23 0 0 0 -.64.19 1.5 1.5 0 0 0 -.49.48 1.82 1.82 0 0 0 -.19.43 1.42 1.42 0 0 0 -.07.22v.38a1.53 1.53 0 0 0 0 .38v.12a1.74 1.74 0 0 0 .16.34l.17.22a.87.87 0 0 0 .34.22.59.59 0 0 0 .26.07.86.86 0 0 0 .42 0l.14-.05.13-.06.11-.09.12-.09.16-.22s0 0 0 0 .09-.19.12-.27a1.33 1.33 0 0 0 -.11-.82.84.84 0 0 0 -.27-.29.79.79 0 0 0 -.36-.19h-.28a1 1 0 0 0 -.54.15l-.21.16a1.06 1.06 0 0 0 -.27.47l.11-.25s0 0 0 0l.16-.22a.08.08 0 0 1 0 0l.22-.16.25-.11 1.2.49a.33.33 0 0 1 -.06-.1l.11.26a.27.27 0 0 1 0-.12v.28c0-.12 0-.23 0-.34v.28a1.07 1.07 0 0 1 0-.31v.27a.84.84 0 0 1 .06-.24l-.1.23.07-.11-.16.2.08-.08-.2.16h.07l-.23.09h.08-.26a1.31 1.31 0 0 0 .31 0h.06-.24.08-.23l-.21-.09-.17-.13-.13-.17-.08-.19a.43.43 0 0 1 0 .05l.08.19.13.16.16.13a.63.63 0 0 0 .3.1.37.37 0 0 0 .21 0 .39.39 0 0 0 .21-.06.46.46 0 0 0 .18-.1.74.74 0 0 0 .2-.23z"/><path d="m229.83 219.69a1.16 1.16 0 0 1 .49.15c.31.14.63.26 1 .39l1.55.61 1.54.61a7 7 0 0 0 1.92.62 1.34 1.34 0 0 0 1.28-1 1.39 1.39 0 0 0 -.61-1.5 6.88 6.88 0 0 0 -2-.57l-1.79-.45-1.73-.43a3.65 3.65 0 0 0 -1.91-.12.85.85 0 0 0 .23 1.67z"/><path d="m253.34 220.59a8.28 8.28 0 0 0 -1.22 0l-1.25.05c-.41 0-.83 0-1.24 0a10.61 10.61 0 0 0 -1.26 0 1.61 1.61 0 0 0 -1 .44 1.48 1.48 0 0 0 1 2.53 6.9 6.9 0 0 0 1.63-.18c.41-.07.81-.14 1.21-.23s.81-.19 1.21-.3a6.67 6.67 0 0 0 1.37-.59.91.91 0 0 0 .41-1 .93.93 0 0 0 -.86-.64z"/><path d="m221 261.8c2.68 2.55 6.24 3.83 9.7 4.94 1.13.36 1.62-1.42.49-1.77-3.22-1-6.59-1.92-9.19-4.17-.68-.6-1.67.36-1 1z"/><path d="m230.82 249.67a7.56 7.56 0 0 1 .73-.77l.19-.17c.24-.21-.14.09.12-.09a4.38 4.38 0 0 1 .42-.28l.45-.24c.28-.14-.17.06.12-.05l.24-.09a6.3 6.3 0 0 1 1-.25h.06.25.6.56.25l.54.15.24.08c.13 0-.17-.08 0 0l.45.23.26.17c.05 0 .29.22.07 0a1.25 1.25 0 1 0 1.52-2 6.56 6.56 0 0 0 -5.27-1 6.14 6.14 0 0 0 -4.2 3.06.89.89 0 0 0 .22 1.14.87.87 0 0 0 1.16-.07z"/><path d="m216 224.74c-.62-2.94-4.26-4.64-7.08-3.61a7.07 7.07 0 0 0 -4.25 7.22 10.08 10.08 0 0 0 4.73 7.31l-5.75 11.09c-2.39-6-4.79-12.1-6.11-18.46s-1.5-13.07.5-19.24c1.69-5.19 4.85-9.77 8.16-14.12 1.6-2.11 3.63-4.38 6.28-4.37a13.54 13.54 0 0 1 7.8-5.17 25.65 25.65 0 0 1 9.49-.37 47.66 47.66 0 0 1 34.52 22.21c.87 1.43 1.64 3.35.62 4.68a4.15 4.15 0 0 1 -2.44 1.23c-11.42 2.62-23.76-1.83-32.26-9.89a11.67 11.67 0 0 1 -2.63 8.62c-1.9 2.26-4.57 3.7-6.83 5.59s-4.25 4.61-3.88 7.53"/><path d="m216.71 224.54a6.09 6.09 0 0 0 -4.65-4.54 6.57 6.57 0 0 0 -6.65 2.37c-3.9 4.81-1.24 11.15 3.39 14.28l-.41-1.56c-1.92 3.69-3.91 7.34-5.84 11l2.28.3c-4.26-10.8-8.93-22.62-6.26-34.41 1.26-5.58 4.32-10.44 7.7-15 1.36-1.84 3-4.5 5.46-5 .55-.11 1.1 0 1.57-.37a10.46 10.46 0 0 0 1.09-1.29 11.67 11.67 0 0 1 3-2.33c4.71-2.56 10.61-2 15.69-1a46.7 46.7 0 0 1 24.67 14 42.68 42.68 0 0 1 4.33 5.51 11.15 11.15 0 0 1 1.7 3.12c.36 1.34-.37 1.77-1.57 2.07a30.64 30.64 0 0 1 -16.44-.83 42 42 0 0 1 -14.64-8.6c-.78-.67-2.51-.33-2.34 1a10.17 10.17 0 0 1 -1.2 6.57c-1.26 2.14-3.29 3.58-5.27 5-3.31 2.41-7 5.62-6.53 10.15.13 1.31 2.18 1.34 2.07 0-.42-5 4.91-7.56 8.19-10.17a14 14 0 0 0 5.49-11.57l-2.35 1a38.51 38.51 0 0 0 19.24 10.33 33.77 33.77 0 0 0 10.89.56c3.18-.37 7.95-1.05 7.41-5.34a11.44 11.44 0 0 0 -2.16-4.71 50.15 50.15 0 0 0 -3.16-4.24 48.18 48.18 0 0 0 -7.64-7.33 49 49 0 0 0 -19-9.05c-8.06-1.85-18.24-2.14-23.53 5.42l1.19-.69c-4 .18-6.35 3.58-8.5 6.5a51.18 51.18 0 0 0 -6.44 11c-3.33 8.19-2.62 17.33-.34 25.69a140.7 140.7 0 0 0 5.25 14.76 1.27 1.27 0 0 0 2.28.3c1.91-3.7 3.74-7.45 5.65-11.14a1.16 1.16 0 0 0 -.41-1.56c-3.32-2.25-5.58-6.67-3.21-10.41a4.9 4.9 0 0 1 4.6-2.4 4.5 4.5 0 0 1 3.9 3.07.76.76 0 0 0 1.47-.4z"/><path d="m204.6 196.19c-6 4.75-14.64 4.28-22.09 2.46-13.58-3.31-27-11.29-32.29-24.24a16.31 16.31 0 0 1 -1.42-7.94 8.54 8.54 0 0 1 4.15-6.65c2.62-1.38 5.92-.87 8.52.57a27 27 0 0 1 6.62 5.87 24 24 0 0 1 -10-11.35c-1.16-2.74-1.53-6.46.89-8.19s6-.06 8.56 1.68a30.2 30.2 0 0 1 -4.34-8.11 16.26 16.26 0 0 1 -1-8 8.49 8.49 0 0 1 4.52-6.39 8.68 8.68 0 0 1 7.23.35 19.44 19.44 0 0 1 5.78 4.67 50.34 50.34 0 0 1 8.57 13c-.94-2.92-1.89-5.92-1.74-9 .12-2.5 2-5.52 4.36-4.86a4.72 4.72 0 0 1 2.47 2.28 28.47 28.47 0 0 1 3.64 9 31.49 31.49 0 0 1 -.52-10.69c.24-1.91.79-4 2.43-5a4.85 4.85 0 0 1 5.46.75 11.87 11.87 0 0 1 3.08 4.94c4 10.18 4.42 21.46 3.2 32.33s-4 21.49-6.23 32.19"/><path d="m204.16 195.43c-5.17 3.71-11.79 3.83-17.84 2.72a59 59 0 0 1 -16.46-5.64 42.9 42.9 0 0 1 -13.32-10.41 31.82 31.82 0 0 1 -4.54-7.24c-1.36-3-2.43-6.56-1.41-9.83a6.23 6.23 0 0 1 7.85-4.31c3.62.93 6.22 3.89 8.64 6.55l1.73-2.24a21.81 21.81 0 0 1 -9.73-11.44c-.56-1.7-1.06-4.41.62-5.69 2.14-1.62 5.32.51 7.13 1.71 1.12.75 2.76-.78 1.92-1.92-2.6-3.51-4.87-7.83-5.26-12.25-.36-4 1.59-8.72 6.21-8.74 4.38 0 7.69 3.62 10.28 6.71a50.14 50.14 0 0 1 7 11.26c.7 1.52 3.19.44 2.69-1.14a28.41 28.41 0 0 1 -1.67-7.21c-.07-1.51.11-3.7 1.58-4.59 1.64-1 3 2.28 3.51 3.34a27.83 27.83 0 0 1 2.34 6.69c.44 2 3.53 1.16 3.1-.86a31 31 0 0 1 -.53-8.9c.16-1.92.48-5.5 3.17-5.29 2.47.2 3.77 2.79 4.57 4.82a50.43 50.43 0 0 1 2.43 8.23c2.44 11.63 1.1 23.71-1.13 35.25-1.32 6.79-2.93 13.52-4.3 20.31-.45 2.19 2.89 3.14 3.38.93 3-13.56 6.64-27.14 6.94-41.1a66.31 66.31 0 0 0 -2.33-19.62c-1.41-4.92-4.14-13.41-10.91-12.07-3.26.64-4.55 3.82-4.94 6.78a32.61 32.61 0 0 0 .58 11.48l3.1-.86a30.11 30.11 0 0 0 -3.64-8.93c-1.34-2.19-3.52-4.33-6.28-3.13-2.21 1-3.35 3.52-3.57 5.79-.31 3.28.8 6.61 1.79 9.69l2.69-1.14a53 53 0 0 0 -6.3-10.29c-2.4-3.06-5.18-6.31-8.79-8-3.46-1.49-7.46-1.44-10.46 1.15s-3.74 6.65-3.25 10.34a28.44 28.44 0 0 0 5.56 12.78l1.92-1.92c-2.59-1.72-6-3.54-9.16-2.13-2.84 1.28-3.59 4.43-3.17 7.27.93 6.32 6.15 12 11.46 15.17a1.43 1.43 0 0 0 1.73-2.24c-2.46-2.73-5-5.49-8.54-6.87a9.65 9.65 0 0 0 -9.85 1.23c-5.94 5.07-3.06 14 .29 19.64 6.75 11.39 19.66 18.28 32.31 20.91 7.41 1.55 15.76 1.68 21.92-3.35.76-.63-.26-2-1.07-1.39z"/><path d="m201 200.19c.13-.2.3-.37.43-.58s.25-.41.37-.61c.26-.41.53-.8.8-1.2.52-.76 1-1.51 1.62-2.23a22.7 22.7 0 0 1 1.89-2c.35-.33.71-.65 1.07-1a10.84 10.84 0 0 0 1.12-1 1.49 1.49 0 0 0 .11-1.93 1.44 1.44 0 0 0 -1.89-.38 11.85 11.85 0 0 0 -2.29 2.55c-.6.8-1.17 1.62-1.73 2.45a28 28 0 0 0 -1.53 2.51c-.24.45-.46.91-.68 1.37l-.33.73c-.11.26-.16.53-.25.79-.28.79.88 1.2 1.29.55z" fill="#18c4ff"/><path d="m152.58 306.7c-15 39.8-9.66 84.79 4.62 124.84 6.77 19 15.67 37.55 29.11 52.57 20.05 22.42 49 35.41 78.52 41.13 7 1.34 14.21 2.31 21.08.58s13.34-6.72 14.91-13.63c1.78-7.89-3-16-1.85-24 1-7.21 6.59-12.78 11.06-18.53s8.19-13.53 5-20.1c-3.44-7.19-12.77-8.69-20.63-10s-17.22-5-18-12.93c-.29-3 .85-6 .86-9.07 0-7.23-6.27-13.07-13-15.65s-14.14-2.85-21.14-4.61-14.21-5.63-16.71-12.41c-1.26-3.41-1.18-7.15-2-10.71a22.71 22.71 0 0 0 -8.09-12.92c-5.26-4.14-12.12-5.78-17.45-9.82s-8.52-12.59-3.7-17.23"/><path d="m264.55 401.06c-7.42-3.06-15.57-3.12-23.16-5.53-6.18-2-12.42-5.84-14.15-12.49-1-3.77-.85-7.73-2.08-11.46a24.47 24.47 0 0 0 -5.11-8.74c-5-5.51-12.24-7.38-18.35-11.22a15.8 15.8 0 0 1 -6.57-7.7c-1.15-2.94-1.34-6.48.88-9a1 1 0 0 0 -1.48-1.48c-5.06 4.53-2.94 12 .9 16.54 4.87 5.8 12.93 7.31 19 11.43a21.5 21.5 0 0 1 7.15 8.28c1.81 3.67 2 7.6 2.66 11.57a17.82 17.82 0 0 0 4.47 9.58 24.33 24.33 0 0 0 8.45 5.7c8.57 3.66 18.15 3.23 26.92 6.19 1.1.37 1.49-1.28.47-1.7z" fill="#18c4ff"/><path d="m288.34 491c16.76-.59 32.66-4.16 48.42 1.55 3.39 1.23 4.63 3.13 8.23 3.16 3.13 0 8 2.07 10.47 4 1.47 1.14 4.26 2.65 5.36 4.14a5.21 5.21 0 0 0 .54.62 2.41 2.41 0 0 0 4.06-2.07c-.83-5.15-4.28-10.29-6.72-15.14a90.41 90.41 0 0 0 7.46 10.26c1.09 1.31 2.51 2.71 4.33 2.07a3.05 3.05 0 0 0 1.88-2.3c.45-2.18-.71-4.07-1.83-5.83l-5.8-9.08a44.48 44.48 0 0 0 8.84 10.45 2.39 2.39 0 0 0 3.94-2.1c-.73-5.28-4.54-10.31-8.15-14.58l8 7.07c.67.6 1.51 1.24 2.38 1 1.24-.34 1.34-2.07 1.07-3.34-2.44-11.75-13.67-21.06-25.67-21.28-6-.11-11.83 1.79-17.76 2.71-9.32 1.46-25.68-3.9-34.51-7.23 0 0-17 1.24-14.51 33.91" fill="#fff"/><path d="m368.82 476.72 4.56 4.33a31.92 31.92 0 0 0 4.15 3.82 2.83 2.83 0 0 0 3.82-.34 4.66 4.66 0 0 0 .65-3.8c-1-5.93-4.64-11.47-9.14-15.36a28 28 0 0 0 -16.5-6.85 43.19 43.19 0 0 0 -11.36 1.14c-3.41.68-6.84 1.64-10.34 1.74-6.09.16-12.23-1.36-18.05-3-3-.84-5.94-1.79-8.87-2.81-1.21-.43-2.43-.87-3.63-1.32a3.91 3.91 0 0 0 -1.32-.38 9.2 9.2 0 0 0 -3.39.95 16.41 16.41 0 0 0 -5.37 3.85c-6.11 6.52-7.24 16.34-7.31 24.87 0 1.82 0 3.64.14 5.45s3.18 1.91 3 0c-.8-8.85-.76-19.13 4.5-26.77a15 15 0 0 1 4.69-4.47 11.51 11.51 0 0 1 2-1 13.38 13.38 0 0 1 1.53-.44 3.21 3.21 0 0 1 .43-.07s-.26-.1-.11 0a13.35 13.35 0 0 0 2.58 1c1.3.46 2.6.91 3.91 1.34a113.67 113.67 0 0 0 16.77 4.4 46 46 0 0 0 8 .73 44.09 44.09 0 0 0 8.61-1.27c6.69-1.41 13.38-2.7 20-.19a27.74 27.74 0 0 1 14.15 12 25 25 0 0 1 1.91 4.22c.35 1 1.31 3.17.78 4.24-.45.9-1.74-.52-2.23-.92l-2.23-1.81-5.23-4.33c-.76-.63-1.83.39-1.1 1.09z"/><path d="m364 482.6a10.13 10.13 0 0 0 1.24 2.84 15.18 15.18 0 0 0 1.94 2.55c1.48 1.5 2.8 3.13 4.34 4.58a8.16 8.16 0 0 0 2.25 1.81 3.7 3.7 0 0 0 2.41.18 4 4 0 0 0 2.86-3.81 1.5 1.5 0 1 0 -3 .4c.11.43 0-.19 0 .23s.08-.06 0 .2c.06-.17-.1.17-.12.19s-.07.07-.11.1a1.23 1.23 0 0 1 -.94.32c-.34 0-.86-.5-1.26-.84-.63-.57-1.25-1.16-1.84-1.76s-1.13-1.17-1.67-1.77-1.05-1.44-1.61-2.15-1-1.3-1.47-1.94a18.69 18.69 0 0 0 -1.79-1.88.78.78 0 0 0 -1.3.75z"/><path d="m358 487.48a13.3 13.3 0 0 0 1.31 3 21.57 21.57 0 0 0 1.86 2.67c1.43 1.61 2.67 3.38 4 5 1.11 1.35 2.46 2.75 4.33 2.84a4.61 4.61 0 0 0 4.33-3.31 1.5 1.5 0 1 0 -2.95-.4 1.42 1.42 0 0 1 -2.2.95 12.47 12.47 0 0 1 -3.05-3.22c-.53-.64-1.05-1.29-1.54-2s-.94-1.5-1.46-2.22-1-1.4-1.48-2.07a18.47 18.47 0 0 0 -1.89-2.06c-.54-.51-1.55 0-1.3.75z"/><path d="m288.34 491.81c6.5.15 12.9-.43 19.38-.82s12.66-.7 19 .27a50.8 50.8 0 0 1 9.08 2.23c2.32.8 4.28 2.4 6.63 3.09a21.61 21.61 0 0 0 3.49.43 17.34 17.34 0 0 1 3.87 1.06 30.8 30.8 0 0 1 6.33 3.69 20.48 20.48 0 0 1 3.3 2.48c.88.92 1.51 1.88 2.83 2.2a3.87 3.87 0 0 0 4.69-4c-.14-2-3.26-1.88-3 0 .09.71-.18 1.45-1.05 1.38s-1.59-1.44-2.22-2a52.71 52.71 0 0 0 -5.44-3.83 24 24 0 0 0 -6.58-2.89c-2.24-.62-4.69-.3-6.81-1.32-.91-.43-1.75-1-2.65-1.44a25.3 25.3 0 0 0 -4.08-1.58 52.38 52.38 0 0 0 -8.65-1.9 89.16 89.16 0 0 0 -17.59-.54c-6.86.42-13.67 1.25-20.51 1.92a.78.78 0 0 0 0 1.55z"/><path d="m261.93 557.43a34 34 0 0 0 25.27-11.15c.71-.79-.45-2-1.17-1.17a33 33 0 0 1 -24.1 10.78.77.77 0 0 0 0 1.54z" fill="#fff"/><path d="m275.6 567.68 8.56-3.9a.82.82 0 0 0 .3-1.11.84.84 0 0 0 -1.12-.3l-8.55 3.92a.8.8 0 0 0 -.29 1.1.82.82 0 0 0 1.1.29z" fill="#fff"/><path d="m297.05 849.22a23.32 23.32 0 0 1 8.67-1.89l-.51-1.87a30.8 30.8 0 0 0 -9.37 10.76 1.15 1.15 0 0 0 1.28 1.66 84.3 84.3 0 0 1 10.49-1.88l-.82-2a33.18 33.18 0 0 0 -5.82 8.18 1.18 1.18 0 0 0 1 1.76 21.64 21.64 0 0 0 7.76-1.3c1.39-.5.79-2.73-.61-2.22a20 20 0 0 1 -7.15 1.18l1 1.76a32.34 32.34 0 0 1 5.44-7.72c.62-.66.23-2.1-.82-2a90.35 90.35 0 0 0 -11.09 2l1.27 1.66a29.62 29.62 0 0 1 8.43-10.17c.72-.54.59-1.92-.5-1.86a23.1 23.1 0 0 0 -9.29 2.41c-.8.41-.23 1.84.62 1.48z"/><g fill="#18c4ff"><path d="m283.15 280.22c5.92 12.16 6 26 6.05 39.24a1.14 1.14 0 0 0 2.28 0c-.1-13.56-.36-27.8-7.06-40-.46-.83-1.67-.1-1.27.74z"/><path d="m196 270.82a27.6 27.6 0 0 0 17.88 12.85 45.73 45.73 0 0 0 11.64 1.4c3.51-.1 7-1 9.36-3.66a1.23 1.23 0 0 0 -1.74-1.74c-2.33 2.05-5.56 2.6-8.57 2.6a51.82 51.82 0 0 1 -10.46-1.17 26.25 26.25 0 0 1 -16.76-11.1.8.8 0 0 0 -1.39.81z"/><path d="m240.07 288.49a5.63 5.63 0 0 1 -2.19 3.71 6.19 6.19 0 0 1 -1.82.95l-.55.14h-.24-.14a8 8 0 0 1 -1.2 0 .93.93 0 0 0 -.93.92 1 1 0 0 0 .93.93c3.77.35 7.26-2.88 7.64-6.54.09-.85-1.37-1.06-1.5-.21z"/><path d="m238.42 302.53a5.42 5.42 0 0 0 4.77-.65 5.36 5.36 0 0 0 2.53-4.26.86.86 0 1 0 -1.72 0s0 .3 0 .2 0 .14 0 .16a4.1 4.1 0 0 1 -.14.5 2 2 0 0 1 -.08.22c.07-.17 0 .06 0 .08a3.38 3.38 0 0 1 -.24.41l-.15.23-.1.13-.13.16-.17.17a2.73 2.73 0 0 1 -.35.33s-.19.16-.07.07l-.23.16a3.35 3.35 0 0 1 -.45.27l-.21.11s-.24.11-.09.05a5.43 5.43 0 0 1 -.95.28h-.12-.27-.47-.24-.1a3.63 3.63 0 0 1 -.54-.15.79.79 0 0 0 -1 .56.81.81 0 0 0 .55 1z"/><path d="m240.92 301.07a.73.73 0 0 0 0-1.46.73.73 0 0 0 0 1.46z"/><path d="m241.57 301.67c7.82 13.16 15.06 27.29 17.21 42.63a61.68 61.68 0 0 1 .54 11.28c-.16 3.5-.74 6.94-1.11 10.41a30.74 30.74 0 0 0 .18 9.67 14.91 14.91 0 0 0 4.43 7.69c1.19 1.16 2.86 2.55 2.5 4.41s-1.46 3.18-1.11 5.1 1.62 3.93 2.54 5.71q1.62 3.14 3.39 6.18a1 1 0 0 0 1.79-1q-1.51-2.65-2.9-5.39a29.5 29.5 0 0 1 -2.54-5.47c-.46-1.73.83-3.19 1.11-4.84a5.28 5.28 0 0 0 -1-3.93 36.24 36.24 0 0 0 -3.16-3.4 10.88 10.88 0 0 1 -2.38-4.09 24.23 24.23 0 0 1 -.63-9.63c.3-3.36.87-6.69 1.09-10.06a61 61 0 0 0 -.35-11.38 83.81 83.81 0 0 0 -5.91-21.74 140.74 140.74 0 0 0 -12.26-22.97c-.57-.86-1.93-.08-1.4.82z"/><path d="m422 261.43a106.8 106.8 0 0 0 -36.39 44.76 116.51 116.51 0 0 0 -8.82 60.08 133 133 0 0 0 22.47 59.94c5.64 8.16 12.57 15.84 21.53 20.4 7.93 4 17.51 5.21 26 2.27 7.73-2.68 13.88-8.76 15.17-17 1.11-7.08-1-15.1-6.89-19.6-3.31-2.54-8.37-4.31-12.12-1.68a16 16 0 0 0 -4.31 5.39c-1.38 2.39-2.68 4.82-3.88 7.3-4.82 10-8.23 20.82-8.45 32a47.7 47.7 0 0 0 7.59 27.37c4.86 7.36 11.93 13.45 20.45 16.09a28.54 28.54 0 0 0 25-4c6.94-4.85 12.28-12.58 12.62-21.22.15-3.84-.55-9.53-4.08-11.84-4.47-2.93-8.56 2.46-10.92 5.6a50.82 50.82 0 0 0 -9.78 27.09 49.53 49.53 0 0 0 26.07 46.33 50.36 50.36 0 0 0 12.6 4.6c1.57.35 2.24-2.07.67-2.42-16.61-3.74-30.83-17.36-35.17-33.81a47.76 47.76 0 0 1 .87-26.7 46.49 46.49 0 0 1 5.94-12.13c1.82-2.68 6.73-10 9.63-4.63 1.83 3.39 1.84 7.92 1 11.58a24.68 24.68 0 0 1 -5.41 10.37c-5.26 6.1-13.16 10.2-21.32 9.89-17-.66-29.72-16.83-32.46-32.55-1.77-10.19-.08-20.7 3.28-30.38a98 98 0 0 1 6.39-14.36 33.57 33.57 0 0 1 3.72-6.17c1.8-2.1 4-2.54 6.66-1.73 6.61 2.07 10 9.13 10.06 15.66a18.86 18.86 0 0 1 -10.87 17.41c-7.31 3.65-16.3 3.44-23.81.54-8.74-3.37-15.79-10.23-21.36-17.57a129 129 0 0 1 -23.48-54.21 116.4 116.4 0 0 1 3.6-57.28 108.7 108.7 0 0 1 28.8-45.47 99.27 99.27 0 0 1 10.29-8.35c.95-.66.05-2.23-.91-1.56z"/><path d="m114.92 284.71a200 200 0 0 0 -10.33 53 202.47 202.47 0 0 0 4.12 53.69 193.56 193.56 0 0 0 8.7 29.26c.41 1.08 2.16.61 1.74-.48a199.49 199.49 0 0 1 -12.15-52.12 202.25 202.25 0 0 1 2-53.55 197.75 197.75 0 0 1 7.45-29.37c.33-1-1.2-1.39-1.53-.43z"/><path d="m74.9 314.48a157.4 157.4 0 0 0 -.48 58.85 154.93 154.93 0 0 0 3.91 16.32.83.83 0 0 0 1.6-.44 159 159 0 0 1 -5.93-57.68 152.8 152.8 0 0 1 2.28-16.65c.18-.93-1.24-1.34-1.42-.4z"/><path d="m596.84 614.92c-27.12-.64-52.59 12.46-75.41 27.13a482.11 482.11 0 0 0 -72.5 57.12c-2.14 2-4.34 4.24-5.13 7.09-1.1 4 .82 8.11 2.71 11.78 4.4 8.59 9.1 17.35 16.5 23.54s13.07 13.28 21.74 9c6.39-3.14 17.37-14.08 24.21-12.1 2.71.79 4.81 2.89 6.78 4.92l19 19.58c1.12 1.16 2.3 2.43 2.49 4 .2 1.76-.87 3.39-1.88 4.85l-15.88 22.74c-.95 1.35-1.93 2.83-1.89 4.47 0 1.94 1.5 3.53 2.87 4.89a186.19 186.19 0 0 0 32.36 25.64c2.57 1.61 5.4 3.21 8.42 3 3.45-.26 6.22-2.81 8.7-5.23l24.77-24.13a126.87 126.87 0 0 0 55.87 25 19.32 19.32 0 0 0 -.11-10.18 18.92 18.92 0 0 1 8.58.86l-2-16.62 16.05 2.85c2.82-5.4 2.06-11.94 3.77-17.78s8.51-11.3 13.51-7.83l-7-19.86a4.56 4.56 0 0 1 1.89-6.54l11.74-8.81a93.32 93.32 0 0 0 -14.89-19.73 29.94 29.94 0 0 0 15.57-10.7 135.05 135.05 0 0 0 -11.24-22.06l-29.06 9.4a124.11 124.11 0 0 1 -5.92-21l-22 3.83a79.93 79.93 0 0 1 26.76-15.3 145.64 145.64 0 0 0 9.55 19.47 78.83 78.83 0 0 1 16.86-5.64 15.57 15.57 0 0 0 -1.21-9.65 21.69 21.69 0 0 1 12.78-.57 43.55 43.55 0 0 0 -10.14-20.35 48.85 48.85 0 0 1 10.81-7.67 45.39 45.39 0 0 0 -19.71-4.39l7.21-16.31-79.88-9.5"/><path d="m596.84 614c-15.21-.36-30.07 3.57-44 9.56-14.32 6.18-27.65 14.45-40.58 23.1q-19.92 13.33-38.44 28.6-9.33 7.66-18.25 15.82c-2.92 2.67-5.86 5.34-8.67 8.12-2.52 2.5-4.66 5.39-4.83 9.07-.18 3.87 1.67 7.52 3.38 10.87s3.41 6.59 5.32 9.77a64.67 64.67 0 0 0 6.38 8.93 83.08 83.08 0 0 0 8 7.56c4.59 4.05 9.79 8.85 16.4 7.76a19.3 19.3 0 0 0 7.45-3.45c2.38-1.61 4.69-3.34 7.07-5 3.7-2.52 9.3-6.73 13.93-4.21a17.92 17.92 0 0 1 4.08 3.34c1.49 1.51 3 3 4.45 4.57l9.16 9.43 4.59 4.72c1.17 1.21 3.13 2.68 3.45 4.44s-1.3 3.59-2.24 4.93l-3.61 5.17-7.51 10.75-3.75 5.38a12.06 12.06 0 0 0 -2.43 4.83c-.59 3.72 2.63 6.39 5 8.7q4.31 4.15 8.86 8a190.73 190.73 0 0 0 18.95 14.15c3.1 2 6.42 4.48 10.17 5.05s6.74-1.09 9.44-3.36c3.12-2.62 5.93-5.65 8.84-8.49l9.15-8.92 9.16-8.92h-2.06a129.07 129.07 0 0 0 43 22.19 126.41 126.41 0 0 0 13.56 3.18 1.45 1.45 0 0 0 1.76-1 21.57 21.57 0 0 0 -.12-10.94l-1.37 1.8a18.72 18.72 0 0 1 8.21.8 1.41 1.41 0 0 0 1.76-1.3l-2.06-16.62-1.76 1.34 16.05 2.84a1.43 1.43 0 0 0 1.56-.63c2.94-5.81 2.05-12.39 4-18.45 1.37-4.2 6.71-9.73 11.37-6.66a1.41 1.41 0 0 0 2-1.57c-2.33-6.62-4.69-13.22-7-19.86-.52-1.51-1-2.9.29-4.16a37.86 37.86 0 0 1 4-3.11l8.7-6.58a1.42 1.42 0 0 0 .49-1.89 96.32 96.32 0 0 0 -15.1-20l-.61 2.32a31.63 31.63 0 0 0 9.64-4.7 32.84 32.84 0 0 0 4.06-3.48c.95-1 3.1-2.74 2.84-4.23a15.48 15.48 0 0 0 -1.21-2.93c-.36-.86-.74-1.72-1.12-2.57q-1.34-3-2.82-5.91-2.86-5.62-6.24-11a1.41 1.41 0 0 0 -1.56-.63l-29.06 9.39 1.71 1a126 126 0 0 1 -6.06-20.94 1.29 1.29 0 0 0 -1.53-.87l-22 3.86 1.18 2a79.34 79.34 0 0 1 26.2-15l-1.42-.81a152.79 152.79 0 0 0 9.67 19.74 1.17 1.17 0 0 0 1.58.41 79.94 79.94 0 0 1 16.59-5.5 1.17 1.17 0 0 0 .82-.82 17.37 17.37 0 0 0 -1.32-10.56l-.7 1.73a21.14 21.14 0 0 1 12.15-.55 1.2 1.2 0 0 0 1.46-1.46 45.44 45.44 0 0 0 -10.49-20.91v1.71a48.77 48.77 0 0 1 10.56-7.47 1.23 1.23 0 0 0 0-2.11 47.59 47.59 0 0 0 -20.32-4.58l1.07 1.87c2.41-5.44 4.83-10.87 7.21-16.32a1.26 1.26 0 0 0 -1.07-1.86q-31.15-3.6-62.3-7.29l-17.46-2.18c-1.43-.17-1.42 2.08 0 2.25q31.15 3.71 62.3 7.46 8.79 1.06 17.58 2.16l-1.07-1.87c-2.43 5.43-4.81 10.88-7.21 16.32a1.25 1.25 0 0 0 1.07 1.86 44.81 44.81 0 0 1 19.09 4.21v-2.11a50.76 50.76 0 0 0 -11 7.87 1.23 1.23 0 0 0 0 1.71 43.07 43.07 0 0 1 9.91 19.83l1.46-1.46a23.39 23.39 0 0 0 -13.41.57 1.2 1.2 0 0 0 -.7 1.73 14.71 14.71 0 0 1 1.09 8.75l.82-.82a82.64 82.64 0 0 0 -17.13 5.77l1.58.41a144 144 0 0 1 -9.44-19.19 1.18 1.18 0 0 0 -1.42-.81 82.4 82.4 0 0 0 -27.3 15.56c-1 .87.1 2.21 1.17 2l22-3.8-1.53-.87a125.24 125.24 0 0 0 5.79 21 1.4 1.4 0 0 0 1.7 1l29.06-9.4-1.57-.63a135.21 135.21 0 0 1 11.11 21.73l.14-1.07a28.75 28.75 0 0 1 -14.75 10.07 1.39 1.39 0 0 0 -.61 2.31 93.65 93.65 0 0 1 14.62 19.46l.5-1.89-9.51 7.19c-2.62 2-5.91 3.83-5.33 7.63a29.43 29.43 0 0 0 1.66 5.23l1.91 5.44 4 11.35 2-1.56c-5.34-3.52-11.64.94-14.3 5.73-3.48 6.25-1.66 14-4.88 20.37l1.57-.64-16.04-2.85c-.78-.14-1.88.36-1.76 1.34l2 16.62 1.79-1.36a20.62 20.62 0 0 0 -9-.92 1.44 1.44 0 0 0 -1.36 1.8 18.45 18.45 0 0 1 .09 9.42l1.76-1a126.93 126.93 0 0 1 -44.05-16.9 124 124 0 0 1 -11.11-7.76 1.5 1.5 0 0 0 -2.06 0l-18.13 17.66c-2.84 2.76-5.59 5.65-8.56 8.27-2.74 2.4-5.75 3.76-9.34 2.41s-6.78-3.85-9.87-5.95-6.32-4.43-9.37-6.8a166.35 166.35 0 0 1 -17.32-15.27c-1.11-1.14-2.34-2.54-1.93-4.25s1.88-3.34 2.89-4.78l7.22-10.33q3.6-5.17 7.22-10.34a10.59 10.59 0 0 0 2.2-4.8 6.27 6.27 0 0 0 -1.55-4.55 55.13 55.13 0 0 0 -4-4.24l-4.41-4.53-8.77-9.09c-2.54-2.61-5-5.72-8.24-7.54a9.41 9.41 0 0 0 -7.17-1c-5.28 1.3-9.87 5-14.2 8.13s-9 6.7-14.5 4.35c-3-1.26-5.43-3.5-7.82-5.6a103.41 103.41 0 0 1 -7.82-7.13c-4.89-5.3-8.39-11.71-11.7-18.06-1.72-3.31-3.88-7-3.61-10.81.25-3.61 3.24-6.21 5.68-8.55q8.48-8.1 17.34-15.79 17.68-15.33 36.79-28.93c12.43-8.82 25.21-17.32 38.74-24.37 13.29-6.92 27.61-12.45 42.6-14.07a86.58 86.58 0 0 1 10.8-.49.93.93 0 0 0 0-1.85z"/></g><path d="m498.18 725.5c7 7.65 13.9 15.35 20.93 23a1.1 1.1 0 0 0 1.72-1.34 32.29 32.29 0 0 0 -4.69-5.56c-1.87-1.95-3.72-3.91-5.62-5.83-3.74-3.78-7.5-7.55-11.22-11.36-.72-.74-1.81.37-1.12 1.13z"/><path d="m611.55 800a26.47 26.47 0 0 0 -10.76-1 16 16 0 0 0 -4.45 1.21 8.87 8.87 0 0 0 -1.9 1.18 8.71 8.71 0 0 0 -.86.75l-.37.4c-.14.17-.45.35-.14.35a1.19 1.19 0 0 0 -.6 2.2c1.75.86 2.63-.7 3.89-1.59a10.56 10.56 0 0 1 4.15-1.65 36.75 36.75 0 0 1 10.83-.33c.9.09 1-1.3.21-1.54z"/><path d="m824.7 644.89c4-.62 8-1.1 12-1.76s7.83-1.15 11.64-2.15a1.21 1.21 0 0 0 -.64-2.33c-3.8 1-7.74 1.56-11.61 2.26s-7.92 1.63-11.88 2.39c-1.06.2-.6 1.75.44 1.59z"/><path d="m901.4 609c1.88 3.82 2.33 7.87 2.75 12 .21 2.07.43 4.14.63 6.21a31.06 31.06 0 0 0 .92 6.61 1.1 1.1 0 0 0 2.14-.29c.27-2.32-.29-5-.53-7.29-.23-2.08-.39-4.17-.74-6.23a34.56 34.56 0 0 0 -3.93-11.79c-.47-.81-1.65-.1-1.24.73z"/><g fill="#18c4ff"><path d="m774.44 345.64c-10.33-1.29-19.57-6.95-27.93-13.16-4.29-3.19-8.59-6.74-10.81-11.6a4.51 4.51 0 0 1 .72-5.68c3.06-3.65 7.48-5.87 11.9-7.67a98.77 98.77 0 0 1 20.29-5.79"/><path d="m774.66 344.87c-11-2-20.64-7.81-29.28-14.73a38.14 38.14 0 0 1 -5.66-5.41 20.16 20.16 0 0 1 -2.1-3.08c-.63-1.14-1.47-2.62-1.08-3.95a8 8 0 0 1 2.43-3.11 21.41 21.41 0 0 1 3.27-2.47 44.21 44.21 0 0 1 7.12-3.47 100.44 100.44 0 0 1 9.56-3.24c3.31-.94 6.72-1.51 10-2.47 1.3-.38 1.11-2.53-.33-2.44a49 49 0 0 0 -10 2c-3.17.88-6.3 1.92-9.36 3.11-5.3 2.07-11 4.61-14.45 9.34-3.65 5 2.4 11.32 6 14.49a92.16 92.16 0 0 0 14.81 10.44c5.74 3.3 12.17 6 18.83 6.55.9.07 1.11-1.42.22-1.58z"/><path d="m748.32 307.53c-4.42 1.8-8.84 4-11.9 7.67a5.49 5.49 0 0 0 -1.35 2.52 4 4 0 0 0 .06 1.54 14 14 0 0 0 2.28 1.77c9 5.56 20 6.54 30.53 6.93l3.48-5.06-2.81-21.16a98.77 98.77 0 0 0 -20.29 5.79z"/><path d="m776.84 276.19c-10.33-1.29-19.58-6.95-27.93-13.16-4.29-3.19-8.59-6.75-10.81-11.61a4.49 4.49 0 0 1 .72-5.67c3.06-3.65 7.48-5.87 11.9-7.67a98.15 98.15 0 0 1 20.28-5.79"/><path d="m777.06 275.41c-11-2-20.64-7.8-29.28-14.72a38.14 38.14 0 0 1 -5.66-5.41 20.25 20.25 0 0 1 -2.1-3.09c-.63-1.13-1.47-2.61-1.08-3.95a8 8 0 0 1 2.43-3.1 20.78 20.78 0 0 1 3.27-2.47 44.21 44.21 0 0 1 7.12-3.47 96.81 96.81 0 0 1 9.56-3.24c3.31-.94 6.72-1.51 10-2.47 1.3-.38 1.11-2.53-.33-2.44a49 49 0 0 0 -10 2c-3.17.88-6.3 1.93-9.36 3.12-5.3 2.07-11 4.6-14.45 9.34-3.65 5 2.4 11.32 6 14.49a91 91 0 0 0 14.82 10.44c5.74 3.31 12.16 6 18.83 6.56a.81.81 0 0 0 .22-1.59z"/><path d="m750.72 238.08c-4.42 1.8-8.84 4-11.9 7.67a5.46 5.46 0 0 0 -1.35 2.51 3.57 3.57 0 0 0 0 1.13h.06a100.09 100.09 0 0 0 33.68 9.67l3.1-2-3.31-24.77a98.15 98.15 0 0 0 -20.28 5.79z"/><path d="m757.84 275c-2.17 18.93-3 38.35 1.7 56.82 12 47.31 57.32 61.06 101.55 52.42 15.59-3 31.08-11 40.65-24 11.16-15.12 13-36 14.52-54.08 1.44-16.76 2-33.76-1.18-50.27-3.34-17.5-11.24-36.1-25.79-47.13-22.31-16.92-52.84-18.19-79-10.84-35.29 9.98-51.86 41.85-52.45 77.08"/><path d="m757.08 275c-2.66 22.39-3.7 46.35 4.89 67.68a68.6 68.6 0 0 0 31.14 35.11c14.26 7.65 30.71 10.45 46.77 10 18.69-.49 38-4.64 52.85-16.52a56.19 56.19 0 0 0 17.33-23.92c3.69-9.53 5.29-19.73 6.39-29.84 2.46-22.72 4.11-46.29-1.61-68.67a87.38 87.38 0 0 0 -11.65-27 61.45 61.45 0 0 0 -21.54-19.62c-17.54-9.67-38.37-11.56-57.91-8.55a89.51 89.51 0 0 0 -26.88 8.11 67 67 0 0 0 -19.67 15.22c-11.18 12.53-17.31 28.71-19.49 45.21a115.33 115.33 0 0 0 -.94 12.86 1.08 1.08 0 0 0 2.16 0c.3-16.5 4.13-33.26 13-47.32a66.72 66.72 0 0 1 38.71-28.53c18.46-5.16 38.69-6 57.08-.09 9.15 3 18 7.7 25 14.37s12 14.95 15.52 23.76c8.39 20.79 8.7 43.54 7 65.59-.76 9.91-1.56 19.88-3.54 29.63s-5.15 19.22-11.05 27.22-13.93 13.83-22.75 17.92c-8.4 3.91-17.47 5.93-26.64 7-15.82 1.9-32.24 1-47.3-4.5a67.49 67.49 0 0 1 -35-28c-10.83-17.8-12.77-39.52-11.81-59.91.27-5.72.77-11.43 1.39-17.13.11-1-1.41-1-1.52 0z"/></g><path d="m806.11 299.41a2.38 2.38 0 0 0 -.93-2.84 3.62 3.62 0 0 0 -3.13-.3 4.62 4.62 0 0 0 -2.88 2.73 4.11 4.11 0 0 0 .56 3.89 6.45 6.45 0 0 0 4.41 2 18.36 18.36 0 0 0 8.44-1c1.81-.67 3.74-2 3.76-3.91a3.64 3.64 0 0 0 -2-3.06 9.07 9.07 0 0 0 -3.71-.92 5 5 0 0 0 -2.64.29 1.89 1.89 0 0 0 -1.06 2.21l.57-.85"/><path d="m806.79 299.8a3.31 3.31 0 0 0 -1.34-4.23 4.92 4.92 0 0 0 -5.31.47 5.29 5.29 0 0 0 .62 9.1 12.75 12.75 0 0 0 5.92 1 18.93 18.93 0 0 0 6.44-1.24 6.94 6.94 0 0 0 4-3.37 4.32 4.32 0 0 0 -1.27-4.93 9.45 9.45 0 0 0 -6.47-1.8c-2 .1-4.32 1.65-3.59 4a1.15 1.15 0 0 0 2.08.27l.56-.85c.81-1.22-1.15-2.35-2-1.14l-.57.85 2.08.27c-.37-1.21 1.81-1.11 2.45-1.06a6.87 6.87 0 0 1 3.71 1.05 2.08 2.08 0 0 1 .77 2.64 4.85 4.85 0 0 1 -2.45 1.86 16.46 16.46 0 0 1 -8.36 1c-2.16-.28-4.75-1.56-4-4.19a3.52 3.52 0 0 1 2.83-2.39c1.25-.17 2.83.56 2.37 2.05-.26.83 1.06 1.42 1.43.6z"/><path d="m807.92 247a2.38 2.38 0 0 0 -.93-2.84 3.62 3.62 0 0 0 -3.13-.3 4.62 4.62 0 0 0 -2.88 2.73 4.11 4.11 0 0 0 .56 3.89 6.45 6.45 0 0 0 4.41 2 18.42 18.42 0 0 0 8.45-1c1.8-.67 3.73-2 3.75-3.91a3.64 3.64 0 0 0 -2-3.06 9.07 9.07 0 0 0 -3.71-.92 5 5 0 0 0 -2.64.29 1.87 1.87 0 0 0 -1 2.21l.56-.85"/><path d="m808.6 247.39a3.31 3.31 0 0 0 -1.34-4.23 4.93 4.93 0 0 0 -5.31.46 5.3 5.3 0 0 0 .62 9.11 12.88 12.88 0 0 0 5.92 1 18.93 18.93 0 0 0 6.44-1.24 7 7 0 0 0 4-3.37 4.32 4.32 0 0 0 -1.27-4.93 9.46 9.46 0 0 0 -6.47-1.81c-2.05.11-4.32 1.66-3.59 4a1.15 1.15 0 0 0 2.08.27l.56-.85c.81-1.22-1.15-2.35-2-1.14l-.56.84 2.07.28c-.37-1.21 1.81-1.11 2.45-1.06a6.87 6.87 0 0 1 3.71 1.05 2.07 2.07 0 0 1 .77 2.64 4.85 4.85 0 0 1 -2.45 1.86 16.57 16.57 0 0 1 -8.36 1c-2.16-.28-4.75-1.56-4-4.19a3.52 3.52 0 0 1 2.83-2.39c1.25-.17 2.83.56 2.37 2-.26.83 1.06 1.42 1.43.6z"/><path d="m824.83 259.6c-.65 7.16-.9 14.51.56 21.5 3.73 17.91 17.68 23.14 31.3 19.89a20.06 20.06 0 0 0 12.52-9.06c3.43-5.71 4-13.61 4.44-20.46a85.13 85.13 0 0 0 -.39-19c-1-6.62-3.48-13.67-8-17.85-6.88-6.41-16.28-6.91-24.33-4.14-10.88 3.75-16 15.8-16.13 29.14" fill="#fff"/><path d="m843.82 271.44a3.83 3.83 0 0 0 .11 5.13c1.39 1.57 3.66 2 5.66 2.15a8.92 8.92 0 0 0 6-1.62 7.79 7.79 0 0 0 3.17-5.12 1.17 1.17 0 0 0 -2.29-.31 7.3 7.3 0 0 1 -2.09 3.4 6.25 6.25 0 0 1 -4.07 1.4 8.35 8.35 0 0 1 -4.41-.87 2.29 2.29 0 0 1 -.9-3.23c.53-.7-.6-1.54-1.19-.93z"/><path d="m844.61 248.44a3.82 3.82 0 0 0 .12 5.13c1.39 1.57 3.66 2 5.65 2.15a8.89 8.89 0 0 0 6-1.62 7.75 7.75 0 0 0 3.17-5.12 1.15 1.15 0 0 0 -1-1.15 1.19 1.19 0 0 0 -1.28.84 7.21 7.21 0 0 1 -2.08 3.4 6.26 6.26 0 0 1 -4.08 1.4 8.33 8.33 0 0 1 -4.4-.87 2.29 2.29 0 0 1 -.9-3.24c.53-.69-.61-1.53-1.2-.92z"/><g fill="#18c4ff"><path d="m821.77 332.6-1.45-1.6a.72.72 0 0 0 -1 0 .74.74 0 0 0 0 1l1.46 1.56a.78.78 0 0 0 .52.21.74.74 0 0 0 .51-.21.75.75 0 0 0 0-1z"/><path d="m820.74 325.32v-.14.2a.61.61 0 0 1 0-.19v.2a1.05 1.05 0 0 1 0-.19l-.08.18a1.07 1.07 0 0 1 .13-.21l-.12.15a.74.74 0 0 1 .12-.13l-.15.12h.06a.83.83 0 0 0 .36-.46.65.65 0 0 0 0-.31.75.75 0 0 0 -.09-.29.79.79 0 0 0 -.47-.35.76.76 0 0 0 -.59.08 1.57 1.57 0 0 0 -.26.19c-.06.06-.1.12-.15.18a.8.8 0 0 0 -.13.19 1.57 1.57 0 0 0 -.12.3v.32.14.32a1.94 1.94 0 0 0 .13.3.58.58 0 0 0 .18.2.5.5 0 0 0 .25.13h.2a.67.67 0 0 0 .28-.06.39.39 0 0 0 .16-.1.61.61 0 0 0 .19-.2.74.74 0 0 0 .07-.56z"/><path d="m826.64 331.16-.09-1.24c0-.46-.07-.93-.14-1.39a.73.73 0 0 0 -.35-.46.79.79 0 0 0 -.5-.09.78.78 0 0 0 -.67.76c0 .4.08.81.13 1.21l.14 1.21a.84.84 0 0 0 .22.52.74.74 0 0 0 1.26-.52z"/><path d="m830.91 327-1.12-1.87a.88.88 0 0 0 -.49-.38.84.84 0 0 0 -.64.09.81.81 0 0 0 -.38.49.84.84 0 0 0 .08.64l1.17 1.84a.83.83 0 0 0 .48.36.8.8 0 0 0 .9-1.17z"/><path d="m823.34 228.88-2.32-2.8a.93.93 0 0 0 -.65-.27.92.92 0 0 0 -.93.93 1 1 0 0 0 .27.65l2.35 2.77a.93.93 0 0 0 .64.27.89.89 0 0 0 .64-.27.91.91 0 0 0 .27-.64 1 1 0 0 0 -.27-.64z"/><path d="m820.57 220.88a1.51 1.51 0 0 0 .22-.28s.05-.1.08-.16.13-.2.2-.3l-.13.17a2.44 2.44 0 0 1 .42-.43c.07-.06.13-.14.2-.21l.23-.2-.17.14v-.05a.56.56 0 0 0 .24-.22.51.51 0 0 0 .15-.29.82.82 0 0 0 -.08-.65.87.87 0 0 0 -.51-.39 1 1 0 0 0 -.65.08 2.52 2.52 0 0 0 -.44.28 1.68 1.68 0 0 0 -.35.3l-.28.38a4.18 4.18 0 0 0 -.31.64 2.25 2.25 0 0 0 -.08.24.65.65 0 0 0 0 .13.79.79 0 0 0 0 .25v.24a.78.78 0 0 0 .19.33.79.79 0 0 0 .33.19.74.74 0 0 0 .72-.19z"/><path d="m827 223.68 1.53-1.79a1 1 0 0 0 .29-.7 1 1 0 0 0 -1-1 1.08 1.08 0 0 0 -.7.29l-1.56 1.77a1.06 1.06 0 0 0 -.3.71 1 1 0 0 0 .3.72 1 1 0 0 0 .71.3 1 1 0 0 0 .72-.3z"/></g><path d="m566.52 651.84-4.07-23.25c-1.68-9.62-3.2-20.19 1.75-28.61 5.37-9.13 16.76-12.8 27.31-13.72 2.61-.23 5.43-.28 7.63 1.14 3 1.92 3.82 5.82 4.33 9.33a215.34 215.34 0 0 1 1.87 42.46" fill="#fff"/><path d="m566.52 651.84-4.07-23.25c-1.68-9.62-3.2-20.19 1.75-28.61 5.37-9.13 16.76-12.8 27.31-13.72 2.61-.23 5.43-.28 7.63 1.14 3 1.92 3.82 5.82 4.33 9.33a215.34 215.34 0 0 1 1.87 42.46" fill="#18c4ff"/><path d="m567.3 651.84c-1.3-10.05-3.43-20-4.58-30.07-1-8.43-.79-17.8 5.36-24.36 5.35-5.7 13.34-8.22 20.9-9.2 3.75-.48 8.76-1.29 11 2.55a15.27 15.27 0 0 1 1.65 5.36c.41 2.46.7 4.93 1 7.4q1 8.88 1.26 17.82c.17 5.95-.11 11.9.06 17.85 0 1.51 2.54 2 2.76.38a109.8 109.8 0 0 0 .61-17q-.19-8.56-1.06-17.09c-.27-2.75-.61-5.49-1-8.23a26.79 26.79 0 0 0 -1.44-6.39 10.17 10.17 0 0 0 -3.82-4.92 12 12 0 0 0 -7-1.45c-8.36.39-17.34 2.64-24 7.83a23.82 23.82 0 0 0 -7.65 10.19 32.46 32.46 0 0 0 -1.8 13.83 133 133 0 0 0 2.45 16.66c1.2 6.35 2.32 12.72 3.72 19 .19.85 1.66.68 1.54-.21z" fill="#18c4ff"/><path d="m607.92 342 3.55 5.69 50.94-31.84-3-4.81-.55-.88a30 30 0 0 0 -50.94 31.84zm50.4-31.51-49.91 31.2a30 30 0 0 1 49.91-31.2z" stroke="#000" stroke-miterlimit="10" stroke-width="1.39"/><circle cx="636.52" cy="331.15" fill="#fff" r="30.04"/><circle cx="636.52" cy="331.15" fill="none" r="30.04" stroke="#000" stroke-miterlimit="10" stroke-width="1.39"/><circle cx="636.52" cy="331.15" fill="#18c4ff" r="15.54"/><path d="m560 237.55 1.77-6.47-57.95-15.87-1.49 5.47-.28 1a30 30 0 0 0 57.95 15.87zm-57.33-15.7 56.77 15.55a30 30 0 0 1 -56.77-15.55z" stroke="#000" stroke-miterlimit="10" stroke-width="1.39"/><circle cx="532.64" cy="223.88" fill="#fff" r="30.04"/><circle cx="532.64" cy="223.88" fill="none" r="30.04" stroke="#000" stroke-miterlimit="10" stroke-width="1.39"/><circle cx="532.64" cy="223.88" fill="#18c4ff" r="15.54"/><path d="m607.67 462.93-2.67-6.13-54.8 24.65 2.33 5.16.42.94a30 30 0 0 0 54.74-24.62zm-54.21 24.38 53.68-24.14a30 30 0 0 1 -53.68 24.14z" stroke="#000" stroke-miterlimit="10" stroke-width="1.39"/><circle cx="577.86" cy="469.81" fill="#fff" r="30.04"/><circle cx="577.86" cy="469.81" fill="none" r="30.04" stroke="#000" stroke-miterlimit="10" stroke-width="1.39"/><circle cx="577.86" cy="469.81" fill="#18c4ff" r="15.54"/><path d="m718.18 162.45-2.75-6.11-54.76 24.66 2.32 5.16.43.94a30 30 0 0 0 54.74-24.62zm-54.18 24.38 53.68-24.14a30 30 0 0 1 -53.68 24.14z" stroke="#000" stroke-miterlimit="10" stroke-width="1.39"/><circle cx="688.37" cy="169.34" fill="#fff" r="30.04"/><circle cx="688.37" cy="169.34" fill="none" r="30.04" stroke="#000" stroke-miterlimit="10" stroke-width="1.39"/><g fill="#18c4ff"><circle cx="688.37" cy="169.34" r="15.54"/><path d="m964 296.23a120.55 120.55 0 0 1 -.61 52.72 122.39 122.39 0 0 1 -22.49 47.44 86 86 0 0 1 -8.76 9.91c-2.9 2.72-7.54 5.39-11.35 2.68-3.57-2.52-1.69-8.53-.42-11.87a28.93 28.93 0 0 1 6.33-9.7c5.67-5.88 13.17-9.86 20.93-12.22 4.19-1.28 9.2-2.72 12.7.79 2.73 2.75 3.75 6.94 4.22 10.66a60.64 60.64 0 0 1 -15.49 48 59.59 59.59 0 0 1 -4.56 4.43l2 .52c-2.29-5.78-1.11-12.27 2.09-17.48s8.21-9 13.47-11.87c2.35-1.29 6-3.82 8.72-2.46 2.07 1 2.83 3.76 3 5.88.32 5.36-2.37 10.77-5.69 14.82a51.32 51.32 0 0 1 -14.91 11.83c-1.23.68-.14 2.52 1.1 1.88a49.77 49.77 0 0 0 15.3-11.7c3.81-4.55 6.93-10.57 6.64-16.67-.12-2.57-.91-5.4-2.87-7.2-2.57-2.35-5.86-1.69-8.76-.35-6.28 2.9-12.32 6.91-16.54 12.46-4.56 6-6.66 14.3-3.8 21.5a1.21 1.21 0 0 0 2 .52 63 63 0 0 0 21.08-49.89c-.39-7.54-2.39-19.08-12-19.45a24.41 24.41 0 0 0 -7.74 1.38 60.73 60.73 0 0 0 -6.15 2.19 52.3 52.3 0 0 0 -11.3 6.4c-6.73 5.08-12.1 12.17-13.3 20.69-.32 2.3-.35 4.83 1 6.85a7.38 7.38 0 0 0 4.71 3.1c4.62 1 8.65-1.66 11.78-4.78a110.14 110.14 0 0 0 17.13-22.73 125.52 125.52 0 0 0 15.49-81.78c-.36-2.32-.81-4.63-1.31-6.92-.22-1-1.75-.58-1.54.42z"/><path d="m669.46 423.82c4.5 11.74 9 23.49 13.53 35.2.41 1.06 2.13.61 1.72-.47-4.5-11.74-9.11-23.44-13.69-35.16-.38-.95-1.93-.54-1.56.43z"/><path d="m711.22 405c.37 15.59-.19 31.15-1.27 46.7-.08 1.17 1.71 1.15 1.81 0a402 402 0 0 0 1-46.7.8.8 0 0 0 -1.59 0z"/><path d="m762.61 418.82q-3.52 15.75-7.07 31.5c-.24 1.1 1.44 1.56 1.68.47q3.45-15.78 6.95-31.54c.22-1-1.33-1.44-1.56-.43z"/><path d="m618 594.7a543.5 543.5 0 0 1 94.6-70.17q14.32-8.38 29.11-15.92c1-.51.12-2-.89-1.52a532.54 532.54 0 0 0 -51.27 29.6 547.78 547.78 0 0 0 -47.55 34.89q-12.91 10.59-25.15 22c-.77.72.38 1.87 1.15 1.16z"/><path d="m650.37 599a438.63 438.63 0 0 1 56.17-45.84 432 432 0 0 1 62.65-35.68q18.54-8.54 37.81-15.48c1.06-.37.61-2.07-.47-1.7a418.79 418.79 0 0 0 -66.36 29.82 432.59 432.59 0 0 0 -60.37 40.68q-15.94 12.8-30.53 27.2c-.71.7.38 1.78 1.1 1.09z"/></g><path d="m450.42 553.49a130.4 130.4 0 0 0 -82.79-4.92 135.86 135.86 0 0 1 15.79 67.49c6.94-5.28 16.07-7 24.78-6.53s17.18 2.88 25.6 5.14c11.37 3 22.9 5.81 34.65 6.29s23.85-1.46 34-7.33a3.78 3.78 0 0 0 1.52-1.3 3.92 3.92 0 0 0 .21-2.4q-3.84-31.48-10.34-62.58c-5.19 4.89-12.27 7.44-19.36 8.12s-14.25-.39-21.2-2" fill="#fff"/><path d="m450.67 552.58a131.77 131.77 0 0 0 -65.09-8.87 126.88 126.88 0 0 0 -18.32 3.54 1.38 1.38 0 0 0 -.81 2 134 134 0 0 1 15.55 66.81 1.43 1.43 0 0 0 2.13 1.22c9.63-7.2 22.24-7.29 33.57-5.1 6.41 1.24 12.68 3.1 19 4.75a197.78 197.78 0 0 0 19.37 4.22c12 1.88 24.38 2.08 36.06-1.55a55.1 55.1 0 0 0 8.38-3.36c2.2-1.11 5-2.23 5.13-5.07a28.05 28.05 0 0 0 -.52-4.65c-.22-1.79-.46-3.58-.7-5.37q-.65-4.8-1.35-9.6-3.3-22.38-7.94-44.54a1.31 1.31 0 0 0 -2.16-.57c-10.63 9.89-26.19 8.86-39.35 6-1.37-.3-2 1.8-.58 2.12 14 3.27 30.43 4.22 41.76-6.3l-2.16-.57q4 19.27 7 38.72 1.52 9.8 2.77 19.62c.19 1.5.44 3 .54 4.52a1.57 1.57 0 0 1 -.56 1.56 14.21 14.21 0 0 1 -2.12 1.19 50 50 0 0 1 -8.08 3.34c-11.47 3.63-23.81 3.52-35.6 1.66-12.63-2-24.7-6.18-37.2-8.7-12.3-2.48-26.19-2.63-36.7 5.24l2.13 1.22a137.46 137.46 0 0 0 -9.48-54 139 139 0 0 0 -6.54-14.19l-.82 2a130.89 130.89 0 0 1 64.76-1 127 127 0 0 1 17.42 5.57c1.14.45 1.62-1.37.5-1.83z"/><g fill="#18c4ff"><path d="m386.91 551.4a4.37 4.37 0 0 0 -4.62 2 4.47 4.47 0 0 0 .39 5.24 5.07 5.07 0 0 0 5 1.81 5.81 5.81 0 0 0 4.16-3.58c.68-1.8.07-4.24-1.92-4.85a1.06 1.06 0 0 0 -.57 2c.2.06.07 0 0 0l.17.09c.16.08.05 0 0 0l.16.16c.11.11-.08-.13 0 0l.1.16s.1.2 0 .09 0 .12.05.15a2.34 2.34 0 0 1 .09.38c0-.18 0 0 0 0s0 .16 0 .25 0 .37 0 .32 0 .08 0 .11l-.06.25a3.65 3.65 0 0 1 -2.33 2.3 3 3 0 0 1 -3.08-.71 2.8 2.8 0 0 1 -.8-3 2.94 2.94 0 0 1 3-1.82c.81.1 1-1.23.19-1.42z"/><path d="m484.24 593.54a4.37 4.37 0 0 0 -4.63 2 4.51 4.51 0 0 0 .39 5.24 5.08 5.08 0 0 0 5 1.81 5.76 5.76 0 0 0 4.16-3.57c.69-1.81.08-4.24-1.92-4.85-1.3-.4-1.86 1.64-.56 2 .19.06.06 0 0 0l.16.09c.16.08.06 0 0 0l.16.16c.11.11-.07-.13 0 0a.86.86 0 0 0 .1.16s.1.21.05.09 0 .12.05.15l.09.39c0-.19 0 0 0 0v.25c0 .07 0 .37 0 .32s0 .09 0 .11a2.27 2.27 0 0 1 -.06.25 3.65 3.65 0 0 1 -2.33 2.31 3 3 0 0 1 -3.07-.72 2.8 2.8 0 0 1 -.8-3 2.94 2.94 0 0 1 3-1.82c.81.1 1-1.23.2-1.41z"/><path d="m438.75 567.05c-7.13-2.6-14.58 2.4-16.47 9.39s1.14 14.58 6.69 19a16.35 16.35 0 0 0 17.91 1.76 16.8 16.8 0 0 0 8.45-14.2c.15-6.86-5.22-16.15-13-15.75-1.35.07-1.37 2.16 0 2.11 5.92-.19 10.09 6.9 10.5 12.15a14.46 14.46 0 0 1 -5.45 12.49 13.67 13.67 0 0 1 -14.73 1 16.93 16.93 0 0 1 -8.7-14.83 13.12 13.12 0 0 1 4.25-9.6 10.68 10.68 0 0 1 10.16-2.13c.91.29 1.28-1.11.39-1.43z"/></g><path d="m831 374.08a130.42 130.42 0 0 0 -82.8-4.92 135.65 135.65 0 0 1 15.8 67.49c6.95-5.28 16.07-7 24.79-6.53s17.17 2.88 25.6 5.14c11.36 3 22.89 5.81 34.65 6.29s23.84-1.46 34-7.33a3.85 3.85 0 0 0 1.52-1.3 4 4 0 0 0 .21-2.4q-3.85-31.49-10.35-62.58c-5.18 4.89-12.26 7.44-19.36 8.12s-14.24-.39-21.19-2" fill="#fff"/><path d="m831.22 373.17a131.8 131.8 0 0 0 -65.1-8.87 126.48 126.48 0 0 0 -18.31 3.54 1.39 1.39 0 0 0 -.82 2 134.52 134.52 0 0 1 15.15 51.54 136.37 136.37 0 0 1 .41 15.26 1.42 1.42 0 0 0 2.13 1.22c9.63-7.2 22.23-7.29 33.57-5.1 6.41 1.24 12.68 3.1 19 4.75a197.15 197.15 0 0 0 19.37 4.22c12 1.88 24.37 2.08 36.06-1.55a55 55 0 0 0 8.37-3.36c2.21-1.11 5-2.23 5.14-5.07a29.16 29.16 0 0 0 -.52-4.65q-.35-2.69-.7-5.37-.65-4.8-1.35-9.6-3.3-22.38-8-44.54a1.3 1.3 0 0 0 -2.15-.57c-10.63 9.89-26.19 8.86-39.35 6-1.38-.3-2 1.8-.59 2.12 14 3.27 30.43 4.22 41.76-6.3l-2.15-.57q4 19.28 7 38.72 1.51 9.79 2.76 19.62c.19 1.5.45 3 .54 4.52a1.57 1.57 0 0 1 -.56 1.56 12.85 12.85 0 0 1 -2.11 1.19 50.36 50.36 0 0 1 -8.08 3.34c-11.47 3.63-23.82 3.52-35.6 1.66-12.63-2-24.71-6.18-37.21-8.7-12.29-2.48-26.19-2.63-36.69 5.24l2.13 1.22a137.29 137.29 0 0 0 -9.49-54 138.91 138.91 0 0 0 -6.53-14.19l-.82 2a130.86 130.86 0 0 1 64.75-1.05 126.66 126.66 0 0 1 17.49 5.6c1.13.45 1.61-1.37.5-1.83z"/><g fill="#18c4ff"><path d="m767.46 372a4.38 4.38 0 0 0 -4.63 2 4.51 4.51 0 0 0 .39 5.24 5.08 5.08 0 0 0 5 1.81 5.77 5.77 0 0 0 4.16-3.58c.69-1.8.08-4.24-1.92-4.85-1.3-.4-1.86 1.65-.56 2 .19.06.06 0 0 0l.16.09c.16.08.06 0 0 0l.16.16c.12.11-.07-.13 0 0s.07.11.1.16.1.2 0 .09 0 .12.05.15l.09.38c0-.18 0 0 0 0v.25c0 .07 0 .37 0 .32s0 .08 0 .11 0 .16-.06.25a3.61 3.61 0 0 1 -2.33 2.3 3 3 0 0 1 -3.07-.71 2.8 2.8 0 0 1 -.8-3 2.92 2.92 0 0 1 3-1.82c.81.1 1-1.23.2-1.42z"/><path d="m864.78 414.13a4.36 4.36 0 0 0 -4.62 2 4.47 4.47 0 0 0 .39 5.24 5.07 5.07 0 0 0 5 1.81 5.78 5.78 0 0 0 4.16-3.57c.68-1.81.07-4.24-1.92-4.85a1.05 1.05 0 0 0 -.56 2c.19.06.06 0 0 0l.17.09c.16.08.05 0 0 0s.11.11.16.16-.08-.13 0 0l.1.16s.1.21.05.09 0 .12 0 .15a2.46 2.46 0 0 1 .09.39c0-.19 0 0 0 0s0 .17 0 .25 0 .37 0 .32 0 .09 0 .11l-.06.25a3.69 3.69 0 0 1 -2.33 2.31 3 3 0 0 1 -3.07-.72 2.76 2.76 0 0 1 -.8-3 2.94 2.94 0 0 1 3-1.82c.81.1 1-1.23.19-1.41z"/><path d="m819.3 387.64c-7.13-2.6-14.58 2.4-16.48 9.39s1.14 14.58 6.7 19a16.35 16.35 0 0 0 17.91 1.76 16.79 16.79 0 0 0 8.44-14.15c.15-6.86-5.21-16.15-13-15.75-1.35.07-1.36 2.16 0 2.11 5.93-.19 10.09 6.9 10.51 12.15a14.47 14.47 0 0 1 -5.5 12.48 13.65 13.65 0 0 1 -14.72 1 17 17 0 0 1 -8.71-14.83 13.17 13.17 0 0 1 4.26-9.6 10.65 10.65 0 0 1 10.15-2.13c.92.29 1.28-1.11.4-1.43z"/></g><path d="m761.76 769a130.33 130.33 0 0 0 73.69 38.07 135.81 135.81 0 0 1 12.92-68.07c-8.48 2-17.52-.13-25.3-4.08s-14.54-9.59-21.32-15.07c-9.16-7.39-18.57-14.6-29.12-19.8s-22.4-8.33-34.1-7.1a3.73 3.73 0 0 0 -1.91.58 4 4 0 0 0 -1.17 2.1q-9.24 30.35-15.91 61.41c6.72-2.38 14.23-1.84 21 .42s12.87 6.13 18.58 10.39" fill="#fff"/><path d="m761.09 769.71a132.15 132.15 0 0 0 55.74 34.5 124.12 124.12 0 0 0 18.25 4.22 1.4 1.4 0 0 0 1.74-1.32 135.29 135.29 0 0 1 6.93-53.11 131.64 131.64 0 0 1 5.84-14.31 1.43 1.43 0 0 0 -1.59-2.07c-12.17 2.77-24.1-2.94-33.78-9.86-10.07-7.19-19.15-15.64-29.52-22.45s-21.69-12.06-34-13.59a54 54 0 0 0 -9-.38c-2.71.12-6 0-7.17 2.92s-1.84 6-2.71 9q-1.44 4.92-2.81 9.86-6 21.63-10.7 43.6a1.31 1.31 0 0 0 1.59 1.59c13.88-4.77 27.67 2.48 38.66 10.52 1.16.84 2.23-1.06 1.12-1.9-11.38-8.58-26-16.08-40.47-11.11l1.59 1.59q4.15-19.33 9.32-38.42 2.55-9.42 5.35-18.77c.43-1.46.85-2.93 1.33-4.37a2 2 0 0 1 .9-1.36 8 8 0 0 1 2.65-.31 51.93 51.93 0 0 1 9 .24c12.09 1.34 23.42 6.65 33.52 13.21s19.19 14.85 29 22c10.56 7.69 23.54 13.82 36.89 10.76l-1.6-2.07a138 138 0 0 0 -13.28 53 134.71 134.71 0 0 0 .21 15.82l1.73-1.32a131.41 131.41 0 0 1 -59.56-25.15 123.79 123.79 0 0 1 -13.82-12.27c-.86-.87-2.19.46-1.34 1.34z"/><g fill="#18c4ff"><path d="m819.06 796.76a4.32 4.32 0 0 0 4.74.13 4.43 4.43 0 0 0 2.06-4.61 5.09 5.09 0 0 0 -3.34-4 5.76 5.76 0 0 0 -5.36 1c-1.58 1.25-2.51 4-.76 5.56a1.09 1.09 0 0 0 1.5 0 1.06 1.06 0 0 0 0-1.49 1.89 1.89 0 0 1 -.2-.2s.08.16 0 0l-.09-.16c.11.21 0 0 0-.08v-.18-.23c0-.22-.05.13 0-.11s.08-.31.13-.47.08-.18 0 0l.09-.18a3 3 0 0 1 .26-.42c-.1.14 0 0 .06-.06l.21-.21.2-.17c.14-.1.29-.19.44-.28a2.86 2.86 0 0 1 .82-.32l.51-.11c-.16 0 0 0 0 0h.31.42s.35 0 .14 0l.3.06a2.61 2.61 0 0 1 1.5.77l.17.18c.13.14.06.07 0 0a4.14 4.14 0 0 1 .49.85s0-.14 0 0 .07.19.09.28a3.15 3.15 0 0 1 .05 1.61 1.61 1.61 0 0 1 -.28.66 2.09 2.09 0 0 1 -.54.61c-.13.11.17-.11-.07.06l-.23.15-.39.21a5.93 5.93 0 0 1 -.85.24 2.54 2.54 0 0 1 -1.7-.35.72.72 0 1 0 -.73 1.24z"/><path d="m747.17 718.8a4.32 4.32 0 0 0 4.74.13 4.47 4.47 0 0 0 2.06-4.62 5.1 5.1 0 0 0 -3.34-4 5.78 5.78 0 0 0 -5.36 1c-1.58 1.25-2.51 4-.76 5.56a1.08 1.08 0 0 0 1.5 0 1.07 1.07 0 0 0 0-1.49l-.21-.2s.09.16 0 0l-.09-.16c.11.21 0 0 0-.08v-.18a1.69 1.69 0 0 0 0-.23c0-.22 0 .13 0-.1s.09-.32.14-.48l.09-.18a3 3 0 0 1 .26-.42c-.11.14 0 0 .06-.05l.21-.22.2-.17c.14-.09.29-.19.44-.27a2.52 2.52 0 0 1 .82-.33 4.59 4.59 0 0 1 .51-.1c-.16 0 0 0 0 0h.73s.34 0 .14 0l.3.06a2.67 2.67 0 0 1 1.44.78c.06.06.11.13.17.18s.06.07 0 0a2.71 2.71 0 0 1 .28.41 3.74 3.74 0 0 1 .22.45l.09.28a3.15 3.15 0 0 1 .19 1.63 1.69 1.69 0 0 1 -.28.66 2.12 2.12 0 0 1 -.54.61c-.13.12.17-.11-.07.06l-.23.15-.39.21a4.87 4.87 0 0 1 -.85.24 2.53 2.53 0 0 1 -1.7-.34.73.73 0 0 0 -1 .25.75.75 0 0 0 .26 1z"/><path d="m777.87 761.34c5.49 5.29 14.36 3.81 18.93-1.9s4.83-13.68 1.58-20a16.27 16.27 0 0 0 -16-8.86 16.75 16.75 0 0 0 -13.38 9.98c-2.68 6.28-1.34 16.49 5.82 19.22 1.28.49 1.8-1.54.56-2-5.3-2.13-6.12-10.1-4.68-14.85a14.39 14.39 0 0 1 10-9.56 13.64 13.64 0 0 1 14.14 4.91 16.93 16.93 0 0 1 2 17 13.21 13.21 0 0 1 -7.55 7 10.7 10.7 0 0 1 -10.36-2c-.7-.63-1.74.38-1 1.05z"/></g></svg>