<?xml version="1.0" ?><svg viewBox="0 0 1000 1000" xmlns="http://www.w3.org/2000/svg"><path d="m812.06 296.87c10.8 18.17 15.18 39.3 15.63 60.26.49 23-3.69 45.64-8.14 68.07-4.59 23.08-9 46.1-11.28 69.55a500.55 500.55 0 0 0 -1.92 70.76 490.47 490.47 0 0 0 8 69.73c.53 2.85 1.11 5.68 1.73 8.51.36 1.64 2.78.93 2.49-.69a586.93 586.93 0 0 1 -8.56-70.54 524.13 524.13 0 0 1 .91-70.78c1.91-23.74 5.9-47.1 10.41-70.47 4.35-22.58 8.6-45.4 8.52-68.49-.07-20.55-3.47-41.49-12.85-60-1.15-2.27-2.4-4.5-3.73-6.68a.72.72 0 0 0 -1.25.73z"/><path d="m824.23 626.77c-15.82-116.42 18.32-238.77 92.11-330.22l-7.05-10.43c-2.56-3.8 1.41-5.63 4.62-6.4 4.79-1.15 9.58-2.63 14.37-4 10.18-2.89 21-5.37 31.78-5.87 7-.33 12.2 1.38 11.8 9.27q-.65 12.72-2.1 25.39c-.9 7.88-1.22 16.62-4.35 23.95a8.39 8.39 0 0 1 -2.29 3.52c-2.46 1.92-6.16.65-8.52-1.4s-4.13-4.81-6.84-6.36a2.39 2.39 0 0 1 3.4 1.65c-12.51 13.21-21.91 29-31.21 44.61-18.91 31.8-38 64-48.67 99.44-4.78 15.88-7.81 32.23-10.42 48.6-6.27 39.29-10.22 79.37-5.29 118.86" fill="#18c4ff"/><path d="m844 630.91c-3.5-42 2.48-84.45 14.84-124.71 8.09-26.33 19.09-52.18 36.31-73.67s41.21-38.43 68.34-43.21c-14.92 8.23-22.74 25.19-27.17 41.64s-6.58 33.8-14.56 48.86c-13.61 25.65-41.34 39.93-62.57 59.74-3.92 3.65-7.69 7.59-10.2 12.32-3.31 6.2-4.25 13.36-5 20.35a395.64 395.64 0 0 0 -1.3 63"/><path d="m844.71 630.91a304.31 304.31 0 0 1 1.43-60.91 359.47 359.47 0 0 1 12.61-59.92c5.38-18 12-35.77 21.07-52.29 8.69-15.82 19.64-30.37 33.33-42.2 12.81-11.07 28-19.65 44.47-23.74 2-.51 4.12-.94 6.2-1.31l-1-2.39c-15.18 8.46-23 25.26-27.5 41.33-5.26 18.87-7.29 39-18.32 55.68-9.56 14.5-23.58 25.29-37.1 35.86-6.91 5.4-13.84 10.8-20.31 16.73a61.7 61.7 0 0 0 -9.68 10.62 36.86 36.86 0 0 0 -5.38 13.3 129.06 129.06 0 0 0 -1.93 15.18q-.74 8.34-1.12 16.72-.76 16.6-.13 33.25c.11 2.79.29 5.58.45 8.37.07 1.17 1.9 1.18 1.83 0a382.67 382.67 0 0 1 1.66-65.63 53.88 53.88 0 0 1 3.34-14.68 38.19 38.19 0 0 1 8.44-11.88 199.54 199.54 0 0 1 20.15-17.14c13.48-10.37 27.71-20.44 38.23-34a82 82 0 0 0 12.84-24.1c3.21-9.43 5.12-19.22 7.4-28.89 3.85-16.4 9.47-34.26 23.31-45.05a39.85 39.85 0 0 1 5.13-3.38c1.37-.77.39-2.64-1-2.39-17 3-32.8 10.8-46.39 21.33-14.22 11-25.82 25-35.05 40.44-9.73 16.23-16.88 33.91-22.59 51.91a366.44 366.44 0 0 0 -13.78 60 313 313 0 0 0 -2.61 61.56q.22 3.79.55 7.58c.07.93 1.54.94 1.46 0z"/><path d="m810.09 628.4c-7.39-22.5-15-45-25.45-66.26s-24.1-41.24-42.07-56.66a134.2 134.2 0 0 0 -67.57-30.79 96.58 96.58 0 0 1 40.11 42.66c3.27 6.88 5.74 14.18 9.84 20.59 10 15.64 28.12 23.76 45.16 31.16 5 2.17 10 4.38 14.32 7.74 9.47 7.43 14 19.39 17.81 30.79q5 14.94 9.6 30"/><path d="m810.8 628.2c-9.27-28.47-18.85-57.19-34.27-83a171.88 171.88 0 0 0 -25.1-32.94 135 135 0 0 0 -76.09-38.69c-1.23-.18-2.19 1.46-.91 2.17a95.58 95.58 0 0 1 30.88 27.43 98.79 98.79 0 0 1 10.37 18.29c3.07 7 5.82 14.14 10.46 20.27 8.14 10.72 20 17.67 32 23.33 6.49 3.07 13.29 5.58 19.63 9a38.23 38.23 0 0 1 15.1 14.45c3.58 6 6 12.56 8.21 19.13q4.11 12.08 7.86 24.27c.64 2 1.26 4.08 1.88 6.12.42 1.38 2.58.79 2.16-.59q-3.78-12.5-7.87-24.89c-2.28-6.88-4.49-13.83-7.63-20.37-3-6.17-6.88-12-12.31-16.24-5.87-4.59-13-7.15-19.74-10.15-12.36-5.49-25-11.69-34.31-21.82-5.13-5.59-8.41-12.23-11.38-19.14a122.57 122.57 0 0 0 -10.08-19.56 98.19 98.19 0 0 0 -29.56-28.91q-2.19-1.36-4.44-2.62l-.92 2.17a134 134 0 0 1 71.82 34.69c20.5 19.27 34.67 44.22 45.44 70 6.59 15.74 12 31.93 17.41 48.11.3.9 1.71.52 1.42-.39z"/><path d="m855.16 634.6c-1.5-31.36 4.49-65 26.08-87.81 11.39-12 26.3-20.13 41.62-26.42 16.53-6.79 34.36-11.72 52.14-9.92-2.29 2.89-5.54 4.82-8.35 7.2-11.22 9.53-14.52 25.32-22.76 37.52a53.17 53.17 0 0 1 -17.82 16.45c-12.73 7.19-27.76 8.78-41.67 13.26s-28.12 13.63-31.1 27.94c-1.91 9.16 1.19 18.66.33 28"/><path d="m855.89 634.6c-1-23.74 2.05-48.6 13.58-69.73a83.38 83.38 0 0 1 24.09-27.43c10.58-7.73 22.6-13.41 34.82-18 14.85-5.6 30.67-9.37 46.62-7.79l-.83-2c-2.1 2.56-4.85 4.37-7.42 6.4a37.76 37.76 0 0 0 -6.32 6.44 80.91 80.91 0 0 0 -8.79 15.23c-2.62 5.49-5.12 11.09-8.47 16.19a51.4 51.4 0 0 1 -13.55 14c-21.3 14.85-51.81 10.28-70.11 30.47a30.45 30.45 0 0 0 -8 17.28c-.88 8.42 1.55 16.78.87 25.21-.13 1.56 2.29 1.54 2.43 0 .65-7.35-1-14.62-.87-22a27.9 27.9 0 0 1 5.81-16.75c7.29-9.41 18.86-14.33 30-17.42 13.09-3.63 27-5.69 38.72-12.95a54.27 54.27 0 0 0 14.36-12.91 81.3 81.3 0 0 0 9-15.47c2.82-6 5.46-12.1 9.23-17.56a37.38 37.38 0 0 1 6.44-7.25c2.81-2.4 6-4.33 8.33-7.22a1.2 1.2 0 0 0 -.83-2c-14.55-1.42-29.12 1.56-42.83 6.33-12.64 4.41-25.13 10-36.26 17.51a87.22 87.22 0 0 0 -25.91 26.63 104.7 104.7 0 0 0 -12.78 33.55 163 163 0 0 0 -2.77 41.24c0 .92 1.49.93 1.45 0z"/><path d="m796.34 637.38a46.65 46.65 0 0 0 -9.46-39.73c-6.32-7.58-14.91-12.91-23.71-17.37a174.6 174.6 0 0 0 -55.91-17.28c14.08 6.86 20.06 23.78 32.09 33.82 10 8.32 23.37 11.27 36.32 12.36 3.47.29 7.06.5 10.21 2 8.24 3.9 10.28 14.57 10.61 23.67"/><path d="m797.05 637.57a47.31 47.31 0 0 0 -12.91-44.33c-6.08-6-13.49-10.37-21-14.17a174.75 174.75 0 0 0 -55.83-17.21c-1.17-.16-1.59 1.7-.59 2.19 13.93 6.92 19.63 22.89 30.86 32.87 6.47 5.74 14.55 9.23 22.89 11.24a93.8 93.8 0 0 0 13 2.13c4.43.43 9.24.31 13.17 2.69 7.2 4.36 8.41 14.27 8.82 21.89.08 1.4 2.22 1.42 2.18 0-.16-7.21-1.3-15.38-6.22-21a17 17 0 0 0 -10.56-5.38c-4.52-.67-9.09-.84-13.61-1.57-8.82-1.43-17.63-4.1-25-9.38-6.54-4.7-11.2-11.41-15.94-17.8-5.11-6.88-10.59-13.83-18.45-17.7l-.59 2.19a174.35 174.35 0 0 1 50.85 14.77c7.61 3.55 15.18 7.55 21.64 13a46 46 0 0 1 15.88 45.2c-.2.92 1.19 1.31 1.41.39z"/><path d="m844.71 630.91a304.31 304.31 0 0 1 1.43-60.91 359.47 359.47 0 0 1 12.61-59.92c5.38-18 12-35.77 21.07-52.29 8.69-15.82 19.64-30.37 33.33-42.2 12.81-11.07 28-19.65 44.47-23.74 2-.51 4.12-.94 6.2-1.31l-1-2.39c-15.18 8.46-23 25.26-27.5 41.33-5.26 18.87-7.29 39-18.32 55.68-9.56 14.5-23.58 25.29-37.1 35.86-6.91 5.4-13.84 10.8-20.31 16.73a61.7 61.7 0 0 0 -9.68 10.62 36.86 36.86 0 0 0 -5.38 13.3 129.06 129.06 0 0 0 -1.93 15.18q-.74 8.34-1.12 16.72-.76 16.6-.13 33.25c.11 2.79.29 5.58.45 8.37.07 1.17 1.9 1.18 1.83 0a382.67 382.67 0 0 1 1.66-65.63 53.88 53.88 0 0 1 3.34-14.68 38.19 38.19 0 0 1 8.44-11.88 199.54 199.54 0 0 1 20.15-17.14c13.48-10.37 27.71-20.44 38.23-34a82 82 0 0 0 12.84-24.1c3.21-9.43 5.12-19.22 7.4-28.89 3.85-16.4 9.47-34.26 23.31-45.05a39.85 39.85 0 0 1 5.13-3.38c1.37-.77.39-2.64-1-2.39-17 3-32.8 10.8-46.39 21.33-14.22 11-25.82 25-35.05 40.44-9.73 16.23-16.88 33.91-22.59 51.91a366.44 366.44 0 0 0 -13.78 60 313 313 0 0 0 -2.61 61.56q.22 3.79.55 7.58c.07.93 1.54.94 1.46 0z"/><path d="m810.8 628.2c-9.27-28.47-18.85-57.19-34.27-83a171.88 171.88 0 0 0 -25.1-32.94 135 135 0 0 0 -76.09-38.69c-1.23-.18-2.19 1.46-.91 2.17a95.58 95.58 0 0 1 30.88 27.43 98.79 98.79 0 0 1 10.37 18.29c3.07 7 5.82 14.14 10.46 20.27 8.14 10.72 20 17.67 32 23.33 6.49 3.07 13.29 5.58 19.63 9a38.23 38.23 0 0 1 15.1 14.45c3.58 6 6 12.56 8.21 19.13q4.11 12.08 7.86 24.27c.64 2 1.26 4.08 1.88 6.12.42 1.38 2.58.79 2.16-.59q-3.78-12.5-7.87-24.89c-2.28-6.88-4.49-13.83-7.63-20.37-3-6.17-6.88-12-12.31-16.24-5.87-4.59-13-7.15-19.74-10.15-12.36-5.49-25-11.69-34.31-21.82-5.13-5.59-8.41-12.23-11.38-19.14a122.57 122.57 0 0 0 -10.08-19.56 98.19 98.19 0 0 0 -29.56-28.91q-2.19-1.36-4.44-2.62l-.92 2.17a134 134 0 0 1 71.82 34.69c20.5 19.27 34.67 44.22 45.44 70 6.59 15.74 12 31.93 17.41 48.11.3.9 1.71.52 1.42-.39z"/><path d="m855.89 634.6c-1-23.74 2.05-48.6 13.58-69.73a83.38 83.38 0 0 1 24.09-27.43c10.58-7.73 22.6-13.41 34.82-18 14.85-5.6 30.67-9.37 46.62-7.79l-.83-2c-2.1 2.56-4.85 4.37-7.42 6.4a37.76 37.76 0 0 0 -6.32 6.44 80.91 80.91 0 0 0 -8.79 15.23c-2.62 5.49-5.12 11.09-8.47 16.19a51.4 51.4 0 0 1 -13.55 14c-21.3 14.85-51.81 10.28-70.11 30.47a30.45 30.45 0 0 0 -8 17.28c-.88 8.42 1.55 16.78.87 25.21-.13 1.56 2.29 1.54 2.43 0 .65-7.35-1-14.62-.87-22a27.9 27.9 0 0 1 5.81-16.75c7.29-9.41 18.86-14.33 30-17.42 13.09-3.63 27-5.69 38.72-12.95a54.27 54.27 0 0 0 14.36-12.91 81.3 81.3 0 0 0 9-15.47c2.82-6 5.46-12.1 9.23-17.56a37.38 37.38 0 0 1 6.44-7.25c2.81-2.4 6-4.33 8.33-7.22a1.2 1.2 0 0 0 -.83-2c-14.55-1.42-29.12 1.56-42.83 6.33-12.64 4.41-25.13 10-36.26 17.51a87.22 87.22 0 0 0 -25.91 26.63 104.7 104.7 0 0 0 -12.78 33.55 163 163 0 0 0 -2.77 41.24c0 .92 1.49.93 1.45 0z"/><path d="m797.05 637.57a47.31 47.31 0 0 0 -12.91-44.33c-6.08-6-13.49-10.37-21-14.17a174.75 174.75 0 0 0 -55.83-17.21c-1.17-.16-1.59 1.7-.59 2.19 13.93 6.92 19.63 22.89 30.86 32.87 6.47 5.74 14.55 9.23 22.89 11.24a93.8 93.8 0 0 0 13 2.13c4.43.43 9.24.31 13.17 2.69 7.2 4.36 8.41 14.27 8.82 21.89.08 1.4 2.22 1.42 2.18 0-.16-7.21-1.3-15.38-6.22-21a17 17 0 0 0 -10.56-5.38c-4.52-.67-9.09-.84-13.61-1.57-8.82-1.43-17.63-4.1-25-9.38-6.54-4.7-11.2-11.41-15.94-17.8-5.11-6.88-10.59-13.83-18.45-17.7l-.59 2.19a174.35 174.35 0 0 1 50.85 14.77c7.61 3.55 15.18 7.55 21.64 13a46 46 0 0 1 15.88 45.2c-.2.92 1.19 1.31 1.41.39z"/><path d="m871 852.86h-95a57.22 57.22 0 0 1 -56.73-49.77l-22.65-172.38a5.42 5.42 0 0 1 5.38-6.14h243a5.44 5.44 0 0 1 5.39 6.14l-22.63 172.38a57.22 57.22 0 0 1 -56.76 49.77z" fill="#fff"/><path d="m604.27 388c-20.66-4.2-40.29-12.83-59.47-21.35l-13.89-6.21a82.63 82.63 0 0 1 -11.34-6c-6.68-4.34-13.42-10.69-14.06-19.13-.75-9.9 6.65-17.9 12.9-24.64 6.91-7.45 14-14.82 22.13-21 7.75-5.88 16.42-10.62 26-12.74 8.89-2 18.54-1.78 27 1.79 8.77 3.68 15.19 10.91 19.27 19.36 4.69 9.7 6.17 20.57 7 31.2.2 2.76.36 5.52.52 8.28 0 .65.69 1.37 1.41 1.08q29.87-11.84 59.75-23.58l14.88-5.87a54.7 54.7 0 0 0 6.53-2.7 7.76 7.76 0 0 0 3.67-4.49c1.39-4 2.49-8.46 6.1-11.09a3.57 3.57 0 0 1 4.57.22 4.89 4.89 0 0 1 1.23 2.4c.39 1.28.75 2.57 1.08 3.88a82.28 82.28 0 0 1 2.35 15.13 50.25 50.25 0 0 1 .13 7.36 2.73 2.73 0 0 1 -3.11 2.57c-1.69-.27-2.93-2.18-4.1-3.27a7.12 7.12 0 0 0 -4.53-2.23c-2.29-.09-4.43 1.37-6.36 2.41l-7 3.77-56.21 30.18c-4.51 2.42-9.22 4.65-13.58 7.33a7.06 7.06 0 0 0 -3.53 4.35c-.48 2.1-.1 4.38-.12 6.51 0 4.45-.66 9.09-3.25 12.83a8.86 8.86 0 0 1 -7.58 3.84 34 34 0 0 1 -5.87-.49c-1.42-.23-2 1.95-.6 2.18 3.52.55 7.39 1.19 10.83-.09s5.57-4.19 6.92-7.41c1.79-4.27 2-9 1.83-13.57a11.6 11.6 0 0 1 .13-3.38 4.54 4.54 0 0 1 2.09-2.57c2.17-1.42 4.59-2.53 6.87-3.76l58.59-31.55c4.8-2.59 9.55-5.44 14.49-7.78 2.25-1.06 3.9-.42 5.6 1.22 1.25 1.2 2.43 2.76 4.11 3.39a4.89 4.89 0 0 0 4.65-.69 5.13 5.13 0 0 0 2-4.28 85.27 85.27 0 0 0 -1.24-15.41q-.64-4-1.67-7.88c-.52-2-.9-4.45-2.28-6.09a5.74 5.74 0 0 0 -4.26-2 6.51 6.51 0 0 0 -4.74 2.23 18.75 18.75 0 0 0 -3.65 5.45c-.93 2-1.34 4.14-2.17 6.17-1 2.4-3.27 3.19-5.52 4.08l-7.91 3.04q-31.05 12.21-62.09 24.41l-7.68 3 1.41 1.07c-1.07-20.38-3-44.54-21.38-57.36-16.43-11.48-38.74-7.29-54.79 2.61-9 5.56-16.83 12.81-24.16 20.39-3.64 3.77-7.3 7.56-10.64 11.61-3.11 3.77-5.95 7.88-7.44 12.58-2.75 8.66.58 17.16 6.89 23.28 6.72 6.52 15.34 10.23 23.77 14 20 8.9 40.3 18.09 61.72 23.22q3.67.89 7.4 1.59c1 .18 1.36-1.26.4-1.45z"/><path d="m236.52 499.53c-18.69 12-36.62 25.11-54.18 38.68-16.12 12.46-31.89 25.36-47.83 38-15.45 12.3-31.09 24.39-47.39 35.56-8.11 5.55-16.37 10.89-24.81 15.91-8.61 5.12-17.44 9.76-26.34 14.35-4 2-8.16 4.48-10.47 8.44-2.61 4.47-1.76 9.62.13 14.18 1.73 4.18 3.82 8.26 5.85 12.31a94.66 94.66 0 0 0 4.65 8.36c1.74 2.73 3.69 5.33 5.69 7.87 1.36 1.73 2.74 3.43 4.14 5.12a35.7 35.7 0 0 0 4.81 5.24c2.41 1.95 5.43 3.1 8.43 1.79 2.78-1.22 4.71-3.93 6.2-6.48a77.07 77.07 0 0 0 4.43-9.54 46.07 46.07 0 0 1 6.27-11.08c5.21-6.6 12.29-11.23 19.69-15 3.93-2 8-3.84 12-5.68 5.37-2.46 10.69-5 16-7.67 10.38-5.19 20.63-10.61 30.94-15.91 20.3-10.43 40.62-20.8 60.57-31.89 19.67-10.93 39-22.48 57.74-34.92 1-.64 1.92-1.27 2.87-1.92a3.26 3.26 0 0 0 1.07-.87 1.15 1.15 0 0 0 -.68-1.68 1.83 1.83 0 0 0 -1.39.41 3.91 3.91 0 0 0 -.44.26c-.47.36-.37-.2.58 0l.68 1.68c-.12.26-.53.47-.1.18s.61-.42.91-.62c1.4-.95 2.8-1.9 4.2-2.83 1.2-.79.07-2.74-1.13-1.94-1.49 1-3 2-4.47 3-.4.27-1.15.63-1.38 1.09a1.15 1.15 0 0 0 .69 1.67 1.73 1.73 0 0 0 1.39-.4c.14-.09.3-.17.43-.27.46-.34.44.15-.58-.05l-.68-1.68c.12-.21.53-.47.13-.2l-.82.55c-1.23.83-2.46 1.64-3.7 2.46q-6.87 4.55-13.83 8.94-14.2 9-28.77 17.29c-19.41 11.17-39.19 21.66-59.1 31.88q-15 7.71-30 15.43c-10.14 5.26-20.32 10.47-30.69 15.26-7.84 3.63-15.88 7-23 12a47 47 0 0 0 -16.13 18.41c-1.51 3.21-2.7 6.56-4.26 9.75-1.33 2.72-2.93 5.84-5.47 7.64s-5.27.83-7.47-1.12a44.1 44.1 0 0 1 -4.79-5.42c-1.29-1.57-2.57-3.15-3.82-4.75a92.41 92.41 0 0 1 -10-16.07 130.57 130.57 0 0 1 -5.81-12.4 15.45 15.45 0 0 1 -1.14-7.53 10.94 10.94 0 0 1 3.37-6.24c3.35-3.24 7.86-5.1 12-7.18q6.61-3.37 13.08-7c8.51-4.76 16.84-9.85 25-15.2 16-10.5 31.37-22 46.44-33.82 15.6-12.24 31-24.79 46.44-37.15 16.64-13.28 33.54-26.25 51-38.47q6.82-4.78 13.71-9.46c.78-.53.06-1.78-.74-1.27z"/><path d="m117.81 651.54c-5.44-4.94-10.86-9.89-15.92-15.2a97.79 97.79 0 0 1 -16.26-22.06 410.76 410.76 0 0 1 -47.32 28c-4.71 2.35-9.86 5-12.13 9.54-2.53 5-.52 10.39 1.65 15 8.07 17 8.92 18.71 20.9 33.16 10.82 13 16.64-2.84 20.49-12.08 7-16.83 21.07-23.57 36.65-30.62 4-1.92 7.97-3.81 11.94-5.74z"/><path d="m98.49 663.44c-3.51 1.69-7.3-.16-10.36-1.92l.5 1.22.08-.19-.51.65c-.26 0-.3 0-.13 0a.82.82 0 0 1 .41.35c.21.19.4.4.6.6.55.59 1.08 1.19 1.57 1.83s1.15 1.28 1.15 2c0 .89-1 1.2-1.73 1.27-2.91.28-6.13-1.21-8.32-3l-1.12 1.91a7.81 7.81 0 0 1 4 2.17c.36.36 1.25 1.25 1.16 1.8s-1.53 1.21-2 1.4c-2.86 1.16-6.15.23-8.6-1.44l-.9 2.13a8.16 8.16 0 0 1 4.24 1.78c.45.38 1.28 1.08 1 1.76s-1.23 1-1.77 1.18a10.34 10.34 0 0 1 -8.6-.45c-1.35-.7-2.53 1.3-1.19 2a12.07 12.07 0 0 1 3 2.31c.44.48 1.82 2.27.56 2.64a1.14 1.14 0 0 0 .6 2.2 3.18 3.18 0 0 0 2-4.36c-.83-2.13-3-3.76-5-4.84l-1.19 2c3.72 1.92 9.12 2.24 12.59-.5a3.28 3.28 0 0 0 .31-5 9.68 9.68 0 0 0 -6-3 1.17 1.17 0 0 0 -.9 2.12c3.54 2.4 8.69 3.27 12.35.62 4.63-3.35-1.65-8-5.13-8.77-1-.22-2.06 1.14-1.11 1.92a15.75 15.75 0 0 0 7.21 3.44c2.22.39 5 .49 6.34-1.75s-1-4.7-2.42-6.32a6.1 6.1 0 0 0 -2.7-2.16 1.63 1.63 0 0 0 -2 1.1 1.09 1.09 0 0 0 .5 1.22c3.77 2 8.2 3.7 12.21 1.34a.75.75 0 0 0 -.75-1.29z" fill="#18c4ff"/><path d="m273 341.2a203.68 203.68 0 0 0 -9.55 111.18c.4 2.05.83 4.22.13 6.2a11.33 11.33 0 0 1 -3.2 4.19 413.64 413.64 0 0 1 -64.37 50c-2.18 1.37-4.51 2.89-5.4 5.3s-.1 5 .79 7.43c7.41 20 22.17 36.43 38.26 50.43 9.77 8.5 20.24 16.35 31.89 22 5.71 2.78 12.07 5.05 18.32 3.9a30.5 30.5 0 0 0 10.13-4.36c26-15.73 44.83-41.82 54.82-70.5s11.6-59.81 8.06-90a274.55 274.55 0 0 0 -20.46-76.42" fill="#18c4ff"/><path d="m241.67 575c4.28 0 8-2.17 11.57-4.33 3.81-2.32 7.51-4.82 11.11-7.45 7.23-5.26 14.07-11 20.74-17 3.84-3.42 7.74-6.83 11.43-10.43.8-.79-.39-1.95-1.23-1.22-6.54 5.66-12.73 11.69-19.34 17.28a204.54 204.54 0 0 1 -21 15.85c-4 2.57-8.35 5.76-13.27 5.77a.76.76 0 0 0 0 1.51z" fill="#fff"/><path d="m318.61 585.65c-.26 21.92.8 43.83 2.45 65.69 1.52 20.14 3.6 40.23 5.43 60.34 1.76 19.25 3.26 38.54 3.72 57.87a425.08 425.08 0 0 1 -2.46 59.16c-.54 4.64-1.27 9.56.15 14.12a13.42 13.42 0 0 0 8.3 8.52c4.13 1.61 8.75 1.89 13.11 2.48 3.84.51 7.7 1 11.58 1.24a80.57 80.57 0 0 0 10.19-.14 119.73 119.73 0 0 0 13.9-1.47c2.79-.54 5.85-1.72 7.32-4.32 1.25-2.22 1-4.89.29-7.24-1.93-6.31-6.55-11.27-9.72-16.93-4.85-8.7-5.93-18.49-5.21-28.28.37-4.94 1.12-9.84 1.89-14.74q1.32-8.48 2.36-17c1.42-11.46 2.53-23 3.74-34.43 2.48-23.3 5.12-46.57 6.89-69.94 1.74-22.94 2.74-45.92 2.64-68.93 0-1 0-2 0-3.08a2 2 0 0 0 -.36-1.4 1.15 1.15 0 0 0 -1.79.23 2.69 2.69 0 0 0 -.19 1.19v.49c0 .48-.05.08.13-.24l1.79-.23c.3.29.31 1.08.31.44 0-.37 0-.74 0-1.1 0-1.69 0-3.39-.05-5.08a1.12 1.12 0 0 0 -2.24 0v5.47c0 .59-.1 1.44.37 1.89a1.15 1.15 0 0 0 1.79-.24 2.6 2.6 0 0 0 .19-1.18 4 4 0 0 0 0-.49c0-.39.22-.47-.13.24l-1.8.23c-.66-.74-.26-1-.31-.48v.9 4.12q0 8.49-.14 17c-.23 11.51-.73 23-1.43 34.5-1.4 22.8-3.59 45.55-6.07 68.26s-4.38 45.48-7.92 68c-1.46 9.27-3 18.73-1.86 28.12a45.66 45.66 0 0 0 3.53 13.2 69.56 69.56 0 0 0 6.19 10.45 49.77 49.77 0 0 1 4.45 7.76c.87 2 1.74 4.65.88 6.84-1.11 2.8-4.76 3.58-7.39 3.93-4.44.6-8.95 1-13.42 1.27-7.21.43-14.29-.37-21.43-1.34-4.21-.58-8.82-.85-12.67-2.82-4.31-2.22-6-6.42-6.12-11.09s.79-9.65 1.28-14.42.9-9.82 1.2-14.74c.6-9.5.85-19 .8-28.54-.09-18.93-1.3-37.83-2.91-56.68-1.65-19.44-3.66-38.84-5.43-58.27-1.89-20.87-3.39-41.78-4-62.73-.16-5.46-.3-10.92-.37-16.38a.73.73 0 0 0 -1.46 0z"/><path d="m282.77 366.08a205.67 205.67 0 0 0 8 108.67c2.7 7.55 5.88 15.06 6.77 23 1 8.86-.9 17.76-2.42 26.55a328.39 328.39 0 0 0 -4.59 67.95c.12 3.18.35 6.56 2.17 9.17 2.12 3 5.88 4.34 9.43 5.35a145.46 145.46 0 0 0 92.17-4.65 8.84 8.84 0 0 0 3.88-2.41c1.09-1.35 1.31-3.19 1.48-4.92a536.1 536.1 0 0 0 -26.3-225.61" fill="#18c4ff"/><path d="m399.66 595.58a.76.76 0 0 0 0-1.51.76.76 0 0 0 0 1.51z"/><path d="m394.3 602.91a.76.76 0 0 0 0-1.51.76.76 0 0 0 0 1.51z"/><path d="m290.05 475c2.65 7.75 5.85 15.55 6.54 23.79.72 8.61-1.16 17.1-2.61 25.53a326.58 326.58 0 0 0 -4.71 51.57q-.09 7.23.15 14.48c.13 4 .11 8.23 2.39 11.65.74 1.1 2.52.07 1.78-1-2.07-3.12-2-7-2.07-10.61-.13-4.34-.16-8.67-.12-13q.15-12.88 1.3-25.73t3.3-25.84c1.41-8.3 3.23-16.69 2.8-25.16-.46-9.2-4.12-17.62-7.31-26.13-.34-.9-1.77-.53-1.45.4z"/><path d="m282.77 366.84a.76.76 0 0 0 0-1.51.76.76 0 0 0 0 1.51z"/><path d="m435.53 174.35c3.27 9.9-3.8 21.5.84 30.84a7.31 7.31 0 0 1 1 2.72c.11 2-1.57 3.16-3.59 3.81a5.84 5.84 0 0 0 -3.95 4 48.32 48.32 0 0 1 -3.83 10.52c-2.32 4.33-5.92 8.19-10.56 9.81s-10 .83-14.82-.4c-1.24-.31-2.62-.63-3.73 0a4.88 4.88 0 0 0 -1.62 1.94q-3.58 6.26-7 12.6a6.35 6.35 0 0 1 -2.35 2.85c-1.41.73-3.12.29-4.61-.23a45.33 45.33 0 0 1 -25.83-23.62 4.56 4.56 0 0 1 -.56-3.12 5.16 5.16 0 0 1 2.13-2.41c10.7-8.15 19.21-23.88 23.26-36.71 1.28-4.08-1.32-6.09 0-10.17 1.83-5.79 3.71-11.69 7.19-16.66s8.9-9 15-9.22a30.12 30.12 0 0 1 6.41.65c6 1.05 12.07 2.16 17.26 5.25s9.37 8.68 9 14.72" fill="#fff"/><path d="m434.8 174.55c2.71 8.8-2.18 17.77-.75 26.68a16.33 16.33 0 0 0 .73 2.85 25 25 0 0 1 1.51 3.56c.47 2.47-2.74 2.83-4.28 3.71a7.19 7.19 0 0 0 -3.3 4.5 55.4 55.4 0 0 1 -2.66 7.82c-1.84 4.12-4.61 8-8.59 10.27-4.74 2.71-10.33 2.14-15.43.94-2-.47-4.39-1.28-6.19.22a8.6 8.6 0 0 0 -1.73 2.37c-.71 1.26-1.42 2.51-2.12 3.77-1.41 2.52-2.8 5-4.16 7.58a11.14 11.14 0 0 1 -1.75 2.81c-1 1-2.43.78-3.7.41-8.44-2.52-16.16-8.54-21.34-15.57a44.59 44.59 0 0 1 -3.52-5.6 17.8 17.8 0 0 1 -1.44-3.1c-.45-1.53.42-2.31 1.54-3.18a52.83 52.83 0 0 0 9.07-9.11 89.58 89.58 0 0 0 13.06-23.62 28.46 28.46 0 0 0 1.92-6.06c.26-2-.35-3.71-.62-5.61-.32-2.36.72-4.66 1.44-6.86a68.29 68.29 0 0 1 2.68-7.06c2-4.35 4.73-8.46 8.7-11.24a17.31 17.31 0 0 1 6.06-2.78 19.5 19.5 0 0 1 7.76.11c9.41 1.6 20.22 3.58 25.14 12.82a12.76 12.76 0 0 1 1.52 6.35c0 1 1.53 1 1.59 0a16.14 16.14 0 0 0 -5.06-12.26c-3.61-3.6-8.39-5.63-13.26-6.91-2.59-.69-5.22-1.17-7.86-1.64a30.41 30.41 0 0 0 -8.06-.75 20 20 0 0 0 -12.09 6.1c-3.63 3.63-6 8.27-7.79 13-.95 2.49-1.85 5-2.57 7.61a12.4 12.4 0 0 0 .19 6c.47 2.39-.25 4.4-1 6.64s-1.66 4.42-2.62 6.58a91.89 91.89 0 0 1 -7.09 13.09 61.41 61.41 0 0 1 -9.08 11.06c-.79.74-1.61 1.46-2.45 2.14a13.06 13.06 0 0 0 -2.64 2.33c-1.47 2.05-.34 4.34.64 6.34a46.49 46.49 0 0 0 19.09 19.86 45 45 0 0 0 6.45 2.92c2.08.75 4.49 1.31 6.4-.16a7.69 7.69 0 0 0 1.94-2.48c.76-1.37 1.49-2.76 2.24-4.14q2.19-4 4.45-8c.63-1.11 1.16-2.5 2.6-2.61a14.23 14.23 0 0 1 3.8.75 32.5 32.5 0 0 0 8.45.92 18.17 18.17 0 0 0 12.72-6c3.55-3.89 5.58-8.82 7-13.82a13.23 13.23 0 0 1 1.1-3.34 5.11 5.11 0 0 1 2.69-2.08c1.88-.73 3.86-1.72 4.28-3.9s-1.42-4.41-2-6.54a20.8 20.8 0 0 1 -.6-6.94c.27-4.85 1.46-9.61 1.48-14.49a21.07 21.07 0 0 0 -1-6.73c-.3-.92-1.74-.53-1.45.4z"/><path d="m427.32 195.85a1.3 1.3 0 0 0 -.28-1.2 1.47 1.47 0 0 0 -.8-.43 1.7 1.7 0 0 0 -.71 0 2.11 2.11 0 0 0 -.48.17 1.64 1.64 0 0 0 -.22.14 2 2 0 0 0 -.38.33 2.07 2.07 0 0 0 -.47.89 1.79 1.79 0 0 0 .21 1.43 1.72 1.72 0 0 0 .49.48 1.68 1.68 0 0 0 .85.24 1.64 1.64 0 0 0 .89-.25 1.22 1.22 0 0 0 .58-.75 1.42 1.42 0 0 0 0-.71 1.06 1.06 0 0 0 -.26-.43l-.2-.16a.77.77 0 0 0 -.37-.12.57.57 0 0 0 -.26 0 .72.72 0 0 0 -.25.07.71.71 0 0 0 -.22.13.76.76 0 0 0 -.25.28.21.21 0 0 1 0 .06l.16-.21-.06.06.21-.17a1.38 1.38 0 0 0 -.26.22l-.07.06.22-.17-.12.07.26-.11a.53.53 0 0 1 -.17 0h.28-.17.28a.42.42 0 0 1 -.16 0l.25.11-.1-.07.21.17a.6.6 0 0 1 -.08-.08l.16.21a1 1 0 0 1 -.09-.15l.11.25a.61.61 0 0 1 -.05-.21v.27a.89.89 0 0 1 0-.23v.27a.89.89 0 0 1 .07-.28l-.1.24a1.69 1.69 0 0 1 .19-.32l-.15.2a1.45 1.45 0 0 1 .21-.22l-.19.15.22-.13-.23.1a.76.76 0 0 1 .2-.06h-.25.18-.24.16l-.22-.09h.1a1.83 1.83 0 0 0 .28.14l-.21-.09.12.07-.17-.13a.3.3 0 0 1 .08.08l-.12-.16.06.1.11.16.16.11a.67.67 0 0 0 .48.09.78.78 0 0 0 .63-.54z"/><path d="m430.94 191.52a1.94 1.94 0 0 0 -.68-1.3 4 4 0 0 0 -1-.82 7.78 7.78 0 0 0 -1.23-.51c-.34-.1-.69-.16-1-.25l.42.17h-.07l-1.38 3.19c.4.06.8.09 1.2.14l-.47-.06a12.69 12.69 0 0 1 2.43.6l1-3.48a19.68 19.68 0 0 0 -2.62-.55c-.56-.07-1.12-.14-1.68-.19a7.9 7.9 0 0 0 -1.37-.06 2 2 0 0 0 -1.28.53 1.82 1.82 0 0 0 1.28 3.1h.45a1.64 1.64 0 0 0 1.49-1 1.61 1.61 0 0 0 -.33-1.78l-.33-.28-1.28 3.1h1.26s.84.07 1.26.12l-.48-.06a20.47 20.47 0 0 1 2.67.57 1.83 1.83 0 0 0 2.22-1.26 1.86 1.86 0 0 0 -1.26-2.22 12.92 12.92 0 0 0 -1.62-.44 9.8 9.8 0 0 0 -2-.25 1.78 1.78 0 1 0 .46 3.47h.07l-.46.06h.94.47a1.35 1.35 0 0 1 .45 0h-.23.28a2.81 2.81 0 0 0 .65 0 .58.58 0 0 1 -.32 0c-.12 0-.12 0 0 0l.24.05.18.06c.23.08 0 0 0 0s.53.22.39.18a1.37 1.37 0 0 0 .4.05 1 1 0 0 0 .94-.94z"/><path d="m397.1 188.58.22.13c.07 0-.11-.1 0 0l.09.09.08.09c.06.06-.1-.15 0 0l.12.19.06.13c0-.06-.06-.14 0 0a2 2 0 0 1 .07.26v.13s0 .2 0 .3 0 .39 0 .59c0-.07 0-.16 0 0a.36.36 0 0 0 0 .11s0 .12 0 .13l.05-.12c0 .06 0 .05 0 0a.53.53 0 0 1 .29-.19c-.13 0 .22 0 .08 0a.74.74 0 0 1 .3.08.42.42 0 0 1 .21.24.54.54 0 0 1 0 .63.55.55 0 0 1 -.56.25c-.07 0-.08 0 0 0a.64.64 0 0 0 .29.13.85.85 0 0 0 .87-.3.81.81 0 0 0 .06-.92 1.34 1.34 0 0 0 -1.14-.58 1.18 1.18 0 0 0 -1.07.83 1 1 0 0 0 .5 1.17 1.16 1.16 0 0 0 1.13 0 1.87 1.87 0 0 0 .69-1.74 3.64 3.64 0 0 0 -.38-1.62 2.48 2.48 0 0 0 -1.31-1.14.69.69 0 0 0 -.54 1.26z"/><path d="m401.82 182.66c4 6.75 3.17 15.35 1 22.92s-5.56 14.87-6.23 22.71a17.07 17.07 0 0 0 5.91 14.21c6.74 5.69 17 7.69 24.68 2.57 10.68-7.16 10.94-24.34 2.94-33.57-3.54-4.09-10-3.31-15-5.41a5.6 5.6 0 0 1 -2.68-2 7.12 7.12 0 0 1 -.77-3.49c-.23-5-.29-10.48 2.91-14.3 1.13-1.34 2.59-2.37 3.76-3.69a11.18 11.18 0 0 0 2.14-3.61 3.39 3.39 0 0 0 0-2.9 4 4 0 0 0 -2.59-1.42c-3.07-.77-6.25-1.55-9.36-1s-6.13 2.87-6.48 6"/><path d="m401.22 183c3.81 6.7 2.87 14.81.79 21.92-2.29 7.82-6 15.33-6.57 23.56-1 14.32 15.76 24.26 28.5 19.54 11.47-4.26 15.12-18 11.67-28.86a24.3 24.3 0 0 0 -3.75-7.32 12.37 12.37 0 0 0 -7.23-4.61c-3.08-.79-6.43-.91-9.36-2.2-2.13-.93-2.56-2.47-2.66-4.65a51.45 51.45 0 0 1 0-5.27c.23-3.94 1.42-7.17 4.37-9.85a16.9 16.9 0 0 0 3.66-4.25c.74-1.37 1.49-3.12 1-4.69s-1.78-2.15-3.16-2.54a36.8 36.8 0 0 0 -6-1.2c-3.4-.35-7 .35-9.47 2.91a7.19 7.19 0 0 0 -2 3.92c-.18 1.25 1.73 1.79 1.91.53.48-3.38 3.76-5.24 6.94-5.45a20.36 20.36 0 0 1 6.06.71c1.59.37 4.2.56 3.73 2.78-.77 3.75-4.42 5.51-6.48 8.4a16.42 16.42 0 0 0 -2.62 8.73c-.09 1.63-.05 3.26 0 4.89a9.52 9.52 0 0 0 .91 4.56c1.49 2.49 5 3.29 7.63 3.83 2.79.58 5.83.88 8.31 2.38 2.2 1.33 3.67 3.86 4.74 6.13 4.36 9.2 2.67 22.49-6.82 27.83-5.6 3.16-12.6 2.51-18.15-.42-5.93-3.13-10.05-8.94-9.57-15.83 1-14.09 11.25-27.36 6.7-41.82a20.88 20.88 0 0 0 -2-4.36.69.69 0 0 0 -1.2.7z"/><path d="m403.92 200.81a22.93 22.93 0 0 0 .15-10c-.46-2.66-1.27-5.43-3.25-7.25s-5.36-2.26-7.18-.09a5.27 5.27 0 0 0 -1.1 2.72 10.49 10.49 0 0 0 1.08 6.77 1.35 1.35 0 0 1 -.18 2.19c-3.73 3.2-7.67 6.79-12.75 7.47-2.59.34-6.58-.13-7.15-3.26-.47-2.6.21-5.21.23-7.81 0-4 .22-7.92.21-11.87 0-5.35-.79-12.29 1.8-17.19 6.29-11.93 28.68-22.05 41-12.94.95.7-1.07-.48 0 0 2.27 1 5.12.32 7.56 1a22.31 22.31 0 0 1 7.26 3.75 58.11 58.11 0 0 1 9 9.24 9.33 9.33 0 0 1 2.47 4.4 6 6 0 0 1 -2.07 5.06 13.32 13.32 0 0 1 -5 2.62c-7.61 2.43-15.81 2.14-23.75 1.29a6.23 6.23 0 0 0 -2.82.12c-2.87 1.08-2.64 5.54-5.07 7.42"/><path d="m404.59 201a21.85 21.85 0 0 0 .58-8.85 18.33 18.33 0 0 0 -2.1-7.33c-2.05-3.39-7.37-5.58-10.28-1.88-1.48 1.89-1.54 4.69-1.21 7a10.18 10.18 0 0 0 1 3.18c.41.81.57.95-.16 1.56l-1.65 1.32c-3.61 3-8.16 6.37-13.15 5.43a4.56 4.56 0 0 1 -2.27-1c-1-.91-.91-2.46-.87-3.68 0-1.47.27-2.91.35-4.37.09-1.62.07-3.26.11-4.88.08-3.12.19-6.25.13-9.37-.05-2.57-.17-5.14 0-7.7a17.9 17.9 0 0 1 1.71-7.46 21.11 21.11 0 0 1 3.22-4.47 35.13 35.13 0 0 1 9.89-7.35 37.49 37.49 0 0 1 6.79-2.69c2.29-.66 4.77-.54 7.13-.78a12.83 12.83 0 0 1 3.33-.18c1.09.17 2.23.19 3.31.42a14.29 14.29 0 0 1 3 1.08c.49.24 1 .49 1.44.78.17.1.34.2.5.31s1 .86.56.29l.74-1.84s1.16.19.66 0-.1-.51.3.54l-1.21 1.58c-.47-.05.11.12.17.15a6 6 0 0 0 .94.29 12.49 12.49 0 0 0 1.51.23c1.37.13 2.77 0 4.14.26a17.89 17.89 0 0 1 7.37 3.57 39.14 39.14 0 0 1 6.14 5.93c.87 1 1.73 2 2.58 3.08a10.27 10.27 0 0 1 2.18 3.38c.73 2.52-1.42 4.61-3.46 5.66a27.23 27.23 0 0 1 -8.07 2.29 67.31 67.31 0 0 1 -17.31 0c-2.6-.27-4.88.07-6.34 2.44-1.11 1.79-1.31 4.21-2.93 5.65-1.29 1.13.55 2.85 1.84 1.84 1.72-1.34 2.21-3.43 3.16-5.29.4-.77.86-1.54 1.77-1.73 1.4-.29 3.16.2 4.56.32 6.32.56 12.77.62 19-.86 4.84-1.15 11.9-4 10.76-10.29-.5-2.78-2.85-5-4.63-7a53.3 53.3 0 0 0 -6.25-6.32 24.56 24.56 0 0 0 -8.47-4.76 18.43 18.43 0 0 0 -4.8-.55 9.53 9.53 0 0 1 -2.44-.29 8.59 8.59 0 0 0 -1.39-.43 1.25 1.25 0 0 0 -1.2 1.58 2 2 0 0 0 2.12 1.21 1.25 1.25 0 0 0 .74-1.84c-1-1.43-3.29-2.32-4.9-3a18.51 18.51 0 0 0 -5.87-1.48c-2.28-.09-4.4-.41-6.67.09a58.68 58.68 0 0 0 -6.21 1.93c-7.72 2.65-16 7.86-19.78 15.36-2.4 4.76-2 10.39-1.89 15.56.08 3.15 0 6.3-.08 9.45 0 1.63 0 3.27-.09 4.91s-.32 3.21-.37 4.83c-.06 2.3.29 4.57 2.38 5.87a9.22 9.22 0 0 0 5.63 1c5.36-.5 9.55-4.08 13.42-7.49 1-.87 1.68-1.73 1.13-3.08-.32-.78-.84-1.39-1.09-2.21a9.12 9.12 0 0 1 -.36-2.27 7.09 7.09 0 0 1 .87-4.43 3.46 3.46 0 0 1 3.62-1.16c3.08.67 4.37 3.87 5 6.62a24.51 24.51 0 0 1 .35 10.94.69.69 0 0 0 1.33.37z"/><path d="m419.4 214.13a2.35 2.35 0 0 0 .06 2 7.78 7.78 0 0 0 .8 1.64 10.85 10.85 0 0 0 1.12 1.48 1.92 1.92 0 0 0 .88.63 1.18 1.18 0 0 0 1.48-.81 1 1 0 0 0 -.47-1.13 1 1 0 0 0 -1.22.15l.14-.11.52-.14h-.08a.48.48 0 0 1 .26.06h.05c-.1-.06.17.16.08.06a.52.52 0 0 0 -.11-.1c-.15-.15-.31-.31-.45-.47l-.4-.47c-.08-.1 0 0 0 0a.83.83 0 0 1 -.11-.15l-.19-.27c-.24-.34-.45-.69-.66-1-.12-.19-.22-.38-.32-.57s0-.09 0 0 0-.09 0-.14 0 .14 0 0a.75.75 0 0 0 -1.36-.57z" fill="#fff"/><path d="m408.25 261.18a140 140 0 0 0 -42.82-45.08c-5.67-3.76-11.94-7.2-18.74-7.33s-14.11 4.11-15.33 10.8c-.72 4 .75 8.29-.61 12.13a17.39 17.39 0 0 1 -4 5.7c-14.23 15.36-28.54 30.82-40 48.36s-20 37.44-21.46 58.33c-.48 6.77-.17 13.76 2.49 20s7.76 11.54 13.34 15.66c20.47 15.1 47.51 17.1 72.94 17.79 7.85.21 16 .3 23.22-2.72 8.48-3.53 14.82-11 18.84-19.29s6-17.35 7.91-26.33l6.17-28.78c3.53-16.43 7-33.61 2.76-49.86a23.55 23.55 0 0 0 -4.73-9.38"/><path d="m408.88 260.81a140.89 140.89 0 0 0 -33.35-38.58c-3.31-2.66-6.75-5.19-10.3-7.52a46.24 46.24 0 0 0 -11.91-5.94c-7.06-2.13-15.5-1.05-20.39 5-2.54 3.13-3 6.72-2.83 10.65a19.06 19.06 0 0 1 -.29 6.61c-.68 2.21-2.31 3.95-3.85 5.61-6.49 7-13 14-19.24 21.26-12.14 14.06-23.42 29.08-31.41 45.94a122.47 122.47 0 0 0 -8.95 25.49c-2 8.76-3.18 18.15-1.85 27.09 2.59 17.48 18.94 28.3 34.29 34.11 15.87 6 33.11 7.43 49.92 8.06 9 .33 18.56 1.08 27.21-1.92 7.58-2.63 13.67-8.17 18-14.79 5-7.56 7.62-16.39 9.64-25.13 2.28-9.84 4.26-19.76 6.37-29.64 3.93-18.46 9.32-38.51 3.82-57.23a24.68 24.68 0 0 0 -4.94-9.27c-.73-.84-1.95.39-1.22 1.23a23 23 0 0 1 4.61 9.94 62.5 62.5 0 0 1 1.58 13.84c.07 9.47-1.45 18.8-3.35 28.05-2 9.58-4.1 19.12-6.16 28.67-1.95 9.06-3.62 18.29-6.85 27-2.77 7.49-7 14.62-13.13 19.8-6.79 5.69-15.24 7.24-23.89 7.33-8.39.09-16.84-.31-25.2-1a152.26 152.26 0 0 1 -24.4-3.67 86 86 0 0 1 -22.49-8.7c-7-4-13.8-9.26-17.93-16.32-4.58-7.83-4.63-17.19-3.7-26a105.81 105.81 0 0 1 6.12-25.4c6.21-16.82 16.07-32.05 27.2-46 5.71-7.17 11.77-14 17.94-20.83 3.07-3.36 6.16-6.69 9.24-10a25.67 25.67 0 0 0 3.81-4.77 12.25 12.25 0 0 0 1.43-5.87c.07-4.06-.89-8.1 1.43-11.74a14.22 14.22 0 0 1 8.15-5.68c8.28-2.33 16.51 2.35 23.19 6.77a138.48 138.48 0 0 1 35.8 34.24q3.54 4.89 6.64 10.06a.73.73 0 0 0 1.26-.75z"/><g fill="#fff"><path d="m263.61 400.28a29.81 29.81 0 0 0 11.1 5.21c1 .24 1.45-1.35.43-1.58a28.51 28.51 0 0 1 -10.79-4.9c-.77-.56-1.48.71-.74 1.27z"/><path d="m296.25 410.73a72.62 72.62 0 0 0 9.51 2.59 78 78 0 0 0 9.59 1.61c.94.08 1.17-1.51.22-1.67-3.18-.51-6.37-.94-9.54-1.61s-6.25-1.56-9.38-2.35a.74.74 0 0 0 -.4 1.43z"/><path d="m367.71 408.6a34 34 0 0 1 -8.28 22.28l1.51 1.17 2.26-5.05-1.89-.51c1.22 18.14 2.69 36.27 4 54.4s2.76 36.27 4.16 54.4c.4 5.11.81 10.23.81 15.36a43 43 0 0 1 -.32 6.81c-.27 1.67-.86 3.69-2.62 4.3a.94.94 0 0 0 -.67.88c1.13 14.81 1.55 29.69 1.36 44.55a.77.77 0 0 0 1.53 0c.35-14.87-.05-29.72-1.08-44.55l-.66.87c2.94-1 3.83-4.13 4.11-6.94a88.94 88.94 0 0 0 0-13.85c-.52-9.36-1.32-18.7-2-28.05q-2.06-28.2-4.22-56.39c-.8-10.6-1.55-21.2-2.44-31.79-.07-.88-1.45-1.53-1.88-.51-.75 1.78-1.52 3.57-2.27 5.35-.37.89 1 1.65 1.61.94a35.75 35.75 0 0 0 8.39-23.64.74.74 0 0 0 -1.47 0z"/></g><path d="m380.32 768.34c-7.12 1.82-14.23 3.64-21.45 4.94a97.91 97.91 0 0 1 -27.37 1.45 409.56 409.56 0 0 1 -2.66 54.9c-.63 5.22-1.23 11 1.29 15.38 2.81 4.87 8.4 6.15 13.4 6.84 18.61 2.58 20.53 2.83 39.19.76 16.83-1.86 6.78-15.45 1.18-23.75-10.2-15.11-8.11-30.56-5.44-47.45.69-4.34 1.29-8.7 1.86-13.07z"/><path d="m379.64 791.06c-.52 3.86-4.23 6-7.37 7.59l1.48.39c.38.6.17.49.85.36.38-.08.76-.15 1.15-.21a20.25 20.25 0 0 1 2.47-.24c.74 0 1.68-.14 1.95.73a2.65 2.65 0 0 1 -.66 2.12 13 13 0 0 1 -6.81 4.76l1.11 1.92a7.75 7.75 0 0 1 4.11-2.13c.73-.12 1.85-.34 2.12.52a4.49 4.49 0 0 1 -.12 2.21 9.42 9.42 0 0 1 -5.66 6.07l1.13 1.94a8 8 0 0 1 3.66-2.48c.62-.19 1.75-.55 2.15.21a3.7 3.7 0 0 1 -.08 2.23 10.42 10.42 0 0 1 -5.13 6.77c-1.34.74-.15 2.74 1.19 2 .7-.36 6.71-2.56 6-.17a1.14 1.14 0 0 0 2.2.6 3.23 3.23 0 0 0 -2.85-4c-2.22-.33-4.63.57-6.56 1.58l1.19 2c3.61-2 6.77-6.34 6.45-10.67a3.31 3.31 0 0 0 -4.13-3.08 9.9 9.9 0 0 0 -5.76 3.34c-.67.77 0 2.43 1.13 1.94 3.95-1.63 7.56-5.22 7.53-9.75a4.14 4.14 0 0 0 -.84-2.84 3.59 3.59 0 0 0 -3-.83 10.15 10.15 0 0 0 -6.39 2.88 1.16 1.16 0 0 0 1.12 1.92 15.87 15.87 0 0 0 6.3-3.65c1.62-1.54 3.47-3.81 2.7-6.21-.87-2.7-3.92-2.33-6.18-2-1.32.17-5.93.85-4.25 3.28a1.11 1.11 0 0 0 1.48.39c3.72-2.08 7.53-4.83 7.76-9.47.05-1-1.36-.91-1.48 0z" fill="#18c4ff"/><path d="m401.9 249.91c8.2 9.46 13.93 20.74 20.17 31.6q7.79 13.58 16.75 26.44c3.28 4.71 6.76 9.43 11.49 12.68 11.89 8.19 27.91 5 41.93 1.58l28.83-7.14c6.8-1.68 14.61-3.19 20.31.88 1 .68 1.93 1.54 3.09 1.49 1.36-.05 2.33-1.28 3.54-1.91 2.12-1.12 4.86-.17 6.48 1.6a14.62 14.62 0 0 1 3 6.46 83.36 83.36 0 0 1 2.51 22.57c0 1.55-.21 3.29-1.38 4.31s-2.91.95-4.19 1.77a8.45 8.45 0 0 0 -2.23 2.76c-5 7.7-14 11.5-22.6 14.71-22.28 8.29-45.08 15.68-68.6 19.05-8.74 1.25-17.76 1.93-26.32-.23-16.6-4.19-28.72-18.2-38.5-32.26-12.42-17.85-23.15-37.71-25.3-59.34"/><path d="m401.41 250.4c10.48 12.43 17.15 27.6 25.59 41.39 4.35 7.07 8.83 14.16 13.85 20.78 4.38 5.78 9.64 10.52 16.68 12.71 6.75 2.1 14 1.84 20.9.85 7.76-1.11 15.35-3.21 22.94-5.09l13-3.21c3.89-1 7.77-2 11.7-2.77 3.54-.66 7.32-1 10.84 0a15.18 15.18 0 0 1 4.7 2.45 4.24 4.24 0 0 0 4.35.68c1.41-.66 2.38-2 4.06-2a5.54 5.54 0 0 1 4.37 2.64 16.7 16.7 0 0 1 2 5.11c.53 2.07 1 4.16 1.34 6.27a81.71 81.71 0 0 1 1.18 12.69c0 1.8.27 4-.35 5.72s-2.56 1.66-4.06 2.38-2.44 2.2-3.37 3.62a23.64 23.64 0 0 1 -3.18 3.81 35.44 35.44 0 0 1 -8.45 5.85c-6.78 3.51-14.2 5.89-21.38 8.43-16 5.65-32.3 10.56-49 13.62-8.41 1.54-17.05 2.9-25.62 2.41a44.41 44.41 0 0 1 -21.15-6.74c-12.17-7.6-21-19.71-28.75-31.51-8.58-13-16-27.07-19.67-42.32a87.14 87.14 0 0 1 -1.94-11.2c-.14-1.45-2.43-1.47-2.28 0 1.62 15.85 7.65 30.74 15.56 44.46a210.53 210.53 0 0 0 12.87 19.57 107.12 107.12 0 0 0 14.32 16.28 55.06 55.06 0 0 0 18 11.14c7.9 2.83 16.38 3 24.65 2.18 17.26-1.72 34.28-6.15 50.77-11.44 8.27-2.65 16.45-5.56 24.58-8.62 6.47-2.44 13.08-5.15 18.28-9.83a26.12 26.12 0 0 0 3.48-3.8c1-1.39 1.8-3.39 3.49-4.08 1.53-.62 3.11-.75 4.21-2.12a7.25 7.25 0 0 0 1.22-4.4 79.26 79.26 0 0 0 -.68-13 67.54 67.54 0 0 0 -2.54-12.19c-1-3.17-3-6.32-6.52-7.06a5.75 5.75 0 0 0 -4.51.83 11 11 0 0 1 -1.89 1.31c-1 .41-1.84-.28-2.61-.84-6.16-4.46-13.92-3.19-20.84-1.52-8.76 2.12-17.5 4.33-26.24 6.5-7.51 1.86-15.07 3.81-22.83 4.29-7.25.46-14.76-.45-21-4.46-6.74-4.34-11.17-11.69-15.55-18.21q-7.26-10.8-13.74-22.09c-4.09-7.11-8-14.36-12.61-21.13a98.54 98.54 0 0 0 -7.21-9.32c-.59-.68-1.55.3-1 1z"/><path d="m554.79 320.9a36.81 36.81 0 0 1 11.41-12.17 23.17 23.17 0 0 1 7.43-3.12c2.6-.57 5.45-.69 7.36 1.43a1.06 1.06 0 0 0 1.65-1.28c-1.58-2.53-4.9-2.88-7.61-2.52a23.06 23.06 0 0 0 -8.71 3.11c-5.49 3.23-9.7 8.31-12.8 13.81a.74.74 0 0 0 1.27.74z"/><path d="m575.86 314.68a20.11 20.11 0 0 1 13.87.43 17 17 0 0 1 8.11 8 .87.87 0 0 0 1.58-.67c-1.23-4.12-5-7.34-8.87-8.95a21.67 21.67 0 0 0 -15.06-.14c-.85.28-.5 1.62.37 1.35z"/><path d="m591.05 326.39.34.11.17.06c.16.06-.11-.05 0 0a5.28 5.28 0 0 1 .62.33l.3.19.14.1c.17.12-.12-.1 0 0a4.6 4.6 0 0 1 .52.47 3.37 3.37 0 0 1 .47.53l.11.15.19.29c.11.2.21.4.31.61v-.06.08l.06.17c.05.12.08.24.12.36a.8.8 0 1 0 1.55-.42 6.75 6.75 0 0 0 -4.62-4.47.75.75 0 0 0 -.9.51.76.76 0 0 0 .51.91z"/><path d="m588.39 334.49.45.3s.14.1 0 0l.2.17a6.47 6.47 0 0 1 .73.75c0 .06.1.13.15.18-.16-.16-.06-.08 0 0a.61.61 0 0 0 .07.1 4.94 4.94 0 0 1 .27.42 9.5 9.5 0 0 1 .49.95.81.81 0 0 0 .52.4 1 1 0 0 0 .56 0 .88.88 0 0 0 .5-1 6.3 6.3 0 0 0 -3.2-3.56.78.78 0 0 0 -1.06.27.79.79 0 0 0 .27 1.06z"/><path d="m587.5 342.47c.65 1.79-1.13 2.86-2.64 3.16a3.64 3.64 0 0 1 -2.12-.06c-.63-.27-1.14-1-.5-1.58.86-.73-.26-2.19-1.21-1.56a24.59 24.59 0 0 1 -21.58 2.75c-1.37-.47-2 1.7-.6 2.17a26.42 26.42 0 0 0 23.19-3.2l-1.21-1.57a2.77 2.77 0 0 0 -.36 3.59 3.79 3.79 0 0 0 3.7 1.42c2.83-.29 6-2.52 4.67-5.69-.32-.76-1.62-.21-1.34.57z"/><path d="m534.65 292.54a.79.79 0 0 1 1.14-.29c.53.46-.26 1.05-.77.87l.7 1.25a123.13 123.13 0 0 1 13.89-30.1 103.58 103.58 0 0 1 9.91-13c3.74-4.14 8-7.33 13.58-8.31s11.55 0 17.13 1.07a144.67 144.67 0 0 1 17.61 4.48c9.49 3.07 21.21 9 22.08 20.34a24.77 24.77 0 0 1 -1.61 9.63c-1.1 3.3-2.35 6.55-3.54 9.82q-3.67 10.06-7.3 20.14c-.53 1.46 1.78 2.07 2.32.64q3.6-9.45 7.12-18.92c1.15-3 2.31-6.1 3.43-9.17a36.14 36.14 0 0 0 2.4-9.42 20.37 20.37 0 0 0 -5.19-14.66c-3.7-4.39-8.81-7.25-14.08-9.35a114.88 114.88 0 0 0 -18-5.28c-5.93-1.29-12.1-2.5-18.2-2.36a24.43 24.43 0 0 0 -15.73 5.74c-4.27 3.65-7.79 8.35-11 12.92a106.73 106.73 0 0 0 -16.71 35.26 1 1 0 0 0 .71 1.24c2 .57 4.19-1.57 3.08-3.53a2.5 2.5 0 0 0 -4.3.19c-.44.92.88 1.73 1.39.81z"/><path d="m435.92 316.77c9.88 2.07 20.08-1.63 28.93-6.51s17.07-11 26.55-14.49c4.39-1.61 9.94-2.36 13.18 1a2.67 2.67 0 0 0 1.21.91c1.09.24 1.78-1.07 2.51-1.91 1.69-2 5-1.66 7 0s2.9 4.27 3.51 6.79a7.36 7.36 0 0 1 .26 3.19 8 8 0 0 1 -1.63 3.06c-4.8 6.54-9.7 13.18-16.11 18.15-12.66 9.84-29.57 12-45.59 12.43-2.79.07-5.89 0-7.91-1.94"/><path d="m435.72 317.48c12.44 2.71 24.48-3.05 34.95-9.2 5.44-3.2 10.77-6.61 16.52-9.25 4.28-2 10.73-4.88 15.26-2 1 .64 1.71 1.84 2.94 2.13a3.18 3.18 0 0 0 3.16-1.3c.68-.82 1.15-1.66 2.26-1.91a4.39 4.39 0 0 1 3.27.67c2.27 1.5 3.19 4.69 3.7 7.21a4.87 4.87 0 0 1 -1.13 4.1c-.92 1.28-1.87 2.55-2.82 3.81a76.13 76.13 0 0 1 -12.33 13.58 48.66 48.66 0 0 1 -15 8.19 82.5 82.5 0 0 1 -18.84 3.89c-3.28.32-6.57.51-9.86.62-2.89.09-6.64.58-9-1.51-1.31-1.17-3.25.77-1.94 1.93 2.27 2 5.19 2.37 8.11 2.34s6-.2 9-.43a99.65 99.65 0 0 0 18.17-2.87 57.43 57.43 0 0 0 16.53-7.09 59.26 59.26 0 0 0 13.83-13.09c2-2.46 3.86-5 5.73-7.53a10.65 10.65 0 0 0 2-3.69 10.44 10.44 0 0 0 -.49-5c-.73-2.63-2-5.33-4.3-6.89a6.88 6.88 0 0 0 -7-.46 5.49 5.49 0 0 0 -1.47 1.25c-.17.2-.76 1.18-1 1.21a6.51 6.51 0 0 0 -1-1.09 8.49 8.49 0 0 0 -1.91-1.22 13.27 13.27 0 0 0 -7.81-.66 35.16 35.16 0 0 0 -8.7 3.05 96.09 96.09 0 0 0 -8.59 4.65c-12.59 7.53-26.26 18-41.89 15.15-.91-.16-1.32 1.22-.39 1.42z"/><path d="m515.57 295.46a65.5 65.5 0 0 1 8.43-10.76c2.81-2.9 6.19-6.47 10.32-7.27 1.32-.25 4.19-.26 4.51 1.59.18 1.05-1 2-1.71 2.67a20.32 20.32 0 0 1 -2.34 1.91 22.68 22.68 0 0 1 -2.84 1.7 4.2 4.2 0 0 0 -1.91 1.28c-1.26 2.08 2.27 3.24 1.71 5.29a1.06 1.06 0 0 0 2 .57 4.48 4.48 0 0 0 -1.39-4.58c-.44-.37-.42-.11.11-.35s.87-.42 1.3-.65a22.27 22.27 0 0 0 2.62-1.66c2.36-1.73 6.37-4.9 4-8.14-2.05-2.83-6.12-2.43-8.92-1.17-3.58 1.61-6.5 4.69-9.1 7.53a61.5 61.5 0 0 0 -8.15 11.29.75.75 0 0 0 1.29.75z"/><path d="m542.52 281.07a7.44 7.44 0 0 1 3.15.09 6.66 6.66 0 0 1 2.76 1.38 1 1 0 1 0 1.21-1.57 11.29 11.29 0 0 0 -3.59-1.38 9.38 9.38 0 0 0 -3.91.12.71.71 0 0 0 -.49.87.72.72 0 0 0 .87.49z"/><path d="m371 320.63a249 249 0 0 0 28.52 41c.65.76 1.73-.34 1.09-1.1a280.76 280.76 0 0 1 -28.43-40.59.68.68 0 0 0 -1.18.69z" fill="#18c4ff"/><path d="m449.87 318.79c2.52 2.09 4.13 5.26 7.35 6.44 3.53 1.29 7.37 0 10.8-1q12.62-3.45 25.48-5.91c4.92-.95 9.86-1.77 14.81-2.5 1.23-.18.71-2-.51-1.86q-12.23 1.81-24.28 4.53c-4 .91-8 1.88-12 2.94-3.63 1-7.51 2.57-11.3 2.59-4.46 0-6.27-3.79-9.37-6.23-.69-.54-1.68.41-1 1z" fill="#18c4ff"/><path d="m871 851.88h-95a56.22 56.22 0 0 1 -54.75-43.28 96.84 96.84 0 0 1 -1.58-9.74l-1.84-14-2.79-21.26-3.4-25.88-3.64-27.86-3.57-27.19-3.14-23.89-2.35-17.94-1.23-9.37c-.28-2.08.07-4.16 2.08-5.33a5.66 5.66 0 0 1 3.07-.59h241.3a5.87 5.87 0 0 1 2.94.51c2.11 1.11 2.51 3.27 2.23 5.39l-1.22 9.32-2.36 17.92-3.13 23.87-3.57 27.18-3.66 27.86-3.39 25.89-2.8 21.29-1.84 14c-.43 3.22-.81 6.44-1.55 9.61a56.2 56.2 0 0 1 -54.81 43.49 1 1 0 0 0 0 2 58.26 58.26 0 0 0 56.37-43.69 92.36 92.36 0 0 0 1.85-10.95l1.82-13.86 2.82-21.42 3.42-26.08 3.69-28.1 3.62-27.53 3.15-24 2.35-17.87 1.19-9.06a6.63 6.63 0 0 0 -2.54-6.47 7.23 7.23 0 0 0 -4.42-1.22h-241.74a6.63 6.63 0 0 0 -6.85 7.79l1.21 9.27 2.39 18.13 3.16 24.13 3.61 27.46 3.71 28.21 3.41 26 2.78 21.12 1.8 13.7a84.64 84.64 0 0 0 2.1 11.72 58.21 58.21 0 0 0 56.1 42.68h95a1 1 0 0 0 0-1.96z"/><path d="m758.26 428.49c5.88 1.45 10.5 5.52 14.87 9.52a145.62 145.62 0 0 1 12.25 12.47 86 86 0 0 1 17.28 30.4 208.11 208.11 0 0 1 4.94 21.23c.28 1.4 2.3.78 2.1-.58a165.39 165.39 0 0 0 -3.77-19.63 70.3 70.3 0 0 0 -7.14-17.43c-6.09-10.29-14.47-19.08-23.4-27-4.93-4.34-10.17-8.95-16.74-10.44-.92-.21-1.31 1.19-.39 1.41z"/><path d="m850.25 316.85q-7 9.51-14.11 19a58.68 58.68 0 0 0 -5.55 8.4c-1.42 2.81-2.63 6.06-2.25 9.26a.92.92 0 0 0 1.84 0 24.94 24.94 0 0 1 2.86-9.3 87.89 87.89 0 0 1 5.37-8.18q6.54-9.22 13.1-18.44c.56-.77-.71-1.48-1.26-.74z"/><path d="m803.79 229.49h-8.34v74.69h8.34a37.34 37.34 0 0 0 0-74.63zm0 73.9v-73.18a37.33 37.33 0 0 1 0 73.18z" stroke="#000" stroke-miterlimit="10" stroke-width="1.3"/><circle cx="796.39" cy="266.8" fill="#18c4ff" r="37.35"/><circle cx="796.39" cy="266.8" fill="none" r="37.35" stroke="#000" stroke-miterlimit="10" stroke-width="1.3"/><circle cx="796.39" cy="266.8" fill="#fff" r="30.19"/><circle cx="796.39" cy="266.8" fill="none" r="30.19" stroke="#000" stroke-miterlimit="10" stroke-width="1.3"/><path d="m797.33 265.35c-.64-.33-1.28-.66-1.88-1l-.45-.35c-.11-.08-.33-.26-.11-.08a10.59 10.59 0 0 1 -.76-.74c.33.33 0 0-.05-.1a3.75 3.75 0 0 1 -.24-.44c0-.07-.24-.52-.08-.15s0-.16-.06-.24-.06-.26-.09-.39c-.13-.52 0 .55 0 .05 0-.16 0-.31 0-.48a1.94 1.94 0 0 1 0-.24c0-.21 0-.11 0 .32a4.71 4.71 0 0 0 .22-.86c.2-.61-.17.31 0 .06s.12-.24.19-.36.16-.29.25-.43.48-.52-.08.08c.23-.24.43-.5.67-.73l.3-.3c.09-.07.58-.48.14-.13s0 0 .1-.05l.45-.27.48-.23c-.81.42-.36.15-.11.07a9.4 9.4 0 0 1 1.08-.23l-.88.12a8.61 8.61 0 0 1 1.83 0l-.88-.12c.24 0 .48.08.71.14s.29.09.43.13c.37.09-.62-.32-.3-.13.15.09.78.5.32.14s.27.3.26.3-.46-.68-.23-.29l.16.27c0 .05.09.25.14.27s-.25-.78-.15-.36.24.82.3 1.24a2.92 2.92 0 0 0 4.88 1.29 4.78 4.78 0 0 0 1.26-2.81 5.46 5.46 0 0 0 -.27-2 6.84 6.84 0 0 0 -2.94-3.61 8.85 8.85 0 0 0 -8.39-.21 9.41 9.41 0 0 0 -4.78 5.46 7.81 7.81 0 0 0 .7 6.71c1.53 2.29 4.24 3 6.8 3.39a1.5 1.5 0 0 0 1.75-.87 1.46 1.46 0 0 0 -.6-1.85z"/><path d="m797.89 255.74a3.32 3.32 0 0 0 .69-1.08c.07-.22.12-.44.18-.65.12-.44.25-.86.4-1.29s.33-.84.45-1.27a10.27 10.27 0 0 0 .19-1.37c0-.1 0-.2 0-.3a3.65 3.65 0 0 0 -.47-1.7 3 3 0 0 0 -1.06-1.07 3 3 0 0 0 -3 0 3.13 3.13 0 0 0 -1.07 1.07 3.61 3.61 0 0 0 -.46 1.7v.3a9.83 9.83 0 0 0 .19 1.37c.13.43.3.85.45 1.27s.28.85.4 1.29c.06.21.1.43.18.65a3.32 3.32 0 0 0 .69 1.08 1.47 1.47 0 0 0 1.08.45 1.52 1.52 0 0 0 1.09-.45z"/><path d="m795.46 267.78c.63.33 1.27.66 1.88 1 .16.09.31.2.46.3s.33.26.11.07a9 9 0 0 1 .76.75c-.33-.33 0 0 .05.1a4.63 4.63 0 0 1 .24.43c0 .08.24.53.08.16s0 .15.07.24l.09.39c.13.52 0-.55 0-.06v.48s0 .17 0 .25 0 .1 0-.32a7.2 7.2 0 0 0 -.22.86c-.2.6.17-.31 0-.07l-.18.37c-.08.15-.17.29-.26.43s-.48.52.08-.08c-.22.24-.43.5-.66.73s-.2.2-.31.29-.58.48-.14.14 0 0-.1.05a4.87 4.87 0 0 1 -.45.27l-.47.23c.8-.42.35-.16.1-.08a6.58 6.58 0 0 1 -1.07.23l.88-.11a9.43 9.43 0 0 1 -1.84 0l.88.12c-.24 0-.48-.08-.71-.14l-.43-.13c-.37-.1.62.32.3.13-.14-.09-.77-.51-.31-.15s-.28-.29-.27-.29.46.68.24.29c-.06-.09-.11-.18-.16-.27s-.1-.25-.15-.28.25.79.16.37-.25-.82-.31-1.24a2.91 2.91 0 0 0 -4.8-1.24 4.66 4.66 0 0 0 -1.26 2.81 5.25 5.25 0 0 0 .26 2 6.93 6.93 0 0 0 2.94 3.61 8.88 8.88 0 0 0 8.39.21 9.34 9.34 0 0 0 4.78-5.46 7.81 7.81 0 0 0 -.69-6.71c-1.54-2.3-4.25-3-6.8-3.39a1.51 1.51 0 0 0 -1.76.86 1.48 1.48 0 0 0 .61 1.86z"/><path d="m794.9 277.38a3.33 3.33 0 0 0 -.7 1.09c-.07.22-.12.44-.18.65-.12.44-.25.86-.4 1.29s-.32.84-.44 1.27a10.27 10.27 0 0 0 -.19 1.37 1.55 1.55 0 0 0 0 .29 3.53 3.53 0 0 0 .46 1.71 3 3 0 0 0 4.07 1.06 3 3 0 0 0 1.07-1.06 3.64 3.64 0 0 0 .46-1.71c0-.09 0-.2 0-.29a9.83 9.83 0 0 0 -.19-1.37c-.13-.43-.3-.85-.45-1.27s-.28-.85-.4-1.29c0-.21-.1-.44-.17-.65a3.69 3.69 0 0 0 -.7-1.09 1.5 1.5 0 0 0 -1.08-.44 1.45 1.45 0 0 0 -1.08.44z"/><path d="m840.07 304.15a24.64 24.64 0 0 0 23.79 24.62h5.5v-49.26h-5.5a24.64 24.64 0 0 0 -23.79 24.64zm4 0a24.63 24.63 0 0 1 19.79-24.15v48.28a24.63 24.63 0 0 1 -19.76-24.13z" stroke="#000" stroke-miterlimit="10" stroke-width="1.3"/><circle cx="868.74" cy="304.15" fill="#18c4ff" r="24.64"/><circle cx="868.74" cy="304.15" fill="none" r="24.64" stroke="#000" stroke-miterlimit="10" stroke-width="1.3"/><circle cx="868.74" cy="304.15" fill="#fff" r="19.92"/><circle cx="868.74" cy="304.15" fill="none" r="19.92" stroke="#000" stroke-miterlimit="10" stroke-width="1.3"/><path d="m869.24 303.39a12.82 12.82 0 0 1 -1.43-.73 5.65 5.65 0 0 1 -.48-.32 2.68 2.68 0 0 1 -.3-.28l-.12-.13c.08.08 0 0 0 0a4.63 4.63 0 0 1 -.31-.58c.09.19 0 0 0-.1s-.08-.45-.06-.18a4.42 4.42 0 0 1 0-.63c0-.26 0 .19 0-.06a3.25 3.25 0 0 1 .11-.42c0-.05 0-.1 0-.15s0 .1 0 .09.12-.25.15-.29a2.61 2.61 0 0 1 .17-.28l.09-.14c.11-.17-.17.2 0 .05a6 6 0 0 1 .49-.52s.25-.21.25-.23-.24.17-.1.08l.19-.13.35-.2.16-.08c.16-.09-.11.06-.12.05s.68-.2.75-.21-.13 0-.14 0 .14 0 .18 0h.43c.05 0 .33.05.36 0s-.33-.06-.14 0l.23.05a2.53 2.53 0 0 0 .4.12s-.28-.15-.13-.05l.25.14s.18.14 0 0 0 0 0 .05l.12.11c.16.16 0 0-.06-.09a2 2 0 0 0 .19.31.61.61 0 0 0 .07.14c-.06-.06-.1-.33-.06-.12a1.94 1.94 0 0 0 0 .2v-.24l.06.43a.61.61 0 0 0 0 .13c.07.13 0-.36 0-.07a1.47 1.47 0 0 0 2.72.74c1-1.62 0-3.64-1.55-4.51a5.4 5.4 0 0 0 -5-.07c-2.61 1.19-4.21 4.79-2.57 7.36.92 1.44 2.64 1.88 4.21 2.2a.75.75 0 0 0 .58-1.36z"/><path d="m869.67 296.52a2 2 0 0 0 .25-.53c0-.14.05-.29.08-.43s.12-.54.19-.81l.21-.79a5.2 5.2 0 0 0 .1-.78 1.78 1.78 0 0 0 0-.79 1.52 1.52 0 0 0 -1.5-1.09 1.54 1.54 0 0 0 -1.43 1.09 1.94 1.94 0 0 0 -.06.79 7 7 0 0 0 .11.78c.06.26.14.53.21.79s.13.54.18.81.05.29.09.43a2.53 2.53 0 0 0 .24.53.77.77 0 0 0 1.32 0z"/><path d="m868.25 304.59a15.86 15.86 0 0 1 1.42.73 5.13 5.13 0 0 1 .49.33 2.54 2.54 0 0 1 .29.28l.12.13c-.08-.09 0 0 0 0a3.91 3.91 0 0 1 .31.57c-.09-.19 0 0 0 .1s.08.46.06.18a4.42 4.42 0 0 1 0 .63v.06a3.25 3.25 0 0 1 -.11.42v.15s0-.09 0-.08-.12.24-.14.29-.11.19-.18.28a1 1 0 0 1 -.09.13c-.1.17.18-.2 0-.05s-.31.36-.48.53a2 2 0 0 0 -.26.22l.1-.07-.19.12a4.05 4.05 0 0 1 -.35.21l-.15.07c-.16.09.1-.05.11 0s-.68.19-.75.21.13 0 .14 0a1.24 1.24 0 0 0 -.18 0h-.42a1.59 1.59 0 0 0 -.37 0s.33.07.14 0h-.23a1.85 1.85 0 0 0 -.4-.13s.29.15.13.05l-.25-.13s-.18-.15 0 0 0 0 0 0l-.12-.12c-.16-.15 0 0 .06.09a2.59 2.59 0 0 0 -.19-.31.54.54 0 0 0 -.07-.13c.06 0 .1.32.06.11a1.8 1.8 0 0 0 0-.19v.23-.43a.65.65 0 0 0 0-.13c-.07-.13 0 .37 0 .07a1.46 1.46 0 0 0 -2.71-.73c-1.05 1.62 0 3.64 1.54 4.5a5.43 5.43 0 0 0 5 .08c2.62-1.2 4.22-4.8 2.57-7.37-.92-1.44-2.64-1.88-4.21-2.2a.75.75 0 0 0 -.88.43.73.73 0 0 0 .31.93z"/><path d="m867.81 311.46a1.7 1.7 0 0 0 -.24.53c0 .14-.06.29-.09.44s-.12.53-.19.8l-.21.8a6.48 6.48 0 0 0 -.1.77 1.92 1.92 0 0 0 0 .79 1.49 1.49 0 0 0 2.87 0 1.93 1.93 0 0 0 .06-.79 6.49 6.49 0 0 0 -.11-.77c-.06-.27-.14-.54-.2-.8s-.14-.53-.19-.8-.05-.3-.09-.44a2.53 2.53 0 0 0 -.24-.53.77.77 0 0 0 -1.32 0z"/><path d="m764.77 370.93-7.33-3.93-35.29 65.82 6.2 3.33 1.13.61a37.33 37.33 0 0 0 35.26-65.77zm-34.92 65.14 34.58-64.5a37.33 37.33 0 0 1 -34.58 64.5z" stroke="#000" stroke-miterlimit="10" stroke-width="1.3"/><circle cx="740.62" cy="400.32" fill="#18c4ff" r="37.35"/><circle cx="740.62" cy="400.32" fill="none" r="37.35" stroke="#000" stroke-miterlimit="10" stroke-width="1.3"/><circle cx="740.62" cy="400.32" fill="#fff" r="30.19"/><circle cx="740.62" cy="400.32" fill="none" r="30.19" stroke="#000" stroke-miterlimit="10" stroke-width="1.3"/><path d="m742.15 399.51c-.34-.49-.67-1-1-1.48-.14-.23-.28-.48-.41-.72l-.2-.42c-.14-.26.07.26 0 0s-.15-.57-.23-.85 0 .38 0 .09c0-.14 0-.28 0-.42s0-.27 0-.41.06-.46 0-.07 0-.06 0-.15l.11-.38c0-.08.17-.44 0-.06s0 0 .08-.12a2.54 2.54 0 0 1 .16-.28c0-.05.35-.49.07-.12s0 0 .1-.1l.22-.23.31-.28c.25-.23-.53.37-.12.1.21-.13.41-.27.63-.38a2.46 2.46 0 0 0 .4-.19c-.08.07-.63.23-.23.1a10.56 10.56 0 0 1 1.76-.45l-.84.11a8 8 0 0 1 1.69 0l-.86-.11a6.4 6.4 0 0 1 1.66.46l-.79-.34 1.11.47-.8-.33a6.8 6.8 0 0 1 .76.39l.43.29s-.7-.59-.22-.14l.3.29c.38.39-.36-.54-.15-.22a5.31 5.31 0 0 1 .44.81l-.33-.8a4.5 4.5 0 0 1 .25.94l-.12-.88a4.88 4.88 0 0 1 0 1.08l.12-.87c-.09.58-.26 1.1-.32 1.71l.11-.84a3.53 3.53 0 0 1 -.13.54 2.89 2.89 0 0 0 1 3.06 3 3 0 0 0 3.24.23c3.09-1.33 3.12-5.65 1.57-8.12a9 9 0 0 0 -7-4.06 9.37 9.37 0 0 0 -7.15 2.6 7.82 7.82 0 0 0 -2.47 6.26c.34 2.86 2.51 4.68 4.65 6.33 1.18.91 2.85-.86 2-2z"/><path d="m747.49 391.14.29-.12-.42.18c.65-.11 1.14-.76 1.57-1.22.28-.29.57-.56.86-.83l.89-.8a8.91 8.91 0 0 0 .77-1l.21-.29a3.55 3.55 0 0 0 .44-1.69l-.11-.79-.3-.71-.46-.6a2.25 2.25 0 0 0 -1-.62 3 3 0 0 0 -1.54-.2 1.57 1.57 0 0 0 -.76.2 2.28 2.28 0 0 0 -1 .62 3.67 3.67 0 0 0 -1 1.74 4.52 4.52 0 0 0 -.21.62c-.07.4-.12.8-.19 1.21s-.13.8-.22 1.2l-.14.59c0 .11 0 .23-.07.34a2 2 0 0 0 0 1 5 5 0 0 0 .21.48l-.18-.42v.25a1.47 1.47 0 0 0 .88 1 1.21 1.21 0 0 0 .59.13 1.46 1.46 0 0 0 .77-.21z"/><path d="m739.32 400.72c.33.48.67 1 1 1.47.15.24.29.48.42.73s.13.28.2.41-.07-.26 0 0l.24.85c.09.29 0-.39 0-.09v.41.41c0 .09 0 .46 0 .08s0 .05 0 .14a2.85 2.85 0 0 1 -.11.39c0 .07-.16.44 0 .06s0 0-.08.12l-.16.27c0 .06-.35.49-.07.13s0 0-.1.09l-.23.23-.3.28c-.25.24.53-.36.12-.1-.21.14-.42.27-.64.39a1.76 1.76 0 0 0 -.39.19c.08-.08.63-.24.23-.11a10.59 10.59 0 0 1 -1.76.46l.84-.12a6.91 6.91 0 0 1 -1.7 0l.86.12a7.22 7.22 0 0 1 -1.65-.46l.79.33-1.11-.47.8.34a7 7 0 0 1 -.77-.4s-.43-.28-.42-.29.7.59.22.15l-.3-.3c-.38-.38.36.55.15.22a5.67 5.67 0 0 1 -.45-.8l.34.79a4.35 4.35 0 0 1 -.25-.94l.12.88a4.87 4.87 0 0 1 0-1.08l-.12.87c.09-.58.25-1.1.32-1.7l-.12.84a3.29 3.29 0 0 1 .14-.54 2.91 2.91 0 0 0 -1-3.07 3 3 0 0 0 -3.24-.22c-3.09 1.32-3.12 5.64-1.57 8.12a9 9 0 0 0 7 4.05 9.36 9.36 0 0 0 7.16-2.6 7.8 7.8 0 0 0 2.27-6.25c-.34-2.86-2.51-4.68-4.65-6.33-1.19-.91-2.86.86-2 2z"/><path d="m734 409.09-.28.12.42-.18c-.66.1-1.14.76-1.57 1.22-.28.29-.57.55-.87.82s-.59.53-.88.81a8 8 0 0 0 -.77 1l-.21.29a3.58 3.58 0 0 0 -.44 1.69l.11.79.3.71.46.61a2.22 2.22 0 0 0 1 .61 1.41 1.41 0 0 0 .75.2 1.33 1.33 0 0 0 .79 0 1.41 1.41 0 0 0 .75-.2 2.22 2.22 0 0 0 1-.61 3.6 3.6 0 0 0 1-1.75 3.39 3.39 0 0 0 .21-.61c.08-.4.13-.81.19-1.21s.14-.8.23-1.2l.13-.6c0-.11 0-.22.08-.34a2 2 0 0 0 0-1c-.07-.16-.13-.32-.21-.48l.18.42c0-.08 0-.17 0-.25a1.45 1.45 0 0 0 -.89-1 1.06 1.06 0 0 0 -.58-.13 1.52 1.52 0 0 0 -.78.21z"/><g fill="none" stroke="#000" stroke-miterlimit="10" stroke-width="1.3"><path d="m721.52 313.19 1.3.12"/><path d="m725.39 313.62c14 1.88 27.61 7.17 38.13 16.49 8.13 7.22 14.12 16.54 19.21 26.14a199 199 0 0 1 15 37c9 30.79 10.48 63.21 11.66 95.29" stroke-dasharray="2.59 2.59"/><path d="m809.47 489.81v1.3"/><g stroke-dasharray="2.61"><path d="m719.83 305.8c12-4 25.35-2.08 36.94 2.94 21.45 9.3 37.47 28.55 46.84 50s12.68 45 14.22 68.3"/><path d="m715.44 298.69c32.93-14.28 69.08 2.55 88.91 30.2 11.39 15.87 20 36.75 24 55.82"/></g></g><g fill="#18c4ff"><path d="m263.28 189.68a100.68 100.68 0 0 0 -32.42 15 109.43 109.43 0 0 0 -25.4 24.87 108 108 0 0 0 -16.23 32c-3.54 11.43-5.3 23.83-4 35.78 1.18 11.17 5.58 24 16.15 29.63 8.15 4.35 19.64 3.31 26.44-3.14a14.79 14.79 0 0 0 4.57-12.82 9.39 9.39 0 0 0 -4.1-6.73c-2.83-1.72-6.52-1.28-9.56-.43-12.26 3.43-19.12 16.41-24.84 26.72-7.33 13.21-13.81 27.21-16.46 42.19-2.37 13.42-1.52 27.63 4.12 40.17a50.51 50.51 0 0 0 4.95 8.62c.73 1 2.46.06 1.72-1-7.49-10.81-10.31-24.06-9.77-37.07.58-14.1 5.26-27.7 11.33-40.32 3-6.28 6.36-12.42 9.92-18.4 3-5.09 6.42-10.11 10.94-14a23.53 23.53 0 0 1 7-4.29c2.81-1.07 6.66-2 9.45-.43 4.53 2.53 3.91 9.39 1.67 13.23-4.5 7.72-15.54 9.75-23.5 7.14-10.76-3.54-15.95-15.59-17.65-25.89-1.87-11.3-.6-23.19 2.25-34.2a104.83 104.83 0 0 1 13.58-30.71c12.34-19.07 30.84-34.58 52.36-42.15 2.59-.92 5.22-1.71 7.88-2.39a.73.73 0 0 0 -.39-1.4z"/><path d="m708.92 679.62c7 3 12.42-5.21 18.82-6.35 3.84-.68 7.67 1 11 2.61s6.88 3.6 10.64 4.49c7.78 1.85 14.93-2.06 21.73-5.29 3.58-1.71 7.33-3.37 11.3-3.85a28.19 28.19 0 0 1 12.37 1.77c8.07 2.73 15.71 6.8 24.5 6 8.52-.8 16.34-4.8 24.81-5.78a23.14 23.14 0 0 1 12.65 2c3.82 1.76 7.45 3.63 11.7 4 7.43.61 14.62-2.42 21.54-4.64a46.14 46.14 0 0 1 10.75-2.43 19.29 19.29 0 0 1 10.71 2.32 23.69 23.69 0 0 0 5.88 2.58 14.8 14.8 0 0 0 5.39.05c3.71-.56 7.26-2.14 11-2.34a8.25 8.25 0 0 1 4.94 1.19c1.1.69 2.11-1.05 1-1.75-6.74-4.31-14.2 2.07-21.28 1a19.09 19.09 0 0 1 -5.94-2.47 21.67 21.67 0 0 0 -5.37-2.14 25 25 0 0 0 -10.34.08c-7.43 1.42-14.31 4.86-21.77 6.17a22.13 22.13 0 0 1 -11-.59c-4.31-1.47-8.09-4.13-12.64-4.91-8.35-1.43-16.46 2-24.38 4.12a36.4 36.4 0 0 1 -12.84 1.54c-4.27-.41-8.35-2-12.31-3.49a69.22 69.22 0 0 0 -12-3.93 24.73 24.73 0 0 0 -11.72.56c-7.53 2.24-14.1 7.45-22 8.59-8.16 1.17-14.46-4.59-21.87-6.76a13.84 13.84 0 0 0 -10.38.82c-3.28 1.63-6 4.33-9.5 5.58a6.39 6.39 0 0 1 -4.84 0c-.74-.3-1.29 1-.55 1.31z"/></g></svg>