<?xml version="1.0" ?><svg viewBox="0 0 1000 1000" xmlns="http://www.w3.org/2000/svg"><circle cx="464.09" cy="255.3" fill="#18c4ff" r="98.63"/><path d="m560.62 255.3a96 96 0 1 1 -1.09-14.66 97.07 97.07 0 0 1 1.09 14.66c0 2.7 4.21 2.71 4.2 0a100.75 100.75 0 1 0 -1.19 15.44 105 105 0 0 0 1.19-15.44c.01-2.7-4.19-2.71-4.2 0z" fill="#18c4ff"/><path d="m464.09 140.78v114.52h114.52a114.52 114.52 0 0 0 -114.52-114.52z"/><path d="m462 140.78v100.39c0 4.63-.17 9.31 0 13.94v.19a2.13 2.13 0 0 0 2.1 2.1h100.38c4.64 0 9.31.17 13.94 0h.19a2.13 2.13 0 0 0 2.1-2.1 116.5 116.5 0 0 0 -112-116.53c-1.52-.06-3-.09-4.57-.09-2.7 0-2.71 4.2 0 4.2a112.28 112.28 0 0 1 112.28 107.85c.06 1.52.09 3.05.09 4.57l2.1-2.1h-109.81c-1.48 0-3-.14-4.51 0a1.34 1.34 0 0 1 -.2 0l2.1 2.1v-100.39c0-4.63.18-9.31 0-13.94v-.19c0-2.7-4.19-2.71-4.19 0z"/><path d="m56 709.56c-3.46 31.55-4.44 63.3-4.92 95-.12 8-.22 16.09-.35 24.14-.06 3.92-.12 7.84-.2 11.75-.06 3.35 0 6.71-.42 10a66.21 66.21 0 0 1 -4.43 17.6 43.81 43.81 0 0 1 -4.16 7.94c-1.69 2.5-4.12 4.49-5.55 7.16s-1.46 5.72 1.45 7.24c2.3 1.2 5 1.38 7.52 1.72 3.63.49 7.21 1.1 10.87 1.35a92.64 92.64 0 0 0 10.8.11c4-.2 8.46-.62 12-2.72a6.71 6.71 0 0 0 3.39-4.45 14.84 14.84 0 0 0 -.23-4.2c-.23-1.95-.46-3.91-.66-5.86-.83-8-1.31-16.17-.36-24.22.9-7.6 3.2-15 5.64-22.2s5.22-14.65 7.17-22.18 3.44-15.44 5.05-23.21c3.15-15.56 5.8-31.24 7.68-47 1.79-15 2.63-30.31-.28-45.22a80.56 80.56 0 0 0 -2.81-10.59c-.51-1.51-2.91-.87-2.41.66 4.68 14.23 5.23 29.24 4.1 44.07a433.79 433.79 0 0 1 -6.33 45.39c-1.41 7.72-3 15.42-4.63 23.1a218.38 218.38 0 0 1 -5.68 22c-2.37 7.2-5 14.31-7.12 21.6a83.7 83.7 0 0 0 -3.35 22.39c-.06 7.83.9 15.6 1.8 23.35a4.2 4.2 0 0 1 -2 4.54 16.19 16.19 0 0 1 -5.79 2 67.18 67.18 0 0 1 -16.46.43c-3.5-.25-6.92-.85-10.39-1.31-1.32-.17-2.64-.32-3.93-.61a6.6 6.6 0 0 1 -3.32-1.38c-1.17-1.27.12-3.42.89-4.55s2-2.33 3-3.51a37.13 37.13 0 0 0 4.33-6.89 64.05 64.05 0 0 0 5.59-17.06c1.2-6.42 1.16-12.88 1.26-19.39q.18-11.65.3-23.32c.36-30.65.74-61.33 3.34-91.9q.51-5.88 1.11-11.76c.1-1-1.42-1-1.53 0z"/><path d="m48.65 867.2c2.9.29 5.81.59 8.72.86 1.45.13 2.91.24 4.36.36s2.84 0 3.84 1c.8.79 1.33 1.82 2.18 2.58a7.63 7.63 0 0 0 2.89 1.61c2.64.79 5.09-.52 7.73-.4a.91.91 0 0 0 .24-1.78c-2.59-.77-5.2 1-7.77-.18-2.24-1-2.89-3.71-5.15-4.67a10.23 10.23 0 0 0 -3.48-.5c-1.45-.08-2.9-.17-4.36-.24-3.06-.16-6.13-.25-9.2-.37-1.13 0-1.09 1.62 0 1.73z"/><path d="m258.17 709.56c3.17 30.78 3.9 61.7 4.31 92.63q.15 11.55.28 23.12c.1 7.49 0 15 .4 22.52a67.46 67.46 0 0 0 3.34 17.17 44.72 44.72 0 0 0 7.87 15 40.53 40.53 0 0 1 2.74 3.27c.83 1.21 2.16 3.5.7 4.72-1.85 1.55-5.09 1.56-7.35 1.86-3.53.47-7 1.06-10.57 1.3a91.61 91.61 0 0 1 -10.61.1c-3.74-.18-8.19-.48-11.36-2.67-1.85-1.27-2-2.8-1.76-4.9.47-3.9.92-7.8 1.25-11.71a94.55 94.55 0 0 0 -.47-23c-1.2-7.4-3.53-14.56-5.95-21.64s-5-14.19-6.8-21.5c-1.84-7.59-3.41-15.27-4.95-22.93-3-15.18-5.62-30.47-7.42-45.85-1.71-14.6-2.56-29.58.29-44.09a87.82 87.82 0 0 1 2.77-10.6c.5-1.53-1.89-2.17-2.4-.66-4.88 14.34-5.35 29.75-4.2 44.73a441.88 441.88 0 0 0 6.54 46.57q2.24 12 4.89 24a209.22 209.22 0 0 0 6 22.29c2.44 7.25 5.13 14.43 7.1 21.83a81.74 81.74 0 0 1 2.68 23.61c-.12 4.06-.46 8.11-.89 12.14-.18 1.8-.39 3.59-.6 5.38a13.74 13.74 0 0 0 -.19 4.43c.9 4.24 6.09 5.72 9.77 6.35a70.11 70.11 0 0 0 16.82.45c3.59-.27 7.12-.89 10.69-1.36 2.49-.33 5.25-.52 7.47-1.82 6.37-3.72-2.26-11.09-4.54-14.54a53.21 53.21 0 0 1 -6.85-16.62c-1.57-6.37-1.86-12.65-2-19.18q-.22-11.93-.37-23.86c-.44-31.63-1-63.28-3.9-94.8q-.54-5.88-1.18-11.76c-.11-1-1.64-1-1.53 0z"/><path d="m267 865.47c-3 .12-6 .21-9 .35-1.46.07-2.91.16-4.36.24a11.06 11.06 0 0 0 -3.72.52c-2.19.93-2.84 3.51-4.94 4.57-2.62 1.32-5.31-.51-8 .28-.95.28-.81 1.83.24 1.78 2.58-.11 5 1.15 7.55.46a7.79 7.79 0 0 0 2.93-1.54c.92-.78 1.47-1.87 2.32-2.71s2.35-.88 3.61-1l4.36-.36c3-.27 6-.59 9-.88 1.08-.11 1.13-1.77 0-1.73z"/><path d="m82.3 390.76 2 10.8c-3.75 1.87-5 6.54-5.76 10.66-20.05 104.3-27.94 210.5-35.79 316.42-.58 7.76-1.12 15.8 1.55 23.11 5.06 13.82 20 21.2 34.05 25.51 40.35 12.39 83.53 10.67 125.66 8 16.93-1.09 34.26-2.41 49.74-9.37 4.59-2.06 9.1-4.72 12.06-8.8 5.2-7.16 4.53-16.86 3.62-25.67-4.52-44.08-9.06-88.24-18-131.65-15.83-77.12-45.27-151-59.58-228.46" fill="#18c4ff"/><path d="m81.51 391c.61 3.61 1.21 7.23 1.85 10.84l.46-1.12c-5.68 3-6.22 10.68-7.29 16.28q-2.43 12.64-4.63 25.33c-2.92 16.77-5.48 33.61-7.83 50.47-4.71 33.74-8.5 67.59-11.72 101.5-3.25 34.21-6 68.47-8.55 102.74l-1.89 25.3c-.58 7.88-1.6 15.94-.37 23.82 2.05 13.07 12 22 23.45 27.41 13.42 6.39 28.59 9.55 43.2 11.76a319.67 319.67 0 0 0 48.68 3.17c16.34-.06 32.67-1 49-2.06 15.4-1 31.16-2.33 45.6-8.16 6.4-2.58 13-6 16.58-12.15 3.4-5.85 3.65-12.92 3.21-19.5-.54-8.18-1.6-16.36-2.46-24.52q-1.33-12.78-2.78-25.57c-3.85-33.64-8.65-67.19-16.1-100.24-7.28-32.31-16.68-64.09-26-95.84s-18.72-63.52-25.92-95.84q-2.62-11.79-4.83-23.65c-.29-1.55-2.65-.9-2.37.65 5.9 31.79 14.32 63 23.31 94.08s18.43 61.77 26.52 93a831.91 831.91 0 0 1 19 96.81c2.26 16.61 4.15 33.27 5.93 49.94q1.32 12.4 2.58 24.8c.7 6.87 1.57 14.16-.62 20.86-2.38 7.29-8.76 11.3-15.47 14.17a96 96 0 0 1 -22.12 6.12c-15.48 2.55-31.4 3-47 3.77-32 1.51-64.5 1.27-95.68-6.77-12.41-3.2-25.87-7.39-35-16.87a29.71 29.71 0 0 1 -8.25-18.21c-.73-7.85.36-15.89.94-23.72 2.47-33.35 5-66.69 7.91-100 2.91-33.16 6.24-66.3 10.33-99.33s8.82-66.27 14.82-99.19c.67-3.67 1.23-7.4 2.11-11 .74-3 1.85-6 4.68-7.64a1 1 0 0 0 .46-1.12c-.71-3.59-1.46-7.17-2.19-10.75-.21-1-1.76-.59-1.58.44z" fill="#18c4ff"/><path d="m43.53 752c3.73 12.6 16.44 19.9 28 24.32a154.5 154.5 0 0 0 22.14 6.33 237.35 237.35 0 0 0 24.74 4 368.75 368.75 0 0 0 50.4 1.66c8.48-.23 17-.65 25.42-1.15 8.25-.48 16.51-1 24.73-1.79a139.73 139.73 0 0 0 23.59-4.15c7.2-2 14.9-4.74 20.72-9.61a22.72 22.72 0 0 0 3.67-3.92c.94-1.26-1.19-2.49-2.12-1.24-4.4 5.92-12.09 8.92-18.86 11.16a116.58 116.58 0 0 1 -23.18 4.8c-7.84.91-15.74 1.36-23.62 1.83-8.23.5-16.46 1-24.69 1.25a408.31 408.31 0 0 1 -48.85-.78 220.38 220.38 0 0 1 -47.71-9c-11.82-3.71-24.11-9.39-30.73-20.34a39.07 39.07 0 0 1 -2.15-4c-.38-.85-1.76-.24-1.5.64z"/><path d="m216.67 309c-3-7.62-10.56-12.32-17.72-16.3q-18.64-10.38-38.08-19.22a39.27 39.27 0 0 1 2.59 3.68 6.08 6.08 0 0 1 1.12 2.94 5.85 5.85 0 0 1 -.84 2.82 25.63 25.63 0 0 1 -8.2 9.2 7.44 7.44 0 0 1 2.57 4.33c.6 3.19-.91 6.34-2.4 9.23-4.75 9.25-9.6 18.51-15.52 27.07a5.41 5.41 0 0 1 -2.63 2.38c-1.73.5-3.43-.75-4.79-1.94-7.06-6.21-13.85-12.9-18.69-21a18.92 18.92 0 0 1 -2.67-6.38c-.62-3.61.54-7.26 1.73-10.71.37-1.06.73-2.27.17-3.24a4.09 4.09 0 0 0 -2-1.45 19.23 19.23 0 0 1 -7-4.95 8.86 8.86 0 0 1 -1.92-8.12c.87-2.64 3.21-4.46 5.45-6.12h-1.47a249 249 0 0 0 -42.71 22.18 14.47 14.47 0 0 0 -4.24 3.65c-1.37 2-1.68 4.5-1.89 6.91-2.35 27.58 4 55.13 11.52 81.78 1 3.5 2.15 7.23 5 9.48 2.47 1.94 5.76 2.41 8.88 2.77a402.67 402.67 0 0 0 96.21-.36c6.92-.86 14.17-2 19.62-6.38s-6.78-13.56-4.59-20.18c5.45-16.46 6.47-36.5 7-53.83.14-4.51 17.17-3.99 15.5-8.24z"/><path d="m128.34 385.66a2 2 0 0 0 -.09-1.36 1.89 1.89 0 0 0 -1.18-.66l-24.47-6.88a4.29 4.29 0 0 0 -2.57-.18 4 4 0 0 0 -1.82 1.79c-2.6 4.15-4.14 8.85-5.65 13.5l-7.83 24.06 19.91 29.35c6 .87 11.79 2.83 17.74 4s12.33 1.37 17.87-1.08c3.45-1.52 6.38-4 9.62-5.89a66.69 66.69 0 0 1 11.38-4.91c2.83-1 4.06.14 6.9-.87.86-.31 3-.75 2.84.14a79.74 79.74 0 0 0 4.31-11.9q1.88-7 3.76-14.06a5.43 5.43 0 0 0 -3.86-6.71c-15-4-34.6-10.21-44.65-12.78a3.39 3.39 0 0 1 -2.51-3.89z" fill="#fff"/><path d="m117.44 263.08c-2.42 1.59-4.82 3.19-7.18 4.86a69.87 69.87 0 0 0 -6.06 4.5 9.51 9.51 0 0 0 -2.44 11.76 14.11 14.11 0 0 0 4.68 5.15 25.76 25.76 0 0 0 3 1.79c.78.39 2.5.82 2.69 1.79s-.64 2.27-.94 3.11a29.14 29.14 0 0 0 -1.11 4 15.94 15.94 0 0 0 .09 7.49c1.35 4.76 4.7 9.08 7.75 12.88a94.16 94.16 0 0 0 10.2 10.65c3 2.72 7.81 8.19 11.88 4.13a35.54 35.54 0 0 0 4.23-6.06c1.44-2.26 2.82-4.56 4.15-6.88 3.07-5.33 5.92-10.78 8.7-16.25 1.24-2.43 2.45-5 2.54-7.8a9.07 9.07 0 0 0 -3.09-7.09l-.3 2.27a28 28 0 0 0 7.2-7.12 16.26 16.26 0 0 0 2.4-4.5 6.27 6.27 0 0 0 -.89-5 39.35 39.35 0 0 0 -6.24-7.9 30.72 30.72 0 0 0 -8.4-6.19 1.32 1.32 0 0 0 -1.33 2.28 67.15 67.15 0 0 1 6.87 5.34 37.75 37.75 0 0 1 5.61 6.63c.74 1.11 1.79 2.43 1.51 3.84a11.83 11.83 0 0 1 -2 3.84 23.93 23.93 0 0 1 -6.2 6.29 1.46 1.46 0 0 0 -.29 2.27c4 3.45 1.77 8.35-.23 12.25-2.23 4.35-4.49 8.69-6.87 13s-4.89 8.47-7.63 12.52a13 13 0 0 1 -1.73 2.31c-.91.86-1.86.67-2.86.05a35.24 35.24 0 0 1 -5.24-4.61 110.17 110.17 0 0 1 -9.13-9.58c-2.78-3.36-5.78-7.19-7.31-11.32a12.43 12.43 0 0 1 -.44-6.89c.44-2.24 1.42-4.36 1.82-6.6a4.12 4.12 0 0 0 -2.21-4.7 36.71 36.71 0 0 1 -5.36-3 9.81 9.81 0 0 1 -3.83-5.83 6.8 6.8 0 0 1 2.32-6.08 57.93 57.93 0 0 1 5.88-4.7c2.31-1.76 4.56-3.59 6.81-5.43.78-.63-.23-1.94-1.07-1.39z"/><g fill="#18c4ff"><path d="m116.4 243.36c-9-7.82-10.69-15.34-11-27.11l-4.44-.39c.9 7.95-2.9 12.73-7.84 19-1.83 2.32-3.87 4.63-4.59 7.49s.46 6.47 3.3 7.3c1.17.34 2.88.62 2.79 1.84a2.29 2.29 0 0 1 -.54 1.09 8.37 8.37 0 0 0 -1.26 7.6 6.09 6.09 0 0 0 6.26 4 10.43 10.43 0 0 0 8.29 14 5.13 5.13 0 0 0 3.39-.47 6 6 0 0 0 1.79-1.9c3.27-4.87 4.66-10.75 5.64-16.55q1.09-6.58 1.57-13.27c-1.22-.85-2.33-1.74-3.36-2.63z"/><path d="m176.26 240.4a8 8 0 0 0 -.35-5.21c-1.76-5.3-5-10-8.15-14.59-1.9-2.74-1.46-1.58-3.35-4.32l-4.84 2.09c0 .87-.1 1.71-.16 2.53-.65 8.54-2.18 14.39-8 21-.35.39-.71.78-1.08 1.16q-.22 10.22.26 20.42a30.66 30.66 0 0 0 1.56 9.58c1.16 3 3.41 5.81 6.49 6.84 5.17 1.73 10.95-2.23 12.8-7.37s.61-10.87-1.47-15.91c3.08.72 6-2.53 6-5.69s-1.86-6-3.89-8.43c1.54.79 3.55-.44 4.18-2.1z"/><path d="m102.5 203.54c13.78-7.17 25.24-18 36.5-28.7a39.73 39.73 0 0 0 -2.59 7.95c-.28 1.31-.39 2.91.67 3.73 1.35 1 3.26-.11 4.51-1.27a83.25 83.25 0 0 0 6.37-6.51c2.75 6.42 5.56 12.94 9.94 18.39 1.7 2.13 3.73 4.3 3.89 7 2-.73 2.43-3.35 2.51-5.5.25-6.84.3-13.89-2.22-20.26s-8.24-11.94-15.08-12.24a19.29 19.29 0 0 1 -2.74-.16c-1.82-.35-3.34-1.54-5-2.4-5.49-2.89-12.39-1.88-17.86 1s-9.83 7.54-14.09 12.07c-2.42 2.59-4.89 5.22-6.5 8.39a19.14 19.14 0 0 0 .34 17.68"/><path d="m102.87 204.18c14-7.13 25.56-17.88 36.92-28.55l-1.79-1.36a40.33 40.33 0 0 0 -2.67 8c-.42 2-.54 4.48 1.57 5.5s4.32-.62 5.82-2a82.09 82.09 0 0 0 6-6.2l-1.83-.23a112.68 112.68 0 0 0 6.32 13.21 48.87 48.87 0 0 0 4 5.76c1.38 1.72 3.06 3.55 3.27 5.85a1.27 1.27 0 0 0 1.87 1.08c3.57-1.53 3.17-6.62 3.22-9.78a51.72 51.72 0 0 0 -1.25-13.93c-1.85-7.23-6.95-14.43-14.59-16.21-2-.47-4.23-.07-6.16-.76s-3.58-2.07-5.52-2.81a19.5 19.5 0 0 0 -12.38-.16c-8.55 2.51-14.87 9.48-20.7 15.85-3.27 3.57-6.14 7.5-7 12.37a20.69 20.69 0 0 0 2.14 13.59c.74 1.35 2.8.14 2.06-1.21a18 18 0 0 1 -2-11.1 20.31 20.31 0 0 1 5.11-10.36 114.78 114.78 0 0 1 8.19-8.61 37.1 37.1 0 0 1 9.64-7 19.72 19.72 0 0 1 11.38-1.84 14.92 14.92 0 0 1 5.19 1.95 12.75 12.75 0 0 0 5 2.05 28.3 28.3 0 0 1 5.28.62 14.54 14.54 0 0 1 4.43 2.27 19.9 19.9 0 0 1 6.17 7.84c1.9 4.22 2.45 9 2.56 13.54 0 2.36 0 4.74-.09 7.1-.08 1.62-.21 3.71-1.9 4.43l1.87 1.07a11.09 11.09 0 0 0 -2.65-5.89 70.55 70.55 0 0 1 -4.56-6.2 103.12 103.12 0 0 1 -6.79-13.91 1.18 1.18 0 0 0 -1.84-.24q-1.95 2.24-4 4.32c-1.15 1.15-2.81 3.31-4.55 3.52-2.91.34.92-9.14 1.44-10.34s-.78-2.31-1.76-1.36c-11.11 10.66-22.42 21.49-36.09 28.85-.85.45-.1 1.71.75 1.28z"/></g><path d="m968.44 568.66h-654.85c-6 0-12 .22-18 0-3.36-.13-5-2.52-5.07-5.62s0-6.15 0-9.22v-436.74c0-3.5-.44-7.61 4.47-8.1 1.15-.11 2.38 0 3.54 0h663.65c1.92 0 3.85-.08 5.77 0 3.49.15 4.91 2.7 4.95 5.78.13 9.12 0 18.27 0 27.39v418.34c0 3.44.5 7.83-4.46 8.17-2.69.18-2.71 4.38 0 4.2 6.56-.44 8.66-5.59 8.66-11.17v-419.69c0-9.13.08-18.26 0-27.39-.05-5.3-3.16-9.59-8.83-9.81-1.61-.06-3.23 0-4.84 0h-665.3a27.62 27.62 0 0 0 -4.55.13c-6 1-7.22 6.26-7.22 11.27v437.8c0 7.28-1.7 18.44 8.9 18.82 5.42.19 10.88 0 16.3 0h656.88c2.7.04 2.7-4.16 0-4.16z"/><path d="m104.37 200.13a108.06 108.06 0 0 0 -.27 11.94 79.38 79.38 0 0 0 1.07 12.22c1.42 8.08 4.83 15.5 11.26 20.79a35.16 35.16 0 0 0 12.66 7.06 18.14 18.14 0 0 0 13.46-1.58 33.45 33.45 0 0 0 16.45-19.73c1.34-4.68 1.6-9.65 1.77-14.49a157.65 157.65 0 0 0 -.05-16.84 1 1 0 0 0 -2 0c-.4 8.91.37 17.92-1.18 26.77a31.14 31.14 0 0 1 -12.76 19.88c-3.56 2.56-7.81 4.55-12.29 4.06-4.67-.5-9-3-12.71-5.73a29.12 29.12 0 0 1 -8-8.61 37.43 37.43 0 0 1 -4-10.32 72.15 72.15 0 0 1 -1.67-12.77c-.22-4.21-.08-8.45-.41-12.65a.72.72 0 0 0 -1.44 0z"/><path d="m105.43 206.82a3.9 3.9 0 0 0 -2.4-4.15 4.72 4.72 0 0 0 -5 1.1 7.08 7.08 0 0 0 -2 5.38 8.66 8.66 0 0 0 1.91 5.57 9.39 9.39 0 0 0 2.93 2.05c.51.25 1 .48 1.58.69a4.45 4.45 0 0 0 1.88.46 1 1 0 0 0 .52-1.92 5.41 5.41 0 0 0 -1.48-.57 13.88 13.88 0 0 1 -1.38-.58 8.83 8.83 0 0 1 -2.33-1.52 6.68 6.68 0 0 1 -1.41-5.08 4.14 4.14 0 0 1 2.62-3.69 2.33 2.33 0 0 1 3.12 2.06c0 .81 1.33 1 1.46.2z"/><path d="m102.24 209.41h.23.11.09c-.17 0-.11-.05 0 0l.19.12c.08.05-.15-.13 0 0l.07.06.08.08c.09.11 0 0 0 0a1.34 1.34 0 0 1 .24.44l-.09-.22.18.41-.1-.22a4.91 4.91 0 0 1 .3 1v-.25.05-.25l.09-.23a.15.15 0 0 1 0 .07l.15-.2a1.6 1.6 0 0 0 -.45.69 1.4 1.4 0 0 0 .14 1 1.37 1.37 0 0 0 1.17.73 1.1 1.1 0 0 0 .53-.14 1.41 1.41 0 0 0 .36-.37 1 1 0 0 0 .1-.73 1.14 1.14 0 0 0 -.44-.57 1.08 1.08 0 0 0 -.58-.16h.26-.09l.23.1-.08-.05.19.15-.09-.09.15.2v-.09l.1.23a.5.5 0 0 1 0-.13v.26a.31.31 0 0 1 0-.1v.26s0-.06 0-.09l-.09.23v-.06l-.15.19c.06-.08.14-.15.2-.23a1.19 1.19 0 0 0 .25-.7 2.69 2.69 0 0 0 -.18-.73 5.66 5.66 0 0 0 -.27-.68 2.86 2.86 0 0 0 -.4-.62 2.29 2.29 0 0 0 -2.36-.82.75.75 0 0 0 -.52.8.71.71 0 0 0 .71.62z"/><path d="m160.91 206.62a2.34 2.34 0 0 1 3.12-2.06 4.13 4.13 0 0 1 2.62 3.69 6.72 6.72 0 0 1 -1.41 5.08 8.83 8.83 0 0 1 -2.33 1.52c-.41.2-.84.38-1.27.54a6.47 6.47 0 0 0 -1.59.61 1 1 0 0 0 .52 1.92 6.85 6.85 0 0 0 3-.95 12.42 12.42 0 0 0 2.77-1.68 7.81 7.81 0 0 0 2.45-5.35 7.57 7.57 0 0 0 -1.48-5.66 5 5 0 0 0 -4.83-1.83 4 4 0 0 0 -3.06 4.37c.12.84 1.47.62 1.46-.2z"/><path d="m162.83 208a2.29 2.29 0 0 0 -2.36.82 2.87 2.87 0 0 0 -.39.59c-.1.23-.2.45-.28.69a2.83 2.83 0 0 0 -.18.75 1.16 1.16 0 0 0 .17.6 3.22 3.22 0 0 0 .28.33l-.15-.19v.06l-.09-.23s0 .06 0 .09v-.26a.31.31 0 0 1 0 .1v-.26a.5.5 0 0 1 0 .13l.1-.23-.05.09.15-.2-.03.12.19-.15-.08.05.23-.1h-.09.26a1.1 1.1 0 0 0 -.58.16 1 1 0 0 0 -.44.57.93.93 0 0 0 .1.73 1.27 1.27 0 0 0 .36.37 1.1 1.1 0 0 0 .53.14 1.25 1.25 0 0 0 .6-.16 1.42 1.42 0 0 0 .57-.57 1.45 1.45 0 0 0 .14-1 1.57 1.57 0 0 0 -.45-.71l.15.2a.15.15 0 0 1 0-.07l.09.23v.25-.05.25a4.91 4.91 0 0 1 .3-1l-.1.22.18-.41-.09.22a2.56 2.56 0 0 1 .11-.24s.09-.19.13-.2-.13.15-.05.06l.08-.08.09-.08c.1-.1-.12.08 0 0l.17-.11s.16-.07 0 0 0 0 0 0h.11-.05.23a.71.71 0 0 0 .51-.21.79.79 0 0 0 .2-.41.75.75 0 0 0 -.52-.8z"/><path d="m120.32 209.1a1.2 1.2 0 0 0 -.38 0 1.53 1.53 0 0 0 -.55.32l-.1.1a3.71 3.71 0 0 0 -.23.32 1.57 1.57 0 0 0 -.14.38 2 2 0 0 0 0 .35 1.79 1.79 0 0 0 0 .36 1 1 0 0 0 .15.36 1.26 1.26 0 0 0 .25.32 2.55 2.55 0 0 0 .31.24 1.66 1.66 0 0 0 .39.15 1.33 1.33 0 0 0 .4.05 2.21 2.21 0 0 0 .35 0h.06a1.35 1.35 0 0 0 .59-.34 1.22 1.22 0 0 0 .25-.31 1.38 1.38 0 0 0 .18-.68 1.5 1.5 0 0 0 0-.42s0 0 0-.06a1.83 1.83 0 0 0 -.14-.32 1.19 1.19 0 0 0 -.26-.33 1.26 1.26 0 0 0 -.61-.35 1.12 1.12 0 0 0 -.36-.05 1.28 1.28 0 0 0 -.64.17l-.24.18a.82.82 0 0 0 -.24.38.62.62 0 0 0 -.09.3.94.94 0 0 0 0 .47l.11.28.19.24a.77.77 0 0 0 .38.24.88.88 0 0 0 .45.11h-.32.06l-.29-.12.09.05-.24-.18.06.06-.19-.24a.22.22 0 0 1 0 .08l-.12-.28v.09-.31.08-.31s0 0 0 0l.12-.27.18-.24.24-.18h-.07l.28-.12h-.08.3-.1.31a.5.5 0 0 1 -.13 0l.28.11a.31.31 0 0 1 -.1 0l.23.18-.07-.08.17.23-.07-.12.11.27v-.11.29-.14.28s0-.1 0-.14l-.1.24a1 1 0 0 1 .08-.14l-.15.2.16-.21a.61.61 0 0 0 0-.12l.07-.16-.1.23v-.06a.91.91 0 0 0 0-.93.87.87 0 0 0 -.33-.33 1.06 1.06 0 0 0 -.46-.13z"/><path d="m117.16 206.18c.27-.11.55-.19.82-.28l.45-.12h.2.17.12.26.42 1l1.84.05a3.67 3.67 0 0 0 1.1-.09 1.33 1.33 0 0 0 1-1.6 1.15 1.15 0 0 0 -1.06-.81 1.26 1.26 0 0 0 -.73.18s.23 0 .26-.07a1 1 0 0 1 -.25 0h-.86c-.61 0-1.23 0-1.84.06a10.09 10.09 0 0 0 -1.89.32 4.69 4.69 0 0 0 -1.78 1 .9.9 0 0 0 -.13 1.07.87.87 0 0 0 1 .4z"/><path d="m143.77 210.49v.06l-.1-.23.07.16a.5.5 0 0 0 .13.22 1.25 1.25 0 0 0 .09.12l-.15-.2a1 1 0 0 1 .08.14l-.11-.24a.58.58 0 0 1 .05.14v-.28.14-.29.11l.11-.27-.08.12.14-.19.23-.18h-.1l.27-.11a.35.35 0 0 1 -.12 0h.31-.11.31-.08l.28.12h-.07l.24.18.18.24.12.27s0 0 0 0v.31-.08.31-.09l-.12.28a.59.59 0 0 1 0-.08l-.18.24.06-.06-.24.18.09-.05-.29.12h.06-.32.31a.78.78 0 0 0 .4-.21.53.53 0 0 0 .21-.21.78.78 0 0 0 .21-.4l.05-.31-.05-.32a.82.82 0 0 0 -.21-.4.8.8 0 0 0 -.33-.3 1.27 1.27 0 0 0 -.63-.17 2.12 2.12 0 0 0 -.35 0 1.42 1.42 0 0 0 -.61.34 1.53 1.53 0 0 0 -.26.31 1.73 1.73 0 0 0 -.16.37 1.17 1.17 0 0 0 -.06.41 1 1 0 0 0 .05.42 1.4 1.4 0 0 0 .65.84 1.51 1.51 0 0 0 .37.15 1.46 1.46 0 0 0 .42 0 2.16 2.16 0 0 0 .4-.06 2.48 2.48 0 0 0 .37-.17 1.54 1.54 0 0 0 .31-.25 1.58 1.58 0 0 0 .39-.64 1.5 1.5 0 0 0 0-.84 1.8 1.8 0 0 0 -.16-.38 1.64 1.64 0 0 0 -.27-.32 1.21 1.21 0 0 0 -.95-.39 1 1 0 0 0 -.46.13.87.87 0 0 0 -.33.33.91.91 0 0 0 0 .93z"/><path d="m148.57 204.71a4.41 4.41 0 0 0 -1.72-1 9.86 9.86 0 0 0 -1.94-.34c-.59-.06-1.19 0-1.78-.06h-.86-.27.15c.2 0-.24-.1-.27-.1a1.37 1.37 0 0 0 -.4-.05 1.15 1.15 0 0 0 -1.06.81 1.29 1.29 0 0 0 .8 1.54 3 3 0 0 0 1.2.15l1.89-.05a13.53 13.53 0 0 1 1.8.05h.08.2l.45.12c.29.09.59.18.87.29.83.32 1.48-.9.85-1.47z"/><path d="m103.62 210.38c-1.15.66-2.28 2-1.76 3.37a2 2 0 0 0 2.92 1.15l-1.65-1.27a147.6 147.6 0 0 0 -2.49 14.76 69.78 69.78 0 0 0 -.4 7.78c0 2 0 4.12 1.33 5.78 1.74 2.16 7.94 5.74 9.29 1.43a3 3 0 0 0 -2.36-3.77c-2.12-.34-2.7 2.54-1.36 3.76.85.75 2.53.3 2.43-1a6.19 6.19 0 0 0 -.25-1.54c-.38-1.1-2.35-1.4-2.56 0a5.68 5.68 0 0 0 0 1.54l2.42-1v.59l-1.36.36c.57.09.68.44.06.48a4.19 4.19 0 0 1 -1.8-.66 6.27 6.27 0 0 1 -2.67-2c-.72-1.13-.59-2.69-.6-4 0-1.46 0-2.92.11-4.38a165.11 165.11 0 0 1 2.44-17.56c.15-.87-.76-1.87-1.64-1.27a9.63 9.63 0 0 0 1-1.24.86.86 0 0 0 -1-1.34z"/><g fill="#18c4ff"><path d="m914 351.53c-25.53-.37-51.06-.26-76.59-.33s-51.06-.2-76.59-.33c-14.3-.07-28.62-.26-42.91.11a1.31 1.31 0 0 0 0 2.61c12.79.33 25.61.13 38.42.12s25.44-.12 38.17-.18q38.29-.19 76.59-.25c14.3 0 28.61 0 42.91-.24a.76.76 0 0 0 0-1.51z"/><path d="m914 371.11c-25.53-.37-51.06-.27-76.59-.34s-51.06-.2-76.59-.32c-14.3-.07-28.62-.26-42.91.11a1.3 1.3 0 0 0 0 2.6c12.79.34 25.61.14 38.42.13s25.44-.12 38.17-.18q38.29-.19 76.59-.26c14.3 0 28.61 0 42.91-.23a.76.76 0 0 0 0-1.51z"/><path d="m914 390.68c-25.53-.37-51.06-.26-76.59-.33s-51.06-.2-76.59-.33c-14.3-.07-28.62-.26-42.91.11a1.31 1.31 0 0 0 0 2.61c12.79.33 25.61.13 38.42.12s25.44-.11 38.17-.18q38.29-.18 76.59-.25c14.3 0 28.61 0 42.91-.24a.76.76 0 0 0 0-1.51z"/><path d="m914 410.26c-25.53-.37-51.06-.26-76.59-.33s-51.06-.2-76.59-.33c-14.3-.07-28.62-.26-42.91.11a1.31 1.31 0 0 0 0 2.61c12.79.33 25.61.13 38.42.12s25.44-.12 38.17-.18q38.29-.19 76.59-.25c14.3 0 28.61 0 42.91-.24a.76.76 0 0 0 0-1.51z"/><path d="m914 441.72c-25.53-.37-51.06-.27-76.59-.34s-51.06-.2-76.59-.32c-14.3-.07-28.62-.26-42.91.11a1.3 1.3 0 0 0 0 2.6c12.79.34 25.61.14 38.42.13s25.44-.12 38.17-.18q38.29-.2 76.59-.26c14.3 0 28.61 0 42.91-.23a.76.76 0 0 0 0-1.51z"/><path d="m914 461.29c-25.53-.37-51.06-.26-76.59-.33s-51.06-.2-76.59-.33c-14.3-.07-28.62-.26-42.91.12a1.3 1.3 0 0 0 0 2.6c12.79.33 25.61.13 38.42.12s25.44-.11 38.17-.18q38.29-.18 76.59-.25c14.3 0 28.61 0 42.91-.24a.76.76 0 0 0 0-1.51z"/><path d="m914 480.87c-25.53-.37-51.06-.26-76.59-.33s-51.06-.2-76.59-.33c-14.3-.07-28.62-.26-42.91.11a1.31 1.31 0 0 0 0 2.61c12.79.33 25.61.13 38.42.12s25.44-.12 38.17-.18q38.29-.19 76.59-.25c14.3 0 28.61 0 42.91-.24a.76.76 0 0 0 0-1.51z"/><path d="m914 500.45c-25.53-.37-51.06-.27-76.59-.34s-51.06-.2-76.59-.32c-14.3-.07-28.62-.26-42.91.11a1.3 1.3 0 0 0 0 2.6c12.79.34 25.61.14 38.42.13s25.44-.12 38.17-.18q38.29-.19 76.59-.26c14.3 0 28.61 0 42.91-.23a.76.76 0 0 0 0-1.51z"/></g><path d="m627.3 570.76h8.86v314.57h-8.86z"/><path d="m575.39 871.39h112.69v21.73h-112.69z"/><path d="m130.17 222.68a4.43 4.43 0 0 0 2.58 1.13 3.88 3.88 0 0 0 1.36-.11 3.65 3.65 0 0 0 .66-.22 1.5 1.5 0 0 0 .84-.64.9.9 0 0 0 0-.9.88.88 0 0 0 -.77-.45 2.08 2.08 0 0 0 -.84.31 2.26 2.26 0 0 0 -.22.11c.17-.11.09 0 0 0h-.11a3.71 3.71 0 0 1 -.53.13c-.13 0 .17 0 .05 0h-.15-.28-.24a1.27 1.27 0 0 0 -.27 0s.16 0 0 0h-.12l-.27-.06-.25-.09h-.05a4.14 4.14 0 0 1 -.5-.3.71.71 0 0 0 -.86 1.12z"/><path d="m136.72 231.48a44.15 44.15 0 0 1 -8-1 1.79 1.79 0 0 0 -1.44.08c-.51.37-.45 1.16-.25 1.76a6.07 6.07 0 0 0 5.43 4 3.31 3.31 0 0 0 2.15-.6c1.09-.85 1.18-2.42 1.19-3.8"/><path d="m136.72 230.63a43.52 43.52 0 0 1 -6.52-1c-1-.23-2.11-.69-3.12-.34a2.39 2.39 0 0 0 -1.37 2.81 6.79 6.79 0 0 0 3.16 4.27 6.43 6.43 0 0 0 5.4.81c2.25-.85 2.72-3.18 2.64-5.34a1.12 1.12 0 0 0 -2.23 0 9.24 9.24 0 0 1 -.21 1.79 1.57 1.57 0 0 1 -.79 1.18 3.71 3.71 0 0 1 -3.28-.38 4.66 4.66 0 0 1 -2.18-2.48c0-.1-.17-.71-.11-.7s-.1.2-.1.21 0 0 0 0h.2c.77.07 1.58.27 2.37.38a43.93 43.93 0 0 0 6.17.44.85.85 0 0 0 0-1.7z"/><path d="m129.29 233.88.74-.21h.16s.23 0 .14 0 .08 0 .1 0h.19.13s.19.07.08 0 0 0 0 0l.09.08c.11.11 0-.09 0 0s.06.18 0 0a.9.9 0 0 0 1.1.62l.27-.11a2.11 2.11 0 0 0 .23-.19c-.22.14 0 0 .08 0s.08 0-.05 0h.12s.29-.06.13 0 .1 0 .13 0h.13q-.23 0-.06 0c.06 0 .33.12.07 0l.41.16a.93.93 0 0 0 .9-1.55 2.18 2.18 0 0 0 -1.92-.46 2 2 0 0 0 -1.54 1.14l1.63-.21a2.12 2.12 0 0 0 -1.75-1.11 3.21 3.21 0 0 0 -2.08.64.72.72 0 0 0 -.29.9.71.71 0 0 0 .85.42z" fill="#18c4ff"/><path d="m118 270.55a86 86 0 0 0 1.77-14.55c.08-2.45 0-4.9-.15-7.34-.11-1.77-.35-3.52-1.93-4.58-1.18-.79-2.22 1.08-1.1 1.89.65.47.56 1.74.61 2.44.06 1 .11 2 .14 2.94.07 2.11.1 4.24.08 6.36a116.72 116.72 0 0 1 -.88 12.66c-.11.84 1.31 1 1.48.2z"/><path d="m149.24 271.47c.33-4.72.57-9.46.79-14.19.11-2.22.19-4.43.28-6.65a18 18 0 0 1 1.35-6.2c.51-1.28-1.43-1.93-2.12-.9a12.44 12.44 0 0 0 -1.59 5.82c-.2 2.39-.17 4.8-.2 7.2-.06 5-.11 9.95-.06 14.92a.78.78 0 0 0 1.55 0z"/><path d="m114.77 269.16c.56 3.51 4.19 5.88 6.74 8a36.88 36.88 0 0 0 10 6.15c1.77.68 3.65 1.2 5.48.44a21.09 21.09 0 0 0 4.73-3.31 77.28 77.28 0 0 0 9.21-8.79c1-1.14-.66-2.83-1.69-1.68a76.87 76.87 0 0 1 -7.8 7.62 48 48 0 0 1 -4.31 3.37c-1.69 1.14-3.19.74-5 .08a36.75 36.75 0 0 1 -9-5.3c-2.49-1.84-5.89-3.85-6.92-6.95a.76.76 0 0 0 -1.46.4z"/><path d="m70.26 291.45a.7.7 0 0 0 0-1.4.7.7 0 0 0 0 1.4z"/><path d="m66.92 292.66c-7.73 3.49-13.52 10.34-17.34 17.92s-5.87 15.87-7.9 24.1l-10.56 42.93a238.41 238.41 0 0 0 -5.43 26.39c-1.43 11.15-1.05 23.2 5.1 32.61 7 10.7 19.85 15.8 32.16 19.2a227.65 227.65 0 0 0 84.57 6.92 5.8 5.8 0 0 0 3.41-1.14 5.65 5.65 0 0 0 1.38-3 56.44 56.44 0 0 0 1.4-12.62 9.7 9.7 0 0 0 -.87-4.66c-1-1.74-2.79-2.78-4.58-3.64-6.86-3.32-14.28-5.29-21.56-7.54-22.16-6.86-43.35-16.5-64.46-26.11-1.3.72-.55 3.17.92 3.05q8.61-27.78 16.13-55.86"/><path d="m66.55 292a33.78 33.78 0 0 0 -13.84 11.27 60.23 60.23 0 0 0 -8.54 17.73c-2.17 6.89-3.79 14-5.53 21.08l-5.46 22.19c-3.53 14.29-7.82 28.71-9.1 43.43-1.08 12.3.72 25.3 9.57 34.46 8.23 8.56 20.08 12.5 31.26 15.47a229.22 229.22 0 0 0 43.31 7.12c7.25.49 14.53.64 21.8.43q5.44-.17 10.89-.58c1.73-.14 3.46-.29 5.19-.47a13.33 13.33 0 0 0 4.56-.87c2.86-1.4 3.13-5.24 3.56-8a48.61 48.61 0 0 0 .69-10.57 8.41 8.41 0 0 0 -4.36-7.18 55 55 0 0 0 -9.72-4.18c-6.8-2.42-13.81-4.26-20.65-6.57s-13.86-4.94-20.67-7.7-13.69-5.73-20.46-8.74c-3.37-1.5-6.72-3-10.08-4.53l-4.8-2.19c-1.33-.6-2.58-1.23-3.48.33a3 3 0 0 0 2.47 4.4 1.24 1.24 0 0 0 1.18-.9c5.73-18.51 11.17-37.12 16.18-55.84a1.28 1.28 0 0 0 -2.46-.68q-7.53 28.09-16.06 55.86l1.18-.9c-.25 0-.55-.59-.31-.76h-1.25c12.48 5.68 25 11.36 37.68 16.49 6.22 2.51 12.51 4.89 18.86 7.07s12.94 4 19.37 6.12a86.36 86.36 0 0 1 9.48 3.67 15.84 15.84 0 0 1 3.56 2.07 5.61 5.61 0 0 1 1.86 4.15 45.09 45.09 0 0 1 -.62 9.91 37.19 37.19 0 0 1 -.89 4.42c-.5 1.74-1.5 2.23-3.22 2.44a210.87 210.87 0 0 1 -40.43.72 225.82 225.82 0 0 1 -39.86-6.46c-10.65-2.72-22-6.08-30.29-13.61a31.3 31.3 0 0 1 -8.93-13.89 50.1 50.1 0 0 1 -1.89-17.61c.67-13.37 4.46-26.49 7.64-39.42 3.36-13.71 6.62-27.45 10.11-41.13a96.44 96.44 0 0 1 6.32-18.48 46.3 46.3 0 0 1 10.09-13.57 27.78 27.78 0 0 1 6.82-4.69c.85-.42.11-1.61-.73-1.25z"/><path d="m174.62 437c-3.9-2.17-8.56-1.53-12.73-.54a34.8 34.8 0 0 0 -12.74 5.54c-1.32 1-.18 3.2 1.35 2.3 1.85-1.08 3.59-2.27 5.53-3.22a40.94 40.94 0 0 1 5.65-2.23c3.82-1.19 8.32-2.35 12.11-.51.94.46 1.77-.9.83-1.41z"/><path d="m186.7 443.65c-3.88.06-7.75-.07-11.62-.3-1.9-.11-3.79-.26-5.69-.45s-3.94-.64-5.89-.66a1.05 1.05 0 0 0 -.28 2.06 34.32 34.32 0 0 0 5.72.65q3 .24 5.91.35c4 .14 7.91.05 11.85-.18a.74.74 0 0 0 0-1.47z"/><path d="m180.86 465.84a48.79 48.79 0 0 1 -17.12-.61c-2.74-.53-5.43-1.23-8.11-2s-5.42-1.9-8.17-2.69c-1.38-.41-2.39 1.77-1 2.4a60.26 60.26 0 0 0 8.48 2.83 69.2 69.2 0 0 0 8.87 1.86 51.84 51.84 0 0 0 17.44-.4c.9-.18.51-1.52-.38-1.37z"/><path d="m186.67 450.47a21.91 21.91 0 0 1 -3.78.53c-.63 0-1.27 0-1.91 0a4 4 0 0 0 -2.15.12.91.91 0 0 0 -.19 1.41 3.33 3.33 0 0 0 2.36.47 17.34 17.34 0 0 0 6.06-1.18.71.71 0 0 0 -.37-1.37z"/><path d="m186.32 458.27c-1.55 0-3.09-.12-4.63-.23-.76-.05-1.52-.1-2.27-.18a23.39 23.39 0 0 0 -2.35-.24 1.06 1.06 0 0 0 -.29 2.08 14.41 14.41 0 0 0 2.46.2c.78 0 1.57.05 2.36.05 1.57 0 3.15-.11 4.72-.26a.71.71 0 0 0 0-1.42z"/><path d="m193.29 291.26 48 24.6c5.62 2.88 11.35 5.79 17.59 6.81 8.29 1.35 16.74-.78 24.73-3.39 16.79-5.49 32.77-13.15 48.77-20.64 4.09-1.91 8.55-3.87 13-2.91 5.28 1.15 8.79 6.09 11.3 10.88 1.38 2.63 2.64 5.46 2.55 8.43-.18 5.45-4.75 9.61-9 13-14.08 11.45-28.58 22.68-45 30.38-20.36 9.54-43.27 8.89-64.89 4.69-21.23-4.12-43.78-9.89-62.25-21.5"/><path d="m192.93 291.89c12.38 6.67 24.89 13.09 37.39 19.54 6 3.1 12 6.45 18.15 9.16a38.88 38.88 0 0 0 18.29 3.61c6.52-.42 12.84-2.29 19-4.36s12.46-4.53 18.56-7.1 12.25-5.37 18.31-8.19c3-1.41 6.06-2.83 9.09-4.25a37.45 37.45 0 0 1 9.12-3.41c6-1.06 10.34 3 13.28 7.74a26.08 26.08 0 0 1 3.64 8.11 10.14 10.14 0 0 1 -1.81 7.88 29.63 29.63 0 0 1 -5.71 5.86c-2.38 2-4.8 3.89-7.21 5.81-5 4-10.15 7.89-15.43 11.56-10.33 7.15-21.44 13.93-33.6 17.39-12 3.4-24.59 3.87-36.92 2.75-12.17-1.1-24.26-3.75-36.07-6.82a164.85 164.85 0 0 1 -34.14-12.67c-2.67-1.37-5.29-2.86-7.83-4.45-2-1.27-3.9 1.94-1.88 3.21 10.68 6.71 22.46 11.34 34.54 14.85a268.52 268.52 0 0 0 36.78 8c12.64 1.81 25.51 2.19 38.1-.25s24.33-8.24 35.21-15.13a273.27 273.27 0 0 0 30.83-23c4-3.42 8.16-7.92 7.85-13.59-.18-3.15-1.58-6.08-3.06-8.81a30 30 0 0 0 -4.71-6.67 14.53 14.53 0 0 0 -6.27-3.94 15.48 15.48 0 0 0 -9.27.6 89.19 89.19 0 0 0 -9 4c-3.1 1.45-6.2 2.91-9.31 4.34-12.57 5.82-25.33 11.46-38.62 15.46-6.42 1.93-13.16 3.35-19.9 2.57-6.58-.75-12.59-3.83-18.41-6.78q-19.38-9.86-38.78-19.64c-3.13-1.57-6.28-3.09-9.43-4.62-.83-.4-1.56.8-.73 1.25z"/><path d="m344 299c1.19-4 1.57-8.31 3.12-12.23a14.7 14.7 0 0 1 9.31-8.4 35.58 35.58 0 0 1 7-1.47c1.19-.14 2.4-.29 3.59-.38s2.4-.06 2.53 1.33c.21 2.14-2.72 3.93-4.25 4.91a23.46 23.46 0 0 1 -6.34 2.84 1.18 1.18 0 0 0 -.51 1.94 7 7 0 0 1 1.12 6.78c-.35 1.18 1.51 2 2 .86a8.84 8.84 0 0 0 -1.52-9.28l-.51 1.94c3.93-1.12 8.32-3.24 10.95-6.49a4.88 4.88 0 0 0 1-4.9c-.77-1.87-2.66-2.32-4.51-2.19-8.31.59-17.89 2.48-21.48 11-1.79 4.23-2 8.89-3.08 13.31a.8.8 0 0 0 1.58.43z"/><path d="m379.75 266.21a29.05 29.05 0 0 0 -9.8 3.13 56.9 56.9 0 0 0 -8.95 5.66c-.91.72.26 2.15 1.22 1.58 1.44-.83 2.78-1.86 4.18-2.76s2.83-1.76 4.3-2.56a35.47 35.47 0 0 1 9.23-3.65c.77-.17.62-1.5-.19-1.4z"/><path d="m374.67 279.43a3.6 3.6 0 0 1 1.95 2.74 5.65 5.65 0 0 1 -.09 1.95 10.58 10.58 0 0 1 -.79 2.23 1.07 1.07 0 0 0 .38 1.43 1.05 1.05 0 0 0 1.44-.37 9 9 0 0 0 .92-5.81 4.68 4.68 0 0 0 -3.24-3.51c-.78-.21-1.35 1-.57 1.34z"/><path d="m381.85 286.07a10.24 10.24 0 0 1 -.89 5.29 12.62 12.62 0 0 1 -3.44 4.21c-.81.7.24 2 1.14 1.47a10.3 10.3 0 0 0 3.94-5 11.63 11.63 0 0 0 .69-6.18c-.13-.8-1.53-.62-1.44.2z"/><path d="m382.52 296.61c.62 2.25-1.17 4.23-2.43 5.95a27.94 27.94 0 0 1 -2.16 2.69 3 3 0 0 1 -1.35 1c-.26 0-1.08 0-1-.47.26-1.09-1.17-2.09-2-1.16a28.83 28.83 0 0 1 -7.59 6.46 16.09 16.09 0 0 1 -9.72 1.83c-1.38-.15-1.63 2.06-.32 2.39 7.62 1.94 14.73-3.49 19.31-9l-2-1.15a2.84 2.84 0 0 0 2.27 3.37c1.93.44 3.46-1.11 4.53-2.48a30.94 30.94 0 0 0 3.6-5.35c.73-1.51 1.16-3.38 0-4.79-.48-.59-1.41.05-1.22.72z"/><g fill="#18c4ff"><path d="m135.41 291.16a5.07 5.07 0 0 0 -1.48.81 2 2 0 0 0 -.71 1.64 2 2 0 0 0 1 1.65 1.78 1.78 0 0 0 1.28.15 2.75 2.75 0 0 0 1-.62 1.71 1.71 0 0 0 .58-1.48 2.29 2.29 0 0 0 -.59-1.13l.17.23a.55.55 0 0 1 -.09-.14l.11.26s0 0 0 0v.29-.07.29l-.1.26a.08.08 0 0 1 0 0 1 1 0 0 0 .11-.83 1.11 1.11 0 0 0 -.38-.57 1.1 1.1 0 0 0 -1.43.09 1.31 1.31 0 0 0 -.32 1.28 2.21 2.21 0 0 0 .48.79l-.17-.22a1.2 1.2 0 0 1 .13.21l-.11-.26a.54.54 0 0 1 0 .1v-.29.11-.29.1l.11-.26a.91.91 0 0 1 -.09.17l.17-.22a1.53 1.53 0 0 1 -.29.28l.22-.17a1.32 1.32 0 0 1 -.32.2l.27-.11-.23.07h.29-.17.29-.16l.25.1a.54.54 0 0 1 -.16-.1l.21.17a.87.87 0 0 1 -.16-.17l.16.21a1.71 1.71 0 0 1 -.13-.23l.1.25c0-.1-.06-.2-.08-.3v.27a1.22 1.22 0 0 1 0-.27v.26a2.85 2.85 0 0 1 .11-.39l-.1.23a1.83 1.83 0 0 1 .23-.38l-.14.18a4.48 4.48 0 0 1 .81-.76.64.64 0 0 0 .2-.42.74.74 0 0 0 -.08-.46.88.88 0 0 0 -.26-.25.73.73 0 0 0 -.56-.08z"/><path d="m135.41 302.61a5.07 5.07 0 0 0 -1.48.81 2 2 0 0 0 -.71 1.64 2 2 0 0 0 1 1.65 1.78 1.78 0 0 0 1.28.15 2.75 2.75 0 0 0 1-.62 1.71 1.71 0 0 0 .58-1.48 2.29 2.29 0 0 0 -.59-1.13l.17.23a.55.55 0 0 1 -.09-.14l.11.26s0 0 0-.05v.29-.07.29s0 0 0 0l-.1.26a.08.08 0 0 1 0-.05 1 1 0 0 0 .11-.83 1.11 1.11 0 0 0 -.38-.57 1.1 1.1 0 0 0 -1.43.09 1.31 1.31 0 0 0 -.32 1.28 2.21 2.21 0 0 0 .48.79l-.17-.22a1.2 1.2 0 0 1 .13.21l-.11-.26a.54.54 0 0 1 0 .1v-.29.05-.29.1l.11-.26a.91.91 0 0 1 -.09.17l.17-.22a1.53 1.53 0 0 1 -.29.28l.22-.17a1.32 1.32 0 0 1 -.32.2l.27-.11-.23.07h.29-.17.29-.16l.25.1a.54.54 0 0 1 -.16-.1l.21.17a.87.87 0 0 1 -.16-.17l.16.21a1.71 1.71 0 0 1 -.13-.23l.1.25c0-.1-.06-.2-.08-.3v.27a1.22 1.22 0 0 1 0-.27v.26a2.85 2.85 0 0 1 .11-.39l-.1.23a1.83 1.83 0 0 1 .23-.38l-.14.18a4.48 4.48 0 0 1 .81-.76.64.64 0 0 0 .2-.42.74.74 0 0 0 -.08-.46.88.88 0 0 0 -.26-.25.73.73 0 0 0 -.56-.08z"/><path d="m135.41 314.06a5.07 5.07 0 0 0 -1.48.81 2 2 0 0 0 -.71 1.64 2 2 0 0 0 1 1.65 1.78 1.78 0 0 0 1.28.15 2.75 2.75 0 0 0 1-.62 1.71 1.71 0 0 0 .58-1.48 2.29 2.29 0 0 0 -.59-1.13l.17.23a.55.55 0 0 1 -.09-.14l.11.26s0 0 0-.05v.29-.07.29l-.1.26a.08.08 0 0 1 0-.05 1 1 0 0 0 .11-.83 1.11 1.11 0 0 0 -.38-.57 1.1 1.1 0 0 0 -1.43.09 1.31 1.31 0 0 0 -.32 1.28 2.21 2.21 0 0 0 .48.79l-.17-.22a1.2 1.2 0 0 1 .13.21l-.11-.26a.54.54 0 0 1 0 .1v-.29.11-.29.1l.11-.32a.91.91 0 0 1 -.09.17l.17-.22a1.53 1.53 0 0 1 -.29.28l.22-.17a1.32 1.32 0 0 1 -.32.2l.27-.11-.23.07h.29-.17.29-.16l.25.1a.54.54 0 0 1 -.16-.1l.21.17a.87.87 0 0 1 -.16-.17l.16.21a1.71 1.71 0 0 1 -.13-.23l.1.25c0-.1-.06-.2-.08-.3v.27a1.22 1.22 0 0 1 0-.27v.26a2.85 2.85 0 0 1 .11-.39l-.1.23a1.83 1.83 0 0 1 .23-.38l-.14.18a4.48 4.48 0 0 1 .81-.76.64.64 0 0 0 .2-.42.74.74 0 0 0 -.08-.46.88.88 0 0 0 -.26-.25.73.73 0 0 0 -.56-.08z"/><path d="m654 309.82a305.86 305.86 0 0 1 55.75-59.63c9.09-7.43 20.85-14.71 31.85-10.61 4 1.47 7.74 4.38 11.88 3.64 2.18-.39 4-1.77 5.8-3.12a335.13 335.13 0 0 0 54.2-52.34 37.56 37.56 0 0 0 -9.23-10.88 361.28 361.28 0 0 1 59-19.15 366 366 0 0 1 -15.88 56.76 42.8 42.8 0 0 1 -12.06-8.59c-11.64 19.83-24 39.55-40.24 55.79-5.51 5.49-18.16 15.48-25.38 18.38-7.78 3.14-20.76-5.58-28.13-1.56-21.21 11.57-35.18 31.73-52.39 53-2.07 2.56-4.4 5.27-7.62 6-3.53.76-7.07-1.14-10-3.3a48.68 48.68 0 0 1 -15.82-20.21"/><path d="m654.7 310.26a305.41 305.41 0 0 1 27-32.46 281.62 281.62 0 0 1 30.57-28c5.27-4.09 11.17-7.94 17.75-9.45a19.72 19.72 0 0 1 9.23 0c3.23.82 6 2.73 9.16 3.77a10.35 10.35 0 0 0 8.8-.85 71.4 71.4 0 0 0 8.33-6.3q8.25-6.6 16.06-13.71a337.25 337.25 0 0 0 32.84-34.46 1.46 1.46 0 0 0 .22-1.68 39.74 39.74 0 0 0 -9.45-11.16l-.28 2.18a358.83 358.83 0 0 1 45.32-15.65q6.63-1.8 13.33-3.36l-1.71-1.71a369.68 369.68 0 0 1 -15.87 56.7l2-.83a42.57 42.57 0 0 1 -11.78-8.38 1.41 1.41 0 0 0 -2.19.28c-9.34 15.91-19.03 31.74-31.03 45.81a126.24 126.24 0 0 1 -16.27 16.18c-2.91 2.36-5.9 4.61-9 6.7a46.91 46.91 0 0 1 -8.3 4.78c-2.71 1.12-5.75.7-8.54.13-3.38-.68-6.68-1.72-10.08-2.32-2.92-.52-6.09-.81-8.91.33a33.81 33.81 0 0 0 -5 2.8c-1.73 1.07-3.43 2.22-5.08 3.41-13.75 10-24.43 23.36-34.89 36.54-2.82 3.55-5.62 7.11-8.47 10.63-2.49 3.08-5.44 6.79-9.89 5.95-4.21-.79-8-4.25-10.91-7.15a47.4 47.4 0 0 1 -7.74-9.92 46.61 46.61 0 0 1 -2.75-5.47c-.7-1.64-3.43-.92-2.72.75a50.35 50.35 0 0 0 15.34 20.24c3.42 2.67 7.61 5.26 12.15 4.28 4.15-.9 6.87-4.63 9.37-7.74 11.12-13.85 21.68-28.48 35.11-40.23a93.39 93.39 0 0 1 9.9-7.59c2.82-1.86 5.94-4.31 9.45-4.46 6.81-.31 13.18 3.38 20 3.32 3.12 0 5.79-1.27 8.47-2.77a89.43 89.43 0 0 0 9.06-6 121.44 121.44 0 0 0 16.66-14.73c12.88-13.82 23.25-29.72 32.92-45.89q1.83-3.08 3.65-6.17l-2.19.28a44.9 44.9 0 0 0 12.34 8.82 1.43 1.43 0 0 0 2-.84 369.64 369.64 0 0 0 15.87-56.76 1.41 1.41 0 0 0 -1.71-1.71 361.33 361.33 0 0 0 -46.44 14.13q-6.5 2.46-12.87 5.16a1.39 1.39 0 0 0 -.28 2.18 37.63 37.63 0 0 1 9 10.6l.21-1.68a338 338 0 0 1 -29.2 31.11q-7.71 7.22-15.86 14-4.18 3.47-8.5 6.79c-2.73 2.11-5.41 4-9 3-3.06-.83-5.73-2.69-8.75-3.66a21.22 21.22 0 0 0 -9.47-.69c-6.55.93-12.56 4.33-17.86 8.15a182 182 0 0 0 -15.72 13.11c-5.25 4.74-10.35 9.67-15.24 14.78a309.2 309.2 0 0 0 -29.65 36.05c-.65.93.86 1.79 1.51.88z"/><path d="m361.72 404.34h265.58v19.35h-265.58z"/><path d="m627.3 421.59h-254.8c-3.43 0-6.9-.17-10.33 0h-.45l2.1 2.1v-19.35l-2.1 2.1h254.8c3.43 0 6.91.17 10.33 0h.45l-2.1-2.1v19.35c0 2.7 4.2 2.7 4.2 0v-19.35a2.13 2.13 0 0 0 -2.1-2.1h-254.8c-3.44 0-6.89-.07-10.33 0h-.45a2.13 2.13 0 0 0 -2.1 2.1v19.35a2.13 2.13 0 0 0 2.1 2.1h254.8c3.44 0 6.89.06 10.33 0h.45c2.7 0 2.7-4.2 0-4.2z"/></g><path d="m627.3 508.43h-254.8c-3.43 0-6.9-.17-10.33 0h-.45l2.1 2.1v-101.86a38.3 38.3 0 0 0 0-4.15v-.18l-2.1 2.1h254.8c3.43 0 6.91.17 10.33 0h.45l-2.1-2.1v93.12c0 4.28-.17 8.6 0 12.88a1.21 1.21 0 0 1 0 .19c0 2.7 4.2 2.7 4.2 0v-93.13c0-4.28.18-8.6 0-12.88v-.18a2.13 2.13 0 0 0 -2.1-2.1h-254.8c-3.44 0-6.89-.07-10.33 0h-.45a2.13 2.13 0 0 0 -2.1 2.1v93.12c0 4.28-.17 8.6 0 12.88v.19a2.13 2.13 0 0 0 2.1 2.1h254.8c3.44 0 6.89.06 10.33 0h.45c2.7 0 2.7-4.2 0-4.2z"/><path d="m492.72 508.43h-44.86l2.1 2.1v-101.87c0-1.35.13-2.79 0-4.14a1.08 1.08 0 0 1 0-.18l-2.1 2.1h44.86l-2.1-2.1v93.09c0 4.29-.17 8.62 0 12.91v.19c0 2.7 4.2 2.7 4.2 0v-93.1c0-4.29.17-8.62 0-12.91v-.18a2.13 2.13 0 0 0 -2.1-2.1h-44.86a2.13 2.13 0 0 0 -2.11 2.1v93.09c0 4.29-.17 8.62 0 12.91a1.21 1.21 0 0 1 0 .19 2.14 2.14 0 0 0 2.11 2.1h44.86c2.7 0 2.7-4.2 0-4.2z"/><path d="m537.58 508.43h-44.86l2.1 2.1v-101.87a40.83 40.83 0 0 0 0-4.14 1.08 1.08 0 0 1 0-.18l-2.1 2.1h44.86l-2.1-2.1v93.09c0 4.29-.17 8.62 0 12.91v.19c0 2.7 4.2 2.7 4.2 0v-93.1c0-4.29.17-8.62 0-12.91v-.18a2.13 2.13 0 0 0 -2.1-2.1h-44.86a2.13 2.13 0 0 0 -2.1 2.1v93.09c0 4.29-.17 8.62 0 12.91v.19a2.13 2.13 0 0 0 2.1 2.1h44.86c2.7 0 2.71-4.2 0-4.2z"/><path d="m582.44 508.43h-44.86l2.1 2.1v-101.87a40.83 40.83 0 0 0 0-4.14 1.08 1.08 0 0 1 0-.18l-2.1 2.1h44.86l-2.1-2.1v93.09c0 4.29-.17 8.62 0 12.91v.19c0 2.7 4.2 2.7 4.2 0v-93.1c0-4.29.17-8.62 0-12.91v-.18a2.13 2.13 0 0 0 -2.1-2.1h-44.86a2.13 2.13 0 0 0 -2.1 2.1v93.09c0 4.29-.17 8.62 0 12.91v.19a2.13 2.13 0 0 0 2.1 2.1h44.86c2.7 0 2.71-4.2 0-4.2z"/><path d="m627.3 508.43h-44.86l2.1 2.1v-101.87a40.83 40.83 0 0 0 0-4.14v-.18l-2.1 2.1h44.86l-2.1-2.1v93.09c0 4.29-.17 8.62 0 12.91a1.21 1.21 0 0 1 0 .19c0 2.7 4.2 2.7 4.2 0v-93.1c0-4.29.17-8.62 0-12.91v-.18a2.13 2.13 0 0 0 -2.1-2.1h-44.86a2.13 2.13 0 0 0 -2.1 2.1v93.09c0 4.29-.17 8.62 0 12.91v.19a2.13 2.13 0 0 0 2.1 2.1h44.86c2.7 0 2.7-4.2 0-4.2z"/><path d="m179.13 407.12c-3.14 9.37-6.09 18.79-9 28.23-.42 1.36 1.72 1.95 2.13.58 2.84-9.45 5.63-18.91 8.22-28.43a.71.71 0 0 0 -1.37-.38z"/><g fill="#18c4ff"><path d="m81.9 345.61a375 375 0 0 0 -11.35 36.46l.45-.58-.84.54a1 1 0 0 0 1 1.68 3 3 0 0 0 1.26-1 11.88 11.88 0 0 0 .65-2.46c.4-1.56.81-3.11 1.23-4.67.91-3.34 1.82-6.69 2.79-10q2.88-9.87 6.26-19.56c.32-.91-1.11-1.29-1.43-.4z"/><path d="m70.86 388.53.8-.77a.75.75 0 0 0 .18-.28.65.65 0 0 0 .07-.34.62.62 0 0 0 -.07-.33.68.68 0 0 0 -.18-.28l-.18-.14a.86.86 0 0 0 -.44-.12h-.23a.86.86 0 0 0 -.39.23l-.77.79a1.09 1.09 0 0 0 -.25.61.61.61 0 0 0 .08.32.62.62 0 0 0 .17.28l.18.13a.8.8 0 0 0 .43.12h.22a.91.91 0 0 0 .38-.22z"/><path d="m190.52 313.5c2 5.94 4.86 11.54 6.86 17.48a43.13 43.13 0 0 1 2.11 9 29.34 29.34 0 0 1 -.66 9.34.92.92 0 0 0 1.77.49c2.11-5.8.76-12.86-1.17-18.51-2.12-6.23-5.27-12-7.49-18.23-.32-.88-1.72-.52-1.42.38z"/><path d="m134.19 333q4 5.11 8.18 10.17a23 23 0 0 1 1.89 2.41 3.22 3.22 0 0 1 .15 3.22c-.76 1.81-1.65 3.57-2.39 5.4a80.35 80.35 0 0 0 -5.53 23.07 84.43 84.43 0 0 0 -.15 13.77c.09 1.18 1.91 1.21 1.86 0a88.35 88.35 0 0 1 2.48-25 89.3 89.3 0 0 1 3.87-12c.75-1.86 1.94-3.76 2.31-5.75a5.56 5.56 0 0 0 -1.57-4.69c-3.24-3.95-6.69-7.73-10.08-11.54-.63-.71-1.58.31-1 1z"/></g><g fill="#fff"><path d="m53.67 715.58a26.57 26.57 0 0 0 25.33 12.84c2.19-.19 4.42-.5 6.56.17a15.7 15.7 0 0 1 4.21 2.3c2.53 1.8 5 4 8.15 4.59 3.52.7 6.88-.58 10-2s6.5-3.14 10.19-3.3a28.93 28.93 0 0 1 9.92 1.64c6.33 2 12.55 5.05 19.29 5.26a22.82 22.82 0 0 0 9.88-2.15c3.28-1.42 6.45-3.27 10-4 7-1.53 12.76 3.44 19 5.49a14.28 14.28 0 0 0 9.65-.08c3.42-1.3 6.48-3.54 10.15-4.11 6.93-1.09 14.55 2.54 21-1.32 1.47-.87 2.71-2.09 4.21-2.91 1.88-1 3.42-.47 5.18.49a13.24 13.24 0 0 0 9.65 1.47 12.59 12.59 0 0 0 4.45-2.07c1-.72 0-2.39-1-1.66a11 11 0 0 1 -9.78 1.68c-1.67-.52-3.06-1.64-4.72-2.18a5.87 5.87 0 0 0 -4.46.44 39.5 39.5 0 0 0 -4.06 2.79 11 11 0 0 1 -5 1.75c-3.51.37-7-.31-10.54-.52a20.42 20.42 0 0 0 -10.06 1.7c-3.33 1.51-6.5 3.62-10.3 3.45-6.49-.29-11.69-5.31-18-6.39-7.21-1.24-12.89 3.56-19.45 5.5s-13.2-.47-19.38-2.7c-6-2.17-12.45-4.52-18.93-3.1-3.5.76-6.58 2.69-9.9 4s-6.58 1.49-9.76-.38c-2.75-1.62-5-3.93-8-5.18-3.59-1.52-7.29-.42-11-.43a25.77 25.77 0 0 1 -18-7.68 24.73 24.73 0 0 1 -3.2-4.07c-.51-.8-1.78-.07-1.28.75z"/><path d="m257.92 726.52a1.76 1.76 0 0 0 .92 1.17 2 2 0 0 0 .84.24 2.09 2.09 0 0 0 .43 0 1.57 1.57 0 0 0 .43-.15.8.8 0 0 0 -.19-1.46.86.86 0 0 0 -.61.08h-.09l.19-.08a.77.77 0 0 1 -.26.07h.21a.88.88 0 0 1 -.28 0h.2a1.11 1.11 0 0 1 -.3-.08l.18.08a1.61 1.61 0 0 1 -.28-.17l.15.12-.19-.19.11.15a.94.94 0 0 1 -.12-.22l.07.17a.42.42 0 0 1 0-.1.72.72 0 0 0 -.33-.43.71.71 0 0 0 -1 .26.78.78 0 0 0 -.07.54z"/><path d="m58.92 666a36.2 36.2 0 0 0 33.36 12.22c7.17-1.23 14.63-5.18 22-2.6 5.54 1.94 10 6.87 16.16 7 3.3.08 6.26-1.47 9.17-2.84a18.83 18.83 0 0 1 9.66-2c6.35.44 12.38 3.26 18.81 3.05a16.84 16.84 0 0 0 8.32-2.55c2.44-1.48 4.66-3.36 7.24-4.6a9 9 0 0 1 4-1 10.79 10.79 0 0 1 4.93 1.71c3.06 1.7 5.85 2.89 9.44 2.41 4.25-.58 8.23-2.63 12.28-4a104.42 104.42 0 0 1 12.55-3.32 106.24 106.24 0 0 1 26-1.89c1.29.06 1.28-1.93 0-2a107.54 107.54 0 0 0 -44.73 7.45c-3.43 1.33-7.27 2.8-11 1.58-3.08-1-5.53-3.41-8.87-3.74-5.89-.6-10.09 4.76-15 6.95-5.93 2.63-12.56.2-18.5-1.06a28.89 28.89 0 0 0 -9.26-.76c-3.14.37-5.85 1.76-8.68 3.08-3.16 1.47-6.25 2.25-9.66 1.13-2.84-.94-5.33-2.7-7.92-4.17a20.68 20.68 0 0 0 -8.84-3 31.7 31.7 0 0 0 -10.27 1.48c-3.9 1-7.76 2.24-11.82 2.48a34.05 34.05 0 0 1 -10.3-1 34.71 34.71 0 0 1 -17.99-11.01c-.61-.72-1.63.32-1 1z"/><path d="m59.92 618.8a27.48 27.48 0 0 0 19.34 2.57c3.5-.77 7.07-2 10.7-1.68s6.22 2.82 9.36 4.26c5.58 2.58 11.56 1 17.14-.72a56.42 56.42 0 0 1 9.39-2.38 22.31 22.31 0 0 1 9.72 1.14c3.18 1 6.3 2.27 9.62 2.74s6.59-.24 9.87-1.25a26.46 26.46 0 0 1 9.82-1.43 78.57 78.57 0 0 1 9 1.38c5.6 1 11.78 2 16.92-1.12 2.45-1.47 4.35-3.93 7-5 3.22-1.28 6 1.33 9.12 1.77s6.27-.66 9.24-1.66c3.53-1.18 6.77-2 10.36-.63a20.57 20.57 0 0 0 5.17 1.62 12.86 12.86 0 0 0 5.43-.68c3.53-1.2 6.57-3.45 9.49-5.72 1-.75-.39-2.09-1.35-1.35-2.74 2.14-5.68 4.32-9 5.36a10.61 10.61 0 0 1 -4.68.46 25.06 25.06 0 0 1 -4.92-1.68 13.36 13.36 0 0 0 -8.41 0c-2.93.82-5.8 2.2-8.86 2.47a9.36 9.36 0 0 1 -4.19-.6 21.72 21.72 0 0 0 -4.49-1.56c-2.79-.38-5.09 1.09-7.17 2.76-2.34 1.88-4.47 3.64-7.47 4.32a23.73 23.73 0 0 1 -8.61 0c-5.87-.89-11.8-2.68-17.78-1.79-3.38.51-6.52 2-9.89 2.54s-6.86-.44-10.13-1.52a45.83 45.83 0 0 0 -9.12-2.44 25.29 25.29 0 0 0 -8.82.84c-5.82 1.46-11.89 4.52-18 3.64-3.64-.53-6.35-2.92-9.6-4.38s-6.93-1.29-10.46-.51c-3.84.85-7.51 2-11.48 2a25.32 25.32 0 0 1 -11.49-3c-.83-.43-1.57.82-.74 1.27z"/><path d="m64.06 566.22c2.08 4.71 8.32 4.83 12.58 3.62 3.45-1 6.91-2.74 10.57-2.51 3.27.21 5.66 2.48 8.2 4.28a14.73 14.73 0 0 0 8.11 2.81 32.74 32.74 0 0 0 8.9-1.24 58.13 58.13 0 0 1 9.41-1.82 20.23 20.23 0 0 1 9.17 1.74c3.1 1.28 6.11 2.88 9.42 3.53a24.47 24.47 0 0 0 9.53-.28c6.59-1.3 13-4 19.79-2.24 3.31.85 6.59 2.21 10.07 1.79 2.91-.36 5.51-1.8 8.14-3 2.78-1.23 5.56-2 8.46-.67 2.63 1.21 5.14 2.89 8.11 1.73a27.72 27.72 0 0 0 4.1-2.5 11.47 11.47 0 0 1 4.18-1.46 35.29 35.29 0 0 1 8.53.08c5.14.43 11.32 1 14.88-3.53.73-.93-.58-2.25-1.31-1.31-3.13 4-8.55 3.4-13.07 3-4.85-.4-10.16-.95-14.46 1.82a18.34 18.34 0 0 1 -3.68 2.25c-1.63.56-3.17-.08-4.63-.81-2.54-1.27-4.81-2.21-7.7-1.68s-5.3 2-7.89 3.12a13.67 13.67 0 0 1 -9.39.49c-3.18-.86-6.23-1.87-9.56-1.79a41.85 41.85 0 0 0 -9.3 1.55 53.65 53.65 0 0 1 -9.63 1.91 20.85 20.85 0 0 1 -9.46-1.79c-3-1.22-5.84-2.74-9-3.43a22.18 22.18 0 0 0 -8.63 0c-5.7 1-11.79 3.72-17.62 2.28-3.4-.84-5.71-3.39-8.63-5.12-3.15-1.87-6.59-1.82-10-.85s-6.44 2.55-9.93 2.63c-2.77.07-5.72-.7-7-3.42-.4-.87-1.66-.12-1.28.75z"/><path d="m72.71 522.37c3.39 3.82 8.78 4.25 13.54 3.53 6.21-.95 12.28-4.45 18.7-3.26 5.53 1 10.06 5.06 15.94 4.52s10.71-4.24 16.49-4.39 11.36 3.35 17.33 2.7c2.8-.3 5.27-1.6 7.84-2.65a11 11 0 0 1 8.1-.59c2.47.85 4.7 2.28 7.2 3a10.44 10.44 0 0 0 6.74-.13c4.13-1.51 7.23-5 11.36-6.43 2.67-1 4.62-.09 6.85 1.47a7 7 0 0 0 6.6 1.24 28.14 28.14 0 0 0 5.91-3.42c1.7-1.1 3.84-2.43 5.91-1.54 1.09.46 2-1.14.94-1.61-3.9-1.66-7.24 1.28-10.35 3.28-1.57 1-3.42 2.12-5.36 1.81-2.49-.41-4.14-2.82-6.65-3.35-4.17-.87-7.87 2.13-11.12 4.28a18.69 18.69 0 0 1 -5.86 2.91c-2.59.6-5-.33-7.37-1.41s-4.53-2.24-7-2.5c-2.7-.28-5.23.71-7.65 1.77-2.78 1.2-5.4 2.27-8.48 2.08s-5.83-1.2-8.7-1.91a21.19 21.19 0 0 0 -8.23-.64 41.93 41.93 0 0 0 -8.12 2.51 20.8 20.8 0 0 1 -8.31 1.76c-3-.16-5.67-1.55-8.33-2.7a19.94 19.94 0 0 0 -9.5-2 50.33 50.33 0 0 0 -10.19 2.33c-5.47 1.6-12.73 3-17-1.85-.68-.77-1.81.36-1.13 1.12z"/><path d="m81.1 484.36c5.49 4.2 12.82-.42 18.39-2.05 3.55-1 6.76-1.12 9.76 1.28 1.57 1.24 3.11 2.38 5.2 2.31a15.11 15.11 0 0 0 5.46-1.7c2-.9 4.06-1.59 6.28-.86 2 .67 3.79 2 5.87 2.53 4.66 1.19 8.33-2.79 12.72-3.5 4.64-.76 9.37.73 13.85 1.74s9 1.66 13.55.4c2.77-.77 5.67-2.1 8.59-1.46 2.69.58 4.85 2 7.68 1.06s5.26-2.66 8.06-3.63a33 33 0 0 1 8.91-1.71c1.16-.06 1.17-1.88 0-1.81a34.9 34.9 0 0 0 -14.42 4.04 15.77 15.77 0 0 1 -3.38 1.52 7.08 7.08 0 0 1 -4.3-.53 11.89 11.89 0 0 0 -6.93-.51c-2.43.54-4.74 1.58-7.23 1.9a23.24 23.24 0 0 1 -6.91-.32c-4.46-.78-8.81-2.24-13.35-2.56a17.73 17.73 0 0 0 -6.36.62c-2.22.68-4.11 2.06-6.28 2.83-2.46.88-4.46.13-6.68-1-1.8-.9-3.67-1.81-5.73-1.68-3.83.24-7.93 4.43-11.71 2.31-1.68-.94-2.92-2.4-4.76-3.1a10 10 0 0 0 -4.48-.5c-3.78.38-7.25 2.08-10.79 3.31-3.36 1.17-7.14 2.14-10.23-.18-.74-.57-1.45.69-.73 1.24z"/><path d="m208.59 479.45h1.56a.91.91 0 0 0 .61-.25.87.87 0 0 0 -.61-1.48h-1.56a.93.93 0 0 0 -.61.25.88.88 0 0 0 0 1.23.93.93 0 0 0 .61.25z"/><path d="m177.22 425.56a13.27 13.27 0 0 0 9.57.86 30.34 30.34 0 0 0 4.35-2.06c1.12-.54 4-1.05 3.87 1.06a.88.88 0 0 0 1.09.83c1.12-.23 2.23-.48 3.34-.74s.59-1.78-.43-1.58-2.25.43-3.37.67l1.09.82a3.17 3.17 0 0 0 -2.3-3c-1.66-.58-3.29.09-4.74.91a13.85 13.85 0 0 1 -5.55 2.07 11.66 11.66 0 0 1 -6.18-1.07c-.85-.4-1.59.85-.74 1.27z"/><path d="m196.67 454.29a15.59 15.59 0 0 0 10-1.47c1-.51.11-2-.86-1.48a13.72 13.72 0 0 1 -8.76 1.41.81.81 0 0 0 -1 .56.8.8 0 0 0 .56 1z"/></g></svg>